<svg xmlns="http://www.w3.org/2000/svg" xmlns:xlink="http://www.w3.org/1999/xlink" version="1.1" width="600pt" height="412.08pt" viewBox="0 0 600 412.08">
<defs>
<clipPath id="clip_1">
<path transform="matrix(.24,0,0,.24,0,0)" d="M0 0H2500V1715.625H0Z" fill-rule="evenodd"/>
</clipPath>
<clipPath id="clip_2">
<path transform="matrix(.24,0,0,.24,0,0)" d="M25 25H2475V1687.5H25Z" fill-rule="evenodd"/>
</clipPath>
<path id="font_3_44" d="M.092285159 0V.68847659H.18554688V0H.092285159Z"/>
<path id="font_3_51" d="M.6142578 .48120118C.6142578 .4160258 .5930176 .36420695 .5505371 .32574464 .50805667 .28729249 .45035807 .2680664 .3774414 .2680664H.17529297V0H.08203125V.68847659H.37158204C.44873048 .68847659 .50846359 .67038986 .55078127 .6342163 .59309896 .5980428 .6142578 .5470378 .6142578 .48120118M.5205078 .4802246C.5205078 .5692546 .4671224 .61376956 .36035157 .61376956H.17529297V.34179688H.3642578C.46842448 .34179688 .5205078 .38793946 .5205078 .4802246Z"/>
<path id="font_3_3" d="M0 0Z"/>
<path id="font_3_81" d="M.40283204 0V.33496095C.40283204 .36979167 .39941407 .3968099 .39257813 .41601563 .3857422 .43522135 .37483726 .449056 .35986329 .45751954 .3448893 .46598307 .32291667 .47021485 .2939453 .47021485 .2516276 .47021485 .21826172 .45572917 .19384766 .4267578 .1694336 .39778648 .15722656 .35758464 .15722656 .30615235V0H.06933594V.41552735C.06933594 .47705079 .068359378 .51464846 .06640625 .5283203H.14941406C.14973958 .5266927 .15006511 .52229818 .15039063 .5151367 .15071614 .5079753 .15112305 .49975587 .15161133 .49047853 .15209961 .48120118 .15266927 .46370445 .15332031 .43798829H.15478516C.17496746 .47444663 .19832357 .50024417 .22485352 .51538088 .25138346 .5305176 .28434245 .53808596 .32373048 .53808596 .3816732 .53808596 .42407228 .52368167 .45092774 .49487306 .4777832 .46606446 .49121095 .41845704 .49121095 .35205079V0H.40283204Z"/>
<path id="font_3_72" d="M.13476563 .24609375C.13476563 .18539429 .14729817 .13855998 .17236328 .10559082 .19742839 .072631839 .23404949 .056152345 .28222657 .056152345 .3203125 .056152345 .35083009 .06384786 .3737793 .07923889 .39672853 .09462992 .41227214 .114115398 .42041017 .13769531L.4975586 .11564636C.46598307 .032038373 .39420573-.009765625 .28222657-.009765625 .20410156-.009765625 .14461263 .013509114 .103759769 .060058595 .0629069 .10660807 .04248047 .17578125 .04248047 .26757813 .04248047 .35481773 .0629069 .42171226 .103759769 .46826173 .14461263 .5148112 .20296224 .53808596 .2788086 .53808596 .43408204 .53808596 .51171877 .44465638 .51171877 .25779725V.24609375H.13476563M.42089845 .31347657C.41601563 .36896769 .40185548 .40944926 .37841798 .43492127 .35498048 .46040345 .32128907 .47314454 .27734376 .47314454 .23470052 .47314454 .20092774 .4589437 .17602539 .430542 .15112305 .40215049 .13769531 .36312867 .13574219 .31347657H.42089845Z"/>
<path id="font_3_87" d="M.2705078 .00390625C.24153646-.00390625 .21191406-.0078125 .18164063-.0078125 .111328128-.0078125 .076171878 .0320638 .076171878 .111816409V.46435548H.015136719V.5283203H.079589847L.10546875 .6464844H.1640625V.5283203H.26171876V.46435548H.1640625V.13085938C.1640625 .10546875 .16821289 .087646488 .17651367 .07739258 .18481446 .06713867 .19921875 .06201172 .21972656 .06201172 .23144531 .06201172 .24837239 .06429037 .2705078 .068847659V.00390625Z"/>
<path id="font_3_90" d="M.5732422 0H.4711914L.37890626 .37353517 .36132813 .4560547C.35839845 .44140626 .35384117 .42032878 .34765626 .39282228 .34147135 .36531578 .30826823 .234375 .24804688 0H.14648438L-.0014648438 .5283203H.08544922L.17480469 .1694336C.17708333 .1616211 .18408203 .12939453 .19580078 .072753909L.20410156 .10888672 .31445313 .5283203H.4086914L.50097659 .16552735 .5234375 .072753909 .5385742 .140625 .6386719 .5283203H.7246094L.5732422 0Z"/>
<path id="font_3_82" d="M.51416018 .26464845C.51416018 .17220052 .4938151 .10335287 .453125 .05810547 .4124349 .012858073 .35335288-.009765625 .2758789-.009765625 .19873047-.009765625 .14046224 .013753255 .10107422 .060791017 .0616862 .10782877 .041992189 .17578125 .041992189 .26464845 .041992189 .4469401 .12093099 .53808596 .2788086 .53808596 .35953776 .53808596 .4189453 .51586917 .45703126 .47143556 .4951172 .42700196 .51416018 .3580729 .51416018 .26464845M.421875 .26464845C.421875 .3375651 .41105143 .3905436 .3894043 .42358399 .36775718 .45662437 .33138023 .47314454 .28027345 .47314454 .22884114 .47314454 .19165039 .45629884 .16870117 .42260743 .14575196 .38891603 .13427735 .33626304 .13427735 .26464845 .13427735 .19498699 .14558919 .1426595 .16821289 .107666019 .1908366 .07267252 .22639974 .05517578 .27490235 .05517578 .32763673 .05517578 .36531578 .07210287 .38793946 .10595703 .41056315 .1398112 .421875 .19270833 .421875 .26464845Z"/>
<path id="font_3_85" d="M.06933594 0V.40527345C.06933594 .4423828 .068359378 .48339845 .06640625 .5283203H.14941406C.15201824 .46842448 .15332031 .43245445 .15332031 .42041017H.15527344C.16927083 .46565757 .18538411 .49658204 .20361328 .5131836 .22184246 .52978518 .2475586 .53808596 .28076173 .53808596 .29248048 .53808596 .30436198 .5364583 .31640626 .5332031V.45263673C.3046875 .45589195 .2890625 .45751954 .26953126 .45751954 .23307292 .45751954 .20524089 .44181315 .18603516 .4104004 .16682942 .37898765 .15722656 .33398438 .15722656 .27539063V0H.06933594Z"/>
<path id="font_3_78" d="M.3984375 0 .21972656 .24121094 .15527344 .18798828V0H.06738281V.7246094H.15527344V.27197267L.38720704 .5283203H.49023438L.2758789 .30126954 .50146487 0H.3984375Z"/>
<path id="font_3_43" d="M.5473633 0V.31933595H.17529297V0H.08203125V.68847659H.17529297V.39746095H.5473633V.68847659H.640625V0H.5473633Z"/>
<path id="font_3_55" d="M.3515625 .6123047V0H.25878907V.6123047H.022460938V.68847659H.5878906V.6123047H.3515625Z"/>
<path id="font_3_48" d="M.6669922 0V.4593506C.6669922 .51017257 .66845706 .5590413 .6713867 .60595706 .6554362 .54763796 .6411133 .5020294 .62841799 .46913148L.4506836 0H.3852539L.20507813 .46913148 .17773438 .5522003 .1616211 .60595706 .16308594 .55171206 .16503906 .4593506V0H.08203125V.68847659H.20458985L.3876953 .21102906C.39420573 .19180298 .40047203 .17119344 .40649415 .14920044 .41251628 .1272176 .4165039 .111338298 .41845704 .1015625 .4210612 .114593509 .42651368 .13438416 .43481446 .16093445 .44311524 .18748474 .44873048 .20418294 .45166017 .21102906L.63134768 .68847659H.75097659V0H.6669922Z"/>
<path id="font_3_52" d="M.72998049 .34716798C.72998049 .25016276 .7055664 .17041016 .6567383 .107910159 .60791018 .045410158 .54003909 .008463542 .453125-.0029296876 .46647135-.044118246 .4839681-.07386271 .50561526-.092163089 .5272624-.11047363 .5546875-.119628909 .5878906-.119628909 .60579428-.119628909 .6245117-.11751302 .64404299-.11328125V-.17871094C.61376956-.18587239 .58479818-.18945313 .5571289-.18945313 .5079753-.18945313 .4675293-.17549642 .43579103-.14758301 .40405274-.11967977 .37809245-.0730896 .35791017-.0078125 .29345704-.0045572917 .23787435 .01180013 .19116211 .041259767 .14444988 .0707194 .108805339 .11173502 .084228519 .16430664 .05965169 .21687825 .04736328 .27783204 .04736328 .34716798 .04736328 .457194 .07747396 .5432129 .13769531 .6052246 .19791667 .6672363 .28173829 .6982422 .38916017 .6982422 .45914714 .6982422 .51985678 .6843262 .57128909 .65649417 .6227214 .6286621 .662028 .5882161 .689209 .53515627 .71638998 .48209635 .72998049 .4194336 .72998049 .34716798M.6347656 .34716798C.6347656 .43277995 .6133626 .5 .57055667 .5488281 .5277507 .59765627 .46728517 .6220703 .38916017 .6220703 .31038413 .6220703 .24951172 .59798178 .20654297 .5498047 .16357422 .5016276 .14208985 .43408204 .14208985 .34716798 .14208985 .26090495 .16381836 .19246419 .20727539 .1418457 .25073243 .09122721 .31103517 .06591797 .3881836 .06591797 .4676107 .06591797 .52856448 .090413417 .5710449 .1394043 .6135254 .18839519 .6347656 .25764976 .6347656 .34716798Z"/>
<path id="font_3_39" d="M.6743164 .35131837C.6743164 .28030396 .66048178 .21816509 .6328125 .16490174 .60514327 .11164856 .56591799 .07085165 .5151367 .042510988 .46435548 .014170329 .40576173 0 .33935548 0H.08203125V.68847659H.3095703C.42610679 .68847659 .5160319 .6592407 .5793457 .60076907 .6426595 .54229739 .6743164 .45914714 .6743164 .35131837M.5805664 .35131837C.5805664 .4366862 .55721029 .50177 .51049807 .5465698 .4637858 .5913696 .39615885 .61376956 .3076172 .61376956H.17529297V.07470703H.32861329C.379069 .07470703 .42342124 .08578491 .46166993 .107940677 .4999186 .13009644 .5292969 .1620229 .5498047 .2037201 .5703125 .24542745 .5805664 .29462687 .5805664 .35131837Z"/>
<path id="font_3_76" d="M.06689453 .640625V.7246094H.15478516V.640625H.06689453M.06689453 0V.5283203H.15478516V0H.06689453Z"/>
<path id="font_3_86" d="M.4638672 .14613343C.4638672 .09628805 .44506837 .057840986 .4074707 .030792237 .36987306 .003753662 .31722007-.009765625 .24951172-.009765625 .18375652-.009765625 .13305664 .0010579428 .09741211 .022705079 .061767579 .044352216 .03857422 .078125 .027832032 .12402344L.10546875 .13916016C.11295573 .110839847 .12841797 .09008789 .15185547 .0769043 .17529297 .0637207 .20784505 .057128908 .24951172 .057128908 .29410807 .057128908 .32674156 .063975017 .3474121 .07766724 .36808268 .09136963 .37841798 .11191305 .37841798 .13929749 .37841798 .16015117 .3712565 .1770935 .3569336 .19012451 .3426107 .20315552 .3194987 .21390789 .28759767 .22238159L.22460938 .23899842C.17415364 .25202943 .13826497 .26481629 .11694336 .277359 .09562174 .28990174 .078938808 .30513 .06689453 .32304383 .05485026 .3409678 .048828126 .36296083 .048828126 .38902284 .048828126 .43725077 .06599935 .47398887 .1003418 .49923707 .13468425 .5244853 .18473308 .5371094 .25048829 .5371094 .3087565 .5371094 .35506187 .52685549 .3894043 .50634768 .42374674 .48583985 .44547526 .45296226 .45458985 .40771485L.37548829 .39794923C.37060548 .42138673 .35750328 .43937174 .33618165 .4519043 .31486003 .46443687 .28629557 .47070313 .25048829 .47070313 .21077474 .47070313 .18147786 .4646708 .16259766 .4526062 .14371746 .4405416 .13427735 .4222819 .13427735 .39782716 .13427735 .38284303 .1381836 .37046305 .1459961 .36068727 .1538086 .35091148 .16536458 .3426005 .18066406 .3357544 .19596355 .32891847 .22819011 .31947328 .27734376 .30741883 .32389323 .2956899 .35742188 .28485618 .3779297 .2749176 .3984375 .26497904 .41463218 .25398255 .42651368 .2419281 .43839518 .22987366 .44759117 .21594239 .45410157 .20013428 .46061198 .18433635 .4638672 .16633606 .4638672 .14613343Z"/>
<path id="font_3_83" d="M.51416018 .2668457C.51416018 .08243815 .4493815-.009765625 .31982423-.009765625 .23844402-.009765625 .18375652 .020858765 .15576172 .082107547H.15332031C.15462239 .07950338 .15527344 .051778158 .15527344-.0010681152V-.20800781H.06738281V.42033387C.06738281 .47473655 .06640625 .510732 .064453128 .5283203H.14941406C.14973958 .5270284 .15022786 .5224101 .1508789 .51446536 .15152996 .50653079 .15226238 .4942983 .15307617 .47776795 .15388997 .46124778 .15429688 .4499105 .15429688 .4437561H.15625C.171875 .4763387 .19254558 .50020346 .21826172 .51535037 .24397786 .5305074 .27783204 .53808596 .31982423 .53808596 .38492839 .53808596 .43359376 .5162557 .4658203 .4725952 .49804688 .42893473 .51416018 .36035157 .51416018 .2668457M.421875 .26489259C.421875 .33855186 .41194663 .39118449 .39208985 .42279054 .37223307 .45440675 .34065757 .47021485 .29736329 .47021485 .26253257 .47021485 .23527019 .46288047 .21557617 .44821168 .19588216 .43355308 .1809082 .4106598 .1706543 .37953187 .16040039 .34840394 .15527344 .3079122 .15527344 .25805665 .15527344 .18863933 .16634114 .13747151 .18847656 .10455322 .21061199 .071634929 .24658203 .05517578 .29638673 .05517578 .3400065 .05517578 .37182618 .07122294 .3918457 .10331726 .41186524 .13542176 .421875 .1892802 .421875 .26489259Z"/>
<path id="font_3_68" d="M.20214844-.009765625C.14908855-.009765625 .10921224 .004231771 .08251953 .032226564 .055826826 .060221357 .04248047 .09863281 .04248047 .14746094 .04248047 .20214844 .060465497 .24414063 .09643555 .2734375 .1324056 .30273438 .19042969 .31835938 .2705078 .3203125L.38916017 .32226563V.35107423C.38916017 .39404298 .38004557 .4248047 .3618164 .44335938 .34358726 .46191407 .3149414 .4711914 .2758789 .4711914 .23649089 .4711914 .20784505 .46455384 .1899414 .4512787 .17203777 .4380137 .16129558 .41681925 .15771485 .3876953L.06591797 .39596559C.08089193 .4907125 .15152996 .53808596 .27783204 .53808596 .34423829 .53808596 .39420573 .52286788 .42773438 .49243165 .46126304 .46199546 .47802735 .41796876 .47802735 .36035157V.1328125C.47802735 .106770839 .4814453 .0871582 .48828126 .07397461 .4951172 .060791017 .508138 .05419922 .52734377 .05419922 .5358073 .05419922 .54541018 .055338544 .55615237 .057617189V.0029296876C.5340169-.0022786458 .51139327-.0048828127 .48828126-.0048828127 .45572917-.0048828127 .43204753 .0036621094 .41723634 .020751954 .40242515 .037841798 .39404298 .06461588 .39208985 .10107422H.38916017C.36669923 .060709638 .34057618 .032145185 .31079103 .015380859 .28100587-.0013834635 .24479167-.009765625 .20214844-.009765625M.22216797 .056152345C.25439454 .056152345 .28304038 .06347656 .30810548 .078125 .33317057 .09277344 .35294596 .11287435 .36743165 .13842774 .38191734 .16398113 .38916017 .19026692 .38916017 .21728516V.2607422L.29296876 .25878907C.2516276 .25813804 .22029622 .25390626 .19897461 .24609375 .177653 .23828125 .16129558 .22623699 .14990235 .20996094 .13850911 .19368489 .1328125 .17236328 .1328125 .1459961 .1328125 .11735026 .14054363 .095214847 .15600586 .079589847 .1714681 .063964847 .19352214 .056152345 .22216797 .056152345Z"/>
<path id="font_3_70" d="M.13427735 .26660157C.13427735 .19628906 .14534505 .14420574 .16748047 .11035156 .18961589 .0764974 .22298177 .059570314 .26757813 .059570314 .29882813 .059570314 .32495118 .06803385 .34594728 .08496094 .36694337 .10188802 .3798828 .12792969 .38476563 .16308594L.4736328 .15722656C.46679688 .10644531 .44514976 .06591797 .4086914 .03564453 .37223307 .0053710939 .32600913-.009765625 .27001954-.009765625 .1961263-.009765625 .13972982 .013590495 .10083008 .060302736 .06193034 .10701498 .04248047 .1751302 .04248047 .26464845 .04248047 .35351563 .06201172 .42130534 .10107422 .46801759 .14013672 .5147298 .1961263 .53808596 .26904298 .53808596 .32307945 .53808596 .36791993 .5241292 .40356446 .49621583 .43920899 .4683024 .46158854 .42984519 .47070313 .38084413L.3803711 .37402345C.3758138 .40316773 .3642578 .4263204 .34570313 .44348146 .32714845 .46065269 .30078126 .46923829 .26660157 .46923829 .22005208 .46923829 .18636067 .45377604 .16552735 .42285157 .14469402 .3919271 .13427735 .33984376 .13427735 .26660157Z"/>
<path id="font_3_75" d="M.15478516 .43798829C.17366536 .4724935 .19637044 .49780274 .22290039 .513916 .24943035 .5300293 .28304038 .53808596 .32373048 .53808596 .38102214 .53808596 .42325846 .5238444 .45043946 .49536134 .47762046 .46687828 .49121095 .41910807 .49121095 .35205079V0H.40283204V.33496095C.40283204 .3720703 .39941407 .3996582 .39257813 .4177246 .3857422 .43579103 .37451173 .449056 .35888673 .45751954 .34326173 .46598307 .3216146 .47021485 .2939453 .47021485 .25260417 .47021485 .21948242 .45589195 .19458008 .4272461 .16967774 .39860026 .15722656 .36002604 .15722656 .31152345V0H.06933594V.7246094H.15722656V.5361328C.15722656 .51627609 .1566569 .49576823 .15551758 .47460938 .15437825 .45345054 .15364583 .4412435 .15332031 .43798829H.15478516Z"/>
<path id="font_3_36" d="M.5698242 0 .49121095 .20166016H.17773438L.09863281 0H.001953125L.28271485 .68847659H.38867188L.66503909 0H.5698242M.33447267 .61816409 .33007813 .6044922C.3219401 .57747396 .30989585 .54280599 .2939453 .5004883L.20605469 .27441407H.4633789L.375 .50146487C.3658854 .5239258 .35677085 .5493164 .34765626 .5776367L.33447267 .61816409Z"/>
<path id="font_3_79" d="M.06738281 0V.7246094H.15527344V0H.06738281Z"/>
<path id="font_3_62" d="M.07128906-.20800781V.7246094H.27001954V.6616211H.15625V-.14501953H.27001954V-.20800781H.07128906Z"/>
<path id="font_3_71" d="M.4008789 .08496094C.38460288 .05110677 .3630371 .026855469 .33618165 .012207031 .30932618-.0024414063 .27604167-.009765625 .23632813-.009765625 .16959636-.009765625 .120524089 .0126953129 .08911133 .057617189 .057698568 .10253906 .041992189 .17057292 .041992189 .26171876 .041992189 .44596354 .106770839 .53808596 .23632813 .53808596 .2763672 .53808596 .30973307 .5307617 .33642579 .5161133 .3631185 .50146487 .38460288 .4781901 .4008789 .44628907H.40185548L.4008789 .5053711V.7246094H.48876954V.10888672C.48876954 .0538737 .4897461 .017578125 .49169923 0H.40771485C.40673829 .0052083337 .40568034 .017252604 .40454103 .036132814 .4034017 .05501302 .40283204 .07128906 .40283204 .08496094H.4008789M.13427735 .26464845C.13427735 .1907552 .14404297 .13785808 .16357422 .10595703 .18310547 .07405599 .21484375 .05810547 .25878907 .05810547 .30859376 .05810547 .34472657 .07535807 .3671875 .10986328 .38964845 .14436849 .4008789 .19791667 .4008789 .2705078 .4008789 .34049479 .38964845 .3917643 .3671875 .4243164 .34472657 .4568685 .30891929 .47314454 .25976563 .47314454 .2154948 .47314454 .18351238 .4567871 .16381836 .42407228 .14412435 .39135743 .13427735 .33821617 .13427735 .26464845Z"/>
<path id="font_3_64" d="M.0078125-.20800781V-.14501953H.12158203V.6616211H.0078125V.7246094H.20654297V-.20800781H.0078125Z"/>
<path id="font_3_54" d="M.62109377 .1899414C.62109377 .12646485 .59627279 .077311199 .54663088 .04248047 .49698893 .0076497399 .42708335-.009765625 .33691407-.009765625 .16927083-.009765625 .07210287 .048502607 .045410158 .16503906L.13574219 .18310547C.14615886 .14176433 .16829427 .11140951 .20214844 .092041019 .23600261 .07267252 .2820638 .06298828 .34033204 .06298828 .40055339 .06298828 .44702149 .07332357 .47973634 .09399414 .5124512 .11466471 .5288086 .14501953 .5288086 .1850586 .5288086 .20751953 .52368167 .2257487 .51342776 .2397461 .5031738 .2537435 .48876954 .26529948 .47021485 .27441407 .45166017 .28352867 .42952476 .29117839 .4038086 .29736329 .37809245 .3035482 .34960938 .31022135 .31835938 .3173828 .2639974 .3294271 .22273763 .34147135 .19458008 .35351563 .16642253 .3655599 .14420574 .37898765 .12792969 .39379884 .11165365 .40861003 .09920248 .425944 .09057617 .44580079 .08194987 .46565757 .07763672 .488444 .07763672 .51416018 .07763672 .5730794 .10017904 .61848959 .14526367 .6503906 .19034831 .6822917 .2548828 .6982422 .3388672 .6982422 .4169922 .6982422 .47672526 .6862793 .5180664 .6623535 .55940756 .63842776 .5883789 .59765627 .60498049 .54003909L.5131836 .5239258C.50309249 .5603841 .48388673 .5868327 .4555664 .6032715 .4272461 .61971029 .38802085 .6279297 .33789063 .6279297 .2828776 .6279297 .24088542 .6188151 .21191406 .60058596 .1829427 .58235678 .16845703 .5551758 .16845703 .51904299 .16845703 .49788413 .17407227 .48038737 .18530274 .46655274 .1965332 .4527181 .21272786 .44099937 .23388672 .43139649 .25504557 .4217936 .29720054 .4099935 .36035157 .3959961 .3815104 .39111329 .4025879 .38614909 .42358399 .38110353 .44458009 .37605796 .464681 .3700358 .48388673 .3630371 .50309249 .35603843 .52107748 .347819 .5378418 .3383789 .55460616 .3289388 .56917318 .3173828 .58154299 .30371095 .5939128 .29003907 .603597 .27392579 .6105957 .2553711 .6175944 .2368164 .62109377 .21500652 .62109377 .1899414Z"/>
<path id="font_3_37" d="M.6142578 .19384766C.6142578 .13264974 .59195968 .08504232 .5473633 .05102539 .5027669 .017008463 .44075523 0 .36132813 0H.08203125V.68847659H.33203126C.4934896 .68847659 .57421877 .63273116 .57421877 .52124026 .57421877 .4804891 .5628255 .44625346 .54003909 .41853334 .5172526 .39082337 .48502604 .37224327 .44335938 .36279298 .49804688 .35628257 .54020187 .33797203 .5698242 .30786134 .5994466 .27775065 .6142578 .2397461 .6142578 .19384766M.48046876 .510025C.48046876 .54721578 .46777345 .5738017 .4423828 .5897827 .4169922 .6057739 .38020835 .61376956 .33203126 .61376956H.17529297V.3955078H.33203126C.38183595 .3955078 .4190267 .40488688 .44360353 .42364503 .46818034 .44240318 .48046876 .4711965 .48046876 .510025M.52001956 .20117188C.52001956 .28222657 .46305339 .3227539 .3491211 .3227539H.17529297V.07470703H.3564453C.41341148 .07470703 .45491538 .08528646 .48095704 .10644531 .5069987 .12760417 .52001956 .15917969 .52001956 .20117188Z"/>
<path id="font_3_69" d="M.51416018 .26660157C.51416018 .08235677 .4493815-.009765625 .31982423-.009765625 .27978517-.009765625 .24650066-.0025227864 .2199707 .011962891 .19344075 .026448569 .171875 .049804689 .15527344 .08203125H.15429688C.15429688 .0719401 .15364583 .056559247 .15234375 .035888673 .15104167 .015218099 .15006511 .0032552083 .14941406 0H.064453128C.06640625 .017578125 .06738281 .0538737 .06738281 .10888672V.7246094H.15527344V.5180664C.15527344 .49690757 .15462239 .47200523 .15332031 .44335938H.15527344C.17154949 .47721354 .19311524 .50146487 .2199707 .5161133 .24682617 .5307617 .2801107 .53808596 .31982423 .53808596 .386556 .53808596 .43562828 .515625 .46704103 .47070313 .49845378 .42578126 .51416018 .3577474 .51416018 .26660157M.421875 .26367188C.421875 .3375651 .41210938 .39046226 .39257813 .42236329 .37304688 .4542643 .3413086 .47021485 .29736329 .47021485 .24788411 .47021485 .21183269 .45328776 .18920899 .4194336 .16658528 .38557945 .15527344 .3318685 .15527344 .25830079 .15527344 .18896485 .16634114 .13777669 .18847656 .10473633 .21061199 .07169596 .24658203 .05517578 .29638673 .05517578 .34065757 .05517578 .37263999 .0715332 .39233399 .10424805 .41202799 .13696289 .421875 .19010417 .421875 .26367188Z"/>
<clipPath id="clip_4">
<path transform="matrix(.24,0,0,.24,0,0)" d="M951.5608 411.18208H984.44668V444.0486H951.5608Z" fill-rule="evenodd"/>
</clipPath>
<clipPath id="clip_5">
<path transform="matrix(.24,0,0,.24,0,0)" d="M25 25H2475V1687.5H25Z" fill-rule="evenodd"/>
</clipPath>
<path id="font_3_38" d="M.38671876 .6220703C.31054688 .6220703 .2513021 .5975749 .20898438 .548584 .16666667 .4995931 .14550781 .43245445 .14550781 .34716798 .14550781 .26285807 .16756185 .19506836 .21166992 .14379883 .25577799 .0925293 .3154297 .06689453 .390625 .06689453 .48697917 .06689453 .55940756 .114583339 .60791018 .20996094L.68408206 .171875C.6557617 .11263021 .6159668 .06754557 .56469729 .036621095 .51342776 .0056966149 .4539388-.009765625 .38623048-.009765625 .31689454-.009765625 .25691734 .004638672 .20629883 .033447267 .15568035 .06225586 .11710612 .10343424 .09057617 .15698242 .06404623 .2105306 .05078125 .27392579 .05078125 .34716798 .05078125 .4568685 .08040365 .54280599 .13964844 .60498049 .19889324 .66715499 .28092448 .6982422 .3857422 .6982422 .45898438 .6982422 .5201823 .6839549 .56933596 .65538027 .61848959 .6268056 .6546224 .5844269 .6777344 .528244L.58935549 .49902345C.57340499 .5388997 .5477702 .56937667 .5124512 .5904541 .47713218 .61153158 .43522135 .6220703 .38671876 .6220703Z"/>
<path id="font_3_88" d="M.15332031 .5283203V.19335938C.15332031 .15852864 .15673828 .13151042 .16357422 .11230469 .17041016 .09309896 .18131511 .07926432 .19628906 .07080078 .21126302 .06233724 .23323567 .05810547 .26220704 .05810547 .30452476 .05810547 .33789063 .07259115 .3623047 .1015625 .38671876 .13053386 .39892579 .17073567 .39892579 .22216797V.5283203H.4868164V.11279297C.4868164 .05126953 .48779298 .013671875 .4897461 0H.40673829C.40641276 .0016276041 .40608726 .0060221354 .40576173 .013183594 .4054362 .020345053 .4050293 .028564454 .40454103 .037841798 .40405274 .04711914 .40348307 .06461588 .40283204 .09033203H.4013672C.3811849 .0538737 .35782878 .028076172 .33129884 .012939453 .3047689-.0021972657 .2718099-.009765625 .23242188-.009765625 .17447917-.009765625 .13208008 .004638672 .10522461 .033447267 .07836914 .06225586 .064941409 .10986328 .064941409 .17626953V.5283203H.15332031Z"/>
<path id="font_3_80" d="M.375 0V.33496095C.375 .38606773 .3680013 .42138673 .3540039 .44091798 .3400065 .46044923 .31477867 .47021485 .2783203 .47021485 .24088542 .47021485 .21126302 .45589195 .18945313 .4272461 .16764324 .39860026 .15673828 .3582357 .15673828 .30615235V0H.06933594V.41552735C.06933594 .47705079 .068359378 .51464846 .06640625 .5283203H.14941406C.14973958 .5266927 .15006511 .52229818 .15039063 .5151367 .15071614 .5079753 .15112305 .49975587 .15161133 .49047853 .15209961 .48120118 .15266927 .46370445 .15332031 .43798829H.15478516C.17366536 .4754232 .1953125 .50146487 .21972656 .5161133 .24414063 .5307617 .27392579 .53808596 .30908204 .53808596 .3491211 .53808596 .38077799 .53011068 .40405274 .51416018 .42732749 .49820964 .44352214 .472819 .45263673 .43798829H.45410157C.47233073 .47347007 .49438478 .49902345 .5202637 .51464846 .5461426 .53027346 .57747396 .53808596 .6142578 .53808596 .66764327 .53808596 .7064616 .5236003 .7307129 .4946289 .7549642 .46565757 .76708987 .4181315 .76708987 .35205079V0H.6801758V.33496095C.6801758 .38606773 .67317709 .42138673 .6591797 .44091798 .6451823 .46044923 .6199544 .47021485 .5834961 .47021485 .54508468 .47021485 .5152181 .4559733 .49389649 .42749024 .47257487 .39900718 .46191407 .3585612 .46191407 .30615235V0H.375Z"/>
<path id="font_3_74" d="M.26757813-.20800781C.20996094-.20800781 .1640625-.19669597 .12988281-.17407227 .095703128-.15144857 .07373047-.11930338 .063964847-.07763672L.15234375-.064941409C.15820313-.08935547 .17114258-.1081543 .19116211-.12133789 .21118164-.13452149 .23746746-.14111328 .27001954-.14111328 .35758464-.14111328 .4013672-.08972168 .4013672 .013061523V.098236087H.40039063C.38378907 .0643514 .3610026 .038853963 .33203126 .021743775 .3030599 .0046437585 .26920573-.00390625 .23046875-.00390625 .16569011-.00390625 .11808268 .01759847 .087646488 .06060791 .057210287 .10361735 .041992189 .17122396 .041992189 .26342774 .041992189 .3569336 .05834961 .42592369 .09106445 .47039796 .1237793 .51487228 .17350261 .5371094 .24023438 .5371094 .27766929 .5371094 .31013999 .52855429 .33764649 .5114441 .36515299 .4943441 .38639323 .46999107 .4013672 .438385H.40234376C.40234376 .44810996 .40299479 .46496073 .40429688 .48893739 .40559898 .5129242 .40690104 .5260518 .40820313 .5283203H.49169923C.4897461 .510732 .48876954 .47424827 .48876954 .41886903V.014801025C.48876954-.1337382 .41503907-.20800781 .26757813-.20800781M.4013672 .2644043C.4013672 .30742393 .3955078 .34449259 .38378907 .37561036 .3720703 .40673829 .35555015 .43053184 .33422853 .44699098 .3129069 .4634501 .28873698 .4716797 .26171876 .4716797 .21679688 .4716797 .18408203 .4553833 .16357422 .42279054 .1430664 .39019776 .1328125 .33740235 .1328125 .2644043 .1328125 .19204712 .14241536 .14006043 .1616211 .108444217 .18082683 .07683817 .21370442 .061035158 .2602539 .061035158 .2879232 .061035158 .3125 .06918335 .33398438 .08547974 .35546876 .10177612 .3720703 .12515767 .38378907 .15562439 .3955078 .18610128 .4013672 .22236125 .4013672 .2644043Z"/>
<clipPath id="clip_6">
<path transform="matrix(.24,0,0,.24,0,0)" d="M0 0H2500V1715.625H0Z"/>
</clipPath>
<clipPath id="clip_7">
<path transform="matrix(.24,0,0,.24,0,0)" d="M25 25H2475V1687.5H25Z"/>
</clipPath>
<clipPath id="clip_8">
<path transform="matrix(.24,0,0,.24,0,0)" d="M1027.9396 622.70779 995.50119 617.3045 1000.9076 584.88516 1033.346 590.2884 1027.9396 622.70779Z"/>
</clipPath>
<clipPath id="clip_9">
<path transform="matrix(.24,0,0,.24,0,0)" d="M25 25H2475V1687.5H25Z" fill-rule="evenodd"/>
</clipPath>
<clipPath id="clip_10">
<path transform="matrix(.24,0,0,.24,0,0)" d="M1499.6585 739.84768H1532.5443V772.71426H1499.6585Z" fill-rule="evenodd"/>
</clipPath>
<clipPath id="clip_11">
<path transform="matrix(.24,0,0,.24,0,0)" d="M25 25H2475V1687.5H25Z" fill-rule="evenodd"/>
</clipPath>
<clipPath id="clip_12">
<path transform="matrix(.24,0,0,.24,0,0)" d="M2088.8636 865.8361H2121.7496V898.7027H2088.8636Z" fill-rule="evenodd"/>
</clipPath>
<clipPath id="clip_13">
<path transform="matrix(.24,0,0,.24,0,0)" d="M25 25H2475V1687.5H25Z" fill-rule="evenodd"/>
</clipPath>
<path id="font_3_50" d="M.72998049 .34716798C.72998049 .27522788 .71622726 .21223958 .6887207 .15820313 .6612142 .104166667 .6217448 .06266276 .5703125 .033691408 .5188802 .0047200524 .45817057-.009765625 .3881836-.009765625 .31754557-.009765625 .2565918 .0045572917 .20532227 .033203126 .15405274 .061848958 .11490885 .103271488 .087890628 .1574707 .060872396 .21166992 .04736328 .27490235 .04736328 .34716798 .04736328 .457194 .07747396 .5432129 .13769531 .6052246 .19791667 .6672363 .28173829 .6982422 .38916017 .6982422 .45914714 .6982422 .51985678 .6843262 .57128909 .65649417 .6227214 .6286621 .662028 .5882161 .689209 .53515627 .71638998 .48209635 .72998049 .4194336 .72998049 .34716798M.6347656 .34716798C.6347656 .43277995 .6133626 .5 .57055667 .5488281 .5277507 .59765627 .46728517 .6220703 .38916017 .6220703 .31038413 .6220703 .24951172 .59798178 .20654297 .5498047 .16357422 .5016276 .14208985 .43408204 .14208985 .34716798 .14208985 .26090495 .16381836 .19246419 .20727539 .1418457 .25073243 .09122721 .31103517 .06591797 .3881836 .06591797 .4676107 .06591797 .52856448 .090413417 .5710449 .1394043 .6135254 .18839519 .6347656 .25764976 .6347656 .34716798Z"/>
<path id="font_3_46" d="M.54003909 0 .26513673 .33226014 .17529297 .26385499V0H.08203125V.68847659H.17529297V.34350587L.50683596 .68847659H.6166992L.32373048 .3894348 .6557617 0H.54003909Z"/>
<clipPath id="clip_14">
<path transform="matrix(.24,0,0,.24,0,0)" d="M0 0H2500V1715.625H0Z"/>
</clipPath>
<clipPath id="clip_15">
<path transform="matrix(.24,0,0,.24,0,0)" d="M25 25H2475V1687.5H25Z"/>
</clipPath>
<clipPath id="clip_16">
<path transform="matrix(.24,0,0,.24,0,0)" d="M1553.9202 980.8691H1586.806V1013.73568H1553.9202Z"/>
</clipPath>
<clipPath id="clip_17">
<path transform="matrix(.24,0,0,.24,0,0)" d="M25 25H2475V1687.5H25Z" fill-rule="evenodd"/>
</clipPath>
<clipPath id="clip_18">
<path transform="matrix(.24,0,0,.24,0,0)" d="M0 0H2500V1715.625H0Z"/>
</clipPath>
<clipPath id="clip_19">
<path transform="matrix(.24,0,0,.24,0,0)" d="M25 25H2475V1687.5H25Z"/>
</clipPath>
<clipPath id="clip_20">
<path transform="matrix(.24,0,0,.24,0,0)" d="M1005.8224 1101.3798H1038.7083V1134.2463H1005.8224Z"/>
</clipPath>
<clipPath id="clip_21">
<path transform="matrix(.24,0,0,.24,0,0)" d="M25 25H2475V1687.5H25Z" fill-rule="evenodd"/>
</clipPath>
<path id="font_3_92" d="M.09326172-.20800781C.06917318-.20800781 .048990888-.20621746 .032714845-.20263672V-.13671875C.045084638-.13867188 .05875651-.13964844 .07373047-.13964844 .12841797-.13964844 .17171224-.09930929 .20361328-.018630982L.21191406 .0024414063 .0024414063 .5283203H.096191409L.20751953 .23632813C.20914714 .23177083 .21110027 .22631836 .2133789 .2199707 .21565755 .21362305 .22298177 .19238281 .23535156 .15625 .24772136 .12011719 .25439454 .0999349 .2553711 .095703128L.28955079 .19189453 .40527345 .5283203H.49804688L.29492188 0C.27311198-.056447347 .25276695-.098454799 .23388672-.12602234 .21500652-.15360005 .1940918-.17415874 .17114258-.18769837 .14819336-.20123799 .12223307-.20800781 .09326172-.20800781Z"/>
<path id="font_3_89" d="M.2993164 0H.1953125L.0034179688 .5283203H.09716797L.2133789 .18457031C.21761067 .17154949 .22884114 .13297527 .24707031 .068847659L.26416017 .12597656 .28320313 .18359375 .4033203 .5283203H.49658204L.2993164 0Z"/>
<path id="font_3_73" d="M.17626953 .46435548V0H.088378909V.46435548H.014160156V.5283203H.088378909V.5878906C.088378909 .6360677 .098958339 .67073568 .12011719 .69189456 .14127605 .7130534 .17366536 .7236328 .21728516 .7236328 .24169922 .7236328 .26236979 .7216797 .27929688 .71777346V.6508789C.26464845 .6534831 .2516276 .65478518 .24023438 .65478518 .21777344 .65478518 .20149739 .64908859 .19140625 .6376953 .18131511 .62630209 .17626953 .60563156 .17626953 .5756836V.5283203H.27929688V.46435548H.17626953Z"/>
<clipPath id="clip_22">
<path transform="matrix(.24,0,0,.24,0,0)" d="M0 0H2500V1715.625H0Z"/>
</clipPath>
<clipPath id="clip_23">
<path transform="matrix(.24,0,0,.24,0,0)" d="M25 25H2475V1687.5H25Z"/>
</clipPath>
<clipPath id="clip_24">
<path transform="matrix(.24,0,0,.24,0,0)" d="M367.28865 1350.6178H400.1745V1383.4844H367.28865Z"/>
</clipPath>
<clipPath id="clip_25">
<path transform="matrix(.24,0,0,.24,0,0)" d="M25 25H2475V1687.5H25Z" fill-rule="evenodd"/>
</clipPath>
</defs>
<g clip-path="url(#clip_1)">
<path transform="matrix(.75,0,0,.75,6,6)" d="M0 0H784V532H0Z" fill="#ffffff"/>
</g>
<g clip-path="url(#clip_2)">
<path transform="matrix(.6577172,0,0,.65733119,38.886247,12.573312)" stroke-width="1" stroke-linecap="butt" stroke-miterlimit="4" stroke-linejoin="miter" fill="none" stroke="#000000" stroke-opacity=".502" d="M224 0H584V586H224Z"/>
<use data-text="I" xlink:href="#font_3_44" transform="matrix(10.5225,0,0,-10.516323,279.8589,21.919384)"/>
<use data-text="P" xlink:href="#font_3_51" transform="matrix(10.5225,0,0,-10.516323,282.7794,21.919384)"/>
<use data-text=" " xlink:href="#font_3_3" transform="matrix(10.5225,0,0,-10.516323,289.60054,21.919384)"/>
<use data-text="n" xlink:href="#font_3_81" transform="matrix(10.5225,0,0,-10.516323,292.521,21.919384)"/>
<use data-text="e" xlink:href="#font_3_72" transform="matrix(10.5225,0,0,-10.516323,298.36714,21.919384)"/>
<use data-text="t" xlink:href="#font_3_87" transform="matrix(10.5225,0,0,-10.516323,304.21327,21.919384)"/>
<use data-text="w" xlink:href="#font_3_90" transform="matrix(10.5225,0,0,-10.516323,307.13374,21.919384)"/>
<use data-text="o" xlink:href="#font_3_82" transform="matrix(10.5225,0,0,-10.516323,314.72499,21.919384)"/>
<use data-text="r" xlink:href="#font_3_85" transform="matrix(10.5225,0,0,-10.516323,320.5711,21.919384)"/>
<use data-text="k" xlink:href="#font_3_78" transform="matrix(10.5225,0,0,-10.516323,324.0716,21.919384)"/>
<path transform="matrix(.6577172,0,0,.65733119,38.886247,12.573312)" d="M647 511H791C791.39779 511 791.78048 511.0761 792.148 511.2283 792.5155 511.38056 792.8399 511.59733 793.1213 511.87864 793.4026 512.1599 793.6193 512.4843 793.77157 512.85189 793.92379 513.2194 793.99996 513.6021 794 514V573C793.99996 573.39779 793.92379 573.78048 793.77157 574.14797 793.6193 574.5155 793.4026 574.83999 793.1213 575.1213 792.8399 575.4026 792.51547 575.6193 792.14797 575.77157 791.78048 575.9238 791.39779 575.99996 791 576H647C646.6021 575.99996 646.21939 575.9238 645.85189 575.77157 645.48428 575.6193 645.15988 575.4026 644.8786 575.1213 644.5973 574.83999 644.3805 574.5155 644.2283 574.14797 644.07608 573.78048 643.99996 573.39779 644 573V514C643.99996 513.6021 644.07608 513.2194 644.2283 512.85189 644.3805 512.4843 644.5973 512.1599 644.8786 511.87864 645.15988 511.59733 645.48428 511.38056 645.85189 511.2283 646.21939 511.0761 646.6021 511 647 511Z" fill="#eeeeee"/>
<path transform="matrix(.6577172,0,0,.65733119,38.886247,12.573312)" stroke-width="1" stroke-linecap="butt" stroke-miterlimit="4" stroke-linejoin="miter" fill="none" stroke="#d4d4d4" d="M647 511H791C791.39779 511 791.78048 511.0761 792.148 511.2283 792.5155 511.38056 792.8399 511.59733 793.1213 511.87864 793.4026 512.1599 793.6193 512.4843 793.77157 512.85189 793.92379 513.2194 793.99996 513.6021 794 514V573C793.99996 573.39779 793.92379 573.78048 793.77157 574.14797 793.6193 574.5155 793.4026 574.83999 793.1213 575.1213 792.8399 575.4026 792.51547 575.6193 792.14797 575.77157 791.78048 575.9238 791.39779 575.99996 791 576H647C646.6021 575.99996 646.21939 575.9238 645.85189 575.77157 645.48428 575.6193 645.15988 575.4026 644.8786 575.1213 644.5973 574.83999 644.3805 574.5155 644.2283 574.14797 644.07608 573.78048 643.99996 573.39779 644 573V514C643.99996 513.6021 644.07608 513.2194 644.2283 512.85189 644.3805 512.4843 644.5973 512.1599 644.8786 511.87864 645.15988 511.59733 645.48428 511.38056 645.85189 511.2283 646.21939 511.0761 646.6021 511 647 511Z"/>
<use data-text="H" xlink:href="#font_3_43" transform="matrix(10.5225,0,0,-10.516323,496.3042,373.58003)" fill="#333333"/>
<use data-text="T" xlink:href="#font_3_55" transform="matrix(10.5225,0,0,-10.516323,503.89546,373.58003)" fill="#333333"/>
<use data-text="M" xlink:href="#font_3_48" transform="matrix(10.5225,0,0,-10.516323,510.31648,373.58003)" fill="#333333"/>
<use data-text="Q" xlink:href="#font_3_52" transform="matrix(10.5225,0,0,-10.516323,519.07278,373.58003)" fill="#333333"/>
<path transform="matrix(.6577172,0,0,.65733119,38.886247,12.573312)" d="M432 511H576C576.3978 511 576.78048 511.0761 577.14797 511.2283 577.5155 511.38056 577.83999 511.59733 578.1213 511.87864 578.4026 512.1599 578.6193 512.4843 578.77157 512.85189 578.9238 513.2194 578.99996 513.6021 579 514V573C578.99996 573.39779 578.9238 573.78048 578.77157 574.14797 578.6193 574.5155 578.4026 574.83999 578.1213 575.1213 577.83999 575.4026 577.5155 575.6193 577.14797 575.77157 576.78048 575.9238 576.3978 575.99996 576 576H432C431.60215 575.99996 431.21946 575.9238 430.8519 575.77157 430.48439 575.6193 430.15995 575.4026 429.87867 575.1213 429.59733 574.83999 429.38056 574.5155 429.2283 574.14797 429.07606 573.78048 428.99998 573.39779 429 573V514C428.99998 513.6021 429.07606 513.2194 429.2283 512.85189 429.38056 512.4843 429.59733 512.1599 429.87867 511.87864 430.15995 511.59733 430.48439 511.38056 430.8519 511.2283 431.21946 511.0761 431.60215 511 432 511Z" fill="#eeeeee"/>
<path transform="matrix(.6577172,0,0,.65733119,38.886247,12.573312)" stroke-width="1" stroke-linecap="butt" stroke-miterlimit="4" stroke-linejoin="miter" fill="none" stroke="#d4d4d4" d="M432 511H576C576.3978 511 576.78048 511.0761 577.14797 511.2283 577.5155 511.38056 577.83999 511.59733 578.1213 511.87864 578.4026 512.1599 578.6193 512.4843 578.77157 512.85189 578.9238 513.2194 578.99996 513.6021 579 514V573C578.99996 573.39779 578.9238 573.78048 578.77157 574.14797 578.6193 574.5155 578.4026 574.83999 578.1213 575.1213 577.83999 575.4026 577.5155 575.6193 577.14797 575.77157 576.78048 575.9238 576.3978 575.99996 576 576H432C431.60215 575.99996 431.21946 575.9238 430.8519 575.77157 430.48439 575.6193 430.15995 575.4026 429.87867 575.1213 429.59733 574.83999 429.38056 574.5155 429.2283 574.14797 429.07606 573.78048 428.99998 573.39779 429 573V514C428.99998 513.6021 429.07606 513.2194 429.2283 512.85189 429.38056 512.4843 429.59733 512.1599 429.87867 511.87864 430.15995 511.59733 430.48439 511.38056 430.8519 511.2283 431.21946 511.0761 431.60215 511 432 511Z"/>
<use data-text="H" xlink:href="#font_3_43" transform="matrix(10.5225,0,0,-10.516323,328.31593,373.58003)" fill="#333333"/>
<use data-text="T" xlink:href="#font_3_55" transform="matrix(10.5225,0,0,-10.516323,335.90718,373.58003)" fill="#333333"/>
<use data-text="M" xlink:href="#font_3_48" transform="matrix(10.5225,0,0,-10.516323,342.32814,373.58003)" fill="#333333"/>
<use data-text="Q" xlink:href="#font_3_52" transform="matrix(10.5225,0,0,-10.516323,351.08448,373.58003)" fill="#333333"/>
<use data-text=" " xlink:href="#font_3_3" transform="matrix(10.5225,0,0,-10.516323,359.26087,373.58003)" fill="#333333"/>
<use data-text="D" xlink:href="#font_3_39" transform="matrix(10.5225,0,0,-10.516323,362.18135,373.58003)" fill="#333333"/>
<use data-text="i" xlink:href="#font_3_76" transform="matrix(10.5225,0,0,-10.516323,369.77259,373.58003)" fill="#333333"/>
<use data-text="s" xlink:href="#font_3_86" transform="matrix(10.5225,0,0,-10.516323,372.1079,373.58003)" fill="#333333"/>
<use data-text="p" xlink:href="#font_3_83" transform="matrix(10.5225,0,0,-10.516323,377.36378,373.58003)" fill="#333333"/>
<use data-text="a" xlink:href="#font_3_68" transform="matrix(10.5225,0,0,-10.516323,383.2099,373.58003)" fill="#333333"/>
<use data-text="t" xlink:href="#font_3_87" transform="matrix(10.5225,0,0,-10.516323,389.05604,373.58003)" fill="#333333"/>
<use data-text="c" xlink:href="#font_3_70" transform="matrix(10.5225,0,0,-10.516323,391.9765,373.58003)" fill="#333333"/>
<use data-text="h" xlink:href="#font_3_75" transform="matrix(10.5225,0,0,-10.516323,397.23237,373.58003)" fill="#333333"/>
<use data-text="e" xlink:href="#font_3_72" transform="matrix(10.5225,0,0,-10.516323,403.0785,373.58003)" fill="#333333"/>
<use data-text="r" xlink:href="#font_3_85" transform="matrix(10.5225,0,0,-10.516323,408.92463,373.58003)" fill="#333333"/>
<path transform="matrix(.6577172,0,0,.65733119,38.886247,12.573312)" d="M232 511H376C376.3978 511 376.78047 511.0761 377.148 511.2283 377.51557 511.38056 377.84 511.59733 378.1213 511.87864 378.4026 512.1599 378.61936 512.4843 378.7716 512.85189 378.92387 513.2194 378.99998 513.6021 379 514V573C378.99998 573.39779 378.92387 573.78048 378.7716 574.14797 378.61936 574.5155 378.4026 574.83999 378.1213 575.1213 377.84 575.4026 377.51557 575.6193 377.148 575.77157 376.78047 575.9238 376.3978 575.99996 376 576H232C231.60214 575.99996 231.21944 575.9238 230.8519 575.77157 230.48436 575.6193 230.15995 575.4026 229.87865 575.1213 229.59732 574.83999 229.38056 574.5155 229.22834 574.14797 229.0761 573.78048 228.99999 573.39779 229 573V514C228.99999 513.6021 229.0761 513.2194 229.22834 512.85189 229.38056 512.4843 229.59732 512.1599 229.87865 511.87864 230.15995 511.59733 230.48436 511.38056 230.8519 511.2283 231.21944 511.0761 231.60214 511 232 511Z" fill="#eeeeee"/>
<path transform="matrix(.6577172,0,0,.65733119,38.886247,12.573312)" stroke-width="1" stroke-linecap="butt" stroke-miterlimit="4" stroke-linejoin="miter" fill="none" stroke="#d4d4d4" d="M232 511H376C376.3978 511 376.78047 511.0761 377.148 511.2283 377.51557 511.38056 377.84 511.59733 378.1213 511.87864 378.4026 512.1599 378.61936 512.4843 378.7716 512.85189 378.92387 513.2194 378.99998 513.6021 379 514V573C378.99998 573.39779 378.92387 573.78048 378.7716 574.14797 378.61936 574.5155 378.4026 574.83999 378.1213 575.1213 377.84 575.4026 377.51557 575.6193 377.148 575.77157 376.78047 575.9238 376.3978 575.99996 376 576H232C231.60214 575.99996 231.21944 575.9238 230.8519 575.77157 230.48436 575.6193 230.15995 575.4026 229.87865 575.1213 229.59732 574.83999 229.38056 574.5155 229.22834 574.14797 229.0761 573.78048 228.99999 573.39779 229 573V514C228.99999 513.6021 229.0761 513.2194 229.22834 512.85189 229.38056 512.4843 229.59732 512.1599 229.87865 511.87864 230.15995 511.59733 230.48436 511.38056 230.8519 511.2283 231.21944 511.0761 231.60214 511 232 511Z"/>
<use data-text="A" xlink:href="#font_3_36" transform="matrix(10.5225,0,0,-10.516323,213.1089,373.58003)" fill="#333333"/>
<use data-text="p" xlink:href="#font_3_83" transform="matrix(10.5225,0,0,-10.516323,220.12014,373.58003)" fill="#333333"/>
<use data-text="p" xlink:href="#font_3_83" transform="matrix(10.5225,0,0,-10.516323,225.96627,373.58003)" fill="#333333"/>
<use data-text="l" xlink:href="#font_3_79" transform="matrix(10.5225,0,0,-10.516323,231.8124,373.58003)" fill="#333333"/>
<use data-text="i" xlink:href="#font_3_76" transform="matrix(10.5225,0,0,-10.516323,234.14777,373.58003)" fill="#333333"/>
<use data-text="c" xlink:href="#font_3_70" transform="matrix(10.5225,0,0,-10.516323,236.48314,373.58003)" fill="#333333"/>
<use data-text="a" xlink:href="#font_3_68" transform="matrix(10.5225,0,0,-10.516323,241.739,373.58003)" fill="#333333"/>
<use data-text="t" xlink:href="#font_3_87" transform="matrix(10.5225,0,0,-10.516323,247.58513,373.58003)" fill="#333333"/>
<use data-text="i" xlink:href="#font_3_76" transform="matrix(10.5225,0,0,-10.516323,250.50563,373.58003)" fill="#333333"/>
<use data-text="o" xlink:href="#font_3_82" transform="matrix(10.5225,0,0,-10.516323,252.841,373.58003)" fill="#333333"/>
<use data-text="n" xlink:href="#font_3_81" transform="matrix(10.5225,0,0,-10.516323,258.68714,373.58003)" fill="#333333"/>
<path transform="matrix(.6577172,0,0,.65733119,38.886247,12.573312)" stroke-width="2" stroke-linecap="butt" stroke-miterlimit="4" stroke-linejoin="miter" fill="none" stroke="#d4d4d4" d="M719 32V511"/>
<path transform="matrix(.6577172,0,0,.65733119,38.886247,12.573312)" d="M647 27H791C791.39779 27 791.78048 27.07612 792.148 27.22836 792.5155 27.3806 792.8399 27.597373 793.1213 27.878678 793.4026 28.15998 793.6193 28.484404 793.77157 28.851948 793.92379 29.21949 793.99996 29.602175 794 30V89C793.99996 89.39782 793.92379 89.780498 793.77157 90.14804 793.6193 90.51559 793.4026 90.84002 793.1213 91.12132 792.8399 91.402629 792.51547 91.61939 792.14797 91.77164 791.78048 91.923877 791.39779 91.99999 791 92H647C646.6021 91.99999 646.21939 91.923877 645.85189 91.77164 645.48428 91.61939 645.15988 91.402629 644.8786 91.12132 644.5973 90.84002 644.3805 90.51559 644.2283 90.14804 644.07608 89.780498 643.99996 89.39782 644 89V30C643.99996 29.602175 644.07608 29.21949 644.2283 28.851948 644.3805 28.484404 644.5973 28.15998 644.8786 27.878678 645.15988 27.597373 645.48428 27.3806 645.85189 27.22836 646.21939 27.07612 646.6021 27 647 27Z" fill="#eeeeee"/>
<path transform="matrix(.6577172,0,0,.65733119,38.886247,12.573312)" stroke-width="1" stroke-linecap="butt" stroke-miterlimit="4" stroke-linejoin="miter" fill="none" stroke="#d4d4d4" d="M647 27H791C791.39779 27 791.78048 27.07612 792.148 27.22836 792.5155 27.3806 792.8399 27.597373 793.1213 27.878678 793.4026 28.15998 793.6193 28.484404 793.77157 28.851948 793.92379 29.21949 793.99996 29.602175 794 30V89C793.99996 89.39782 793.92379 89.780498 793.77157 90.14804 793.6193 90.51559 793.4026 90.84002 793.1213 91.12132 792.8399 91.402629 792.51547 91.61939 792.14797 91.77164 791.78048 91.923877 791.39779 91.99999 791 92H647C646.6021 91.99999 646.21939 91.923877 645.85189 91.77164 645.48428 91.61939 645.15988 91.402629 644.8786 91.12132 644.5973 90.84002 644.3805 90.51559 644.2283 90.14804 644.07608 89.780498 643.99996 89.39782 644 89V30C643.99996 29.602175 644.07608 29.21949 644.2283 28.851948 644.3805 28.484404 644.5973 28.15998 644.8786 27.878678 645.15988 27.597373 645.48428 27.3806 645.85189 27.22836 646.21939 27.07612 646.6021 27 647 27Z"/>
<use data-text="H" xlink:href="#font_3_43" transform="matrix(10.5225,0,0,-10.516323,496.3042,55.427049)" fill="#333333"/>
<use data-text="T" xlink:href="#font_3_55" transform="matrix(10.5225,0,0,-10.516323,503.89546,55.427049)" fill="#333333"/>
<use data-text="M" xlink:href="#font_3_48" transform="matrix(10.5225,0,0,-10.516323,510.31648,55.427049)" fill="#333333"/>
<use data-text="Q" xlink:href="#font_3_52" transform="matrix(10.5225,0,0,-10.516323,519.07278,55.427049)" fill="#333333"/>
<path transform="matrix(.6577172,0,0,.65733119,38.886247,12.573312)" stroke-width="2" stroke-linecap="butt" stroke-miterlimit="4" stroke-linejoin="miter" fill="none" stroke="#d4d4d4" d="M504 32V511"/>
<path transform="matrix(.6577172,0,0,.65733119,38.886247,12.573312)" d="M432 27H576C576.3978 27 576.78048 27.07612 577.14797 27.22836 577.5155 27.3806 577.83999 27.597373 578.1213 27.878678 578.4026 28.15998 578.6193 28.484404 578.77157 28.851948 578.9238 29.21949 578.99996 29.602175 579 30V89C578.99996 89.39782 578.9238 89.780498 578.77157 90.14804 578.6193 90.51559 578.4026 90.84002 578.1213 91.12132 577.83999 91.402629 577.5155 91.61939 577.14797 91.77164 576.78048 91.923877 576.3978 91.99999 576 92H432C431.60215 91.99999 431.21946 91.923877 430.8519 91.77164 430.48439 91.61939 430.15995 91.402629 429.87867 91.12132 429.59733 90.84002 429.38056 90.51559 429.2283 90.14804 429.07606 89.780498 428.99998 89.39782 429 89V30C428.99998 29.602175 429.07606 29.21949 429.2283 28.851948 429.38056 28.484404 429.59733 28.15998 429.87867 27.878678 430.15995 27.597373 430.48439 27.3806 430.8519 27.22836 431.21946 27.07612 431.60215 27 432 27Z" fill="#eeeeee"/>
<path transform="matrix(.6577172,0,0,.65733119,38.886247,12.573312)" stroke-width="1" stroke-linecap="butt" stroke-miterlimit="4" stroke-linejoin="miter" fill="none" stroke="#d4d4d4" d="M432 27H576C576.3978 27 576.78048 27.07612 577.14797 27.22836 577.5155 27.3806 577.83999 27.597373 578.1213 27.878678 578.4026 28.15998 578.6193 28.484404 578.77157 28.851948 578.9238 29.21949 578.99996 29.602175 579 30V89C578.99996 89.39782 578.9238 89.780498 578.77157 90.14804 578.6193 90.51559 578.4026 90.84002 578.1213 91.12132 577.83999 91.402629 577.5155 91.61939 577.14797 91.77164 576.78048 91.923877 576.3978 91.99999 576 92H432C431.60215 91.99999 431.21946 91.923877 430.8519 91.77164 430.48439 91.61939 430.15995 91.402629 429.87867 91.12132 429.59733 90.84002 429.38056 90.51559 429.2283 90.14804 429.07606 89.780498 428.99998 89.39782 429 89V30C428.99998 29.602175 429.07606 29.21949 429.2283 28.851948 429.38056 28.484404 429.59733 28.15998 429.87867 27.878678 430.15995 27.597373 430.48439 27.3806 430.8519 27.22836 431.21946 27.07612 431.60215 27 432 27Z"/>
<use data-text="H" xlink:href="#font_3_43" transform="matrix(10.5225,0,0,-10.516323,328.31593,55.427049)" fill="#333333"/>
<use data-text="T" xlink:href="#font_3_55" transform="matrix(10.5225,0,0,-10.516323,335.90718,55.427049)" fill="#333333"/>
<use data-text="M" xlink:href="#font_3_48" transform="matrix(10.5225,0,0,-10.516323,342.32814,55.427049)" fill="#333333"/>
<use data-text="Q" xlink:href="#font_3_52" transform="matrix(10.5225,0,0,-10.516323,351.08448,55.427049)" fill="#333333"/>
<use data-text=" " xlink:href="#font_3_3" transform="matrix(10.5225,0,0,-10.516323,359.26087,55.427049)" fill="#333333"/>
<use data-text="D" xlink:href="#font_3_39" transform="matrix(10.5225,0,0,-10.516323,362.18135,55.427049)" fill="#333333"/>
<use data-text="i" xlink:href="#font_3_76" transform="matrix(10.5225,0,0,-10.516323,369.77259,55.427049)" fill="#333333"/>
<use data-text="s" xlink:href="#font_3_86" transform="matrix(10.5225,0,0,-10.516323,372.1079,55.427049)" fill="#333333"/>
<use data-text="p" xlink:href="#font_3_83" transform="matrix(10.5225,0,0,-10.516323,377.36378,55.427049)" fill="#333333"/>
<use data-text="a" xlink:href="#font_3_68" transform="matrix(10.5225,0,0,-10.516323,383.2099,55.427049)" fill="#333333"/>
<use data-text="t" xlink:href="#font_3_87" transform="matrix(10.5225,0,0,-10.516323,389.05604,55.427049)" fill="#333333"/>
<use data-text="c" xlink:href="#font_3_70" transform="matrix(10.5225,0,0,-10.516323,391.9765,55.427049)" fill="#333333"/>
<use data-text="h" xlink:href="#font_3_75" transform="matrix(10.5225,0,0,-10.516323,397.23237,55.427049)" fill="#333333"/>
<use data-text="e" xlink:href="#font_3_72" transform="matrix(10.5225,0,0,-10.516323,403.0785,55.427049)" fill="#333333"/>
<use data-text="r" xlink:href="#font_3_85" transform="matrix(10.5225,0,0,-10.516323,408.92463,55.427049)" fill="#333333"/>
<path transform="matrix(.6577172,0,0,.65733119,38.886247,12.573312)" stroke-width="2" stroke-linecap="butt" stroke-miterlimit="4" stroke-linejoin="miter" fill="none" stroke="#d4d4d4" d="M304 32V511"/>
<path transform="matrix(.6577172,0,0,.65733119,38.886247,12.573312)" d="M232 27H376C376.3978 27 376.78047 27.07612 377.148 27.22836 377.51557 27.3806 377.84 27.597373 378.1213 27.878678 378.4026 28.15998 378.61936 28.484404 378.7716 28.851948 378.92387 29.21949 378.99998 29.602175 379 30V89C378.99998 89.39782 378.92387 89.780498 378.7716 90.14804 378.61936 90.51559 378.4026 90.84002 378.1213 91.12132 377.84 91.402629 377.51557 91.61939 377.148 91.77164 376.78047 91.923877 376.3978 91.99999 376 92H232C231.60214 91.99999 231.21944 91.923877 230.8519 91.77164 230.48436 91.61939 230.15995 91.402629 229.87865 91.12132 229.59732 90.84002 229.38056 90.51559 229.22834 90.14804 229.0761 89.780498 228.99999 89.39782 229 89V30C228.99999 29.602175 229.0761 29.21949 229.22834 28.851948 229.38056 28.484404 229.59732 28.15998 229.87865 27.878678 230.15995 27.597373 230.48436 27.3806 230.8519 27.22836 231.21944 27.07612 231.60214 27 232 27Z" fill="#eeeeee"/>
<path transform="matrix(.6577172,0,0,.65733119,38.886247,12.573312)" stroke-width="1" stroke-linecap="butt" stroke-miterlimit="4" stroke-linejoin="miter" fill="none" stroke="#d4d4d4" d="M232 27H376C376.3978 27 376.78047 27.07612 377.148 27.22836 377.51557 27.3806 377.84 27.597373 378.1213 27.878678 378.4026 28.15998 378.61936 28.484404 378.7716 28.851948 378.92387 29.21949 378.99998 29.602175 379 30V89C378.99998 89.39782 378.92387 89.780498 378.7716 90.14804 378.61936 90.51559 378.4026 90.84002 378.1213 91.12132 377.84 91.402629 377.51557 91.61939 377.148 91.77164 376.78047 91.923877 376.3978 91.99999 376 92H232C231.60214 91.99999 231.21944 91.923877 230.8519 91.77164 230.48436 91.61939 230.15995 91.402629 229.87865 91.12132 229.59732 90.84002 229.38056 90.51559 229.22834 90.14804 229.0761 89.780498 228.99999 89.39782 229 89V30C228.99999 29.602175 229.0761 29.21949 229.22834 28.851948 229.38056 28.484404 229.59732 28.15998 229.87865 27.878678 230.15995 27.597373 230.48436 27.3806 230.8519 27.22836 231.21944 27.07612 231.60214 27 232 27Z"/>
<use data-text="A" xlink:href="#font_3_36" transform="matrix(10.5225,0,0,-10.516323,213.1089,55.427049)" fill="#333333"/>
<use data-text="p" xlink:href="#font_3_83" transform="matrix(10.5225,0,0,-10.516323,220.12014,55.427049)" fill="#333333"/>
<use data-text="p" xlink:href="#font_3_83" transform="matrix(10.5225,0,0,-10.516323,225.96627,55.427049)" fill="#333333"/>
<use data-text="l" xlink:href="#font_3_79" transform="matrix(10.5225,0,0,-10.516323,231.8124,55.427049)" fill="#333333"/>
<use data-text="i" xlink:href="#font_3_76" transform="matrix(10.5225,0,0,-10.516323,234.14777,55.427049)" fill="#333333"/>
<use data-text="c" xlink:href="#font_3_70" transform="matrix(10.5225,0,0,-10.516323,236.48314,55.427049)" fill="#333333"/>
<use data-text="a" xlink:href="#font_3_68" transform="matrix(10.5225,0,0,-10.516323,241.739,55.427049)" fill="#333333"/>
<use data-text="t" xlink:href="#font_3_87" transform="matrix(10.5225,0,0,-10.516323,247.58513,55.427049)" fill="#333333"/>
<use data-text="i" xlink:href="#font_3_76" transform="matrix(10.5225,0,0,-10.516323,250.50563,55.427049)" fill="#333333"/>
<use data-text="o" xlink:href="#font_3_82" transform="matrix(10.5225,0,0,-10.516323,252.841,55.427049)" fill="#333333"/>
<use data-text="n" xlink:href="#font_3_81" transform="matrix(10.5225,0,0,-10.516323,258.68714,55.427049)" fill="#333333"/>
<path transform="matrix(.6577172,0,0,.65733119,38.886247,12.573312)" d="M299 136H309V481H299Z" fill="#f4f4f4"/>
<path transform="matrix(.6577172,0,0,.65733119,38.886247,12.573312)" stroke-width="1" stroke-linecap="butt" stroke-miterlimit="4" stroke-linejoin="miter" fill="none" stroke="#666666" d="M299 136H309V481H299Z"/>
<path transform="matrix(.6577172,0,0,.65733119,38.886247,12.573312)" d="M499 258H509V390H499Z" fill="#f4f4f4"/>
<path transform="matrix(.6577172,0,0,.65733119,38.886247,12.573312)" stroke-width="1" stroke-linecap="butt" stroke-miterlimit="4" stroke-linejoin="miter" fill="none" stroke="#666666" d="M499 258H509V390H499Z"/>
<path transform="matrix(.6577172,0,0,.65733119,38.886247,12.573312)" d="M714 304H724V346H714Z" fill="#f4f4f4"/>
<path transform="matrix(.6577172,0,0,.65733119,38.886247,12.573312)" stroke-width="1" stroke-linecap="butt" stroke-miterlimit="4" stroke-linejoin="miter" fill="none" stroke="#666666" d="M714 304H724V346H714Z"/>
<path transform="matrix(.6577172,0,0,.65733119,38.886247,12.573312)" d="M64 399H66V401H64M68 399H70V401H68M72 399H74V401H72M76 399H78V401H76M80 399H82V401H80M84 399H86V401H84M88 399H90V401H88M92 399H94V401H92M96 399H98V401H96M100 399H102V401H100M104 399H106V401H104M108 399H110V401H108M112 399H114V401H112M116 399H118V401H116M120 399H122V401H120M124 399H126V401H124M128 399H130V401H128M132 399H134V401H132M136 399H138V401H136M140 399H142V401H140M144 399H146V401H144M148 399H150V401H148M152 399H154V401H152M156 399H158V401H156M160 399H162V401H160M164 399H166V401H164M168 399H170V401H168M172 399H174V401H172M176 399H178V401H176M180 399H182V401H180M184 399H186V401H184M188 399H190V401H188M192 399H194V401H192M196 399H198V401H196M200 399H202V401H200M204 399H206V401H204M208 399H210V401H208M212 399H214V401H212M216 399H218V401H216M220 399H222V401H220M224 399H226V401H224M228 399H230V401H228M232 399H234V401H232M236 399H238V401H236M240 399H242V401H240M244 399H246V401H244M248 399H250V401H248M252 399H254V401H252M256 399H258V401H256M260 399H262V401H260M264 399H266V401H264M268 399H270V401H268M272 399H274V401H272M276 399H278V401H276M280 399H282V401H280M284 399H286V401H284M288 399H290V401H288M292 399H294V401H292M296 399H298V401H296M300 399H302V401H300M304 399H306V401H304M308 399H310V401H308M312 399H314V401H312M316 399H318V401H316" fill="#d4d4d4"/>
<path transform="matrix(.6577172,0,0,.65733119,38.886247,12.573312)" d="M320 400V402H318V400M320 404V406H318V404M320 408V410H318V408M320 412V414H318V412M320 416V418H318V416M320 420V422H318V420M320 424V426H318V424M320 428V430H318V428M320 432V434H318V432M320 436V438H318V436M320 440V442H318V440M320 444V446H318V444M320 448V450H318V448M320 452V454H318V452M320 456V458H318V456M320 460V462H318V460M320 464V466H318V464M320 468V470H318V468M320 472V474H318V472M320 476V478H318V476M320 480V482H318V480M320 484V486H318V484M320 488V490H318V488" fill="#d4d4d4"/>
<path transform="matrix(.6577172,0,0,.65733119,38.886247,12.573312)" d="M64 490H66V492H64M68 490H70V492H68M72 490H74V492H72M76 490H78V492H76M80 490H82V492H80M84 490H86V492H84M88 490H90V492H88M92 490H94V492H92M96 490H98V492H96M100 490H102V492H100M104 490H106V492H104M108 490H110V492H108M112 490H114V492H112M116 490H118V492H116M120 490H122V492H120M124 490H126V492H124M128 490H130V492H128M132 490H134V492H132M136 490H138V492H136M140 490H142V492H140M144 490H146V492H144M148 490H150V492H148M152 490H154V492H152M156 490H158V492H156M160 490H162V492H160M164 490H166V492H164M168 490H170V492H168M172 490H174V492H172M176 490H178V492H176M180 490H182V492H180M184 490H186V492H184M188 490H190V492H188M192 490H194V492H192M196 490H198V492H196M200 490H202V492H200M204 490H206V492H204M208 490H210V492H208M212 490H214V492H212M216 490H218V492H216M220 490H222V492H220M224 490H226V492H224M228 490H230V492H228M232 490H234V492H232M236 490H238V492H236M240 490H242V492H240M244 490H246V492H244M248 490H250V492H248M252 490H254V492H252M256 490H258V492H256M260 490H262V492H260M264 490H266V492H264M268 490H270V492H268M272 490H274V492H272M276 490H278V492H276M280 490H282V492H280M284 490H286V492H284M288 490H290V492H288M292 490H294V492H292M296 490H298V492H296M300 490H302V492H300M304 490H306V492H304M308 490H310V492H308M312 490H314V492H312M316 490H318V492H316" fill="#d4d4d4"/>
<path transform="matrix(.6577172,0,0,.65733119,38.886247,12.573312)" d="M65 400V402H63V400M65 404V406H63V404M65 408V410H63V408M65 412V414H63V412M65 416V418H63V416M65 420V422H63V420M65 424V426H63V424M65 428V430H63V428M65 432V434H63V432M65 436V438H63V436M65 440V442H63V440M65 444V446H63V444M65 448V450H63V448M65 452V454H63V452M65 456V458H63V456M65 460V462H63V460M65 464V466H63V464M65 468V470H63V468M65 472V474H63V472M65 476V478H63V476M65 480V482H63V480M65 484V486H63V484M65 488V490H63V488" fill="#d4d4d4"/>
<path transform="matrix(.6577172,0,0,.65733119,38.886247,12.573312)" d="M64 400H114V413L105.6 420H64V400Z" fill="#eeeeee"/>
<path transform="matrix(.6577172,0,0,.65733119,38.886247,12.573312)" stroke-width="1" stroke-linecap="butt" stroke-miterlimit="4" stroke-linejoin="miter" fill="none" stroke="#d4d4d4" d="M64 400H114V413L105.6 420H64V400Z"/>
<use data-text="o" xlink:href="#font_3_82" transform="matrix(10.5225,0,0,-10.516323,90.1089,286.81849)" fill="#333333"/>
<use data-text="p" xlink:href="#font_3_83" transform="matrix(10.5225,0,0,-10.516323,95.955028,286.81849)" fill="#333333"/>
<use data-text="t" xlink:href="#font_3_87" transform="matrix(10.5225,0,0,-10.516323,101.80115,286.81849)" fill="#333333"/>
<use data-text="[" xlink:href="#font_3_62" transform="matrix(10.5225,0,0,-10.516323,125.46437,287.3338)" fill="#333333"/>
<use data-text="A" xlink:href="#font_3_36" transform="matrix(10.5225,0,0,-10.516323,128.38488,287.3338)" fill="#333333"/>
<use data-text="p" xlink:href="#font_3_83" transform="matrix(10.5225,0,0,-10.516323,135.3961,287.3338)" fill="#333333"/>
<use data-text="p" xlink:href="#font_3_83" transform="matrix(10.5225,0,0,-10.516323,141.24222,287.3338)" fill="#333333"/>
<use data-text="l" xlink:href="#font_3_79" transform="matrix(10.5225,0,0,-10.516323,147.08835,287.3338)" fill="#333333"/>
<use data-text="i" xlink:href="#font_3_76" transform="matrix(10.5225,0,0,-10.516323,149.42372,287.3338)" fill="#333333"/>
<use data-text="c" xlink:href="#font_3_70" transform="matrix(10.5225,0,0,-10.516323,151.7591,287.3338)" fill="#333333"/>
<use data-text="a" xlink:href="#font_3_68" transform="matrix(10.5225,0,0,-10.516323,157.01496,287.3338)" fill="#333333"/>
<use data-text="t" xlink:href="#font_3_87" transform="matrix(10.5225,0,0,-10.516323,162.86109,287.3338)" fill="#333333"/>
<use data-text="i" xlink:href="#font_3_76" transform="matrix(10.5225,0,0,-10.516323,165.78157,287.3338)" fill="#333333"/>
<use data-text="o" xlink:href="#font_3_82" transform="matrix(10.5225,0,0,-10.516323,168.11695,287.3338)" fill="#333333"/>
<use data-text="n" xlink:href="#font_3_81" transform="matrix(10.5225,0,0,-10.516323,173.96308,287.3338)" fill="#333333"/>
<use data-text=" " xlink:href="#font_3_3" transform="matrix(10.5225,0,0,-10.516323,179.80919,287.3338)" fill="#333333"/>
<use data-text="D" xlink:href="#font_3_39" transform="matrix(10.5225,0,0,-10.516323,182.72969,287.3338)" fill="#333333"/>
<use data-text="e" xlink:href="#font_3_72" transform="matrix(10.5225,0,0,-10.516323,190.32093,287.3338)" fill="#333333"/>
<use data-text="p" xlink:href="#font_3_83" transform="matrix(10.5225,0,0,-10.516323,196.16704,287.3338)" fill="#333333"/>
<use data-text="e" xlink:href="#font_3_72" transform="matrix(10.5225,0,0,-10.516323,202.01317,287.3338)" fill="#333333"/>
<use data-text="n" xlink:href="#font_3_81" transform="matrix(10.5225,0,0,-10.516323,207.8593,287.3338)" fill="#333333"/>
<use data-text="d" xlink:href="#font_3_71" transform="matrix(10.5225,0,0,-10.516323,213.70542,287.3338)" fill="#333333"/>
<use data-text="a" xlink:href="#font_3_68" transform="matrix(10.5225,0,0,-10.516323,219.55153,287.3338)" fill="#333333"/>
<use data-text="n" xlink:href="#font_3_81" transform="matrix(10.5225,0,0,-10.516323,225.39766,287.3338)" fill="#333333"/>
<use data-text="t" xlink:href="#font_3_87" transform="matrix(10.5225,0,0,-10.516323,231.24379,287.3338)" fill="#333333"/>
<use data-text="]" xlink:href="#font_3_64" transform="matrix(10.5225,0,0,-10.516323,234.16429,287.3338)" fill="#333333"/>
<path transform="matrix(.6577172,0,0,.65733119,38.886247,12.573312)" stroke-width="2" stroke-linecap="butt" stroke-miterlimit="4" stroke-linejoin="miter" fill="none" stroke="#d4d4d4" d="M75 107V511"/>
<path transform="matrix(.6577172,0,0,.65733119,38.886247,12.573312)" stroke-width="2" stroke-linecap="butt" stroke-miterlimit="4" stroke-linejoin="miter" fill="none" stroke="#d4d4d4" d="M75 52V72"/>
<path transform="matrix(.6577172,0,0,.65733119,38.886247,12.573312)" stroke-width="2" stroke-linecap="butt" stroke-miterlimit="4" stroke-linejoin="miter" fill="none" stroke="#d4d4d4" d="M57 60H93"/>
<path transform="matrix(.6577172,0,0,.65733119,38.886247,12.573312)" d="M57 87 75 72" fill="#eeeeee"/>
<path transform="matrix(.6577172,0,0,.65733119,38.886247,12.573312)" stroke-width="2" stroke-linecap="butt" stroke-miterlimit="4" stroke-linejoin="miter" fill="none" stroke="#d4d4d4" d="M57 87 75 72"/>
<path transform="matrix(.6577172,0,0,.65733119,38.886247,12.573312)" d="M75 72 91 87" fill="#eeeeee"/>
<path transform="matrix(.6577172,0,0,.65733119,38.886247,12.573312)" stroke-width="2" stroke-linecap="butt" stroke-miterlimit="4" stroke-linejoin="miter" fill="none" stroke="#d4d4d4" d="M75 72 91 87"/>
<path transform="matrix(.6577172,0,0,.65733119,38.886247,12.573312)" d="M90 37C90 37.984914 89.90392 38.960367 89.71178 39.926355 89.51963 40.89234 89.23511 41.830308 88.85819 42.740247 88.48128 43.650186 88.019229 44.514619 87.47204 45.333547 86.92485 46.152475 86.30304 46.910158 85.6066 47.606595 84.910167 48.303033 84.15248 48.924844 83.33355 49.472036 82.51462 50.019224 81.650188 50.48127 80.74024 50.85818 79.83031 51.235094 78.89234 51.519624 77.926349 51.71177 76.96036 51.90392 75.98491 51.999998 75 52 74.01508 51.999998 73.039638 51.90392 72.07364 51.71177 71.10764 51.519624 70.16968 51.235097 69.25974 50.858186 68.3498 50.481275 67.48537 50.019227 66.66644 49.47204 65.84751 48.924848 65.08983 48.303033 64.393398 47.606595 63.696954 46.910158 63.075139 46.152475 62.527948 45.333547 61.98076 44.514619 61.51871 43.650186 61.1418 42.740247 60.76489 41.830308 60.48036 40.89234 60.288217 39.926355 60.096067 38.960367 59.999998 37.984914 60 37 59.999998 36.015089 60.096067 35.039636 60.28821 34.073644 60.48036 33.10765 60.76489 32.169687 61.1418 31.259747 61.51871 30.349806 61.98076 29.48537 62.52795 28.666445 63.075139 27.847519 63.696954 27.089838 64.393398 26.393399 65.08983 25.696959 65.84751 25.075146 66.666439 24.527956 67.48537 23.980767 68.3498 23.518715 69.25974 23.141806 70.16968 22.764897 71.10764 22.480368 72.07364 22.28822 73.039638 22.096074 74.01508 22 75 22 75.98491 22 76.96036 22.096074 77.926349 22.288222 78.89234 22.480368 79.83031 22.764897 80.74024 23.141806 81.650188 23.518715 82.51462 23.980765 83.33355 24.527955 84.15248 25.075144 84.910167 25.696959 85.6066 26.393399 86.30304 27.089838 86.92485 27.847519 87.47204 28.666445 88.019229 29.48537 88.48128 30.349806 88.858188 31.259747 89.2351 32.169687 89.51963 33.10765 89.71178 34.073644 89.90392 35.039636 90 36.015089 90 37Z" fill="#eeeeee"/>
<path transform="matrix(.6577172,0,0,.65733119,38.886247,12.573312)" stroke-width="2" stroke-linecap="butt" stroke-miterlimit="4" stroke-linejoin="miter" fill="none" stroke="#d4d4d4" d="M90 37C90 37.984914 89.90392 38.960367 89.71178 39.926355 89.51963 40.89234 89.23511 41.830308 88.85819 42.740247 88.48128 43.650186 88.019229 44.514619 87.47204 45.333547 86.92485 46.152475 86.30304 46.910158 85.6066 47.606595 84.910167 48.303033 84.15248 48.924844 83.33355 49.472036 82.51462 50.019224 81.650188 50.48127 80.74024 50.85818 79.83031 51.235094 78.89234 51.519624 77.926349 51.71177 76.96036 51.90392 75.98491 51.999998 75 52 74.01508 51.999998 73.039638 51.90392 72.07364 51.71177 71.10764 51.519624 70.16968 51.235097 69.25974 50.858186 68.3498 50.481275 67.48537 50.019227 66.66644 49.47204 65.84751 48.924848 65.08983 48.303033 64.393398 47.606595 63.696954 46.910158 63.075139 46.152475 62.527948 45.333547 61.98076 44.514619 61.51871 43.650186 61.1418 42.740247 60.76489 41.830308 60.48036 40.89234 60.288217 39.926355 60.096067 38.960367 59.999998 37.984914 60 37 59.999998 36.015089 60.096067 35.039636 60.28821 34.073644 60.48036 33.10765 60.76489 32.169687 61.1418 31.259747 61.51871 30.349806 61.98076 29.48537 62.52795 28.666445 63.075139 27.847519 63.696954 27.089838 64.393398 26.393399 65.08983 25.696959 65.84751 25.075146 66.666439 24.527956 67.48537 23.980767 68.3498 23.518715 69.25974 23.141806 70.16968 22.764897 71.10764 22.480368 72.07364 22.28822 73.039638 22.096074 74.01508 22 75 22 75.98491 22 76.96036 22.096074 77.926349 22.288222 78.89234 22.480368 79.83031 22.764897 80.74024 23.141806 81.650188 23.518715 82.51462 23.980765 83.33355 24.527955 84.15248 25.075144 84.910167 25.696959 85.6066 26.393399 86.30304 27.089838 86.92485 27.847519 87.47204 28.666445 88.019229 29.48537 88.48128 30.349806 88.858188 31.259747 89.2351 32.169687 89.51963 33.10765 89.71178 34.073644 89.90392 35.039636 90 36.015089 90 37Z"/>
<use data-text="A" xlink:href="#font_3_36" transform="matrix(10.5225,0,0,-10.516323,76.80812,78.42916)" fill="#333333"/>
<use data-text="l" xlink:href="#font_3_79" transform="matrix(10.5225,0,0,-10.516323,83.81935,78.42916)" fill="#333333"/>
<use data-text="i" xlink:href="#font_3_76" transform="matrix(10.5225,0,0,-10.516323,86.154727,78.42916)" fill="#333333"/>
<use data-text="c" xlink:href="#font_3_70" transform="matrix(10.5225,0,0,-10.516323,88.4901,78.42916)" fill="#333333"/>
<use data-text="e" xlink:href="#font_3_72" transform="matrix(10.5225,0,0,-10.516323,93.74596,78.42916)" fill="#333333"/>
<use data-text="S" xlink:href="#font_3_54" transform="matrix(10.5225,0,0,-10.516323,122.64015,96.19607)" fill="#333333"/>
<use data-text="e" xlink:href="#font_3_72" transform="matrix(10.5225,0,0,-10.516323,129.65139,96.19607)" fill="#333333"/>
<use data-text="n" xlink:href="#font_3_81" transform="matrix(10.5225,0,0,-10.516323,135.49752,96.19607)" fill="#333333"/>
<use data-text="d" xlink:href="#font_3_71" transform="matrix(10.5225,0,0,-10.516323,141.34363,96.19607)" fill="#333333"/>
<use data-text=" " xlink:href="#font_3_3" transform="matrix(10.5225,0,0,-10.516323,147.18976,96.19607)" fill="#333333"/>
<use data-text="t" xlink:href="#font_3_87" transform="matrix(10.5225,0,0,-10.516323,150.11026,96.19607)" fill="#333333"/>
<use data-text="h" xlink:href="#font_3_75" transform="matrix(10.5225,0,0,-10.516323,153.03075,96.19607)" fill="#333333"/>
<use data-text="i" xlink:href="#font_3_76" transform="matrix(10.5225,0,0,-10.516323,158.87688,96.19607)" fill="#333333"/>
<use data-text="s" xlink:href="#font_3_86" transform="matrix(10.5225,0,0,-10.516323,161.21225,96.19607)" fill="#333333"/>
<use data-text=" " xlink:href="#font_3_3" transform="matrix(10.5225,0,0,-10.516323,166.46811,96.19607)" fill="#333333"/>
<use data-text="t" xlink:href="#font_3_87" transform="matrix(10.5225,0,0,-10.516323,169.3886,96.19607)" fill="#333333"/>
<use data-text="o" xlink:href="#font_3_82" transform="matrix(10.5225,0,0,-10.516323,172.3091,96.19607)" fill="#333333"/>
<use data-text=" " xlink:href="#font_3_3" transform="matrix(10.5225,0,0,-10.516323,178.15523,96.19607)" fill="#333333"/>
<use data-text="B" xlink:href="#font_3_37" transform="matrix(10.5225,0,0,-10.516323,181.07573,96.19607)" fill="#333333"/>
<use data-text="o" xlink:href="#font_3_82" transform="matrix(10.5225,0,0,-10.516323,188.08696,96.19607)" fill="#333333"/>
<use data-text="b" xlink:href="#font_3_69" transform="matrix(10.5225,0,0,-10.516323,193.93308,96.19607)" fill="#333333"/>
<path transform="matrix(.6577172,0,0,.65733119,38.886247,12.573312)" stroke-width="1.5" stroke-linecap="butt" stroke-miterlimit="4" stroke-linejoin="miter" fill="none" stroke="#333333" d="M76 136H296"/>
</g>
<g clip-path="url(#clip_4)">
<path transform="matrix(.6577172,0,0,.65733119,228.37459,98.68369)" d="M0 0 10 5 0 10V0Z" fill="#333333"/>
<path transform="matrix(.6577172,0,0,.65733119,228.37459,98.68369)" stroke-width="1" stroke-linecap="butt" stroke-miterlimit="4" stroke-linejoin="miter" fill="none" stroke="#333333" d="M0 0 10 5 0 10V0Z"/>
</g>
<g clip-path="url(#clip_5)">
<use data-text="C" xlink:href="#font_3_38" transform="matrix(10.5225,0,0,-10.516323,208.2339,125.11268)" fill="#333333"/>
<use data-text="o" xlink:href="#font_3_82" transform="matrix(10.5225,0,0,-10.516323,215.82514,125.11268)" fill="#333333"/>
<use data-text="n" xlink:href="#font_3_81" transform="matrix(10.5225,0,0,-10.516323,221.67125,125.11268)" fill="#333333"/>
<use data-text="s" xlink:href="#font_3_86" transform="matrix(10.5225,0,0,-10.516323,227.51738,125.11268)" fill="#333333"/>
<use data-text="t" xlink:href="#font_3_87" transform="matrix(10.5225,0,0,-10.516323,232.77324,125.11268)" fill="#333333"/>
<use data-text="r" xlink:href="#font_3_85" transform="matrix(10.5225,0,0,-10.516323,235.69373,125.11268)" fill="#333333"/>
<use data-text="u" xlink:href="#font_3_88" transform="matrix(10.5225,0,0,-10.516323,239.1942,125.11268)" fill="#333333"/>
<use data-text="c" xlink:href="#font_3_70" transform="matrix(10.5225,0,0,-10.516323,245.04033,125.11268)" fill="#333333"/>
<use data-text="t" xlink:href="#font_3_87" transform="matrix(10.5225,0,0,-10.516323,250.29619,125.11268)" fill="#333333"/>
<use data-text=" " xlink:href="#font_3_3" transform="matrix(10.5225,0,0,-10.516323,253.21669,125.11268)" fill="#333333"/>
<use data-text="m" xlink:href="#font_3_80" transform="matrix(10.5225,0,0,-10.516323,256.13719,125.11268)" fill="#333333"/>
<use data-text="s" xlink:href="#font_3_86" transform="matrix(10.5225,0,0,-10.516323,264.8935,125.11268)" fill="#333333"/>
<use data-text="g" xlink:href="#font_3_74" transform="matrix(10.5225,0,0,-10.516323,270.14936,125.11268)" fill="#333333"/>
<path transform="matrix(.6577172,0,0,.65733119,38.886247,12.573312)" stroke-width="1.5" stroke-linecap="butt" stroke-miterlimit="4" stroke-linejoin="miter" fill="none" stroke="#333333" d="M309 182C369 172 369 212 309 202"/>
</g>
<g clip-path="url(#clip_6)">
<g clip-path="url(#clip_7)">
<g clip-path="url(#clip_8)">
<path transform="matrix(-.6487683,-.10806462,.10812809,-.6483875,246.70549,149.44986)" d="M0 0 10 5 0 10V0Z" fill="#333333"/>
<path transform="matrix(-.6487683,-.10806462,.10812809,-.6483875,246.70549,149.44986)" stroke-width="1" stroke-linecap="butt" stroke-miterlimit="4" stroke-linejoin="miter" fill="none" stroke="#333333" d="M0 0 10 5 0 10V0Z"/>
</g>
</g>
</g>
<g clip-path="url(#clip_9)">
<use data-text="S" xlink:href="#font_3_54" transform="matrix(10.5225,0,0,-10.516323,275.00733,175.07553)" fill="#333333"/>
<use data-text="e" xlink:href="#font_3_72" transform="matrix(10.5225,0,0,-10.516323,282.0186,175.07553)" fill="#333333"/>
<use data-text="n" xlink:href="#font_3_81" transform="matrix(10.5225,0,0,-10.516323,287.8647,175.07553)" fill="#333333"/>
<use data-text="d" xlink:href="#font_3_71" transform="matrix(10.5225,0,0,-10.516323,293.71083,175.07553)" fill="#333333"/>
<use data-text=" " xlink:href="#font_3_3" transform="matrix(10.5225,0,0,-10.516323,299.55696,175.07553)" fill="#333333"/>
<use data-text="t" xlink:href="#font_3_87" transform="matrix(10.5225,0,0,-10.516323,302.47749,175.07553)" fill="#333333"/>
<use data-text="o" xlink:href="#font_3_82" transform="matrix(10.5225,0,0,-10.516323,305.39796,175.07553)" fill="#333333"/>
<use data-text=" " xlink:href="#font_3_3" transform="matrix(10.5225,0,0,-10.516323,311.24409,175.07553)" fill="#333333"/>
<use data-text="B" xlink:href="#font_3_37" transform="matrix(10.5225,0,0,-10.516323,314.16456,175.07553)" fill="#333333"/>
<use data-text="o" xlink:href="#font_3_82" transform="matrix(10.5225,0,0,-10.516323,321.17585,175.07553)" fill="#333333"/>
<use data-text="b" xlink:href="#font_3_69" transform="matrix(10.5225,0,0,-10.516323,327.02198,175.07553)" fill="#333333"/>
<path transform="matrix(.6577172,0,0,.65733119,38.886247,12.573312)" stroke-width="1.5" stroke-linecap="butt" stroke-miterlimit="4" stroke-linejoin="miter" fill="none" stroke="#333333" d="M309 256H496"/>
</g>
<g clip-path="url(#clip_10)">
<path transform="matrix(.6577172,0,0,.65733119,359.91804,177.56343)" d="M0 0 10 5 0 10V0Z" fill="#333333"/>
<path transform="matrix(.6577172,0,0,.65733119,359.91804,177.56343)" stroke-width="1" stroke-linecap="butt" stroke-miterlimit="4" stroke-linejoin="miter" fill="none" stroke="#333333" d="M0 0 10 5 0 10V0Z"/>
</g>
<g clip-path="url(#clip_11)">
<use data-text="Q" xlink:href="#font_3_52" transform="matrix(10.5225,0,0,-10.516323,412.91358,203.99214)" fill="#333333"/>
<use data-text="u" xlink:href="#font_3_88" transform="matrix(10.5225,0,0,-10.516323,421.0899,203.99214)" fill="#333333"/>
<use data-text="e" xlink:href="#font_3_72" transform="matrix(10.5225,0,0,-10.516323,426.9361,203.99214)" fill="#333333"/>
<use data-text="u" xlink:href="#font_3_88" transform="matrix(10.5225,0,0,-10.516323,432.78218,203.99214)" fill="#333333"/>
<use data-text="e" xlink:href="#font_3_72" transform="matrix(10.5225,0,0,-10.516323,438.6283,203.99214)" fill="#333333"/>
<use data-text=" " xlink:href="#font_3_3" transform="matrix(10.5225,0,0,-10.516323,444.47438,203.99214)" fill="#333333"/>
<use data-text="m" xlink:href="#font_3_80" transform="matrix(10.5225,0,0,-10.516323,447.39485,203.99214)" fill="#333333"/>
<use data-text="s" xlink:href="#font_3_86" transform="matrix(10.5225,0,0,-10.516323,456.15119,203.99214)" fill="#333333"/>
<use data-text="g" xlink:href="#font_3_74" transform="matrix(10.5225,0,0,-10.516323,461.40705,203.99214)" fill="#333333"/>
<path transform="matrix(.6577172,0,0,.65733119,38.886247,12.573312)" stroke-width="1.5" stroke-linecap="butt" stroke-miterlimit="4" stroke-linejoin="miter" fill="none" stroke="#333333" d="M509 302H711"/>
</g>
<g clip-path="url(#clip_12)">
<path transform="matrix(.6577172,0,0,.65733119,501.32725,207.80066)" d="M0 0 10 5 0 10V0Z" fill="#333333"/>
<path transform="matrix(.6577172,0,0,.65733119,501.32725,207.80066)" stroke-width="1" stroke-linecap="butt" stroke-miterlimit="4" stroke-linejoin="miter" fill="none" stroke="#333333" d="M0 0 10 5 0 10V0Z"/>
</g>
<g clip-path="url(#clip_13)">
<use data-text="O" xlink:href="#font_3_50" transform="matrix(10.5225,0,0,-10.516323,434.46437,234.2322)" fill="#333333"/>
<use data-text="K" xlink:href="#font_3_46" transform="matrix(10.5225,0,0,-10.516323,442.6407,234.2322)" fill="#333333"/>
<path transform="matrix(.6577172,0,0,.65733119,38.886247,12.573312)" stroke-width="1.5" stroke-linecap="butt" stroke-miterlimit="4" stroke-linejoin="miter" fill="none" stroke="#333333" d="M714 346H512"/>
</g>
<g clip-path="url(#clip_14)">
<g clip-path="url(#clip_15)">
<g clip-path="url(#clip_16)">
<path transform="matrix(-.6577172,.000000000000000080499857,-.000000000000000080547138,-.65733119,380.83345,243.29656)" d="M0 0 10 5 0 10V0Z" fill="#333333"/>
<path transform="matrix(-.6577172,.000000000000000080499857,-.000000000000000080547138,-.65733119,380.83345,243.29656)" stroke-width="1" stroke-linecap="butt" stroke-miterlimit="4" stroke-linejoin="miter" fill="none" stroke="#333333" d="M0 0 10 5 0 10V0Z"/>
</g>
</g>
</g>
<g clip-path="url(#clip_17)">
<use data-text="O" xlink:href="#font_3_50" transform="matrix(10.5225,0,0,-10.516323,298.31593,263.16053)" fill="#333333"/>
<use data-text="K" xlink:href="#font_3_46" transform="matrix(10.5225,0,0,-10.516323,306.49226,263.16053)" fill="#333333"/>
<path transform="matrix(.6577172,0,0,.65733119,38.886247,12.573312)" stroke-width="1.5" stroke-linecap="butt" stroke-miterlimit="4" stroke-linejoin="miter" fill="none" stroke="#333333" d="M499 390H312"/>
</g>
<g clip-path="url(#clip_18)">
<g clip-path="url(#clip_19)">
<g clip-path="url(#clip_20)">
<path transform="matrix(-.6577172,.000000000000000080499857,-.000000000000000080547138,-.65733119,249.28998,272.21913)" d="M0 0 10 5 0 10V0Z" fill="#333333"/>
<path transform="matrix(-.6577172,.000000000000000080499857,-.000000000000000080547138,-.65733119,249.28998,272.21913)" stroke-width="1" stroke-linecap="butt" stroke-miterlimit="4" stroke-linejoin="miter" fill="none" stroke="#333333" d="M0 0 10 5 0 10V0Z"/>
</g>
</g>
</g>
<g clip-path="url(#clip_21)">
<use data-text="D" xlink:href="#font_3_39" transform="matrix(10.5225,0,0,-10.516323,108.261249,321.6613)" fill="#333333"/>
<use data-text="i" xlink:href="#font_3_76" transform="matrix(10.5225,0,0,-10.516323,115.85248,321.6613)" fill="#333333"/>
<use data-text="s" xlink:href="#font_3_86" transform="matrix(10.5225,0,0,-10.516323,118.18785,321.6613)" fill="#333333"/>
<use data-text="p" xlink:href="#font_3_83" transform="matrix(10.5225,0,0,-10.516323,123.44371,321.6613)" fill="#333333"/>
<use data-text="l" xlink:href="#font_3_79" transform="matrix(10.5225,0,0,-10.516323,129.28983,321.6613)" fill="#333333"/>
<use data-text="a" xlink:href="#font_3_68" transform="matrix(10.5225,0,0,-10.516323,131.62522,321.6613)" fill="#333333"/>
<use data-text="y" xlink:href="#font_3_92" transform="matrix(10.5225,0,0,-10.516323,137.47133,321.6613)" fill="#333333"/>
<use data-text=" " xlink:href="#font_3_3" transform="matrix(10.5225,0,0,-10.516323,142.72719,321.6613)" fill="#333333"/>
<use data-text="v" xlink:href="#font_3_89" transform="matrix(10.5225,0,0,-10.516323,145.64769,321.6613)" fill="#333333"/>
<use data-text="i" xlink:href="#font_3_76" transform="matrix(10.5225,0,0,-10.516323,150.90355,321.6613)" fill="#333333"/>
<use data-text="s" xlink:href="#font_3_86" transform="matrix(10.5225,0,0,-10.516323,153.23892,321.6613)" fill="#333333"/>
<use data-text="u" xlink:href="#font_3_88" transform="matrix(10.5225,0,0,-10.516323,158.49478,321.6613)" fill="#333333"/>
<use data-text="a" xlink:href="#font_3_68" transform="matrix(10.5225,0,0,-10.516323,164.3409,321.6613)" fill="#333333"/>
<use data-text="l" xlink:href="#font_3_79" transform="matrix(10.5225,0,0,-10.516323,170.18703,321.6613)" fill="#333333"/>
<use data-text=" " xlink:href="#font_3_3" transform="matrix(10.5225,0,0,-10.516323,172.5224,321.6613)" fill="#333333"/>
<use data-text="f" xlink:href="#font_3_73" transform="matrix(10.5225,0,0,-10.516323,175.44289,321.6613)" fill="#333333"/>
<use data-text="e" xlink:href="#font_3_72" transform="matrix(10.5225,0,0,-10.516323,178.36339,321.6613)" fill="#333333"/>
<use data-text="e" xlink:href="#font_3_72" transform="matrix(10.5225,0,0,-10.516323,184.20952,321.6613)" fill="#333333"/>
<use data-text="d" xlink:href="#font_3_71" transform="matrix(10.5225,0,0,-10.516323,190.05564,321.6613)" fill="#333333"/>
<use data-text="b" xlink:href="#font_3_69" transform="matrix(10.5225,0,0,-10.516323,195.90177,321.6613)" fill="#333333"/>
<use data-text="a" xlink:href="#font_3_68" transform="matrix(10.5225,0,0,-10.516323,201.74788,321.6613)" fill="#333333"/>
<use data-text="c" xlink:href="#font_3_70" transform="matrix(10.5225,0,0,-10.516323,207.59401,321.6613)" fill="#333333"/>
<use data-text="k" xlink:href="#font_3_78" transform="matrix(10.5225,0,0,-10.516323,212.84987,321.6613)" fill="#333333"/>
<path transform="matrix(.6577172,0,0,.65733119,38.886247,12.573312)" stroke-width="1.5" stroke-linecap="butt" stroke-miterlimit="4" stroke-linejoin="miter" fill="none" stroke="#333333" d="M299 481H79"/>
</g>
<g clip-path="url(#clip_22)">
<g clip-path="url(#clip_23)">
<g clip-path="url(#clip_24)">
<path transform="matrix(-.6577172,.000000000000000080499857,-.000000000000000080547138,-.65733119,96.04188,332.03627)" d="M0 0 10 5 0 10V0Z" fill="#333333"/>
<path transform="matrix(-.6577172,.000000000000000080499857,-.000000000000000080547138,-.65733119,96.04188,332.03627)" stroke-width="1" stroke-linecap="butt" stroke-miterlimit="4" stroke-linejoin="miter" fill="none" stroke="#333333" d="M0 0 10 5 0 10V0Z"/>
</g>
</g>
</g>
<g clip-path="url(#clip_25)">
<path transform="matrix(.6577172,0,0,.65733119,38.886247,12.573312)" stroke-width="2" stroke-linecap="butt" stroke-miterlimit="4" stroke-linejoin="miter" fill="none" stroke="#d4d4d4" d="M75 536V556"/>
<path transform="matrix(.6577172,0,0,.65733119,38.886247,12.573312)" stroke-width="2" stroke-linecap="butt" stroke-miterlimit="4" stroke-linejoin="miter" fill="none" stroke="#d4d4d4" d="M57 544H93"/>
<path transform="matrix(.6577172,0,0,.65733119,38.886247,12.573312)" d="M57 571 75 556" fill="#eeeeee"/>
<path transform="matrix(.6577172,0,0,.65733119,38.886247,12.573312)" stroke-width="2" stroke-linecap="butt" stroke-miterlimit="4" stroke-linejoin="miter" fill="none" stroke="#d4d4d4" d="M57 571 75 556"/>
<path transform="matrix(.6577172,0,0,.65733119,38.886247,12.573312)" d="M75 556 91 571" fill="#eeeeee"/>
<path transform="matrix(.6577172,0,0,.65733119,38.886247,12.573312)" stroke-width="2" stroke-linecap="butt" stroke-miterlimit="4" stroke-linejoin="miter" fill="none" stroke="#d4d4d4" d="M75 556 91 571"/>
<path transform="matrix(.6577172,0,0,.65733119,38.886247,12.573312)" d="M90 521C90 521.98489 89.90392 522.96029 89.71178 523.9263 89.51963 524.8923 89.23511 525.8302 88.85819 526.7402 88.48128 527.6501 88.019229 528.5145 87.47204 529.33346 86.92485 530.1524 86.30304 530.9101 85.6066 531.60659 84.910167 532.303 84.15248 532.92477 83.33355 533.4719 82.51462 534.0191 81.650188 534.48117 80.74024 534.8581 79.83031 535.23507 78.89234 535.5196 77.926349 535.7118 76.96036 535.90396 75.98491 536 75 536 74.01508 536 73.039638 535.90396 72.07364 535.7118 71.10764 535.5196 70.16968 535.23507 69.25974 534.8581 68.3498 534.48117 67.48537 534.0191 66.66644 533.4719 65.84751 532.92477 65.08983 532.303 64.393398 531.60659 63.696954 530.9101 63.075139 530.1524 62.527948 529.3335 61.98076 528.5145 61.51871 527.6501 61.1418 526.7402 60.76489 525.8302 60.48036 524.8923 60.288217 523.9263 60.096067 522.96029 59.999998 521.98489 60 521 59.999998 520.0151 60.096067 519.0396 60.28821 518.0736 60.48036 517.1076 60.76489 516.1696 61.1418 515.25967 61.51871 514.3497 61.98076 513.4853 62.52795 512.6664 63.075139 511.84748 63.696954 511.0898 64.393398 510.39338 65.08983 509.69694 65.84751 509.0751 66.666439 508.5279 67.48537 507.9807 68.3498 507.51869 69.25974 507.14176 70.16968 506.76487 71.10764 506.48036 72.07364 506.2882 73.039638 506.09608 74.01508 506 75 506 75.98491 506 76.96036 506.09608 77.926349 506.28819 78.89234 506.48033 79.83031 506.76484 80.74024 507.14173 81.650188 507.51866 82.51462 507.9807 83.33355 508.52787 84.15248 509.07508 84.910167 509.69694 85.6066 510.39338 86.30304 511.0898 86.92485 511.84748 87.47204 512.6664 88.019229 513.4853 88.48128 514.3497 88.858188 515.25967 89.2351 516.1696 89.51963 517.10757 89.71178 518.07357 89.90392 519.03958 90 520.0151 90 521Z" fill="#eeeeee"/>
<path transform="matrix(.6577172,0,0,.65733119,38.886247,12.573312)" stroke-width="2" stroke-linecap="butt" stroke-miterlimit="4" stroke-linejoin="miter" fill="none" stroke="#d4d4d4" d="M90 521C90 521.98489 89.90392 522.96029 89.71178 523.9263 89.51963 524.8923 89.23511 525.8302 88.85819 526.7402 88.48128 527.6501 88.019229 528.5145 87.47204 529.33346 86.92485 530.1524 86.30304 530.9101 85.6066 531.60659 84.910167 532.303 84.15248 532.92477 83.33355 533.4719 82.51462 534.0191 81.650188 534.48117 80.74024 534.8581 79.83031 535.23507 78.89234 535.5196 77.926349 535.7118 76.96036 535.90396 75.98491 536 75 536 74.01508 536 73.039638 535.90396 72.07364 535.7118 71.10764 535.5196 70.16968 535.23507 69.25974 534.8581 68.3498 534.48117 67.48537 534.0191 66.66644 533.4719 65.84751 532.92477 65.08983 532.303 64.393398 531.60659 63.696954 530.9101 63.075139 530.1524 62.527948 529.3335 61.98076 528.5145 61.51871 527.6501 61.1418 526.7402 60.76489 525.8302 60.48036 524.8923 60.288217 523.9263 60.096067 522.96029 59.999998 521.98489 60 521 59.999998 520.0151 60.096067 519.0396 60.28821 518.0736 60.48036 517.1076 60.76489 516.1696 61.1418 515.25967 61.51871 514.3497 61.98076 513.4853 62.52795 512.6664 63.075139 511.84748 63.696954 511.0898 64.393398 510.39338 65.08983 509.69694 65.84751 509.0751 66.666439 508.5279 67.48537 507.9807 68.3498 507.51869 69.25974 507.14176 70.16968 506.76487 71.10764 506.48036 72.07364 506.2882 73.039638 506.09608 74.01508 506 75 506 75.98491 506 76.96036 506.09608 77.926349 506.28819 78.89234 506.48033 79.83031 506.76484 80.74024 507.14173 81.650188 507.51866 82.51462 507.9807 83.33355 508.52787 84.15248 509.07508 84.910167 509.69694 85.6066 510.39338 86.30304 511.0898 86.92485 511.84748 87.47204 512.6664 88.019229 513.4853 88.48128 514.3497 88.858188 515.25967 89.2351 516.1696 89.51963 517.10757 89.71178 518.07357 89.90392 519.03958 90 520.0151 90 521Z"/>
<use data-text="A" xlink:href="#font_3_36" transform="matrix(10.5225,0,0,-10.516323,76.80812,396.58213)" fill="#333333"/>
<use data-text="l" xlink:href="#font_3_79" transform="matrix(10.5225,0,0,-10.516323,83.81935,396.58213)" fill="#333333"/>
<use data-text="i" xlink:href="#font_3_76" transform="matrix(10.5225,0,0,-10.516323,86.154727,396.58213)" fill="#333333"/>
<use data-text="c" xlink:href="#font_3_70" transform="matrix(10.5225,0,0,-10.516323,88.4901,396.58213)" fill="#333333"/>
<use data-text="e" xlink:href="#font_3_72" transform="matrix(10.5225,0,0,-10.516323,93.74596,396.58213)" fill="#333333"/>
</g>
</svg>
