<?xml version="1.0" encoding="us-ascii" standalone="no"?><svg xmlns="http://www.w3.org/2000/svg" xmlns:xlink="http://www.w3.org/1999/xlink" contentStyleType="text/css" height="866px" preserveAspectRatio="none" style="width:859px;height:866px;background:#FFFFFF;" version="1.1" viewBox="0 0 859 866" width="859px" zoomAndPan="magnify"><defs/><g><rect fill="#F1F1F1" height="36.2969" rx="12.5" ry="12.5" style="stroke:#181818;stroke-width:1.5;" width="107" x="10" y="414.0781"/><text fill="#000000" font-family="sans-serif" font-size="14" lengthAdjust="spacing" textLength="87" x="20" y="437.0732">System Loss</text><rect fill="#F1F1F1" height="36.2969" rx="12.5" ry="12.5" style="stroke:#181818;stroke-width:1.5;" width="92" x="167" y="301.4844"/><text fill="#000000" font-family="sans-serif" font-size="14" lengthAdjust="spacing" textLength="72" x="177" y="324.4795">Fixed Loss</text><rect fill="#F1F1F1" height="36.2969" rx="12.5" ry="12.5" style="stroke:#181818;stroke-width:1.5;" width="134" x="309" y="76.2969"/><text fill="#000000" font-family="sans-serif" font-size="14" lengthAdjust="spacing" textLength="114" x="319" y="99.292">Transmitter Gain</text><rect fill="#F1F1F1" height="36.2969" rx="12.5" ry="12.5" style="stroke:#181818;stroke-width:1.5;" width="265" x="493" y="20"/><text fill="#000000" font-family="sans-serif" font-size="14" lengthAdjust="spacing" textLength="245" x="503" y="42.9951">Aperture and Obscuration Diameter</text><path d="M443,94.4453 L453,94.4453 C468,94.4453 468,38.1484 483,38.1484 L493,38.1484 " fill="none" style="stroke:#181818;stroke-width:1.0;"/><rect fill="#F1F1F1" height="36.2969" rx="12.5" ry="12.5" style="stroke:#181818;stroke-width:1.5;" width="142" x="493" y="76.2969"/><text fill="#000000" font-family="sans-serif" font-size="14" lengthAdjust="spacing" textLength="122" x="503" y="99.292">Laser Wavelength</text><path d="M443,94.4453 L453,94.4453 C468,94.4453 468,94.4453 483,94.4453 L493,94.4453 " fill="none" style="stroke:#181818;stroke-width:1.0;"/><rect fill="#F1F1F1" height="36.2969" rx="12.5" ry="12.5" style="stroke:#181818;stroke-width:1.5;" width="143" x="493" y="132.5938"/><text fill="#000000" font-family="sans-serif" font-size="14" lengthAdjust="spacing" textLength="123" x="503" y="155.5889">Transmitter Strehl</text><path d="M443,94.4453 L453,94.4453 C468,94.4453 468,150.7422 483,150.7422 L493,150.7422 " fill="none" style="stroke:#181818;stroke-width:1.0;"/><path d="M259,319.6328 L269,319.6328 C284,319.6328 284,94.4453 299,94.4453 L309,94.4453 " fill="none" style="stroke:#181818;stroke-width:1.0;"/><rect fill="#F1F1F1" height="36.2969" rx="12.5" ry="12.5" style="stroke:#181818;stroke-width:1.5;" width="148" x="309" y="217.0391"/><text fill="#000000" font-family="sans-serif" font-size="14" lengthAdjust="spacing" textLength="128" x="319" y="240.0342">Transmission Loss</text><rect fill="#F1F1F1" height="36.2969" rx="12.5" ry="12.5" style="stroke:#181818;stroke-width:1.5;" width="141" x="507" y="188.8906"/><text fill="#000000" font-family="sans-serif" font-size="14" lengthAdjust="spacing" textLength="121" x="517" y="211.8857">Relay Optics Loss</text><path d="M457,235.1875 L467,235.1875 C482,235.1875 482,207.0391 497,207.0391 L507,207.0391 " fill="none" style="stroke:#181818;stroke-width:1.0;"/><rect fill="#F1F1F1" height="36.2969" rx="12.5" ry="12.5" style="stroke:#181818;stroke-width:1.5;" width="158" x="507" y="245.1875"/><text fill="#000000" font-family="sans-serif" font-size="14" lengthAdjust="spacing" textLength="138" x="517" y="268.1826">Laser Coupling Loss</text><path d="M457,235.1875 L467,235.1875 C482,235.1875 482,263.3359 497,263.3359 L507,263.3359 " fill="none" style="stroke:#181818;stroke-width:1.0;"/><path d="M259,319.6328 L269,319.6328 C284,319.6328 284,235.1875 299,235.1875 L309,235.1875 " fill="none" style="stroke:#181818;stroke-width:1.0;"/><rect fill="#F1F1F1" height="36.2969" rx="12.5" ry="12.5" style="stroke:#181818;stroke-width:1.5;" width="112" x="309" y="357.7813"/><text fill="#000000" font-family="sans-serif" font-size="14" lengthAdjust="spacing" textLength="92" x="319" y="380.7764">Pointing Loss</text><rect fill="#F1F1F1" height="36.2969" rx="12.5" ry="12.5" style="stroke:#181818;stroke-width:1.5;" width="85" x="471" y="301.4844"/><text fill="#000000" font-family="sans-serif" font-size="14" lengthAdjust="spacing" textLength="65" x="481" y="324.4795">RMS Jitter</text><path d="M421,375.9297 L431,375.9297 C446,375.9297 446,319.6328 461,319.6328 L471,319.6328 " fill="none" style="stroke:#181818;stroke-width:1.0;"/><rect fill="#F1F1F1" height="36.2969" rx="12.5" ry="12.5" style="stroke:#181818;stroke-width:1.5;" width="49" x="471" y="357.7813"/><text fill="#000000" font-family="sans-serif" font-size="14" lengthAdjust="spacing" textLength="29" x="481" y="380.7764">Bias</text><path d="M421,375.9297 L431,375.9297 C446,375.9297 446,375.9297 461,375.9297 L471,375.9297 " fill="none" style="stroke:#181818;stroke-width:1.0;"/><rect fill="#F1F1F1" height="36.2969" rx="12.5" ry="12.5" style="stroke:#181818;stroke-width:1.5;" width="175" x="471" y="414.0781"/><text fill="#000000" font-family="sans-serif" font-size="14" lengthAdjust="spacing" textLength="155" x="481" y="437.0732">Pointing-Induced Fade</text><path d="M421,375.9297 L431,375.9297 C446,375.9297 446,432.2266 461,432.2266 L471,432.2266 " fill="none" style="stroke:#181818;stroke-width:1.0;"/><path d="M259,319.6328 L269,319.6328 C284,319.6328 284,375.9297 299,375.9297 L309,375.9297 " fill="none" style="stroke:#181818;stroke-width:1.0;"/><rect fill="#F1F1F1" height="36.2969" rx="12.5" ry="12.5" style="stroke:#181818;stroke-width:1.5;" width="116" x="309" y="526.6719"/><text fill="#000000" font-family="sans-serif" font-size="14" lengthAdjust="spacing" textLength="96" x="319" y="549.667">Receiver Loss</text><rect fill="#F1F1F1" height="36.2969" rx="12.5" ry="12.5" style="stroke:#181818;stroke-width:1.5;" width="141" x="475" y="470.375"/><text fill="#000000" font-family="sans-serif" font-size="14" lengthAdjust="spacing" textLength="121" x="485" y="493.3701">Relay Optics Loss</text><path d="M425,544.8203 L435,544.8203 C450,544.8203 450,488.5234 465,488.5234 L475,488.5234 " fill="none" style="stroke:#181818;stroke-width:1.0;"/><rect fill="#F1F1F1" height="36.2969" rx="12.5" ry="12.5" style="stroke:#181818;stroke-width:1.5;" width="193" x="475" y="526.6719"/><text fill="#000000" font-family="sans-serif" font-size="14" lengthAdjust="spacing" textLength="173" x="485" y="549.667">Truncation and Split Loss</text><path d="M425,544.8203 L435,544.8203 C450,544.8203 450,544.8203 465,544.8203 L475,544.8203 " fill="none" style="stroke:#181818;stroke-width:1.0;"/><rect fill="#F1F1F1" height="36.2969" rx="12.5" ry="12.5" style="stroke:#181818;stroke-width:1.5;" width="96" x="475" y="582.9688"/><text fill="#000000" font-family="sans-serif" font-size="14" lengthAdjust="spacing" textLength="76" x="485" y="605.9639">Strehl Loss</text><path d="M425,544.8203 L435,544.8203 C450,544.8203 450,601.1172 465,601.1172 L475,601.1172 " fill="none" style="stroke:#181818;stroke-width:1.0;"/><path d="M259,319.6328 L269,319.6328 C284,319.6328 284,544.8203 299,544.8203 L309,544.8203 " fill="none" style="stroke:#181818;stroke-width:1.0;"/><path d="M117,432.2266 L127,432.2266 C142,432.2266 142,319.6328 157,319.6328 L167,319.6328 " fill="none" style="stroke:#181818;stroke-width:1.0;"/><rect fill="#F1F1F1" height="36.2969" rx="12.5" ry="12.5" style="stroke:#181818;stroke-width:1.5;" width="110" x="167" y="723.7109"/><text fill="#000000" font-family="sans-serif" font-size="14" lengthAdjust="spacing" textLength="90" x="177" y="746.7061">Variable Loss</text><rect fill="#F1F1F1" height="36.2969" rx="12.5" ry="12.5" style="stroke:#181818;stroke-width:1.5;" width="99" x="327" y="639.2656"/><text fill="#000000" font-family="sans-serif" font-size="14" lengthAdjust="spacing" textLength="79" x="337" y="662.2607">Space Loss</text><rect fill="#F1F1F1" height="36.2969" rx="12.5" ry="12.5" style="stroke:#181818;stroke-width:1.5;" width="102" x="476" y="639.2656"/><text fill="#000000" font-family="sans-serif" font-size="14" lengthAdjust="spacing" textLength="82" x="486" y="662.2607">Mars Range</text><path d="M426,657.4141 L436,657.4141 C451,657.4141 451,657.4141 466,657.4141 L476,657.4141 " fill="none" style="stroke:#181818;stroke-width:1.0;"/><path d="M277,741.8594 L287,741.8594 C302,741.8594 302,657.4141 317,657.4141 L327,657.4141 " fill="none" style="stroke:#181818;stroke-width:1.0;"/><rect fill="#F1F1F1" height="36.2969" rx="12.5" ry="12.5" style="stroke:#181818;stroke-width:1.5;" width="236" x="327" y="723.7109"/><text fill="#000000" font-family="sans-serif" font-size="14" lengthAdjust="spacing" textLength="216" x="337" y="746.7061">Atmonspheric Attenuation Loss</text><rect fill="#F1F1F1" height="36.2969" rx="12.5" ry="12.5" style="stroke:#181818;stroke-width:1.5;" width="108" x="613" y="695.5625"/><text fill="#000000" font-family="sans-serif" font-size="14" lengthAdjust="spacing" textLength="88" x="623" y="718.5576">Zenith Angle</text><path d="M563,741.8594 L573,741.8594 C588,741.8594 588,713.7109 603,713.7109 L613,713.7109 " fill="none" style="stroke:#181818;stroke-width:1.0;"/><rect fill="#F1F1F1" height="36.2969" rx="12.5" ry="12.5" style="stroke:#181818;stroke-width:1.5;" width="234" x="613" y="751.8594"/><text fill="#000000" font-family="sans-serif" font-size="14" lengthAdjust="spacing" textLength="214" x="623" y="774.8545">Site Altitude and Aerosol Model</text><path d="M563,741.8594 L573,741.8594 C588,741.8594 588,770.0078 603,770.0078 L613,770.0078 " fill="none" style="stroke:#181818;stroke-width:1.0;"/><path d="M277,741.8594 L287,741.8594 C302,741.8594 302,741.8594 317,741.8594 L327,741.8594 " fill="none" style="stroke:#181818;stroke-width:1.0;"/><rect fill="#F1F1F1" height="36.2969" rx="12.5" ry="12.5" style="stroke:#181818;stroke-width:1.5;" width="115" x="327" y="808.1563"/><text fill="#000000" font-family="sans-serif" font-size="14" lengthAdjust="spacing" textLength="95" x="337" y="831.1514">Receiver Gain</text><rect fill="#F1F1F1" height="36.2969" rx="12.5" ry="12.5" style="stroke:#181818;stroke-width:1.5;" width="265" x="492" y="808.1563"/><text fill="#000000" font-family="sans-serif" font-size="14" lengthAdjust="spacing" textLength="245" x="502" y="831.1514">Aperture and Obscuration Diameter</text><path d="M442,826.3047 L452,826.3047 C467,826.3047 467,826.3047 482,826.3047 L492,826.3047 " fill="none" style="stroke:#181818;stroke-width:1.0;"/><path d="M277,741.8594 L287,741.8594 C302,741.8594 302,826.3047 317,826.3047 L327,826.3047 " fill="none" style="stroke:#181818;stroke-width:1.0;"/><path d="M117,432.2266 L127,432.2266 C142,432.2266 142,741.8594 157,741.8594 L167,741.8594 " fill="none" style="stroke:#181818;stroke-width:1.0;"/><!--SRC=[bL9BRzf04BxxLymniKGKI1iXJd5AY4fj1M67IhqDzjIij9wrTcTH-VTTPw6ufwh7UNsFcNboWbOwnKs7VP92UN927UJ6kIHDOQL-KNE9KgWiikkK25buHSL3CeMi9olU4Y0tyBPtjRSeoZ0i5NOKUcDRZYwCVSSZQU9M3Z4xXYp5qa6FcPmRS2xyAMn9umdUUb6r6wKZz1VZUwsulUhT6CKopWI4eeJr1rsCdnMUAvVcoLTkV1rihx2X9BBMf8w1uPz2AkkvZkQ7PPH1ZupAqU2VxUxGAjnhkWekUwnfD52WTR15RgEGJ3h3hZ-GLNK8XDX7ikl43s8b1yYurNGcLKAGQL7YctYZZAnnHaDX6j9_E_oVgpvH-9hpvoGRZIplHGu1vUDeqxlP_UpXxl6cye6-jp2TmtIsk7zOV9x3oxA2eNoRtBnkSd36s-2xKKwislk1vZPPun5XwyDDEbg4LHElbzyk2NZXexA6Es99rhlYsl3uQV8SbbwI7VpiYcH9Fz5h2HErQS9z5_1UhIRp90zhzTW6RE8a_0wBFOLQ-Hi0]--></g></svg>