<svg xmlns="http://www.w3.org/2000/svg" xmlns:xlink="http://www.w3.org/1999/xlink" version="1.1" width="527.04pt" height="639.12pt" viewBox="0 0 527.04 639.12">
<defs>
<clipPath id="clip_1">
<path transform="matrix(.24,0,0,.24,0,0)" d="M0 0H2195.8333V2661.9005H0Z" fill-rule="evenodd"/>
</clipPath>
<clipPath id="clip_2">
<path transform="matrix(.24,0,0,.24,0,0)" d="M25.02374 25.02374H2170.8096V2640.0047H25.02374Z" fill-rule="evenodd"/>
</clipPath>
<path id="font_3_44" d="M.092285159 0V.68847659H.18554688V0H.092285159Z"/>
<path id="font_3_51" d="M.6142578 .48120118C.6142578 .4160258 .5930176 .36420695 .5505371 .32574464 .50805667 .28729249 .45035807 .2680664 .3774414 .2680664H.17529297V0H.08203125V.68847659H.37158204C.44873048 .68847659 .50846359 .67038986 .55078127 .6342163 .59309896 .5980428 .6142578 .5470378 .6142578 .48120118M.5205078 .4802246C.5205078 .5692546 .4671224 .61376956 .36035157 .61376956H.17529297V.34179688H.3642578C.46842448 .34179688 .5205078 .38793946 .5205078 .4802246Z"/>
<path id="font_3_3" d="M0 0Z"/>
<path id="font_3_81" d="M.40283204 0V.33496095C.40283204 .36979167 .39941407 .3968099 .39257813 .41601563 .3857422 .43522135 .37483726 .449056 .35986329 .45751954 .3448893 .46598307 .32291667 .47021485 .2939453 .47021485 .2516276 .47021485 .21826172 .45572917 .19384766 .4267578 .1694336 .39778648 .15722656 .35758464 .15722656 .30615235V0H.06933594V.41552735C.06933594 .47705079 .068359378 .51464846 .06640625 .5283203H.14941406C.14973958 .5266927 .15006511 .52229818 .15039063 .5151367 .15071614 .5079753 .15112305 .49975587 .15161133 .49047853 .15209961 .48120118 .15266927 .46370445 .15332031 .43798829H.15478516C.17496746 .47444663 .19832357 .50024417 .22485352 .51538088 .25138346 .5305176 .28434245 .53808596 .32373048 .53808596 .3816732 .53808596 .42407228 .52368167 .45092774 .49487306 .4777832 .46606446 .49121095 .41845704 .49121095 .35205079V0H.40283204Z"/>
<path id="font_3_72" d="M.13476563 .24609375C.13476563 .18539429 .14729817 .13855998 .17236328 .10559082 .19742839 .072631839 .23404949 .056152345 .28222657 .056152345 .3203125 .056152345 .35083009 .06384786 .3737793 .07923889 .39672853 .09462992 .41227214 .114115398 .42041017 .13769531L.4975586 .11564636C.46598307 .032038373 .39420573-.009765625 .28222657-.009765625 .20410156-.009765625 .14461263 .013509114 .103759769 .060058595 .0629069 .10660807 .04248047 .17578125 .04248047 .26757813 .04248047 .35481773 .0629069 .42171226 .103759769 .46826173 .14461263 .5148112 .20296224 .53808596 .2788086 .53808596 .43408204 .53808596 .51171877 .44465638 .51171877 .25779725V.24609375H.13476563M.42089845 .31347657C.41601563 .36896769 .40185548 .40944926 .37841798 .43492127 .35498048 .46040345 .32128907 .47314454 .27734376 .47314454 .23470052 .47314454 .20092774 .4589437 .17602539 .430542 .15112305 .40215049 .13769531 .36312867 .13574219 .31347657H.42089845Z"/>
<path id="font_3_87" d="M.2705078 .00390625C.24153646-.00390625 .21191406-.0078125 .18164063-.0078125 .111328128-.0078125 .076171878 .0320638 .076171878 .111816409V.46435548H.015136719V.5283203H.079589847L.10546875 .6464844H.1640625V.5283203H.26171876V.46435548H.1640625V.13085938C.1640625 .10546875 .16821289 .087646488 .17651367 .07739258 .18481446 .06713867 .19921875 .06201172 .21972656 .06201172 .23144531 .06201172 .24837239 .06429037 .2705078 .068847659V.00390625Z"/>
<path id="font_3_90" d="M.5732422 0H.4711914L.37890626 .37353517 .36132813 .4560547C.35839845 .44140626 .35384117 .42032878 .34765626 .39282228 .34147135 .36531578 .30826823 .234375 .24804688 0H.14648438L-.0014648438 .5283203H.08544922L.17480469 .1694336C.17708333 .1616211 .18408203 .12939453 .19580078 .072753909L.20410156 .10888672 .31445313 .5283203H.4086914L.50097659 .16552735 .5234375 .072753909 .5385742 .140625 .6386719 .5283203H.7246094L.5732422 0Z"/>
<path id="font_3_82" d="M.51416018 .26464845C.51416018 .17220052 .4938151 .10335287 .453125 .05810547 .4124349 .012858073 .35335288-.009765625 .2758789-.009765625 .19873047-.009765625 .14046224 .013753255 .10107422 .060791017 .0616862 .10782877 .041992189 .17578125 .041992189 .26464845 .041992189 .4469401 .12093099 .53808596 .2788086 .53808596 .35953776 .53808596 .4189453 .51586917 .45703126 .47143556 .4951172 .42700196 .51416018 .3580729 .51416018 .26464845M.421875 .26464845C.421875 .3375651 .41105143 .3905436 .3894043 .42358399 .36775718 .45662437 .33138023 .47314454 .28027345 .47314454 .22884114 .47314454 .19165039 .45629884 .16870117 .42260743 .14575196 .38891603 .13427735 .33626304 .13427735 .26464845 .13427735 .19498699 .14558919 .1426595 .16821289 .107666019 .1908366 .07267252 .22639974 .05517578 .27490235 .05517578 .32763673 .05517578 .36531578 .07210287 .38793946 .10595703 .41056315 .1398112 .421875 .19270833 .421875 .26464845Z"/>
<path id="font_3_85" d="M.06933594 0V.40527345C.06933594 .4423828 .068359378 .48339845 .06640625 .5283203H.14941406C.15201824 .46842448 .15332031 .43245445 .15332031 .42041017H.15527344C.16927083 .46565757 .18538411 .49658204 .20361328 .5131836 .22184246 .52978518 .2475586 .53808596 .28076173 .53808596 .29248048 .53808596 .30436198 .5364583 .31640626 .5332031V.45263673C.3046875 .45589195 .2890625 .45751954 .26953126 .45751954 .23307292 .45751954 .20524089 .44181315 .18603516 .4104004 .16682942 .37898765 .15722656 .33398438 .15722656 .27539063V0H.06933594Z"/>
<path id="font_3_78" d="M.3984375 0 .21972656 .24121094 .15527344 .18798828V0H.06738281V.7246094H.15527344V.27197267L.38720704 .5283203H.49023438L.2758789 .30126954 .50146487 0H.3984375Z"/>
<path id="font_3_43" d="M.5473633 0V.31933595H.17529297V0H.08203125V.68847659H.17529297V.39746095H.5473633V.68847659H.640625V0H.5473633Z"/>
<path id="font_3_55" d="M.3515625 .6123047V0H.25878907V.6123047H.022460938V.68847659H.5878906V.6123047H.3515625Z"/>
<path id="font_3_48" d="M.6669922 0V.4593506C.6669922 .51017257 .66845706 .5590413 .6713867 .60595706 .6554362 .54763796 .6411133 .5020294 .62841799 .46913148L.4506836 0H.3852539L.20507813 .46913148 .17773438 .5522003 .1616211 .60595706 .16308594 .55171206 .16503906 .4593506V0H.08203125V.68847659H.20458985L.3876953 .21102906C.39420573 .19180298 .40047203 .17119344 .40649415 .14920044 .41251628 .1272176 .4165039 .111338298 .41845704 .1015625 .4210612 .114593509 .42651368 .13438416 .43481446 .16093445 .44311524 .18748474 .44873048 .20418294 .45166017 .21102906L.63134768 .68847659H.75097659V0H.6669922Z"/>
<path id="font_3_52" d="M.72998049 .34716798C.72998049 .25016276 .7055664 .17041016 .6567383 .107910159 .60791018 .045410158 .54003909 .008463542 .453125-.0029296876 .46647135-.044118246 .4839681-.07386271 .50561526-.092163089 .5272624-.11047363 .5546875-.119628909 .5878906-.119628909 .60579428-.119628909 .6245117-.11751302 .64404299-.11328125V-.17871094C.61376956-.18587239 .58479818-.18945313 .5571289-.18945313 .5079753-.18945313 .4675293-.17549642 .43579103-.14758301 .40405274-.11967977 .37809245-.0730896 .35791017-.0078125 .29345704-.0045572917 .23787435 .01180013 .19116211 .041259767 .14444988 .0707194 .108805339 .11173502 .084228519 .16430664 .05965169 .21687825 .04736328 .27783204 .04736328 .34716798 .04736328 .457194 .07747396 .5432129 .13769531 .6052246 .19791667 .6672363 .28173829 .6982422 .38916017 .6982422 .45914714 .6982422 .51985678 .6843262 .57128909 .65649417 .6227214 .6286621 .662028 .5882161 .689209 .53515627 .71638998 .48209635 .72998049 .4194336 .72998049 .34716798M.6347656 .34716798C.6347656 .43277995 .6133626 .5 .57055667 .5488281 .5277507 .59765627 .46728517 .6220703 .38916017 .6220703 .31038413 .6220703 .24951172 .59798178 .20654297 .5498047 .16357422 .5016276 .14208985 .43408204 .14208985 .34716798 .14208985 .26090495 .16381836 .19246419 .20727539 .1418457 .25073243 .09122721 .31103517 .06591797 .3881836 .06591797 .4676107 .06591797 .52856448 .090413417 .5710449 .1394043 .6135254 .18839519 .6347656 .25764976 .6347656 .34716798Z"/>
<path id="font_3_39" d="M.6743164 .35131837C.6743164 .28030396 .66048178 .21816509 .6328125 .16490174 .60514327 .11164856 .56591799 .07085165 .5151367 .042510988 .46435548 .014170329 .40576173 0 .33935548 0H.08203125V.68847659H.3095703C.42610679 .68847659 .5160319 .6592407 .5793457 .60076907 .6426595 .54229739 .6743164 .45914714 .6743164 .35131837M.5805664 .35131837C.5805664 .4366862 .55721029 .50177 .51049807 .5465698 .4637858 .5913696 .39615885 .61376956 .3076172 .61376956H.17529297V.07470703H.32861329C.379069 .07470703 .42342124 .08578491 .46166993 .107940677 .4999186 .13009644 .5292969 .1620229 .5498047 .2037201 .5703125 .24542745 .5805664 .29462687 .5805664 .35131837Z"/>
<path id="font_3_76" d="M.06689453 .640625V.7246094H.15478516V.640625H.06689453M.06689453 0V.5283203H.15478516V0H.06689453Z"/>
<path id="font_3_86" d="M.4638672 .14613343C.4638672 .09628805 .44506837 .057840986 .4074707 .030792237 .36987306 .003753662 .31722007-.009765625 .24951172-.009765625 .18375652-.009765625 .13305664 .0010579428 .09741211 .022705079 .061767579 .044352216 .03857422 .078125 .027832032 .12402344L.10546875 .13916016C.11295573 .110839847 .12841797 .09008789 .15185547 .0769043 .17529297 .0637207 .20784505 .057128908 .24951172 .057128908 .29410807 .057128908 .32674156 .063975017 .3474121 .07766724 .36808268 .09136963 .37841798 .11191305 .37841798 .13929749 .37841798 .16015117 .3712565 .1770935 .3569336 .19012451 .3426107 .20315552 .3194987 .21390789 .28759767 .22238159L.22460938 .23899842C.17415364 .25202943 .13826497 .26481629 .11694336 .277359 .09562174 .28990174 .078938808 .30513 .06689453 .32304383 .05485026 .3409678 .048828126 .36296083 .048828126 .38902284 .048828126 .43725077 .06599935 .47398887 .1003418 .49923707 .13468425 .5244853 .18473308 .5371094 .25048829 .5371094 .3087565 .5371094 .35506187 .52685549 .3894043 .50634768 .42374674 .48583985 .44547526 .45296226 .45458985 .40771485L.37548829 .39794923C.37060548 .42138673 .35750328 .43937174 .33618165 .4519043 .31486003 .46443687 .28629557 .47070313 .25048829 .47070313 .21077474 .47070313 .18147786 .4646708 .16259766 .4526062 .14371746 .4405416 .13427735 .4222819 .13427735 .39782716 .13427735 .38284303 .1381836 .37046305 .1459961 .36068727 .1538086 .35091148 .16536458 .3426005 .18066406 .3357544 .19596355 .32891847 .22819011 .31947328 .27734376 .30741883 .32389323 .2956899 .35742188 .28485618 .3779297 .2749176 .3984375 .26497904 .41463218 .25398255 .42651368 .2419281 .43839518 .22987366 .44759117 .21594239 .45410157 .20013428 .46061198 .18433635 .4638672 .16633606 .4638672 .14613343Z"/>
<path id="font_3_83" d="M.51416018 .2668457C.51416018 .08243815 .4493815-.009765625 .31982423-.009765625 .23844402-.009765625 .18375652 .020858765 .15576172 .082107547H.15332031C.15462239 .07950338 .15527344 .051778158 .15527344-.0010681152V-.20800781H.06738281V.42033387C.06738281 .47473655 .06640625 .510732 .064453128 .5283203H.14941406C.14973958 .5270284 .15022786 .5224101 .1508789 .51446536 .15152996 .50653079 .15226238 .4942983 .15307617 .47776795 .15388997 .46124778 .15429688 .4499105 .15429688 .4437561H.15625C.171875 .4763387 .19254558 .50020346 .21826172 .51535037 .24397786 .5305074 .27783204 .53808596 .31982423 .53808596 .38492839 .53808596 .43359376 .5162557 .4658203 .4725952 .49804688 .42893473 .51416018 .36035157 .51416018 .2668457M.421875 .26489259C.421875 .33855186 .41194663 .39118449 .39208985 .42279054 .37223307 .45440675 .34065757 .47021485 .29736329 .47021485 .26253257 .47021485 .23527019 .46288047 .21557617 .44821168 .19588216 .43355308 .1809082 .4106598 .1706543 .37953187 .16040039 .34840394 .15527344 .3079122 .15527344 .25805665 .15527344 .18863933 .16634114 .13747151 .18847656 .10455322 .21061199 .071634929 .24658203 .05517578 .29638673 .05517578 .3400065 .05517578 .37182618 .07122294 .3918457 .10331726 .41186524 .13542176 .421875 .1892802 .421875 .26489259Z"/>
<path id="font_3_68" d="M.20214844-.009765625C.14908855-.009765625 .10921224 .004231771 .08251953 .032226564 .055826826 .060221357 .04248047 .09863281 .04248047 .14746094 .04248047 .20214844 .060465497 .24414063 .09643555 .2734375 .1324056 .30273438 .19042969 .31835938 .2705078 .3203125L.38916017 .32226563V.35107423C.38916017 .39404298 .38004557 .4248047 .3618164 .44335938 .34358726 .46191407 .3149414 .4711914 .2758789 .4711914 .23649089 .4711914 .20784505 .46455384 .1899414 .4512787 .17203777 .4380137 .16129558 .41681925 .15771485 .3876953L.06591797 .39596559C.08089193 .4907125 .15152996 .53808596 .27783204 .53808596 .34423829 .53808596 .39420573 .52286788 .42773438 .49243165 .46126304 .46199546 .47802735 .41796876 .47802735 .36035157V.1328125C.47802735 .106770839 .4814453 .0871582 .48828126 .07397461 .4951172 .060791017 .508138 .05419922 .52734377 .05419922 .5358073 .05419922 .54541018 .055338544 .55615237 .057617189V.0029296876C.5340169-.0022786458 .51139327-.0048828127 .48828126-.0048828127 .45572917-.0048828127 .43204753 .0036621094 .41723634 .020751954 .40242515 .037841798 .39404298 .06461588 .39208985 .10107422H.38916017C.36669923 .060709638 .34057618 .032145185 .31079103 .015380859 .28100587-.0013834635 .24479167-.009765625 .20214844-.009765625M.22216797 .056152345C.25439454 .056152345 .28304038 .06347656 .30810548 .078125 .33317057 .09277344 .35294596 .11287435 .36743165 .13842774 .38191734 .16398113 .38916017 .19026692 .38916017 .21728516V.2607422L.29296876 .25878907C.2516276 .25813804 .22029622 .25390626 .19897461 .24609375 .177653 .23828125 .16129558 .22623699 .14990235 .20996094 .13850911 .19368489 .1328125 .17236328 .1328125 .1459961 .1328125 .11735026 .14054363 .095214847 .15600586 .079589847 .1714681 .063964847 .19352214 .056152345 .22216797 .056152345Z"/>
<path id="font_3_70" d="M.13427735 .26660157C.13427735 .19628906 .14534505 .14420574 .16748047 .11035156 .18961589 .0764974 .22298177 .059570314 .26757813 .059570314 .29882813 .059570314 .32495118 .06803385 .34594728 .08496094 .36694337 .10188802 .3798828 .12792969 .38476563 .16308594L.4736328 .15722656C.46679688 .10644531 .44514976 .06591797 .4086914 .03564453 .37223307 .0053710939 .32600913-.009765625 .27001954-.009765625 .1961263-.009765625 .13972982 .013590495 .10083008 .060302736 .06193034 .10701498 .04248047 .1751302 .04248047 .26464845 .04248047 .35351563 .06201172 .42130534 .10107422 .46801759 .14013672 .5147298 .1961263 .53808596 .26904298 .53808596 .32307945 .53808596 .36791993 .5241292 .40356446 .49621583 .43920899 .4683024 .46158854 .42984519 .47070313 .38084413L.3803711 .37402345C.3758138 .40316773 .3642578 .4263204 .34570313 .44348146 .32714845 .46065269 .30078126 .46923829 .26660157 .46923829 .22005208 .46923829 .18636067 .45377604 .16552735 .42285157 .14469402 .3919271 .13427735 .33984376 .13427735 .26660157Z"/>
<path id="font_3_75" d="M.15478516 .43798829C.17366536 .4724935 .19637044 .49780274 .22290039 .513916 .24943035 .5300293 .28304038 .53808596 .32373048 .53808596 .38102214 .53808596 .42325846 .5238444 .45043946 .49536134 .47762046 .46687828 .49121095 .41910807 .49121095 .35205079V0H.40283204V.33496095C.40283204 .3720703 .39941407 .3996582 .39257813 .4177246 .3857422 .43579103 .37451173 .449056 .35888673 .45751954 .34326173 .46598307 .3216146 .47021485 .2939453 .47021485 .25260417 .47021485 .21948242 .45589195 .19458008 .4272461 .16967774 .39860026 .15722656 .36002604 .15722656 .31152345V0H.06933594V.7246094H.15722656V.5361328C.15722656 .51627609 .1566569 .49576823 .15551758 .47460938 .15437825 .45345054 .15364583 .4412435 .15332031 .43798829H.15478516Z"/>
<path id="font_3_36" d="M.5698242 0 .49121095 .20166016H.17773438L.09863281 0H.001953125L.28271485 .68847659H.38867188L.66503909 0H.5698242M.33447267 .61816409 .33007813 .6044922C.3219401 .57747396 .30989585 .54280599 .2939453 .5004883L.20605469 .27441407H.4633789L.375 .50146487C.3658854 .5239258 .35677085 .5493164 .34765626 .5776367L.33447267 .61816409Z"/>
<path id="font_3_79" d="M.06738281 0V.7246094H.15527344V0H.06738281Z"/>
<path id="font_3_69" d="M.51416018 .26660157C.51416018 .08235677 .4493815-.009765625 .31982423-.009765625 .27978517-.009765625 .24650066-.0025227864 .2199707 .011962891 .19344075 .026448569 .171875 .049804689 .15527344 .08203125H.15429688C.15429688 .0719401 .15364583 .056559247 .15234375 .035888673 .15104167 .015218099 .15006511 .0032552083 .14941406 0H.064453128C.06640625 .017578125 .06738281 .0538737 .06738281 .10888672V.7246094H.15527344V.5180664C.15527344 .49690757 .15462239 .47200523 .15332031 .44335938H.15527344C.17154949 .47721354 .19311524 .50146487 .2199707 .5161133 .24682617 .5307617 .2801107 .53808596 .31982423 .53808596 .386556 .53808596 .43562828 .515625 .46704103 .47070313 .49845378 .42578126 .51416018 .3577474 .51416018 .26660157M.421875 .26367188C.421875 .3375651 .41210938 .39046226 .39257813 .42236329 .37304688 .4542643 .3413086 .47021485 .29736329 .47021485 .24788411 .47021485 .21183269 .45328776 .18920899 .4194336 .16658528 .38557945 .15527344 .3318685 .15527344 .25830079 .15527344 .18896485 .16634114 .13777669 .18847656 .10473633 .21061199 .07169596 .24658203 .05517578 .29638673 .05517578 .34065757 .05517578 .37263999 .0715332 .39233399 .10424805 .41202799 .13696289 .421875 .19010417 .421875 .26367188Z"/>
<path id="font_3_62" d="M.07128906-.20800781V.7246094H.27001954V.6616211H.15625V-.14501953H.27001954V-.20800781H.07128906Z"/>
<path id="font_3_71" d="M.4008789 .08496094C.38460288 .05110677 .3630371 .026855469 .33618165 .012207031 .30932618-.0024414063 .27604167-.009765625 .23632813-.009765625 .16959636-.009765625 .120524089 .0126953129 .08911133 .057617189 .057698568 .10253906 .041992189 .17057292 .041992189 .26171876 .041992189 .44596354 .106770839 .53808596 .23632813 .53808596 .2763672 .53808596 .30973307 .5307617 .33642579 .5161133 .3631185 .50146487 .38460288 .4781901 .4008789 .44628907H.40185548L.4008789 .5053711V.7246094H.48876954V.10888672C.48876954 .0538737 .4897461 .017578125 .49169923 0H.40771485C.40673829 .0052083337 .40568034 .017252604 .40454103 .036132814 .4034017 .05501302 .40283204 .07128906 .40283204 .08496094H.4008789M.13427735 .26464845C.13427735 .1907552 .14404297 .13785808 .16357422 .10595703 .18310547 .07405599 .21484375 .05810547 .25878907 .05810547 .30859376 .05810547 .34472657 .07535807 .3671875 .10986328 .38964845 .14436849 .4008789 .19791667 .4008789 .2705078 .4008789 .34049479 .38964845 .3917643 .3671875 .4243164 .34472657 .4568685 .30891929 .47314454 .25976563 .47314454 .2154948 .47314454 .18351238 .4567871 .16381836 .42407228 .14412435 .39135743 .13427735 .33821617 .13427735 .26464845Z"/>
<path id="font_3_89" d="M.2993164 0H.1953125L.0034179688 .5283203H.09716797L.2133789 .18457031C.21761067 .17154949 .22884114 .13297527 .24707031 .068847659L.26416017 .12597656 .28320313 .18359375 .4033203 .5283203H.49658204L.2993164 0Z"/>
<path id="font_3_92" d="M.09326172-.20800781C.06917318-.20800781 .048990888-.20621746 .032714845-.20263672V-.13671875C.045084638-.13867188 .05875651-.13964844 .07373047-.13964844 .12841797-.13964844 .17171224-.09930929 .20361328-.018630982L.21191406 .0024414063 .0024414063 .5283203H.096191409L.20751953 .23632813C.20914714 .23177083 .21110027 .22631836 .2133789 .2199707 .21565755 .21362305 .22298177 .19238281 .23535156 .15625 .24772136 .12011719 .25439454 .0999349 .2553711 .095703128L.28955079 .19189453 .40527345 .5283203H.49804688L.29492188 0C.27311198-.056447347 .25276695-.098454799 .23388672-.12602234 .21500652-.15360005 .1940918-.17415874 .17114258-.18769837 .14819336-.20123799 .12223307-.20800781 .09326172-.20800781Z"/>
<path id="font_3_73" d="M.17626953 .46435548V0H.088378909V.46435548H.014160156V.5283203H.088378909V.5878906C.088378909 .6360677 .098958339 .67073568 .12011719 .69189456 .14127605 .7130534 .17366536 .7236328 .21728516 .7236328 .24169922 .7236328 .26236979 .7216797 .27929688 .71777346V.6508789C.26464845 .6534831 .2516276 .65478518 .24023438 .65478518 .21777344 .65478518 .20149739 .64908859 .19140625 .6376953 .18131511 .62630209 .17626953 .60563156 .17626953 .5756836V.5283203H.27929688V.46435548H.17626953Z"/>
<path id="font_3_64" d="M.0078125-.20800781V-.14501953H.12158203V.6616211H.0078125V.7246094H.20654297V-.20800781H.0078125Z"/>
<path id="font_3_53" d="M.5683594 0 .38964845 .28564454H.17529297V0H.08203125V.68847659H.40576173C.4832357 .68847659 .5430501 .67112228 .5852051 .6364136 .62736007 .6017049 .6484375 .55338546 .6484375 .49145509 .6484375 .44028727 .6335449 .39726258 .60375979 .36238099 .5739746 .32750956 .5328776 .30551148 .48046876 .29638673L.67578127 0H.5683594M.5546875 .49047853C.5546875 .53059896 .541097 .56117758 .513916 .58221438 .48673503 .60325118 .44759117 .61376956 .39648438 .61376956H.17529297V.359375H.40039063C.44954429 .359375 .48754884 .37086997 .5144043 .39385987 .54125979 .41685996 .5546875 .44906617 .5546875 .49047853Z"/>
<path id="font_3_80" d="M.375 0V.33496095C.375 .38606773 .3680013 .42138673 .3540039 .44091798 .3400065 .46044923 .31477867 .47021485 .2783203 .47021485 .24088542 .47021485 .21126302 .45589195 .18945313 .4272461 .16764324 .39860026 .15673828 .3582357 .15673828 .30615235V0H.06933594V.41552735C.06933594 .47705079 .068359378 .51464846 .06640625 .5283203H.14941406C.14973958 .5266927 .15006511 .52229818 .15039063 .5151367 .15071614 .5079753 .15112305 .49975587 .15161133 .49047853 .15209961 .48120118 .15266927 .46370445 .15332031 .43798829H.15478516C.17366536 .4754232 .1953125 .50146487 .21972656 .5161133 .24414063 .5307617 .27392579 .53808596 .30908204 .53808596 .3491211 .53808596 .38077799 .53011068 .40405274 .51416018 .42732749 .49820964 .44352214 .472819 .45263673 .43798829H.45410157C.47233073 .47347007 .49438478 .49902345 .5202637 .51464846 .5461426 .53027346 .57747396 .53808596 .6142578 .53808596 .66764327 .53808596 .7064616 .5236003 .7307129 .4946289 .7549642 .46565757 .76708987 .4181315 .76708987 .35205079V0H.6801758V.33496095C.6801758 .38606773 .67317709 .42138673 .6591797 .44091798 .6451823 .46044923 .6199544 .47021485 .5834961 .47021485 .54508468 .47021485 .5152181 .4559733 .49389649 .42749024 .47257487 .39900718 .46191407 .3585612 .46191407 .30615235V0H.375Z"/>
<path id="font_3_74" d="M.26757813-.20800781C.20996094-.20800781 .1640625-.19669597 .12988281-.17407227 .095703128-.15144857 .07373047-.11930338 .063964847-.07763672L.15234375-.064941409C.15820313-.08935547 .17114258-.1081543 .19116211-.12133789 .21118164-.13452149 .23746746-.14111328 .27001954-.14111328 .35758464-.14111328 .4013672-.08972168 .4013672 .013061523V.098236087H.40039063C.38378907 .0643514 .3610026 .038853963 .33203126 .021743775 .3030599 .0046437585 .26920573-.00390625 .23046875-.00390625 .16569011-.00390625 .11808268 .01759847 .087646488 .06060791 .057210287 .10361735 .041992189 .17122396 .041992189 .26342774 .041992189 .3569336 .05834961 .42592369 .09106445 .47039796 .1237793 .51487228 .17350261 .5371094 .24023438 .5371094 .27766929 .5371094 .31013999 .52855429 .33764649 .5114441 .36515299 .4943441 .38639323 .46999107 .4013672 .438385H.40234376C.40234376 .44810996 .40299479 .46496073 .40429688 .48893739 .40559898 .5129242 .40690104 .5260518 .40820313 .5283203H.49169923C.4897461 .510732 .48876954 .47424827 .48876954 .41886903V.014801025C.48876954-.1337382 .41503907-.20800781 .26757813-.20800781M.4013672 .2644043C.4013672 .30742393 .3955078 .34449259 .38378907 .37561036 .3720703 .40673829 .35555015 .43053184 .33422853 .44699098 .3129069 .4634501 .28873698 .4716797 .26171876 .4716797 .21679688 .4716797 .18408203 .4553833 .16357422 .42279054 .1430664 .39019776 .1328125 .33740235 .1328125 .2644043 .1328125 .19204712 .14241536 .14006043 .1616211 .108444217 .18082683 .07683817 .21370442 .061035158 .2602539 .061035158 .2879232 .061035158 .3125 .06918335 .33398438 .08547974 .35546876 .10177612 .3720703 .12515767 .38378907 .15562439 .3955078 .18610128 .4013672 .22236125 .4013672 .2644043Z"/>
<clipPath id="clip_4">
<path transform="matrix(.24,0,0,.24,0,0)" d="M0 0H2195.8333V2661.9005H0Z"/>
</clipPath>
<clipPath id="clip_5">
<path transform="matrix(.24,0,0,.24,0,0)" d="M25.02374 25.02374H2170.8096V2640.0047H25.02374Z"/>
</clipPath>
<clipPath id="clip_6">
<path transform="matrix(.24,0,0,.24,0,0)" d="M1754.6976 570.0118 1717.6727 563.84097 1723.8435 526.81607 1760.8684 532.9869 1754.6976 570.0118Z"/>
</clipPath>
<clipPath id="clip_7">
<path transform="matrix(.24,0,0,.24,0,0)" d="M25.02374 25.02374H2170.8096V2640.0047H25.02374Z" fill-rule="evenodd"/>
</clipPath>
<clipPath id="clip_8">
<path transform="matrix(.24,0,0,.24,0,0)" d="M0 0H2195.8333V2661.9005H0Z"/>
</clipPath>
<clipPath id="clip_9">
<path transform="matrix(.24,0,0,.24,0,0)" d="M25.02374 25.02374H2170.8096V2640.0047H25.02374Z"/>
</clipPath>
<clipPath id="clip_10">
<path transform="matrix(.24,0,0,.24,0,0)" d="M1069.4522 703.7927H1106.9878V741.3283H1069.4522Z"/>
</clipPath>
<clipPath id="clip_11">
<path transform="matrix(.24,0,0,.24,0,0)" d="M25.02374 25.02374H2170.8096V2640.0047H25.02374Z" fill-rule="evenodd"/>
</clipPath>
<clipPath id="clip_12">
<path transform="matrix(.24,0,0,.24,0,0)" d="M1692.5433 853.9351H1730.079V891.4707H1692.5433Z" fill-rule="evenodd"/>
</clipPath>
<clipPath id="clip_13">
<path transform="matrix(.24,0,0,.24,0,0)" d="M25.02374 25.02374H2170.8096V2640.0047H25.02374Z" fill-rule="evenodd"/>
</clipPath>
<path id="font_3_37" d="M.6142578 .19384766C.6142578 .13264974 .59195968 .08504232 .5473633 .05102539 .5027669 .017008463 .44075523 0 .36132813 0H.08203125V.68847659H.33203126C.4934896 .68847659 .57421877 .63273116 .57421877 .52124026 .57421877 .4804891 .5628255 .44625346 .54003909 .41853334 .5172526 .39082337 .48502604 .37224327 .44335938 .36279298 .49804688 .35628257 .54020187 .33797203 .5698242 .30786134 .5994466 .27775065 .6142578 .2397461 .6142578 .19384766M.48046876 .510025C.48046876 .54721578 .46777345 .5738017 .4423828 .5897827 .4169922 .6057739 .38020835 .61376956 .33203126 .61376956H.17529297V.3955078H.33203126C.38183595 .3955078 .4190267 .40488688 .44360353 .42364503 .46818034 .44240318 .48046876 .4711965 .48046876 .510025M.52001956 .20117188C.52001956 .28222657 .46305339 .3227539 .3491211 .3227539H.17529297V.07470703H.3564453C.41341148 .07470703 .45491538 .08528646 .48095704 .10644531 .5069987 .12760417 .52001956 .15917969 .52001956 .20117188Z"/>
<path id="font_3_38" d="M.38671876 .6220703C.31054688 .6220703 .2513021 .5975749 .20898438 .548584 .16666667 .4995931 .14550781 .43245445 .14550781 .34716798 .14550781 .26285807 .16756185 .19506836 .21166992 .14379883 .25577799 .0925293 .3154297 .06689453 .390625 .06689453 .48697917 .06689453 .55940756 .114583339 .60791018 .20996094L.68408206 .171875C.6557617 .11263021 .6159668 .06754557 .56469729 .036621095 .51342776 .0056966149 .4539388-.009765625 .38623048-.009765625 .31689454-.009765625 .25691734 .004638672 .20629883 .033447267 .15568035 .06225586 .11710612 .10343424 .09057617 .15698242 .06404623 .2105306 .05078125 .27392579 .05078125 .34716798 .05078125 .4568685 .08040365 .54280599 .13964844 .60498049 .19889324 .66715499 .28092448 .6982422 .3857422 .6982422 .45898438 .6982422 .5201823 .6839549 .56933596 .65538027 .61848959 .6268056 .6546224 .5844269 .6777344 .528244L.58935549 .49902345C.57340499 .5388997 .5477702 .56937667 .5124512 .5904541 .47713218 .61153158 .43522135 .6220703 .38671876 .6220703Z"/>
<path id="font_3_46" d="M.54003909 0 .26513673 .33226014 .17529297 .26385499V0H.08203125V.68847659H.17529297V.34350587L.50683596 .68847659H.6166992L.32373048 .3894348 .6557617 0H.54003909Z"/>
<clipPath id="clip_14">
<path transform="matrix(.24,0,0,.24,0,0)" d="M0 0H2195.8333V2661.9005H0Z"/>
</clipPath>
<clipPath id="clip_15">
<path transform="matrix(.24,0,0,.24,0,0)" d="M25.02374 25.02374H2170.8096V2640.0047H25.02374Z"/>
</clipPath>
<clipPath id="clip_16">
<path transform="matrix(.24,0,0,.24,0,0)" d="M1754.6976 1089.2544 1717.6727 1083.0836 1723.8435 1046.0587 1760.8684 1052.2295 1754.6976 1089.2544Z"/>
</clipPath>
<clipPath id="clip_17">
<path transform="matrix(.24,0,0,.24,0,0)" d="M25.02374 25.02374H2170.8096V2640.0047H25.02374Z" fill-rule="evenodd"/>
</clipPath>
<clipPath id="clip_18">
<path transform="matrix(.24,0,0,.24,0,0)" d="M0 0H2195.8333V2661.9005H0Z"/>
</clipPath>
<clipPath id="clip_19">
<path transform="matrix(.24,0,0,.24,0,0)" d="M25.02374 25.02374H2170.8096V2640.0047H25.02374Z"/>
</clipPath>
<clipPath id="clip_20">
<path transform="matrix(.24,0,0,.24,0,0)" d="M443.8586 1223.0354H481.39424V1260.571H443.8586Z"/>
</clipPath>
<clipPath id="clip_21">
<path transform="matrix(.24,0,0,.24,0,0)" d="M25.02374 25.02374H2170.8096V2640.0047H25.02374Z" fill-rule="evenodd"/>
</clipPath>
<path id="font_3_40" d="M.08203125 0V.68847659H.6040039V.6123047H.17529297V.39160157H.57470706V.31640626H.17529297V.076171878H.62402346V0H.08203125Z"/>
<clipPath id="clip_22">
<path transform="matrix(.24,0,0,.24,0,0)" d="M1025.9734 1549.126H1096.3527V1586.6616H1025.9734Z" fill-rule="evenodd"/>
</clipPath>
<clipPath id="clip_23">
<path transform="matrix(.24,0,0,.24,0,0)" d="M25.02374 25.02374H2170.8096V2640.0047H25.02374Z" fill-rule="evenodd"/>
</clipPath>
<path id="font_3_58" d="M.73779299 0H.62646487L.5073242 .43737794C.49951173 .46474204 .4881185 .5137736 .47314454 .58447268 .464681 .5466817 .45751954 .51508077 .45166017 .4896698 .44580079 .46425883 .4013672 .30103556 .31835938 0H.20703125L.0043945314 .68847659H.1015625L.22509766 .2511139C.2397461 .1963857 .25325523 .14002483 .265625 .08203125 .2734375 .11786906 .2824707 .15696208 .2927246 .1993103 .30297853 .2416687 .34814454 .40472413 .42822267 .68847659H.5175781L.63720706 .25990296C.6554362 .18986511 .6697591 .13057454 .6801758 .08203125L.6845703 .09913635C.6933594 .13660176 .7005208 .16714478 .7060547 .19076538 .71158859 .21438599 .7573242 .3802897 .8432617 .68847659H.9404297L.73779299 0Z"/>
<clipPath id="clip_24">
<path transform="matrix(.24,0,0,.24,0,0)" d="M0 0H2195.8333V2661.9005H0Z"/>
</clipPath>
<clipPath id="clip_25">
<path transform="matrix(.24,0,0,.24,0,0)" d="M25.02374 25.02374H2170.8096V2640.0047H25.02374Z"/>
</clipPath>
<clipPath id="clip_26">
<path transform="matrix(.24,0,0,.24,0,0)" d="M1082.1846 1796.1752 1045.1597 1790.0044 1051.3305 1752.9795 1088.3554 1759.1503 1082.1846 1796.1752Z"/>
</clipPath>
<clipPath id="clip_27">
<path transform="matrix(.24,0,0,.24,0,0)" d="M25.02374 25.02374H2170.8096V2640.0047H25.02374Z" fill-rule="evenodd"/>
</clipPath>
<path id="font_3_50" d="M.72998049 .34716798C.72998049 .27522788 .71622726 .21223958 .6887207 .15820313 .6612142 .104166667 .6217448 .06266276 .5703125 .033691408 .5188802 .0047200524 .45817057-.009765625 .3881836-.009765625 .31754557-.009765625 .2565918 .0045572917 .20532227 .033203126 .15405274 .061848958 .11490885 .103271488 .087890628 .1574707 .060872396 .21166992 .04736328 .27490235 .04736328 .34716798 .04736328 .457194 .07747396 .5432129 .13769531 .6052246 .19791667 .6672363 .28173829 .6982422 .38916017 .6982422 .45914714 .6982422 .51985678 .6843262 .57128909 .65649417 .6227214 .6286621 .662028 .5882161 .689209 .53515627 .71638998 .48209635 .72998049 .4194336 .72998049 .34716798M.6347656 .34716798C.6347656 .43277995 .6133626 .5 .57055667 .5488281 .5277507 .59765627 .46728517 .6220703 .38916017 .6220703 .31038413 .6220703 .24951172 .59798178 .20654297 .5498047 .16357422 .5016276 .14208985 .43408204 .14208985 .34716798 .14208985 .26090495 .16381836 .19246419 .20727539 .1418457 .25073243 .09122721 .31103517 .06591797 .3881836 .06591797 .4676107 .06591797 .52856448 .090413417 .5710449 .1394043 .6135254 .18839519 .6347656 .25764976 .6347656 .34716798Z"/>
<clipPath id="clip_28">
<path transform="matrix(.24,0,0,.24,0,0)" d="M1020.0303 2055.0748H1057.5659V2092.6104H1020.0303Z" fill-rule="evenodd"/>
</clipPath>
<clipPath id="clip_29">
<path transform="matrix(.24,0,0,.24,0,0)" d="M25.02374 25.02374H2170.8096V2640.0047H25.02374Z" fill-rule="evenodd"/>
</clipPath>
<clipPath id="clip_30">
<path transform="matrix(.24,0,0,.24,0,0)" d="M0 0H2195.8333V2661.9005H0Z"/>
</clipPath>
<clipPath id="clip_31">
<path transform="matrix(.24,0,0,.24,0,0)" d="M25.02374 25.02374H2170.8096V2640.0047H25.02374Z"/>
</clipPath>
<clipPath id="clip_32">
<path transform="matrix(.24,0,0,.24,0,0)" d="M1082.1846 2296.65 1045.1597 2290.479 1051.3305 2253.454 1088.3554 2259.625 1082.1846 2296.65Z"/>
</clipPath>
</defs>
<g clip-path="url(#clip_1)">
<path transform="matrix(.7507122,0,0,.7507122,6.0056979,6.0056979)" d="M0 0H686V836H0Z" fill="#ffffff"/>
</g>
<g clip-path="url(#clip_2)">
<path transform="matrix(.7507122,0,0,.7507122,43.54131,13.51282)" stroke-width="1" stroke-linecap="butt" stroke-miterlimit="4" stroke-linejoin="miter" fill="none" stroke="#000000" stroke-opacity=".502" d="M0 0H360V815H0Z"/>
<use data-text="I" xlink:href="#font_3_44" transform="matrix(12.011395,0,0,-12.011395,150.4005,24.398148)"/>
<use data-text="P" xlink:href="#font_3_51" transform="matrix(12.011395,0,0,-12.011395,153.73967,24.398148)"/>
<use data-text=" " xlink:href="#font_3_3" transform="matrix(12.011395,0,0,-12.011395,161.53215,24.398148)"/>
<use data-text="n" xlink:href="#font_3_81" transform="matrix(12.011395,0,0,-12.011395,164.87133,24.398148)"/>
<use data-text="e" xlink:href="#font_3_72" transform="matrix(12.011395,0,0,-12.011395,171.54965,24.398148)"/>
<use data-text="t" xlink:href="#font_3_87" transform="matrix(12.011395,0,0,-12.011395,178.22798,24.398148)"/>
<use data-text="w" xlink:href="#font_3_90" transform="matrix(12.011395,0,0,-12.011395,181.56716,24.398148)"/>
<use data-text="o" xlink:href="#font_3_82" transform="matrix(12.011395,0,0,-12.011395,190.23938,24.398148)"/>
<use data-text="r" xlink:href="#font_3_85" transform="matrix(12.011395,0,0,-12.011395,196.91771,24.398148)"/>
<use data-text="k" xlink:href="#font_3_78" transform="matrix(12.011395,0,0,-12.011395,200.91751,24.398148)"/>
<path transform="matrix(.7507122,0,0,.7507122,43.54131,13.51282)" d="M423 740H567C567.3978 740 567.78048 740.0761 568.14797 740.22836 568.51559 740.38058 568.84 740.59738 569.12136 740.87869 569.4026 741.1599 569.6193 741.4843 569.7716 741.85189 569.9238 742.2194 569.99996 742.6021 570 743V802C569.99996 802.39779 569.9238 802.7804 569.7716 803.14797 569.6193 803.5155 569.4026 803.83999 569.12136 804.1213 568.84 804.4025 568.51559 804.61929 568.14797 804.77157 567.78048 804.9238 567.3978 804.99996 567 805H423C422.60215 804.99996 422.21946 804.9238 421.85194 804.77157 421.48439 804.61929 421.15995 804.4025 420.87867 804.1213 420.59736 803.83999 420.38059 803.5155 420.22834 803.14797 420.07609 802.7804 419.99998 802.39779 420 802V743C419.99998 742.6021 420.07609 742.2194 420.22834 741.85189 420.38059 741.4843 420.59736 741.1599 420.87867 740.87869 421.15995 740.59738 421.48439 740.38058 421.85194 740.22836 422.21946 740.0761 422.60215 740 423 740Z" fill="#eeeeee"/>
<path transform="matrix(.7507122,0,0,.7507122,43.54131,13.51282)" stroke-width="1" stroke-linecap="butt" stroke-miterlimit="4" stroke-linejoin="miter" fill="none" stroke="#d4d4d4" d="M423 740H567C567.3978 740 567.78048 740.0761 568.14797 740.22836 568.51559 740.38058 568.84 740.59738 569.12136 740.87869 569.4026 741.1599 569.6193 741.4843 569.7716 741.85189 569.9238 742.2194 569.99996 742.6021 570 743V802C569.99996 802.39779 569.9238 802.7804 569.7716 803.14797 569.6193 803.5155 569.4026 803.83999 569.12136 804.1213 568.84 804.4025 568.51559 804.61929 568.14797 804.77157 567.78048 804.9238 567.3978 804.99996 567 805H423C422.60215 804.99996 422.21946 804.9238 421.85194 804.77157 421.48439 804.61929 421.15995 804.4025 420.87867 804.1213 420.59736 803.83999 420.38059 803.5155 420.22834 803.14797 420.07609 802.7804 419.99998 802.39779 420 802V743C419.99998 742.6021 420.07609 742.2194 420.22834 741.85189 420.38059 741.4843 420.59736 741.1599 420.87867 740.87869 421.15995 740.59738 421.48439 740.38058 421.85194 740.22836 422.21946 740.0761 422.60215 740 423 740Z"/>
<use data-text="H" xlink:href="#font_3_43" transform="matrix(12.011395,0,0,-12.011395,397.4552,597.94229)" fill="#333333"/>
<use data-text="T" xlink:href="#font_3_55" transform="matrix(12.011395,0,0,-12.011395,406.12745,597.94229)" fill="#333333"/>
<use data-text="M" xlink:href="#font_3_48" transform="matrix(12.011395,0,0,-12.011395,413.4664,597.94229)" fill="#333333"/>
<use data-text="Q" xlink:href="#font_3_52" transform="matrix(12.011395,0,0,-12.011395,423.4719,597.94229)" fill="#333333"/>
<path transform="matrix(.7507122,0,0,.7507122,43.54131,13.51282)" d="M208 740H352C352.3978 740 352.7805 740.0761 353.148 740.22836 353.51554 740.38058 353.83998 740.59738 354.12129 740.87869 354.40257 741.1599 354.61933 741.4843 354.77159 741.85189 354.92384 742.2194 354.99998 742.6021 355 743V802C354.99998 802.39779 354.92384 802.7804 354.77159 803.14797 354.61933 803.5155 354.40257 803.83999 354.12129 804.1213 353.83998 804.4025 353.51554 804.61929 353.148 804.77157 352.7805 804.9238 352.3978 804.99996 352 805H208C207.60216 804.99996 207.21947 804.9238 206.85193 804.77157 206.48439 804.61929 206.15998 804.4025 205.87868 804.1213 205.59737 803.83999 205.38059 803.5155 205.22835 803.14797 205.07611 802.7804 205 802.39779 205 802V743C205 742.6021 205.07611 742.2194 205.22835 741.85189 205.38059 741.4843 205.59737 741.1599 205.87868 740.87869 206.15998 740.59738 206.48439 740.38058 206.85193 740.22836 207.21947 740.0761 207.60216 740 208 740Z" fill="#eeeeee"/>
<path transform="matrix(.7507122,0,0,.7507122,43.54131,13.51282)" stroke-width="1" stroke-linecap="butt" stroke-miterlimit="4" stroke-linejoin="miter" fill="none" stroke="#d4d4d4" d="M208 740H352C352.3978 740 352.7805 740.0761 353.148 740.22836 353.51554 740.38058 353.83998 740.59738 354.12129 740.87869 354.40257 741.1599 354.61933 741.4843 354.77159 741.85189 354.92384 742.2194 354.99998 742.6021 355 743V802C354.99998 802.39779 354.92384 802.7804 354.77159 803.14797 354.61933 803.5155 354.40257 803.83999 354.12129 804.1213 353.83998 804.4025 353.51554 804.61929 353.148 804.77157 352.7805 804.9238 352.3978 804.99996 352 805H208C207.60216 804.99996 207.21947 804.9238 206.85193 804.77157 206.48439 804.61929 206.15998 804.4025 205.87868 804.1213 205.59737 803.83999 205.38059 803.5155 205.22835 803.14797 205.07611 802.7804 205 802.39779 205 802V743C205 742.6021 205.07611 742.2194 205.22835 741.85189 205.38059 741.4843 205.59737 741.1599 205.87868 740.87869 206.15998 740.59738 206.48439 740.38058 206.85193 740.22836 207.21947 740.0761 207.60216 740 208 740Z"/>
<use data-text="H" xlink:href="#font_3_43" transform="matrix(12.011395,0,0,-12.011395,205.68341,597.94229)" fill="#333333"/>
<use data-text="T" xlink:href="#font_3_55" transform="matrix(12.011395,0,0,-12.011395,214.35564,597.94229)" fill="#333333"/>
<use data-text="M" xlink:href="#font_3_48" transform="matrix(12.011395,0,0,-12.011395,221.69461,597.94229)" fill="#333333"/>
<use data-text="Q" xlink:href="#font_3_52" transform="matrix(12.011395,0,0,-12.011395,231.7001,597.94229)" fill="#333333"/>
<use data-text=" " xlink:href="#font_3_3" transform="matrix(12.011395,0,0,-12.011395,241.04497,597.94229)" fill="#333333"/>
<use data-text="D" xlink:href="#font_3_39" transform="matrix(12.011395,0,0,-12.011395,244.38413,597.94229)" fill="#333333"/>
<use data-text="i" xlink:href="#font_3_76" transform="matrix(12.011395,0,0,-12.011395,253.05637,597.94229)" fill="#333333"/>
<use data-text="s" xlink:href="#font_3_86" transform="matrix(12.011395,0,0,-12.011395,255.72289,597.94229)" fill="#333333"/>
<use data-text="p" xlink:href="#font_3_83" transform="matrix(12.011395,0,0,-12.011395,261.7286,597.94229)" fill="#333333"/>
<use data-text="a" xlink:href="#font_3_68" transform="matrix(12.011395,0,0,-12.011395,268.40693,597.94229)" fill="#333333"/>
<use data-text="t" xlink:href="#font_3_87" transform="matrix(12.011395,0,0,-12.011395,275.08528,597.94229)" fill="#333333"/>
<use data-text="c" xlink:href="#font_3_70" transform="matrix(12.011395,0,0,-12.011395,278.42445,597.94229)" fill="#333333"/>
<use data-text="h" xlink:href="#font_3_75" transform="matrix(12.011395,0,0,-12.011395,284.4301,597.94229)" fill="#333333"/>
<use data-text="e" xlink:href="#font_3_72" transform="matrix(12.011395,0,0,-12.011395,291.10847,597.94229)" fill="#333333"/>
<use data-text="r" xlink:href="#font_3_85" transform="matrix(12.011395,0,0,-12.011395,297.7868,597.94229)" fill="#333333"/>
<path transform="matrix(.7507122,0,0,.7507122,43.54131,13.51282)" d="M8 740H152C152.39783 740 152.7805 740.0761 153.14804 740.22836 153.51558 740.38058 153.84001 740.59738 154.12133 740.87869 154.40262 741.1599 154.61939 741.4843 154.77162 741.85189 154.92388 742.2194 155 742.6021 155 743V802C155 802.39779 154.92388 802.7804 154.77162 803.14797 154.61939 803.5155 154.40262 803.83999 154.12133 804.1213 153.84001 804.4025 153.51558 804.61929 153.14804 804.77157 152.7805 804.9238 152.39783 804.99996 152 805H8C7.6021749 804.99996 7.219491 804.9238 6.8519489 804.77157 6.484407 804.61929 6.1599838 804.4025 5.8786795 804.1213 5.5973746 803.83999 5.3806016 803.5155 5.2283608 803.14797 5.07612 802.7804 4.9999997 802.39779 5 802V743C4.9999997 742.6021 5.07612 742.2194 5.2283608 741.85189 5.3806016 741.4843 5.5973746 741.1599 5.8786795 740.87869 6.1599838 740.59738 6.484407 740.38058 6.8519489 740.22836 7.219491 740.0761 7.6021749 740 8 740Z" fill="#eeeeee"/>
<path transform="matrix(.7507122,0,0,.7507122,43.54131,13.51282)" stroke-width="1" stroke-linecap="butt" stroke-miterlimit="4" stroke-linejoin="miter" fill="none" stroke="#d4d4d4" d="M8 740H152C152.39783 740 152.7805 740.0761 153.14804 740.22836 153.51558 740.38058 153.84001 740.59738 154.12133 740.87869 154.40262 741.1599 154.61939 741.4843 154.77162 741.85189 154.92388 742.2194 155 742.6021 155 743V802C155 802.39779 154.92388 802.7804 154.77162 803.14797 154.61939 803.5155 154.40262 803.83999 154.12133 804.1213 153.84001 804.4025 153.51558 804.61929 153.14804 804.77157 152.7805 804.9238 152.39783 804.99996 152 805H8C7.6021749 804.99996 7.219491 804.9238 6.8519489 804.77157 6.484407 804.61929 6.1599838 804.4025 5.8786795 804.1213 5.5973746 803.83999 5.3806016 803.5155 5.2283608 803.14797 5.07612 802.7804 4.9999997 802.39779 5 802V743C4.9999997 742.6021 5.07612 742.2194 5.2283608 741.85189 5.3806016 741.4843 5.5973746 741.1599 5.8786795 740.87869 6.1599838 740.59738 6.484407 740.38058 6.8519489 740.22836 7.219491 740.0761 7.6021749 740 8 740Z"/>
<use data-text="A" xlink:href="#font_3_36" transform="matrix(12.011395,0,0,-12.011395,74.21494,597.94229)" fill="#333333"/>
<use data-text="p" xlink:href="#font_3_83" transform="matrix(12.011395,0,0,-12.011395,82.22655,597.94229)" fill="#333333"/>
<use data-text="p" xlink:href="#font_3_83" transform="matrix(12.011395,0,0,-12.011395,88.90488,597.94229)" fill="#333333"/>
<use data-text="l" xlink:href="#font_3_79" transform="matrix(12.011395,0,0,-12.011395,95.58322,597.94229)" fill="#333333"/>
<use data-text="i" xlink:href="#font_3_76" transform="matrix(12.011395,0,0,-12.011395,98.24975,597.94229)" fill="#333333"/>
<use data-text="c" xlink:href="#font_3_70" transform="matrix(12.011395,0,0,-12.011395,100.916278,597.94229)" fill="#333333"/>
<use data-text="a" xlink:href="#font_3_68" transform="matrix(12.011395,0,0,-12.011395,106.92198,597.94229)" fill="#333333"/>
<use data-text="t" xlink:href="#font_3_87" transform="matrix(12.011395,0,0,-12.011395,113.60031,597.94229)" fill="#333333"/>
<use data-text="i" xlink:href="#font_3_76" transform="matrix(12.011395,0,0,-12.011395,116.93948,597.94229)" fill="#333333"/>
<use data-text="o" xlink:href="#font_3_82" transform="matrix(12.011395,0,0,-12.011395,119.60602,597.94229)" fill="#333333"/>
<use data-text="n" xlink:href="#font_3_81" transform="matrix(12.011395,0,0,-12.011395,126.28435,597.94229)" fill="#333333"/>
<path transform="matrix(.7507122,0,0,.7507122,43.54131,13.51282)" stroke-width="2" stroke-linecap="butt" stroke-miterlimit="4" stroke-linejoin="miter" fill="none" stroke="#d4d4d4" d="M495 32V740"/>
<path transform="matrix(.7507122,0,0,.7507122,43.54131,13.51282)" d="M423 27H567C567.3978 27 567.78048 27.07612 568.14797 27.22836 568.51559 27.3806 568.84 27.597373 569.12136 27.878678 569.4026 28.15998 569.6193 28.484404 569.7716 28.851948 569.9238 29.21949 569.99996 29.602175 570 30V89C569.99996 89.39782 569.9238 89.780498 569.7716 90.14804 569.6193 90.51559 569.4026 90.84002 569.12136 91.12132 568.84 91.402629 568.51559 91.61939 568.14797 91.77164 567.78048 91.923877 567.3978 91.99999 567 92H423C422.60215 91.99999 422.21946 91.923877 421.85194 91.77164 421.48439 91.61939 421.15995 91.402629 420.87867 91.12132 420.59736 90.84002 420.38059 90.51559 420.22834 90.14804 420.07609 89.780498 419.99998 89.39782 420 89V30C419.99998 29.602175 420.07609 29.21949 420.22834 28.851948 420.38059 28.484404 420.59736 28.15998 420.87867 27.878678 421.15995 27.597373 421.48439 27.3806 421.85194 27.22836 422.21946 27.07612 422.60215 27 423 27Z" fill="#eeeeee"/>
<path transform="matrix(.7507122,0,0,.7507122,43.54131,13.51282)" stroke-width="1" stroke-linecap="butt" stroke-miterlimit="4" stroke-linejoin="miter" fill="none" stroke="#d4d4d4" d="M423 27H567C567.3978 27 567.78048 27.07612 568.14797 27.22836 568.51559 27.3806 568.84 27.597373 569.12136 27.878678 569.4026 28.15998 569.6193 28.484404 569.7716 28.851948 569.9238 29.21949 569.99996 29.602175 570 30V89C569.99996 89.39782 569.9238 89.780498 569.7716 90.14804 569.6193 90.51559 569.4026 90.84002 569.12136 91.12132 568.84 91.402629 568.51559 91.61939 568.14797 91.77164 567.78048 91.923877 567.3978 91.99999 567 92H423C422.60215 91.99999 422.21946 91.923877 421.85194 91.77164 421.48439 91.61939 421.15995 91.402629 420.87867 91.12132 420.59736 90.84002 420.38059 90.51559 420.22834 90.14804 420.07609 89.780498 419.99998 89.39782 420 89V30C419.99998 29.602175 420.07609 29.21949 420.22834 28.851948 420.38059 28.484404 420.59736 28.15998 420.87867 27.878678 421.15995 27.597373 421.48439 27.3806 421.85194 27.22836 422.21946 27.07612 422.60215 27 423 27Z"/>
<use data-text="H" xlink:href="#font_3_43" transform="matrix(12.011395,0,0,-12.011395,397.4552,62.68447)" fill="#333333"/>
<use data-text="T" xlink:href="#font_3_55" transform="matrix(12.011395,0,0,-12.011395,406.12745,62.68447)" fill="#333333"/>
<use data-text="M" xlink:href="#font_3_48" transform="matrix(12.011395,0,0,-12.011395,413.4664,62.68447)" fill="#333333"/>
<use data-text="Q" xlink:href="#font_3_52" transform="matrix(12.011395,0,0,-12.011395,423.4719,62.68447)" fill="#333333"/>
<path transform="matrix(.7507122,0,0,.7507122,43.54131,13.51282)" stroke-width="2" stroke-linecap="butt" stroke-miterlimit="4" stroke-linejoin="miter" fill="none" stroke="#d4d4d4" d="M280 32V740"/>
<path transform="matrix(.7507122,0,0,.7507122,43.54131,13.51282)" d="M208 27H352C352.3978 27 352.7805 27.07612 353.148 27.22836 353.51554 27.3806 353.83998 27.597373 354.12129 27.878678 354.40257 28.15998 354.61933 28.484404 354.77159 28.851948 354.92384 29.21949 354.99998 29.602175 355 30V89C354.99998 89.39782 354.92384 89.780498 354.77159 90.14804 354.61933 90.51559 354.40257 90.84002 354.12129 91.12132 353.83998 91.402629 353.51554 91.61939 353.148 91.77164 352.7805 91.923877 352.3978 91.99999 352 92H208C207.60216 91.99999 207.21947 91.923877 206.85193 91.77164 206.48439 91.61939 206.15998 91.402629 205.87868 91.12132 205.59737 90.84002 205.38059 90.51559 205.22835 90.14804 205.07611 89.780498 205 89.39782 205 89V30C205 29.602175 205.07611 29.21949 205.22835 28.851948 205.38059 28.484404 205.59737 28.15998 205.87868 27.878678 206.15998 27.597373 206.48439 27.3806 206.85193 27.22836 207.21947 27.07612 207.60216 27 208 27Z" fill="#eeeeee"/>
<path transform="matrix(.7507122,0,0,.7507122,43.54131,13.51282)" stroke-width="1" stroke-linecap="butt" stroke-miterlimit="4" stroke-linejoin="miter" fill="none" stroke="#d4d4d4" d="M208 27H352C352.3978 27 352.7805 27.07612 353.148 27.22836 353.51554 27.3806 353.83998 27.597373 354.12129 27.878678 354.40257 28.15998 354.61933 28.484404 354.77159 28.851948 354.92384 29.21949 354.99998 29.602175 355 30V89C354.99998 89.39782 354.92384 89.780498 354.77159 90.14804 354.61933 90.51559 354.40257 90.84002 354.12129 91.12132 353.83998 91.402629 353.51554 91.61939 353.148 91.77164 352.7805 91.923877 352.3978 91.99999 352 92H208C207.60216 91.99999 207.21947 91.923877 206.85193 91.77164 206.48439 91.61939 206.15998 91.402629 205.87868 91.12132 205.59737 90.84002 205.38059 90.51559 205.22835 90.14804 205.07611 89.780498 205 89.39782 205 89V30C205 29.602175 205.07611 29.21949 205.22835 28.851948 205.38059 28.484404 205.59737 28.15998 205.87868 27.878678 206.15998 27.597373 206.48439 27.3806 206.85193 27.22836 207.21947 27.07612 207.60216 27 208 27Z"/>
<use data-text="H" xlink:href="#font_3_43" transform="matrix(12.011395,0,0,-12.011395,205.68341,62.68447)" fill="#333333"/>
<use data-text="T" xlink:href="#font_3_55" transform="matrix(12.011395,0,0,-12.011395,214.35564,62.68447)" fill="#333333"/>
<use data-text="M" xlink:href="#font_3_48" transform="matrix(12.011395,0,0,-12.011395,221.69461,62.68447)" fill="#333333"/>
<use data-text="Q" xlink:href="#font_3_52" transform="matrix(12.011395,0,0,-12.011395,231.7001,62.68447)" fill="#333333"/>
<use data-text=" " xlink:href="#font_3_3" transform="matrix(12.011395,0,0,-12.011395,241.04497,62.68447)" fill="#333333"/>
<use data-text="D" xlink:href="#font_3_39" transform="matrix(12.011395,0,0,-12.011395,244.38413,62.68447)" fill="#333333"/>
<use data-text="i" xlink:href="#font_3_76" transform="matrix(12.011395,0,0,-12.011395,253.05637,62.68447)" fill="#333333"/>
<use data-text="s" xlink:href="#font_3_86" transform="matrix(12.011395,0,0,-12.011395,255.72289,62.68447)" fill="#333333"/>
<use data-text="p" xlink:href="#font_3_83" transform="matrix(12.011395,0,0,-12.011395,261.7286,62.68447)" fill="#333333"/>
<use data-text="a" xlink:href="#font_3_68" transform="matrix(12.011395,0,0,-12.011395,268.40693,62.68447)" fill="#333333"/>
<use data-text="t" xlink:href="#font_3_87" transform="matrix(12.011395,0,0,-12.011395,275.08528,62.68447)" fill="#333333"/>
<use data-text="c" xlink:href="#font_3_70" transform="matrix(12.011395,0,0,-12.011395,278.42445,62.68447)" fill="#333333"/>
<use data-text="h" xlink:href="#font_3_75" transform="matrix(12.011395,0,0,-12.011395,284.4301,62.68447)" fill="#333333"/>
<use data-text="e" xlink:href="#font_3_72" transform="matrix(12.011395,0,0,-12.011395,291.10847,62.68447)" fill="#333333"/>
<use data-text="r" xlink:href="#font_3_85" transform="matrix(12.011395,0,0,-12.011395,297.7868,62.68447)" fill="#333333"/>
<path transform="matrix(.7507122,0,0,.7507122,43.54131,13.51282)" stroke-width="2" stroke-linecap="butt" stroke-miterlimit="4" stroke-linejoin="miter" fill="none" stroke="#d4d4d4" d="M80 32V740"/>
<path transform="matrix(.7507122,0,0,.7507122,43.54131,13.51282)" d="M8 27H152C152.39783 27 152.7805 27.07612 153.14804 27.22836 153.51558 27.3806 153.84001 27.597373 154.12133 27.878678 154.40262 28.15998 154.61939 28.484404 154.77162 28.851948 154.92388 29.21949 155 29.602175 155 30V89C155 89.39782 154.92388 89.780498 154.77162 90.14804 154.61939 90.51559 154.40262 90.84002 154.12133 91.12132 153.84001 91.402629 153.51558 91.61939 153.14804 91.77164 152.7805 91.923877 152.39783 91.99999 152 92H8C7.6021749 91.99999 7.219491 91.923877 6.8519489 91.77164 6.484407 91.61939 6.1599838 91.402629 5.8786795 91.12132 5.5973746 90.84002 5.3806016 90.51559 5.2283608 90.14804 5.07612 89.780498 4.9999997 89.39782 5 89V30C4.9999997 29.602175 5.07612 29.21949 5.2283608 28.851948 5.3806016 28.484404 5.5973746 28.15998 5.8786795 27.878678 6.1599838 27.597373 6.484407 27.3806 6.8519489 27.22836 7.219491 27.07612 7.6021749 27 8 27Z" fill="#eeeeee"/>
<path transform="matrix(.7507122,0,0,.7507122,43.54131,13.51282)" stroke-width="1" stroke-linecap="butt" stroke-miterlimit="4" stroke-linejoin="miter" fill="none" stroke="#d4d4d4" d="M8 27H152C152.39783 27 152.7805 27.07612 153.14804 27.22836 153.51558 27.3806 153.84001 27.597373 154.12133 27.878678 154.40262 28.15998 154.61939 28.484404 154.77162 28.851948 154.92388 29.21949 155 29.602175 155 30V89C155 89.39782 154.92388 89.780498 154.77162 90.14804 154.61939 90.51559 154.40262 90.84002 154.12133 91.12132 153.84001 91.402629 153.51558 91.61939 153.14804 91.77164 152.7805 91.923877 152.39783 91.99999 152 92H8C7.6021749 91.99999 7.219491 91.923877 6.8519489 91.77164 6.484407 91.61939 6.1599838 91.402629 5.8786795 91.12132 5.5973746 90.84002 5.3806016 90.51559 5.2283608 90.14804 5.07612 89.780498 4.9999997 89.39782 5 89V30C4.9999997 29.602175 5.07612 29.21949 5.2283608 28.851948 5.3806016 28.484404 5.5973746 28.15998 5.8786795 27.878678 6.1599838 27.597373 6.484407 27.3806 6.8519489 27.22836 7.219491 27.07612 7.6021749 27 8 27Z"/>
<use data-text="A" xlink:href="#font_3_36" transform="matrix(12.011395,0,0,-12.011395,74.21494,62.68447)" fill="#333333"/>
<use data-text="p" xlink:href="#font_3_83" transform="matrix(12.011395,0,0,-12.011395,82.22655,62.68447)" fill="#333333"/>
<use data-text="p" xlink:href="#font_3_83" transform="matrix(12.011395,0,0,-12.011395,88.90488,62.68447)" fill="#333333"/>
<use data-text="l" xlink:href="#font_3_79" transform="matrix(12.011395,0,0,-12.011395,95.58322,62.68447)" fill="#333333"/>
<use data-text="i" xlink:href="#font_3_76" transform="matrix(12.011395,0,0,-12.011395,98.24975,62.68447)" fill="#333333"/>
<use data-text="c" xlink:href="#font_3_70" transform="matrix(12.011395,0,0,-12.011395,100.916278,62.68447)" fill="#333333"/>
<use data-text="a" xlink:href="#font_3_68" transform="matrix(12.011395,0,0,-12.011395,106.92198,62.68447)" fill="#333333"/>
<use data-text="t" xlink:href="#font_3_87" transform="matrix(12.011395,0,0,-12.011395,113.60031,62.68447)" fill="#333333"/>
<use data-text="i" xlink:href="#font_3_76" transform="matrix(12.011395,0,0,-12.011395,116.93948,62.68447)" fill="#333333"/>
<use data-text="o" xlink:href="#font_3_82" transform="matrix(12.011395,0,0,-12.011395,119.60602,62.68447)" fill="#333333"/>
<use data-text="n" xlink:href="#font_3_81" transform="matrix(12.011395,0,0,-12.011395,126.28435,62.68447)" fill="#333333"/>
<path transform="matrix(.7507122,0,0,.7507122,43.54131,13.51282)" d="M275 214H285V260H275Z" fill="#f4f4f4"/>
<path transform="matrix(.7507122,0,0,.7507122,43.54131,13.51282)" stroke-width="1" stroke-linecap="butt" stroke-miterlimit="4" stroke-linejoin="miter" fill="none" stroke="#666666" d="M275 214H285V260H275Z"/>
<path transform="matrix(.7507122,0,0,.7507122,43.54131,13.51282)" d="M75 382H85V644H75Z" fill="#f4f4f4"/>
<path transform="matrix(.7507122,0,0,.7507122,43.54131,13.51282)" stroke-width="1" stroke-linecap="butt" stroke-miterlimit="4" stroke-linejoin="miter" fill="none" stroke="#666666" d="M75 382H85V644H75Z"/>
<path transform="matrix(.7507122,0,0,.7507122,43.54131,13.51282)" d="M65 389H67V391H65M69 389H71V391H69M73 389H75V391H73M77 389H79V391H77M81 389H83V391H81M85 389H87V391H85M89 389H91V391H89M93 389H95V391H93M97 389H99V391H97M101 389H103V391H101M105 389H107V391H105M109 389H111V391H109M113 389H115V391H113M117 389H119V391H117M121 389H123V391H121M125 389H127V391H125M129 389H131V391H129M133 389H135V391H133M137 389H139V391H137M141 389H143V391H141M145 389H147V391H145M149 389H151V391H149M153 389H155V391H153M157 389H159V391H157M161 389H163V391H161M165 389H167V391H165M169 389H171V391H169M173 389H175V391H173M177 389H179V391H177M181 389H183V391H181M185 389H187V391H185M189 389H191V391H189M193 389H195V391H193M197 389H199V391H197M201 389H203V391H201M205 389H207V391H205M209 389H211V391H209M213 389H215V391H213M217 389H219V391H217M221 389H223V391H221M225 389H227V391H225M229 389H231V391H229M233 389H235V391H233M237 389H239V391H237M241 389H243V391H241M245 389H247V391H245M249 389H251V391H249M253 389H255V391H253M257 389H259V391H257M261 389H263V391H261M265 389H267V391H265M269 389H271V391H269M273 389H275V391H273M277 389H279V391H277M281 389H283V391H281M285 389H287V391H285M289 389H291V391H289M293 389H295V391H293M297 389H299V391H297M301 389H303V391H301M305 389H307V391H305M309 389H311V391H309M313 389H315V391H313M317 389H319V391H317M321 389H323V391H321M325 389H327V391H325M329 389H331V391H329M333 389H335V391H333M337 389H339V391H337M341 389H343V391H341M345 389H347V391H345M349 389H351V391H349M353 389H355V391H353M357 389H359V391H357M361 389H363V391H361M365 389H366V391H365" fill="#d4d4d4"/>
<path transform="matrix(.7507122,0,0,.7507122,43.54131,13.51282)" d="M367 390V392H365V390M367 394V396H365V394M367 398V400H365V398M367 402V404H365V402M367 406V408H365V406M367 410V412H365V410M367 414V416H365V414M367 418V420H365V418M367 422V424H365V422M367 426V428H365V426M367 430V432H365V430M367 434V436H365V434M367 438V440H365V438M367 442V444H365V442M367 446V448H365V446M367 450V452H365V450M367 454V456H365V454M367 458V460H365V458M367 462V464H365V462M367 466V468H365V466M367 470V472H365V470M367 474V476H365V474M367 478V480H365V478M367 482V484H365V482M367 486V488H365V486M367 490V492H365V490M367 494V496H365V494M367 498V500H365V498M367 502V504H365V502M367 506V508H365V506M367 510V512H365V510M367 514V516H365V514M367 518V520H365V518M367 522V524H365V522M367 526V528H365V526M367 530V532H365V530M367 534V536H365V534M367 538V540H365V538M367 542V544H365V542M367 546V548H365V546M367 550V552H365V550M367 554V556H365V554M367 558V560H365V558M367 562V564H365V562M367 566V568H365V566M367 570V572H365V570M367 574V576H365V574M367 578V580H365V578M367 582V584H365V582M367 586V588H365V586M367 590V592H365V590M367 594V596H365V594M367 598V600H365V598" fill="#d4d4d4"/>
<path transform="matrix(.7507122,0,0,.7507122,43.54131,13.51282)" d="M65 599H67V601H65M69 599H71V601H69M73 599H75V601H73M77 599H79V601H77M81 599H83V601H81M85 599H87V601H85M89 599H91V601H89M93 599H95V601H93M97 599H99V601H97M101 599H103V601H101M105 599H107V601H105M109 599H111V601H109M113 599H115V601H113M117 599H119V601H117M121 599H123V601H121M125 599H127V601H125M129 599H131V601H129M133 599H135V601H133M137 599H139V601H137M141 599H143V601H141M145 599H147V601H145M149 599H151V601H149M153 599H155V601H153M157 599H159V601H157M161 599H163V601H161M165 599H167V601H165M169 599H171V601H169M173 599H175V601H173M177 599H179V601H177M181 599H183V601H181M185 599H187V601H185M189 599H191V601H189M193 599H195V601H193M197 599H199V601H197M201 599H203V601H201M205 599H207V601H205M209 599H211V601H209M213 599H215V601H213M217 599H219V601H217M221 599H223V601H221M225 599H227V601H225M229 599H231V601H229M233 599H235V601H233M237 599H239V601H237M241 599H243V601H241M245 599H247V601H245M249 599H251V601H249M253 599H255V601H253M257 599H259V601H257M261 599H263V601H261M265 599H267V601H265M269 599H271V601H269M273 599H275V601H273M277 599H279V601H277M281 599H283V601H281M285 599H287V601H285M289 599H291V601H289M293 599H295V601H293M297 599H299V601H297M301 599H303V601H301M305 599H307V601H305M309 599H311V601H309M313 599H315V601H313M317 599H319V601H317M321 599H323V601H321M325 599H327V601H325M329 599H331V601H329M333 599H335V601H333M337 599H339V601H337M341 599H343V601H341M345 599H347V601H345M349 599H351V601H349M353 599H355V601H353M357 599H359V601H357M361 599H363V601H361M365 599H366V601H365" fill="#d4d4d4"/>
<path transform="matrix(.7507122,0,0,.7507122,43.54131,13.51282)" d="M66 390V392H64V390M66 394V396H64V394M66 398V400H64V398M66 402V404H64V402M66 406V408H64V406M66 410V412H64V410M66 414V416H64V414M66 418V420H64V418M66 422V424H64V422M66 426V428H64V426M66 430V432H64V430M66 434V436H64V434M66 438V440H64V438M66 442V444H64V442M66 446V448H64V446M66 450V452H64V450M66 454V456H64V454M66 458V460H64V458M66 462V464H64V462M66 466V468H64V466M66 470V472H64V470M66 474V476H64V474M66 478V480H64V478M66 482V484H64V482M66 486V488H64V486M66 490V492H64V490M66 494V496H64V494M66 498V500H64V498M66 502V504H64V502M66 506V508H64V506M66 510V512H64V510M66 514V516H64V514M66 518V520H64V518M66 522V524H64V522M66 526V528H64V526M66 530V532H64V530M66 534V536H64V534M66 538V540H64V538M66 542V544H64V542M66 546V548H64V546M66 550V552H64V550M66 554V556H64V554M66 558V560H64V558M66 562V564H64V562M66 566V568H64V566M66 570V572H64V570M66 574V576H64V574M66 578V580H64V578M66 582V584H64V582M66 586V588H64V586M66 590V592H64V590M66 594V596H64V594M66 598V600H64V598" fill="#d4d4d4"/>
<path transform="matrix(.7507122,0,0,.7507122,43.54131,13.51282)" d="M65 390H115V403L106.6 410H65V390Z" fill="#eeeeee"/>
<path transform="matrix(.7507122,0,0,.7507122,43.54131,13.51282)" stroke-width="1" stroke-linecap="butt" stroke-miterlimit="4" stroke-linejoin="miter" fill="none" stroke="#d4d4d4" d="M65 390H115V403L106.6 410H65V390Z"/>
<use data-text="b" xlink:href="#font_3_69" transform="matrix(12.011395,0,0,-12.011395,96.07944,319.21693)" fill="#333333"/>
<use data-text="r" xlink:href="#font_3_85" transform="matrix(12.011395,0,0,-12.011395,102.757778,319.21693)" fill="#333333"/>
<use data-text="e" xlink:href="#font_3_72" transform="matrix(12.011395,0,0,-12.011395,106.75757,319.21693)" fill="#333333"/>
<use data-text="a" xlink:href="#font_3_68" transform="matrix(12.011395,0,0,-12.011395,113.43591,319.21693)" fill="#333333"/>
<use data-text="k" xlink:href="#font_3_78" transform="matrix(12.011395,0,0,-12.011395,120.11424,319.21693)" fill="#333333"/>
<use data-text="[" xlink:href="#font_3_62" transform="matrix(12.011395,0,0,-12.011395,185.6957,319.8034)" fill="#333333"/>
<use data-text="w" xlink:href="#font_3_90" transform="matrix(12.011395,0,0,-12.011395,189.03487,319.8034)" fill="#333333"/>
<use data-text="h" xlink:href="#font_3_75" transform="matrix(12.011395,0,0,-12.011395,197.70709,319.8034)" fill="#333333"/>
<use data-text="e" xlink:href="#font_3_72" transform="matrix(12.011395,0,0,-12.011395,204.38544,319.8034)" fill="#333333"/>
<use data-text="n" xlink:href="#font_3_81" transform="matrix(12.011395,0,0,-12.011395,211.06377,319.8034)" fill="#333333"/>
<use data-text=" " xlink:href="#font_3_3" transform="matrix(12.011395,0,0,-12.011395,217.7421,319.8034)" fill="#333333"/>
<use data-text="d" xlink:href="#font_3_71" transform="matrix(12.011395,0,0,-12.011395,221.08127,319.8034)" fill="#333333"/>
<use data-text="e" xlink:href="#font_3_72" transform="matrix(12.011395,0,0,-12.011395,227.7596,319.8034)" fill="#333333"/>
<use data-text="l" xlink:href="#font_3_79" transform="matrix(12.011395,0,0,-12.011395,234.43793,319.8034)" fill="#333333"/>
<use data-text="i" xlink:href="#font_3_76" transform="matrix(12.011395,0,0,-12.011395,237.10446,319.8034)" fill="#333333"/>
<use data-text="v" xlink:href="#font_3_89" transform="matrix(12.011395,0,0,-12.011395,239.771,319.8034)" fill="#333333"/>
<use data-text="e" xlink:href="#font_3_72" transform="matrix(12.011395,0,0,-12.011395,245.77669,319.8034)" fill="#333333"/>
<use data-text="r" xlink:href="#font_3_85" transform="matrix(12.011395,0,0,-12.011395,252.45502,319.8034)" fill="#333333"/>
<use data-text="y" xlink:href="#font_3_92" transform="matrix(12.011395,0,0,-12.011395,256.45484,319.8034)" fill="#333333"/>
<use data-text="f" xlink:href="#font_3_73" transform="matrix(12.011395,0,0,-12.011395,211.73604,332.56553)" fill="#333333"/>
<use data-text="a" xlink:href="#font_3_68" transform="matrix(12.011395,0,0,-12.011395,215.0752,332.56553)" fill="#333333"/>
<use data-text="i" xlink:href="#font_3_76" transform="matrix(12.011395,0,0,-12.011395,221.75353,332.56553)" fill="#333333"/>
<use data-text="l" xlink:href="#font_3_79" transform="matrix(12.011395,0,0,-12.011395,224.42006,332.56553)" fill="#333333"/>
<use data-text="s" xlink:href="#font_3_86" transform="matrix(12.011395,0,0,-12.011395,227.0866,332.56553)" fill="#333333"/>
<use data-text="]" xlink:href="#font_3_64" transform="matrix(12.011395,0,0,-12.011395,233.09229,332.56553)" fill="#333333"/>
<use data-text="R" xlink:href="#font_3_53" transform="matrix(12.011395,0,0,-12.011395,365.15113,109.01749)" fill="#333333"/>
<use data-text="e" xlink:href="#font_3_72" transform="matrix(12.011395,0,0,-12.011395,373.82337,109.01749)" fill="#333333"/>
<use data-text="c" xlink:href="#font_3_70" transform="matrix(12.011395,0,0,-12.011395,380.50169,109.01749)" fill="#333333"/>
<use data-text="e" xlink:href="#font_3_72" transform="matrix(12.011395,0,0,-12.011395,386.5074,109.01749)" fill="#333333"/>
<use data-text="i" xlink:href="#font_3_76" transform="matrix(12.011395,0,0,-12.011395,393.18574,109.01749)" fill="#333333"/>
<use data-text="v" xlink:href="#font_3_89" transform="matrix(12.011395,0,0,-12.011395,395.85227,109.01749)" fill="#333333"/>
<use data-text="e" xlink:href="#font_3_72" transform="matrix(12.011395,0,0,-12.011395,401.85795,109.01749)" fill="#333333"/>
<use data-text="s" xlink:href="#font_3_86" transform="matrix(12.011395,0,0,-12.011395,408.5363,109.01749)" fill="#333333"/>
<use data-text=" " xlink:href="#font_3_3" transform="matrix(12.011395,0,0,-12.011395,414.542,109.01749)" fill="#333333"/>
<use data-text="m" xlink:href="#font_3_80" transform="matrix(12.011395,0,0,-12.011395,417.88114,109.01749)" fill="#333333"/>
<use data-text="e" xlink:href="#font_3_72" transform="matrix(12.011395,0,0,-12.011395,427.88664,109.01749)" fill="#333333"/>
<use data-text="s" xlink:href="#font_3_86" transform="matrix(12.011395,0,0,-12.011395,434.56498,109.01749)" fill="#333333"/>
<use data-text="s" xlink:href="#font_3_86" transform="matrix(12.011395,0,0,-12.011395,440.57069,109.01749)" fill="#333333"/>
<use data-text="a" xlink:href="#font_3_68" transform="matrix(12.011395,0,0,-12.011395,446.57637,109.01749)" fill="#333333"/>
<use data-text="g" xlink:href="#font_3_74" transform="matrix(12.011395,0,0,-12.011395,453.2547,109.01749)" fill="#333333"/>
<use data-text="e" xlink:href="#font_3_72" transform="matrix(12.011395,0,0,-12.011395,459.93305,109.01749)" fill="#333333"/>
<path transform="matrix(.7507122,0,0,.7507122,43.54131,13.51282)" stroke-width="1.5" stroke-linecap="butt" stroke-miterlimit="4" stroke-linejoin="miter" fill="none" stroke="#333333" d="M496 138C556 128 556 168 496 158"/>
</g>
<g clip-path="url(#clip_4)">
<g clip-path="url(#clip_5)">
<g clip-path="url(#clip_6)">
<path transform="matrix(-.74049797,-.12341637,.12341637,-.74049797,421.1274,136.80283)" d="M0 0 10 5 0 10V0Z" fill="#333333"/>
<path transform="matrix(-.74049797,-.12341637,.12341637,-.74049797,421.1274,136.80283)" stroke-width="1" stroke-linecap="butt" stroke-miterlimit="4" stroke-linejoin="miter" fill="none" stroke="#333333" d="M0 0 10 5 0 10V0Z"/>
</g>
</g>
</g>
<g clip-path="url(#clip_7)">
<use data-text="D" xlink:href="#font_3_39" transform="matrix(12.011395,0,0,-12.011395,292.34376,166.07161)" fill="#333333"/>
<use data-text="e" xlink:href="#font_3_72" transform="matrix(12.011395,0,0,-12.011395,301.016,166.07161)" fill="#333333"/>
<use data-text="l" xlink:href="#font_3_79" transform="matrix(12.011395,0,0,-12.011395,307.69435,166.07161)" fill="#333333"/>
<use data-text="i" xlink:href="#font_3_76" transform="matrix(12.011395,0,0,-12.011395,310.36088,166.07161)" fill="#333333"/>
<use data-text="v" xlink:href="#font_3_89" transform="matrix(12.011395,0,0,-12.011395,313.0274,166.07161)" fill="#333333"/>
<use data-text="e" xlink:href="#font_3_72" transform="matrix(12.011395,0,0,-12.011395,319.03309,166.07161)" fill="#333333"/>
<use data-text="r" xlink:href="#font_3_85" transform="matrix(12.011395,0,0,-12.011395,325.71144,166.07161)" fill="#333333"/>
<use data-text=" " xlink:href="#font_3_3" transform="matrix(12.011395,0,0,-12.011395,329.7112,166.07161)" fill="#333333"/>
<use data-text="m" xlink:href="#font_3_80" transform="matrix(12.011395,0,0,-12.011395,333.05039,166.07161)" fill="#333333"/>
<use data-text="e" xlink:href="#font_3_72" transform="matrix(12.011395,0,0,-12.011395,343.05589,166.07161)" fill="#333333"/>
<use data-text="s" xlink:href="#font_3_86" transform="matrix(12.011395,0,0,-12.011395,349.73423,166.07161)" fill="#333333"/>
<use data-text="s" xlink:href="#font_3_86" transform="matrix(12.011395,0,0,-12.011395,355.73994,166.07161)" fill="#333333"/>
<use data-text="a" xlink:href="#font_3_68" transform="matrix(12.011395,0,0,-12.011395,361.7456,166.07161)" fill="#333333"/>
<use data-text="g" xlink:href="#font_3_74" transform="matrix(12.011395,0,0,-12.011395,368.42396,166.07161)" fill="#333333"/>
<use data-text="e" xlink:href="#font_3_72" transform="matrix(12.011395,0,0,-12.011395,375.10227,166.07161)" fill="#333333"/>
<path transform="matrix(.7507122,0,0,.7507122,43.54131,13.51282)" stroke-width="1.5" stroke-linecap="butt" stroke-miterlimit="4" stroke-linejoin="miter" fill="none" stroke="#333333" d="M494 214H288"/>
</g>
<g clip-path="url(#clip_8)">
<g clip-path="url(#clip_9)">
<g clip-path="url(#clip_10)">
<path transform="matrix(-.7507122,.00000000000000009193573,-.00000000000000009193573,-.7507122,265.67707,177.9188)" d="M0 0 10 5 0 10V0Z" fill="#333333"/>
<path transform="matrix(-.7507122,.00000000000000009193573,-.00000000000000009193573,-.7507122,265.67707,177.9188)" stroke-width="1" stroke-linecap="butt" stroke-miterlimit="4" stroke-linejoin="miter" fill="none" stroke="#333333" d="M0 0 10 5 0 10V0Z"/>
</g>
</g>
</g>
<g clip-path="url(#clip_11)">
<use data-text="A" xlink:href="#font_3_36" transform="matrix(12.011395,0,0,-12.011395,299.08845,200.60437)" fill="#333333"/>
<use data-text="c" xlink:href="#font_3_70" transform="matrix(12.011395,0,0,-12.011395,307.10005,200.60437)" fill="#333333"/>
<use data-text="k" xlink:href="#font_3_78" transform="matrix(12.011395,0,0,-12.011395,313.10575,200.60437)" fill="#333333"/>
<use data-text="n" xlink:href="#font_3_81" transform="matrix(12.011395,0,0,-12.011395,319.11146,200.60437)" fill="#333333"/>
<use data-text="o" xlink:href="#font_3_82" transform="matrix(12.011395,0,0,-12.011395,325.78977,200.60437)" fill="#333333"/>
<use data-text="w" xlink:href="#font_3_90" transform="matrix(12.011395,0,0,-12.011395,332.4681,200.60437)" fill="#333333"/>
<use data-text="l" xlink:href="#font_3_79" transform="matrix(12.011395,0,0,-12.011395,341.14036,200.60437)" fill="#333333"/>
<use data-text="e" xlink:href="#font_3_72" transform="matrix(12.011395,0,0,-12.011395,343.8069,200.60437)" fill="#333333"/>
<use data-text="d" xlink:href="#font_3_71" transform="matrix(12.011395,0,0,-12.011395,350.4852,200.60437)" fill="#333333"/>
<use data-text="g" xlink:href="#font_3_74" transform="matrix(12.011395,0,0,-12.011395,357.16355,200.60437)" fill="#333333"/>
<use data-text="e" xlink:href="#font_3_72" transform="matrix(12.011395,0,0,-12.011395,363.84187,200.60437)" fill="#333333"/>
<path transform="matrix(.7507122,0,0,.7507122,43.54131,13.51282)" stroke-width="1.5" stroke-linecap="butt" stroke-miterlimit="4" stroke-linejoin="miter" fill="none" stroke="#333333" d="M285 260H491"/>
</g>
<g clip-path="url(#clip_12)">
<path transform="matrix(.7507122,0,0,.7507122,406.2104,204.94443)" d="M0 0 10 5 0 10V0Z" fill="#333333"/>
<path transform="matrix(.7507122,0,0,.7507122,406.2104,204.94443)" stroke-width="1" stroke-linecap="butt" stroke-miterlimit="4" stroke-linejoin="miter" fill="none" stroke="#333333" d="M0 0 10 5 0 10V0Z"/>
</g>
<g clip-path="url(#clip_13)">
<use data-text="B" xlink:href="#font_3_37" transform="matrix(12.011395,0,0,-12.011395,342.78227,235.13715)" fill="#333333"/>
<use data-text="r" xlink:href="#font_3_85" transform="matrix(12.011395,0,0,-12.011395,350.79386,235.13715)" fill="#333333"/>
<use data-text="o" xlink:href="#font_3_82" transform="matrix(12.011395,0,0,-12.011395,354.79365,235.13715)" fill="#333333"/>
<use data-text="a" xlink:href="#font_3_68" transform="matrix(12.011395,0,0,-12.011395,361.472,235.13715)" fill="#333333"/>
<use data-text="d" xlink:href="#font_3_71" transform="matrix(12.011395,0,0,-12.011395,368.1503,235.13715)" fill="#333333"/>
<use data-text="c" xlink:href="#font_3_70" transform="matrix(12.011395,0,0,-12.011395,374.82865,235.13715)" fill="#333333"/>
<use data-text="a" xlink:href="#font_3_68" transform="matrix(12.011395,0,0,-12.011395,380.83436,235.13715)" fill="#333333"/>
<use data-text="s" xlink:href="#font_3_86" transform="matrix(12.011395,0,0,-12.011395,387.51268,235.13715)" fill="#333333"/>
<use data-text="t" xlink:href="#font_3_87" transform="matrix(12.011395,0,0,-12.011395,393.51838,235.13715)" fill="#333333"/>
<use data-text="s" xlink:href="#font_3_86" transform="matrix(12.011395,0,0,-12.011395,396.85755,235.13715)" fill="#333333"/>
<use data-text=" " xlink:href="#font_3_3" transform="matrix(12.011395,0,0,-12.011395,402.86323,235.13715)" fill="#333333"/>
<use data-text="A" xlink:href="#font_3_36" transform="matrix(12.011395,0,0,-12.011395,405.54298,235.13715)" fill="#333333"/>
<use data-text="C" xlink:href="#font_3_38" transform="matrix(12.011395,0,0,-12.011395,413.55458,235.13715)" fill="#333333"/>
<use data-text="K" xlink:href="#font_3_46" transform="matrix(12.011395,0,0,-12.011395,422.22679,235.13715)" fill="#333333"/>
<use data-text=" " xlink:href="#font_3_3" transform="matrix(12.011395,0,0,-12.011395,430.2384,235.13715)" fill="#333333"/>
<use data-text="t" xlink:href="#font_3_87" transform="matrix(12.011395,0,0,-12.011395,433.57756,235.13715)" fill="#333333"/>
<use data-text="o" xlink:href="#font_3_82" transform="matrix(12.011395,0,0,-12.011395,436.91673,235.13715)" fill="#333333"/>
<use data-text=" " xlink:href="#font_3_3" transform="matrix(12.011395,0,0,-12.011395,443.59507,235.13715)" fill="#333333"/>
<use data-text="n" xlink:href="#font_3_81" transform="matrix(12.011395,0,0,-12.011395,446.93424,235.13715)" fill="#333333"/>
<use data-text="e" xlink:href="#font_3_72" transform="matrix(12.011395,0,0,-12.011395,453.61256,235.13715)" fill="#333333"/>
<use data-text="t" xlink:href="#font_3_87" transform="matrix(12.011395,0,0,-12.011395,460.2909,235.13715)" fill="#333333"/>
<use data-text="w" xlink:href="#font_3_90" transform="matrix(12.011395,0,0,-12.011395,463.63008,235.13715)" fill="#333333"/>
<use data-text="o" xlink:href="#font_3_82" transform="matrix(12.011395,0,0,-12.011395,472.30229,235.13715)" fill="#333333"/>
<use data-text="r" xlink:href="#font_3_85" transform="matrix(12.011395,0,0,-12.011395,478.98063,235.13715)" fill="#333333"/>
<use data-text="k" xlink:href="#font_3_78" transform="matrix(12.011395,0,0,-12.011395,482.9804,235.13715)" fill="#333333"/>
<path transform="matrix(.7507122,0,0,.7507122,43.54131,13.51282)" stroke-width="1.5" stroke-linecap="butt" stroke-miterlimit="4" stroke-linejoin="miter" fill="none" stroke="#333333" d="M496 304C556 294 556 334 496 324"/>
</g>
<g clip-path="url(#clip_14)">
<g clip-path="url(#clip_15)">
<g clip-path="url(#clip_16)">
<path transform="matrix(-.74049797,-.12341637,.12341637,-.74049797,421.1274,261.42106)" d="M0 0 10 5 0 10V0Z" fill="#333333"/>
<path transform="matrix(-.74049797,-.12341637,.12341637,-.74049797,421.1274,261.42106)" stroke-width="1" stroke-linecap="butt" stroke-miterlimit="4" stroke-linejoin="miter" fill="none" stroke="#333333" d="M0 0 10 5 0 10V0Z"/>
</g>
</g>
</g>
<g clip-path="url(#clip_17)">
<use data-text="A" xlink:href="#font_3_36" transform="matrix(12.011395,0,0,-12.011395,138.61197,290.68986)" fill="#333333"/>
<use data-text="t" xlink:href="#font_3_87" transform="matrix(12.011395,0,0,-12.011395,146.62357,290.68986)" fill="#333333"/>
<use data-text="t" xlink:href="#font_3_87" transform="matrix(12.011395,0,0,-12.011395,149.96274,290.68986)" fill="#333333"/>
<use data-text="e" xlink:href="#font_3_72" transform="matrix(12.011395,0,0,-12.011395,153.30191,290.68986)" fill="#333333"/>
<use data-text="m" xlink:href="#font_3_80" transform="matrix(12.011395,0,0,-12.011395,159.98024,290.68986)" fill="#333333"/>
<use data-text="p" xlink:href="#font_3_83" transform="matrix(12.011395,0,0,-12.011395,169.98574,290.68986)" fill="#333333"/>
<use data-text="t" xlink:href="#font_3_87" transform="matrix(12.011395,0,0,-12.011395,176.66407,290.68986)" fill="#333333"/>
<use data-text=" " xlink:href="#font_3_3" transform="matrix(12.011395,0,0,-12.011395,180.00324,290.68986)" fill="#333333"/>
<use data-text="d" xlink:href="#font_3_71" transform="matrix(12.011395,0,0,-12.011395,183.34239,290.68986)" fill="#333333"/>
<use data-text="e" xlink:href="#font_3_72" transform="matrix(12.011395,0,0,-12.011395,190.02072,290.68986)" fill="#333333"/>
<use data-text="l" xlink:href="#font_3_79" transform="matrix(12.011395,0,0,-12.011395,196.69907,290.68986)" fill="#333333"/>
<use data-text="i" xlink:href="#font_3_76" transform="matrix(12.011395,0,0,-12.011395,199.36559,290.68986)" fill="#333333"/>
<use data-text="v" xlink:href="#font_3_89" transform="matrix(12.011395,0,0,-12.011395,202.03212,290.68986)" fill="#333333"/>
<use data-text="e" xlink:href="#font_3_72" transform="matrix(12.011395,0,0,-12.011395,208.03783,290.68986)" fill="#333333"/>
<use data-text="r" xlink:href="#font_3_85" transform="matrix(12.011395,0,0,-12.011395,214.71616,290.68986)" fill="#333333"/>
<use data-text="y" xlink:href="#font_3_92" transform="matrix(12.011395,0,0,-12.011395,218.71596,290.68986)" fill="#333333"/>
<path transform="matrix(.7507122,0,0,.7507122,43.54131,13.51282)" stroke-width="1.5" stroke-linecap="butt" stroke-miterlimit="4" stroke-linejoin="miter" fill="none" stroke="#333333" d="M279 380H88"/>
</g>
<g clip-path="url(#clip_18)">
<g clip-path="url(#clip_19)">
<g clip-path="url(#clip_20)">
<path transform="matrix(-.7507122,.00000000000000009193573,-.00000000000000009193573,-.7507122,115.534618,302.53706)" d="M0 0 10 5 0 10V0Z" fill="#333333"/>
<path transform="matrix(-.7507122,.00000000000000009193573,-.00000000000000009193573,-.7507122,115.534618,302.53706)" stroke-width="1" stroke-linecap="butt" stroke-miterlimit="4" stroke-linejoin="miter" fill="none" stroke="#333333" d="M0 0 10 5 0 10V0Z"/>
</g>
</g>
</g>
<g clip-path="url(#clip_21)">
<use data-text="E" xlink:href="#font_3_40" transform="matrix(12.011395,0,0,-12.011395,166.07163,370.26536)" fill="#333333"/>
<use data-text="r" xlink:href="#font_3_85" transform="matrix(12.011395,0,0,-12.011395,174.0832,370.26536)" fill="#333333"/>
<use data-text="r" xlink:href="#font_3_85" transform="matrix(12.011395,0,0,-12.011395,178.08301,370.26536)" fill="#333333"/>
<use data-text="o" xlink:href="#font_3_82" transform="matrix(12.011395,0,0,-12.011395,182.08281,370.26536)" fill="#333333"/>
<use data-text="r" xlink:href="#font_3_85" transform="matrix(12.011395,0,0,-12.011395,188.76114,370.26536)" fill="#333333"/>
<path transform="matrix(.7507122,0,0,.7507122,43.54131,13.51282)" stroke-width="1.5" stroke-linecap="butt" stroke-miterlimit="4" stroke-linejoin="miter" fill="none" stroke="#333333" d="M85 484H276"/>
</g>
<g clip-path="url(#clip_22)">
<path transform="matrix(1.1260682,0,0,1.1260682,246.23361,371.79023)" d="M1 2 6 7M6 2 1 7" fill="#333333"/>
<path transform="matrix(1.1260682,0,0,1.1260682,246.23361,371.79023)" stroke-width="1.3333334" stroke-linecap="butt" stroke-miterlimit="4" stroke-linejoin="miter" fill="none" stroke="#333333" d="M1 2 6 7M6 2 1 7"/>
</g>
<g clip-path="url(#clip_23)">
<use data-text="W" xlink:href="#font_3_58" transform="matrix(12.011395,0,0,-12.011395,214.99694,403.29667)" fill="#333333"/>
<use data-text="a" xlink:href="#font_3_68" transform="matrix(12.011395,0,0,-12.011395,225.88813,403.29667)" fill="#333333"/>
<use data-text="i" xlink:href="#font_3_76" transform="matrix(12.011395,0,0,-12.011395,232.56647,403.29667)" fill="#333333"/>
<use data-text="t" xlink:href="#font_3_87" transform="matrix(12.011395,0,0,-12.011395,235.23299,403.29667)" fill="#333333"/>
<use data-text=" " xlink:href="#font_3_3" transform="matrix(12.011395,0,0,-12.011395,238.57216,403.29667)" fill="#333333"/>
<use data-text="a" xlink:href="#font_3_68" transform="matrix(12.011395,0,0,-12.011395,241.91133,403.29667)" fill="#333333"/>
<use data-text="n" xlink:href="#font_3_81" transform="matrix(12.011395,0,0,-12.011395,248.58966,403.29667)" fill="#333333"/>
<use data-text="d" xlink:href="#font_3_71" transform="matrix(12.011395,0,0,-12.011395,255.26799,403.29667)" fill="#333333"/>
<use data-text=" " xlink:href="#font_3_3" transform="matrix(12.011395,0,0,-12.011395,261.94633,403.29667)" fill="#333333"/>
<use data-text="R" xlink:href="#font_3_53" transform="matrix(12.011395,0,0,-12.011395,265.2855,403.29667)" fill="#333333"/>
<use data-text="e" xlink:href="#font_3_72" transform="matrix(12.011395,0,0,-12.011395,273.95774,403.29667)" fill="#333333"/>
<use data-text="t" xlink:href="#font_3_87" transform="matrix(12.011395,0,0,-12.011395,280.63606,403.29667)" fill="#333333"/>
<use data-text="r" xlink:href="#font_3_85" transform="matrix(12.011395,0,0,-12.011395,283.97523,403.29667)" fill="#333333"/>
<use data-text="y" xlink:href="#font_3_92" transform="matrix(12.011395,0,0,-12.011395,287.97505,403.29667)" fill="#333333"/>
<path transform="matrix(.7507122,0,0,.7507122,43.54131,13.51282)" stroke-width="1.5" stroke-linecap="butt" stroke-miterlimit="4" stroke-linejoin="miter" fill="none" stroke="#333333" d="M281 530C341 520 341 560 281 550"/>
</g>
<g clip-path="url(#clip_24)">
<g clip-path="url(#clip_25)">
<g clip-path="url(#clip_26)">
<path transform="matrix(-.74049797,-.12341637,.12341637,-.74049797,259.7243,431.08204)" d="M0 0 10 5 0 10V0Z" fill="#333333"/>
<path transform="matrix(-.74049797,-.12341637,.12341637,-.74049797,259.7243,431.08204)" stroke-width="1" stroke-linecap="butt" stroke-miterlimit="4" stroke-linejoin="miter" fill="none" stroke="#333333" d="M0 0 10 5 0 10V0Z"/>
</g>
</g>
</g>
<g clip-path="url(#clip_27)">
<use data-text="O" xlink:href="#font_3_50" transform="matrix(12.011395,0,0,-12.011395,170.74011,490.3793)" fill="#333333"/>
<use data-text="K" xlink:href="#font_3_46" transform="matrix(12.011395,0,0,-12.011395,180.08498,490.3793)" fill="#333333"/>
<path transform="matrix(.7507122,0,0,.7507122,43.54131,13.51282)" stroke-width="1.5" stroke-linecap="butt" stroke-miterlimit="4" stroke-linejoin="miter" fill="none" stroke="#333333" d="M85 644H276"/>
</g>
<g clip-path="url(#clip_28)">
<path transform="matrix(.7507122,0,0,.7507122,244.80727,493.21794)" d="M0 0 10 5 0 10V0Z" fill="#333333"/>
<path transform="matrix(.7507122,0,0,.7507122,244.80727,493.21794)" stroke-width="1" stroke-linecap="butt" stroke-miterlimit="4" stroke-linejoin="miter" fill="none" stroke="#333333" d="M0 0 10 5 0 10V0Z"/>
</g>
<g clip-path="url(#clip_29)">
<use data-text="D" xlink:href="#font_3_39" transform="matrix(12.011395,0,0,-12.011395,172.71073,523.41067)" fill="#333333"/>
<use data-text="e" xlink:href="#font_3_72" transform="matrix(12.011395,0,0,-12.011395,181.38295,523.41067)" fill="#333333"/>
<use data-text="l" xlink:href="#font_3_79" transform="matrix(12.011395,0,0,-12.011395,188.0613,523.41067)" fill="#333333"/>
<use data-text="e" xlink:href="#font_3_72" transform="matrix(12.011395,0,0,-12.011395,190.72782,523.41067)" fill="#333333"/>
<use data-text="t" xlink:href="#font_3_87" transform="matrix(12.011395,0,0,-12.011395,197.40616,523.41067)" fill="#333333"/>
<use data-text="e" xlink:href="#font_3_72" transform="matrix(12.011395,0,0,-12.011395,200.74532,523.41067)" fill="#333333"/>
<use data-text="s" xlink:href="#font_3_86" transform="matrix(12.011395,0,0,-12.011395,207.42365,523.41067)" fill="#333333"/>
<use data-text=" " xlink:href="#font_3_3" transform="matrix(12.011395,0,0,-12.011395,213.42935,523.41067)" fill="#333333"/>
<use data-text="m" xlink:href="#font_3_80" transform="matrix(12.011395,0,0,-12.011395,216.76851,523.41067)" fill="#333333"/>
<use data-text="e" xlink:href="#font_3_72" transform="matrix(12.011395,0,0,-12.011395,226.77402,523.41067)" fill="#333333"/>
<use data-text="s" xlink:href="#font_3_86" transform="matrix(12.011395,0,0,-12.011395,233.45235,523.41067)" fill="#333333"/>
<use data-text="s" xlink:href="#font_3_86" transform="matrix(12.011395,0,0,-12.011395,239.45804,523.41067)" fill="#333333"/>
<use data-text="a" xlink:href="#font_3_68" transform="matrix(12.011395,0,0,-12.011395,245.46375,523.41067)" fill="#333333"/>
<use data-text="g" xlink:href="#font_3_74" transform="matrix(12.011395,0,0,-12.011395,252.14208,523.41067)" fill="#333333"/>
<use data-text="e" xlink:href="#font_3_72" transform="matrix(12.011395,0,0,-12.011395,258.8204,523.41067)" fill="#333333"/>
<use data-text=" " xlink:href="#font_3_3" transform="matrix(12.011395,0,0,-12.011395,265.49876,523.41067)" fill="#333333"/>
<use data-text="f" xlink:href="#font_3_73" transform="matrix(12.011395,0,0,-12.011395,268.83793,523.41067)" fill="#333333"/>
<use data-text="r" xlink:href="#font_3_85" transform="matrix(12.011395,0,0,-12.011395,272.1771,523.41067)" fill="#333333"/>
<use data-text="o" xlink:href="#font_3_82" transform="matrix(12.011395,0,0,-12.011395,276.17689,523.41067)" fill="#333333"/>
<use data-text="m" xlink:href="#font_3_80" transform="matrix(12.011395,0,0,-12.011395,282.8552,523.41067)" fill="#333333"/>
<use data-text=" " xlink:href="#font_3_3" transform="matrix(12.011395,0,0,-12.011395,292.86073,523.41067)" fill="#333333"/>
<use data-text="s" xlink:href="#font_3_86" transform="matrix(12.011395,0,0,-12.011395,296.19987,523.41067)" fill="#333333"/>
<use data-text="t" xlink:href="#font_3_87" transform="matrix(12.011395,0,0,-12.011395,302.20558,523.41067)" fill="#333333"/>
<use data-text="o" xlink:href="#font_3_82" transform="matrix(12.011395,0,0,-12.011395,305.54475,523.41067)" fill="#333333"/>
<use data-text="r" xlink:href="#font_3_85" transform="matrix(12.011395,0,0,-12.011395,312.22309,523.41067)" fill="#333333"/>
<use data-text="a" xlink:href="#font_3_68" transform="matrix(12.011395,0,0,-12.011395,316.22288,523.41067)" fill="#333333"/>
<use data-text="g" xlink:href="#font_3_74" transform="matrix(12.011395,0,0,-12.011395,322.9012,523.41067)" fill="#333333"/>
<use data-text="e" xlink:href="#font_3_72" transform="matrix(12.011395,0,0,-12.011395,329.57954,523.41067)" fill="#333333"/>
<path transform="matrix(.7507122,0,0,.7507122,43.54131,13.51282)" stroke-width="1.5" stroke-linecap="butt" stroke-miterlimit="4" stroke-linejoin="miter" fill="none" stroke="#333333" d="M281 690C341 680 341 720 281 710"/>
</g>
<g clip-path="url(#clip_30)">
<g clip-path="url(#clip_31)">
<g clip-path="url(#clip_32)">
<path transform="matrix(-.74049797,-.12341637,.12341637,-.74049797,259.7243,551.196)" d="M0 0 10 5 0 10V0Z" fill="#333333"/>
<path transform="matrix(-.74049797,-.12341637,.12341637,-.74049797,259.7243,551.196)" stroke-width="1" stroke-linecap="butt" stroke-miterlimit="4" stroke-linejoin="miter" fill="none" stroke="#333333" d="M0 0 10 5 0 10V0Z"/>
</g>
</g>
</g>
</svg>
