<svg xmlns="http://www.w3.org/2000/svg" xmlns:xlink="http://www.w3.org/1999/xlink" version="1.1" width="439.91999pt" height="498pt" viewBox="0 0 439.91999 498">
<defs>
<clipPath id="clip_1">
<path transform="matrix(.24,0,0,.24,0,0)" d="M0 0H1833.3333V2074.232H0Z" fill-rule="evenodd"/>
</clipPath>
<clipPath id="clip_2">
<path transform="matrix(.24,0,0,.24,0,0)" d="M25.02844 25.02844H1808.3048V2052.332H25.02844Z" fill-rule="evenodd"/>
</clipPath>
<path id="font_3_37" d="M.6142578 .19384766C.6142578 .13264974 .59195968 .08504232 .5473633 .05102539 .5027669 .017008463 .44075523 0 .36132813 0H.08203125V.68847659H.33203126C.4934896 .68847659 .57421877 .63273116 .57421877 .52124026 .57421877 .4804891 .5628255 .44625346 .54003909 .41853334 .5172526 .39082337 .48502604 .37224327 .44335938 .36279298 .49804688 .35628257 .54020187 .33797203 .5698242 .30786134 .5994466 .27775065 .6142578 .2397461 .6142578 .19384766M.48046876 .510025C.48046876 .54721578 .46777345 .5738017 .4423828 .5897827 .4169922 .6057739 .38020835 .61376956 .33203126 .61376956H.17529297V.3955078H.33203126C.38183595 .3955078 .4190267 .40488688 .44360353 .42364503 .46818034 .44240318 .48046876 .4711965 .48046876 .510025M.52001956 .20117188C.52001956 .28222657 .46305339 .3227539 .3491211 .3227539H.17529297V.07470703H.3564453C.41341148 .07470703 .45491538 .08528646 .48095704 .10644531 .5069987 .12760417 .52001956 .15917969 .52001956 .20117188Z"/>
<path id="font_3_82" d="M.51416018 .26464845C.51416018 .17220052 .4938151 .10335287 .453125 .05810547 .4124349 .012858073 .35335288-.009765625 .2758789-.009765625 .19873047-.009765625 .14046224 .013753255 .10107422 .060791017 .0616862 .10782877 .041992189 .17578125 .041992189 .26464845 .041992189 .4469401 .12093099 .53808596 .2788086 .53808596 .35953776 .53808596 .4189453 .51586917 .45703126 .47143556 .4951172 .42700196 .51416018 .3580729 .51416018 .26464845M.421875 .26464845C.421875 .3375651 .41105143 .3905436 .3894043 .42358399 .36775718 .45662437 .33138023 .47314454 .28027345 .47314454 .22884114 .47314454 .19165039 .45629884 .16870117 .42260743 .14575196 .38891603 .13427735 .33626304 .13427735 .26464845 .13427735 .19498699 .14558919 .1426595 .16821289 .107666019 .1908366 .07267252 .22639974 .05517578 .27490235 .05517578 .32763673 .05517578 .36531578 .07210287 .38793946 .10595703 .41056315 .1398112 .421875 .19270833 .421875 .26464845Z"/>
<path id="font_3_69" d="M.51416018 .26660157C.51416018 .08235677 .4493815-.009765625 .31982423-.009765625 .27978517-.009765625 .24650066-.0025227864 .2199707 .011962891 .19344075 .026448569 .171875 .049804689 .15527344 .08203125H.15429688C.15429688 .0719401 .15364583 .056559247 .15234375 .035888673 .15104167 .015218099 .15006511 .0032552083 .14941406 0H.064453128C.06640625 .017578125 .06738281 .0538737 .06738281 .10888672V.7246094H.15527344V.5180664C.15527344 .49690757 .15462239 .47200523 .15332031 .44335938H.15527344C.17154949 .47721354 .19311524 .50146487 .2199707 .5161133 .24682617 .5307617 .2801107 .53808596 .31982423 .53808596 .386556 .53808596 .43562828 .515625 .46704103 .47070313 .49845378 .42578126 .51416018 .3577474 .51416018 .26660157M.421875 .26367188C.421875 .3375651 .41210938 .39046226 .39257813 .42236329 .37304688 .4542643 .3413086 .47021485 .29736329 .47021485 .24788411 .47021485 .21183269 .45328776 .18920899 .4194336 .16658528 .38557945 .15527344 .3318685 .15527344 .25830079 .15527344 .18896485 .16634114 .13777669 .18847656 .10473633 .21061199 .07169596 .24658203 .05517578 .29638673 .05517578 .34065757 .05517578 .37263999 .0715332 .39233399 .10424805 .41202799 .13696289 .421875 .19010417 .421875 .26367188Z"/>
<path id="font_3_36" d="M.5698242 0 .49121095 .20166016H.17773438L.09863281 0H.001953125L.28271485 .68847659H.38867188L.66503909 0H.5698242M.33447267 .61816409 .33007813 .6044922C.3219401 .57747396 .30989585 .54280599 .2939453 .5004883L.20605469 .27441407H.4633789L.375 .50146487C.3658854 .5239258 .35677085 .5493164 .34765626 .5776367L.33447267 .61816409Z"/>
<path id="font_3_79" d="M.06738281 0V.7246094H.15527344V0H.06738281Z"/>
<path id="font_3_76" d="M.06689453 .640625V.7246094H.15478516V.640625H.06689453M.06689453 0V.5283203H.15478516V0H.06689453Z"/>
<path id="font_3_70" d="M.13427735 .26660157C.13427735 .19628906 .14534505 .14420574 .16748047 .11035156 .18961589 .0764974 .22298177 .059570314 .26757813 .059570314 .29882813 .059570314 .32495118 .06803385 .34594728 .08496094 .36694337 .10188802 .3798828 .12792969 .38476563 .16308594L.4736328 .15722656C.46679688 .10644531 .44514976 .06591797 .4086914 .03564453 .37223307 .0053710939 .32600913-.009765625 .27001954-.009765625 .1961263-.009765625 .13972982 .013590495 .10083008 .060302736 .06193034 .10701498 .04248047 .1751302 .04248047 .26464845 .04248047 .35351563 .06201172 .42130534 .10107422 .46801759 .14013672 .5147298 .1961263 .53808596 .26904298 .53808596 .32307945 .53808596 .36791993 .5241292 .40356446 .49621583 .43920899 .4683024 .46158854 .42984519 .47070313 .38084413L.3803711 .37402345C.3758138 .40316773 .3642578 .4263204 .34570313 .44348146 .32714845 .46065269 .30078126 .46923829 .26660157 .46923829 .22005208 .46923829 .18636067 .45377604 .16552735 .42285157 .14469402 .3919271 .13427735 .33984376 .13427735 .26660157Z"/>
<path id="font_3_72" d="M.13476563 .24609375C.13476563 .18539429 .14729817 .13855998 .17236328 .10559082 .19742839 .072631839 .23404949 .056152345 .28222657 .056152345 .3203125 .056152345 .35083009 .06384786 .3737793 .07923889 .39672853 .09462992 .41227214 .114115398 .42041017 .13769531L.4975586 .11564636C.46598307 .032038373 .39420573-.009765625 .28222657-.009765625 .20410156-.009765625 .14461263 .013509114 .103759769 .060058595 .0629069 .10660807 .04248047 .17578125 .04248047 .26757813 .04248047 .35481773 .0629069 .42171226 .103759769 .46826173 .14461263 .5148112 .20296224 .53808596 .2788086 .53808596 .43408204 .53808596 .51171877 .44465638 .51171877 .25779725V.24609375H.13476563M.42089845 .31347657C.41601563 .36896769 .40185548 .40944926 .37841798 .43492127 .35498048 .46040345 .32128907 .47314454 .27734376 .47314454 .23470052 .47314454 .20092774 .4589437 .17602539 .430542 .15112305 .40215049 .13769531 .36312867 .13574219 .31347657H.42089845Z"/>
<path id="font_3_43" d="M.5473633 0V.31933595H.17529297V0H.08203125V.68847659H.17529297V.39746095H.5473633V.68847659H.640625V0H.5473633Z"/>
<path id="font_3_68" d="M.20214844-.009765625C.14908855-.009765625 .10921224 .004231771 .08251953 .032226564 .055826826 .060221357 .04248047 .09863281 .04248047 .14746094 .04248047 .20214844 .060465497 .24414063 .09643555 .2734375 .1324056 .30273438 .19042969 .31835938 .2705078 .3203125L.38916017 .32226563V.35107423C.38916017 .39404298 .38004557 .4248047 .3618164 .44335938 .34358726 .46191407 .3149414 .4711914 .2758789 .4711914 .23649089 .4711914 .20784505 .46455384 .1899414 .4512787 .17203777 .4380137 .16129558 .41681925 .15771485 .3876953L.06591797 .39596559C.08089193 .4907125 .15152996 .53808596 .27783204 .53808596 .34423829 .53808596 .39420573 .52286788 .42773438 .49243165 .46126304 .46199546 .47802735 .41796876 .47802735 .36035157V.1328125C.47802735 .106770839 .4814453 .0871582 .48828126 .07397461 .4951172 .060791017 .508138 .05419922 .52734377 .05419922 .5358073 .05419922 .54541018 .055338544 .55615237 .057617189V.0029296876C.5340169-.0022786458 .51139327-.0048828127 .48828126-.0048828127 .45572917-.0048828127 .43204753 .0036621094 .41723634 .020751954 .40242515 .037841798 .39404298 .06461588 .39208985 .10107422H.38916017C.36669923 .060709638 .34057618 .032145185 .31079103 .015380859 .28100587-.0013834635 .24479167-.009765625 .20214844-.009765625M.22216797 .056152345C.25439454 .056152345 .28304038 .06347656 .30810548 .078125 .33317057 .09277344 .35294596 .11287435 .36743165 .13842774 .38191734 .16398113 .38916017 .19026692 .38916017 .21728516V.2607422L.29296876 .25878907C.2516276 .25813804 .22029622 .25390626 .19897461 .24609375 .177653 .23828125 .16129558 .22623699 .14990235 .20996094 .13850911 .19368489 .1328125 .17236328 .1328125 .1459961 .1328125 .11735026 .14054363 .095214847 .15600586 .079589847 .1714681 .063964847 .19352214 .056152345 .22216797 .056152345Z"/>
<path id="font_3_86" d="M.4638672 .14613343C.4638672 .09628805 .44506837 .057840986 .4074707 .030792237 .36987306 .003753662 .31722007-.009765625 .24951172-.009765625 .18375652-.009765625 .13305664 .0010579428 .09741211 .022705079 .061767579 .044352216 .03857422 .078125 .027832032 .12402344L.10546875 .13916016C.11295573 .110839847 .12841797 .09008789 .15185547 .0769043 .17529297 .0637207 .20784505 .057128908 .24951172 .057128908 .29410807 .057128908 .32674156 .063975017 .3474121 .07766724 .36808268 .09136963 .37841798 .11191305 .37841798 .13929749 .37841798 .16015117 .3712565 .1770935 .3569336 .19012451 .3426107 .20315552 .3194987 .21390789 .28759767 .22238159L.22460938 .23899842C.17415364 .25202943 .13826497 .26481629 .11694336 .277359 .09562174 .28990174 .078938808 .30513 .06689453 .32304383 .05485026 .3409678 .048828126 .36296083 .048828126 .38902284 .048828126 .43725077 .06599935 .47398887 .1003418 .49923707 .13468425 .5244853 .18473308 .5371094 .25048829 .5371094 .3087565 .5371094 .35506187 .52685549 .3894043 .50634768 .42374674 .48583985 .44547526 .45296226 .45458985 .40771485L.37548829 .39794923C.37060548 .42138673 .35750328 .43937174 .33618165 .4519043 .31486003 .46443687 .28629557 .47070313 .25048829 .47070313 .21077474 .47070313 .18147786 .4646708 .16259766 .4526062 .14371746 .4405416 .13427735 .4222819 .13427735 .39782716 .13427735 .38284303 .1381836 .37046305 .1459961 .36068727 .1538086 .35091148 .16536458 .3426005 .18066406 .3357544 .19596355 .32891847 .22819011 .31947328 .27734376 .30741883 .32389323 .2956899 .35742188 .28485618 .3779297 .2749176 .3984375 .26497904 .41463218 .25398255 .42651368 .2419281 .43839518 .22987366 .44759117 .21594239 .45410157 .20013428 .46061198 .18433635 .4638672 .16633606 .4638672 .14613343Z"/>
<path id="font_3_3" d="M0 0Z"/>
<path id="font_3_80" d="M.375 0V.33496095C.375 .38606773 .3680013 .42138673 .3540039 .44091798 .3400065 .46044923 .31477867 .47021485 .2783203 .47021485 .24088542 .47021485 .21126302 .45589195 .18945313 .4272461 .16764324 .39860026 .15673828 .3582357 .15673828 .30615235V0H.06933594V.41552735C.06933594 .47705079 .068359378 .51464846 .06640625 .5283203H.14941406C.14973958 .5266927 .15006511 .52229818 .15039063 .5151367 .15071614 .5079753 .15112305 .49975587 .15161133 .49047853 .15209961 .48120118 .15266927 .46370445 .15332031 .43798829H.15478516C.17366536 .4754232 .1953125 .50146487 .21972656 .5161133 .24414063 .5307617 .27392579 .53808596 .30908204 .53808596 .3491211 .53808596 .38077799 .53011068 .40405274 .51416018 .42732749 .49820964 .44352214 .472819 .45263673 .43798829H.45410157C.47233073 .47347007 .49438478 .49902345 .5202637 .51464846 .5461426 .53027346 .57747396 .53808596 .6142578 .53808596 .66764327 .53808596 .7064616 .5236003 .7307129 .4946289 .7549642 .46565757 .76708987 .4181315 .76708987 .35205079V0H.6801758V.33496095C.6801758 .38606773 .67317709 .42138673 .6591797 .44091798 .6451823 .46044923 .6199544 .47021485 .5834961 .47021485 .54508468 .47021485 .5152181 .4559733 .49389649 .42749024 .47257487 .39900718 .46191407 .3585612 .46191407 .30615235V0H.375Z"/>
<path id="font_3_74" d="M.26757813-.20800781C.20996094-.20800781 .1640625-.19669597 .12988281-.17407227 .095703128-.15144857 .07373047-.11930338 .063964847-.07763672L.15234375-.064941409C.15820313-.08935547 .17114258-.1081543 .19116211-.12133789 .21118164-.13452149 .23746746-.14111328 .27001954-.14111328 .35758464-.14111328 .4013672-.08972168 .4013672 .013061523V.098236087H.40039063C.38378907 .0643514 .3610026 .038853963 .33203126 .021743775 .3030599 .0046437585 .26920573-.00390625 .23046875-.00390625 .16569011-.00390625 .11808268 .01759847 .087646488 .06060791 .057210287 .10361735 .041992189 .17122396 .041992189 .26342774 .041992189 .3569336 .05834961 .42592369 .09106445 .47039796 .1237793 .51487228 .17350261 .5371094 .24023438 .5371094 .27766929 .5371094 .31013999 .52855429 .33764649 .5114441 .36515299 .4943441 .38639323 .46999107 .4013672 .438385H.40234376C.40234376 .44810996 .40299479 .46496073 .40429688 .48893739 .40559898 .5129242 .40690104 .5260518 .40820313 .5283203H.49169923C.4897461 .510732 .48876954 .47424827 .48876954 .41886903V.014801025C.48876954-.1337382 .41503907-.20800781 .26757813-.20800781M.4013672 .2644043C.4013672 .30742393 .3955078 .34449259 .38378907 .37561036 .3720703 .40673829 .35555015 .43053184 .33422853 .44699098 .3129069 .4634501 .28873698 .4716797 .26171876 .4716797 .21679688 .4716797 .18408203 .4553833 .16357422 .42279054 .1430664 .39019776 .1328125 .33740235 .1328125 .2644043 .1328125 .19204712 .14241536 .14006043 .1616211 .108444217 .18082683 .07683817 .21370442 .061035158 .2602539 .061035158 .2879232 .061035158 .3125 .06918335 .33398438 .08547974 .35546876 .10177612 .3720703 .12515767 .38378907 .15562439 .3955078 .18610128 .4013672 .22236125 .4013672 .2644043Z"/>
<path id="font_3_73" d="M.17626953 .46435548V0H.088378909V.46435548H.014160156V.5283203H.088378909V.5878906C.088378909 .6360677 .098958339 .67073568 .12011719 .69189456 .14127605 .7130534 .17366536 .7236328 .21728516 .7236328 .24169922 .7236328 .26236979 .7216797 .27929688 .71777346V.6508789C.26464845 .6534831 .2516276 .65478518 .24023438 .65478518 .21777344 .65478518 .20149739 .64908859 .19140625 .6376953 .18131511 .62630209 .17626953 .60563156 .17626953 .5756836V.5283203H.27929688V.46435548H.17626953Z"/>
<path id="font_3_85" d="M.06933594 0V.40527345C.06933594 .4423828 .068359378 .48339845 .06640625 .5283203H.14941406C.15201824 .46842448 .15332031 .43245445 .15332031 .42041017H.15527344C.16927083 .46565757 .18538411 .49658204 .20361328 .5131836 .22184246 .52978518 .2475586 .53808596 .28076173 .53808596 .29248048 .53808596 .30436198 .5364583 .31640626 .5332031V.45263673C.3046875 .45589195 .2890625 .45751954 .26953126 .45751954 .23307292 .45751954 .20524089 .44181315 .18603516 .4104004 .16682942 .37898765 .15722656 .33398438 .15722656 .27539063V0H.06933594Z"/>
<path id="font_3_38" d="M.38671876 .6220703C.31054688 .6220703 .2513021 .5975749 .20898438 .548584 .16666667 .4995931 .14550781 .43245445 .14550781 .34716798 .14550781 .26285807 .16756185 .19506836 .21166992 .14379883 .25577799 .0925293 .3154297 .06689453 .390625 .06689453 .48697917 .06689453 .55940756 .114583339 .60791018 .20996094L.68408206 .171875C.6557617 .11263021 .6159668 .06754557 .56469729 .036621095 .51342776 .0056966149 .4539388-.009765625 .38623048-.009765625 .31689454-.009765625 .25691734 .004638672 .20629883 .033447267 .15568035 .06225586 .11710612 .10343424 .09057617 .15698242 .06404623 .2105306 .05078125 .27392579 .05078125 .34716798 .05078125 .4568685 .08040365 .54280599 .13964844 .60498049 .19889324 .66715499 .28092448 .6982422 .3857422 .6982422 .45898438 .6982422 .5201823 .6839549 .56933596 .65538027 .61848959 .6268056 .6546224 .5844269 .6777344 .528244L.58935549 .49902345C.57340499 .5388997 .5477702 .56937667 .5124512 .5904541 .47713218 .61153158 .43522135 .6220703 .38671876 .6220703Z"/>
<path id="font_3_83" d="M.51416018 .2668457C.51416018 .08243815 .4493815-.009765625 .31982423-.009765625 .23844402-.009765625 .18375652 .020858765 .15576172 .082107547H.15332031C.15462239 .07950338 .15527344 .051778158 .15527344-.0010681152V-.20800781H.06738281V.42033387C.06738281 .47473655 .06640625 .510732 .064453128 .5283203H.14941406C.14973958 .5270284 .15022786 .5224101 .1508789 .51446536 .15152996 .50653079 .15226238 .4942983 .15307617 .47776795 .15388997 .46124778 .15429688 .4499105 .15429688 .4437561H.15625C.171875 .4763387 .19254558 .50020346 .21826172 .51535037 .24397786 .5305074 .27783204 .53808596 .31982423 .53808596 .38492839 .53808596 .43359376 .5162557 .4658203 .4725952 .49804688 .42893473 .51416018 .36035157 .51416018 .2668457M.421875 .26489259C.421875 .33855186 .41194663 .39118449 .39208985 .42279054 .37223307 .45440675 .34065757 .47021485 .29736329 .47021485 .26253257 .47021485 .23527019 .46288047 .21557617 .44821168 .19588216 .43355308 .1809082 .4106598 .1706543 .37953187 .16040039 .34840394 .15527344 .3079122 .15527344 .25805665 .15527344 .18863933 .16634114 .13747151 .18847656 .10455322 .21061199 .071634929 .24658203 .05517578 .29638673 .05517578 .3400065 .05517578 .37182618 .07122294 .3918457 .10331726 .41186524 .13542176 .421875 .1892802 .421875 .26489259Z"/>
<path id="font_3_87" d="M.2705078 .00390625C.24153646-.00390625 .21191406-.0078125 .18164063-.0078125 .111328128-.0078125 .076171878 .0320638 .076171878 .111816409V.46435548H.015136719V.5283203H.079589847L.10546875 .6464844H.1640625V.5283203H.26171876V.46435548H.1640625V.13085938C.1640625 .10546875 .16821289 .087646488 .17651367 .07739258 .18481446 .06713867 .19921875 .06201172 .21972656 .06201172 .23144531 .06201172 .24837239 .06429037 .2705078 .068847659V.00390625Z"/>
<path id="font_3_81" d="M.40283204 0V.33496095C.40283204 .36979167 .39941407 .3968099 .39257813 .41601563 .3857422 .43522135 .37483726 .449056 .35986329 .45751954 .3448893 .46598307 .32291667 .47021485 .2939453 .47021485 .2516276 .47021485 .21826172 .45572917 .19384766 .4267578 .1694336 .39778648 .15722656 .35758464 .15722656 .30615235V0H.06933594V.41552735C.06933594 .47705079 .068359378 .51464846 .06640625 .5283203H.14941406C.14973958 .5266927 .15006511 .52229818 .15039063 .5151367 .15071614 .5079753 .15112305 .49975587 .15161133 .49047853 .15209961 .48120118 .15266927 .46370445 .15332031 .43798829H.15478516C.17496746 .47444663 .19832357 .50024417 .22485352 .51538088 .25138346 .5305176 .28434245 .53808596 .32373048 .53808596 .3816732 .53808596 .42407228 .52368167 .45092774 .49487306 .4777832 .46606446 .49121095 .41845704 .49121095 .35205079V0H.40283204Z"/>
<path id="font_3_78" d="M.3984375 0 .21972656 .24121094 .15527344 .18798828V0H.06738281V.7246094H.15527344V.27197267L.38720704 .5283203H.49023438L.2758789 .30126954 .50146487 0H.3984375Z"/>
<path id="font_3_40" d="M.08203125 0V.68847659H.6040039V.6123047H.17529297V.39160157H.57470706V.31640626H.17529297V.076171878H.62402346V0H.08203125Z"/>
<path id="font_3_75" d="M.15478516 .43798829C.17366536 .4724935 .19637044 .49780274 .22290039 .513916 .24943035 .5300293 .28304038 .53808596 .32373048 .53808596 .38102214 .53808596 .42325846 .5238444 .45043946 .49536134 .47762046 .46687828 .49121095 .41910807 .49121095 .35205079V0H.40283204V.33496095C.40283204 .3720703 .39941407 .3996582 .39257813 .4177246 .3857422 .43579103 .37451173 .449056 .35888673 .45751954 .34326173 .46598307 .3216146 .47021485 .2939453 .47021485 .25260417 .47021485 .21948242 .45589195 .19458008 .4272461 .16967774 .39860026 .15722656 .36002604 .15722656 .31152345V0H.06933594V.7246094H.15722656V.5361328C.15722656 .51627609 .1566569 .49576823 .15551758 .47460938 .15437825 .45345054 .15364583 .4412435 .15332031 .43798829H.15478516Z"/>
<path id="font_3_71" d="M.4008789 .08496094C.38460288 .05110677 .3630371 .026855469 .33618165 .012207031 .30932618-.0024414063 .27604167-.009765625 .23632813-.009765625 .16959636-.009765625 .120524089 .0126953129 .08911133 .057617189 .057698568 .10253906 .041992189 .17057292 .041992189 .26171876 .041992189 .44596354 .106770839 .53808596 .23632813 .53808596 .2763672 .53808596 .30973307 .5307617 .33642579 .5161133 .3631185 .50146487 .38460288 .4781901 .4008789 .44628907H.40185548L.4008789 .5053711V.7246094H.48876954V.10888672C.48876954 .0538737 .4897461 .017578125 .49169923 0H.40771485C.40673829 .0052083337 .40568034 .017252604 .40454103 .036132814 .4034017 .05501302 .40283204 .07128906 .40283204 .08496094H.4008789M.13427735 .26464845C.13427735 .1907552 .14404297 .13785808 .16357422 .10595703 .18310547 .07405599 .21484375 .05810547 .25878907 .05810547 .30859376 .05810547 .34472657 .07535807 .3671875 .10986328 .38964845 .14436849 .4008789 .19791667 .4008789 .2705078 .4008789 .34049479 .38964845 .3917643 .3671875 .4243164 .34472657 .4568685 .30891929 .47314454 .25976563 .47314454 .2154948 .47314454 .18351238 .4567871 .16381836 .42407228 .14412435 .39135743 .13427735 .33821617 .13427735 .26464845Z"/>
<path id="font_3_39" d="M.6743164 .35131837C.6743164 .28030396 .66048178 .21816509 .6328125 .16490174 .60514327 .11164856 .56591799 .07085165 .5151367 .042510988 .46435548 .014170329 .40576173 0 .33935548 0H.08203125V.68847659H.3095703C.42610679 .68847659 .5160319 .6592407 .5793457 .60076907 .6426595 .54229739 .6743164 .45914714 .6743164 .35131837M.5805664 .35131837C.5805664 .4366862 .55721029 .50177 .51049807 .5465698 .4637858 .5913696 .39615885 .61376956 .3076172 .61376956H.17529297V.07470703H.32861329C.379069 .07470703 .42342124 .08578491 .46166993 .107940677 .4999186 .13009644 .5292969 .1620229 .5498047 .2037201 .5703125 .24542745 .5805664 .29462687 .5805664 .35131837Z"/>
<path id="font_3_89" d="M.2993164 0H.1953125L.0034179688 .5283203H.09716797L.2133789 .18457031C.21761067 .17154949 .22884114 .13297527 .24707031 .068847659L.26416017 .12597656 .28320313 .18359375 .4033203 .5283203H.49658204L.2993164 0Z"/>
<path id="font_3_92" d="M.09326172-.20800781C.06917318-.20800781 .048990888-.20621746 .032714845-.20263672V-.13671875C.045084638-.13867188 .05875651-.13964844 .07373047-.13964844 .12841797-.13964844 .17171224-.09930929 .20361328-.018630982L.21191406 .0024414063 .0024414063 .5283203H.096191409L.20751953 .23632813C.20914714 .23177083 .21110027 .22631836 .2133789 .2199707 .21565755 .21362305 .22298177 .19238281 .23535156 .15625 .24772136 .12011719 .25439454 .0999349 .2553711 .095703128L.28955079 .19189453 .40527345 .5283203H.49804688L.29492188 0C.27311198-.056447347 .25276695-.098454799 .23388672-.12602234 .21500652-.15360005 .1940918-.17415874 .17114258-.18769837 .14819336-.20123799 .12223307-.20800781 .09326172-.20800781Z"/>
<clipPath id="clip_4">
<path transform="matrix(.24,0,0,.24,0,0)" d="M1267.3777 534.9829H1304.9203V572.5256H1267.3777Z" fill-rule="evenodd"/>
</clipPath>
<clipPath id="clip_5">
<path transform="matrix(.24,0,0,.24,0,0)" d="M25.02844 25.02844H1808.3048V2052.332H25.02844Z" fill-rule="evenodd"/>
</clipPath>
<path id="font_3_53" d="M.5683594 0 .38964845 .28564454H.17529297V0H.08203125V.68847659H.40576173C.4832357 .68847659 .5430501 .67112228 .5852051 .6364136 .62736007 .6017049 .6484375 .55338546 .6484375 .49145509 .6484375 .44028727 .6335449 .39726258 .60375979 .36238099 .5739746 .32750956 .5328776 .30551148 .48046876 .29638673L.67578127 0H.5683594M.5546875 .49047853C.5546875 .53059896 .541097 .56117758 .513916 .58221438 .48673503 .60325118 .44759117 .61376956 .39648438 .61376956H.17529297V.359375H.40039063C.44954429 .359375 .48754884 .37086997 .5144043 .39385987 .54125979 .41685996 .5546875 .44906617 .5546875 .49047853Z"/>
<clipPath id="clip_6">
<path transform="matrix(.24,0,0,.24,0,0)" d="M0 0H1833.3333V2074.232H0Z"/>
</clipPath>
<clipPath id="clip_7">
<path transform="matrix(.24,0,0,.24,0,0)" d="M25.02844 25.02844H1808.3048V2052.332H25.02844Z"/>
</clipPath>
<clipPath id="clip_8">
<path transform="matrix(.24,0,0,.24,0,0)" d="M653.5551 672.6393H691.0978V710.18197H653.5551Z"/>
</clipPath>
<clipPath id="clip_9">
<path transform="matrix(.24,0,0,.24,0,0)" d="M25.02844 25.02844H1808.3048V2052.332H25.02844Z" fill-rule="evenodd"/>
</clipPath>
<path id="font_3_51" d="M.6142578 .48120118C.6142578 .4160258 .5930176 .36420695 .5505371 .32574464 .50805667 .28729249 .45035807 .2680664 .3774414 .2680664H.17529297V0H.08203125V.68847659H.37158204C.44873048 .68847659 .50846359 .67038986 .55078127 .6342163 .59309896 .5980428 .6142578 .5470378 .6142578 .48120118M.5205078 .4802246C.5205078 .5692546 .4671224 .61376956 .36035157 .61376956H.17529297V.34179688H.3642578C.46842448 .34179688 .5205078 .38793946 .5205078 .4802246Z"/>
<path id="font_3_88" d="M.15332031 .5283203V.19335938C.15332031 .15852864 .15673828 .13151042 .16357422 .11230469 .17041016 .09309896 .18131511 .07926432 .19628906 .07080078 .21126302 .06233724 .23323567 .05810547 .26220704 .05810547 .30452476 .05810547 .33789063 .07259115 .3623047 .1015625 .38671876 .13053386 .39892579 .17073567 .39892579 .22216797V.5283203H.4868164V.11279297C.4868164 .05126953 .48779298 .013671875 .4897461 0H.40673829C.40641276 .0016276041 .40608726 .0060221354 .40576173 .013183594 .4054362 .020345053 .4050293 .028564454 .40454103 .037841798 .40405274 .04711914 .40348307 .06461588 .40283204 .09033203H.4013672C.3811849 .0538737 .35782878 .028076172 .33129884 .012939453 .3047689-.0021972657 .2718099-.009765625 .23242188-.009765625 .17447917-.009765625 .13208008 .004638672 .10522461 .033447267 .07836914 .06225586 .064941409 .10986328 .064941409 .17626953V.5283203H.15332031Z"/>
<clipPath id="clip_10">
<path transform="matrix(.24,0,0,.24,0,0)" d="M0 0H1833.3333V2074.232H0Z"/>
</clipPath>
<clipPath id="clip_11">
<path transform="matrix(.24,0,0,.24,0,0)" d="M25.02844 25.02844H1808.3048V2052.332H25.02844Z"/>
</clipPath>
<clipPath id="clip_12">
<path transform="matrix(.24,0,0,.24,0,0)" d="M653.5551 963.5949H691.0978V1001.1376H653.5551Z"/>
</clipPath>
<clipPath id="clip_13">
<path transform="matrix(.24,0,0,.24,0,0)" d="M25.02844 25.02844H1808.3048V2052.332H25.02844Z" fill-rule="evenodd"/>
</clipPath>
<path id="font_3_57" d="M.38183595 0H.28515626L.0043945314 .68847659H.10253906L.29296876 .20370484 .33398438 .08203125 .375 .20370484 .5644531 .68847659H.66259768L.38183595 0Z"/>
<path id="font_3_15" d="M.18798828 .107421878V.025222779C.18798828-.009353638 .18489583-.038223268 .17871094-.06138611 .17252605-.08454895 .16292317-.10673014 .14990235-.12792969H.08984375C.12044271-.08365885 .13574219-.041015626 .13574219 0H.09277344V.107421878H.18798828Z"/>
<clipPath id="clip_14">
<path transform="matrix(.24,0,0,.24,0,0)" d="M0 0H1833.3333V2074.232H0Z"/>
</clipPath>
<clipPath id="clip_15">
<path transform="matrix(.24,0,0,.24,0,0)" d="M25.02844 25.02844H1808.3048V2052.332H25.02844Z"/>
</clipPath>
<clipPath id="clip_16">
<path transform="matrix(.24,0,0,.24,0,0)" d="M678.8042 1211.4725 641.77236 1205.3005 647.94436 1168.2687 684.9762 1174.4407 678.8042 1211.4725Z"/>
</clipPath>
<clipPath id="clip_17">
<path transform="matrix(.24,0,0,.24,0,0)" d="M25.02844 25.02844H1808.3048V2052.332H25.02844Z" fill-rule="evenodd"/>
</clipPath>
<path id="font_3_44" d="M.092285159 0V.68847659H.18554688V0H.092285159Z"/>
<clipPath id="clip_18">
<path transform="matrix(.24,0,0,.24,0,0)" d="M1279.8919 1351.5358H1317.4345V1389.0784H1279.8919Z" fill-rule="evenodd"/>
</clipPath>
<clipPath id="clip_19">
<path transform="matrix(.24,0,0,.24,0,0)" d="M25.02844 25.02844H1808.3048V2052.332H25.02844Z" fill-rule="evenodd"/>
</clipPath>
<clipPath id="clip_20">
<path transform="matrix(.24,0,0,.24,0,0)" d="M0 0H1833.3333V2074.232H0Z"/>
</clipPath>
<clipPath id="clip_21">
<path transform="matrix(.24,0,0,.24,0,0)" d="M25.02844 25.02844H1808.3048V2052.332H25.02844Z"/>
</clipPath>
<clipPath id="clip_22">
<path transform="matrix(.24,0,0,.24,0,0)" d="M1342.0579 1593.1563 1305.026 1586.9843 1311.198 1549.9524 1348.2299 1556.1244 1342.0579 1593.1563Z"/>
</clipPath>
</defs>
<g clip-path="url(#clip_1)">
<path transform="matrix(.7508532,0,0,.7508532,6.0068256,6.0068256)" d="M0 0H570V648H0Z" fill="#ffffff"/>
</g>
<g clip-path="url(#clip_2)">
<path transform="matrix(.7508532,0,0,.7508532,100.61433,13.515358)" d="M215 562H359C359.3978 562 359.7805 562.0761 360.148 562.22836 360.51557 562.38058 360.84 562.59738 361.1213 562.87869 361.4026 563.16 361.61933 563.4844 361.77159 563.85189 361.92384 564.2194 361.99998 564.6021 362 565V624C361.99998 624.39779 361.92384 624.78048 361.77159 625.14797 361.61933 625.5155 361.4026 625.83999 361.1213 626.1213 360.84 626.4025 360.51557 626.61929 360.148 626.77157 359.7805 626.9238 359.3978 626.99996 359 627H215C214.60216 626.99996 214.21945 626.9238 213.85192 626.77157 213.48438 626.61929 213.15995 626.4025 212.87865 626.1213 212.59734 625.83999 212.38056 625.5155 212.22832 625.14797 212.07608 624.78048 211.99999 624.39779 212 624V565C211.99999 564.6021 212.07608 564.2194 212.22832 563.85189 212.38056 563.4844 212.59734 563.16 212.87865 562.87869 213.15995 562.59738 213.48438 562.38058 213.85192 562.22836 214.21945 562.0761 214.60216 562 215 562Z" fill="#eeeeee"/>
<path transform="matrix(.7508532,0,0,.7508532,100.61433,13.515358)" stroke-width="1" stroke-linecap="butt" stroke-miterlimit="4" stroke-linejoin="miter" fill="none" stroke="#d4d4d4" d="M215 562H359C359.3978 562 359.7805 562.0761 360.148 562.22836 360.51557 562.38058 360.84 562.59738 361.1213 562.87869 361.4026 563.16 361.61933 563.4844 361.77159 563.85189 361.92384 564.2194 361.99998 564.6021 362 565V624C361.99998 624.39779 361.92384 624.78048 361.77159 625.14797 361.61933 625.5155 361.4026 625.83999 361.1213 626.1213 360.84 626.4025 360.51557 626.61929 360.148 626.77157 359.7805 626.9238 359.3978 626.99996 359 627H215C214.60216 626.99996 214.21945 626.9238 213.85192 626.77157 213.48438 626.61929 213.15995 626.4025 212.87865 626.1213 212.59734 625.83999 212.38056 625.5155 212.22832 625.14797 212.07608 624.78048 211.99999 624.39779 212 624V565C211.99999 564.6021 212.07608 564.2194 212.22832 563.85189 212.38056 563.4844 212.59734 563.16 212.87865 562.87869 213.15995 562.59738 213.48438 562.38058 213.85192 562.22836 214.21945 562.0761 214.60216 562 215 562Z"/>
<use data-text="B" xlink:href="#font_3_37" transform="matrix(12.013651,0,0,-12.013651,305.42127,464.40269)" fill="#333333"/>
<use data-text="o" xlink:href="#font_3_82" transform="matrix(12.013651,0,0,-12.013651,313.43437,464.40269)" fill="#333333"/>
<use data-text="b" xlink:href="#font_3_69" transform="matrix(12.013651,0,0,-12.013651,320.11396,464.40269)" fill="#333333"/>
<path transform="matrix(.7508532,0,0,.7508532,100.61433,13.515358)" d="M3 562H147C147.39781 562 147.78049 562.0761 148.14803 562.22836 148.51557 562.38058 148.84 562.59738 149.1213 562.87869 149.4026 563.16 149.61939 563.4844 149.77162 563.85189 149.92386 564.2194 149.99999 564.6021 150 565V624C149.99999 624.39779 149.92386 624.78048 149.77162 625.14797 149.61939 625.5155 149.4026 625.83999 149.1213 626.1213 148.84 626.4025 148.51557 626.61929 148.14803 626.77157 147.78049 626.9238 147.39781 626.99996 147 627H3C2.6021753 626.99996 2.2194918 626.9238 1.8519496 626.77157 1.4844074 626.61929 1.1599841 626.4025 .87867966 626.1213 .59737506 625.83999 .3806023 625.5155 .22836139 625.14797 .07612045 624.78048 0 624.39779 0 624V565C0 564.6021 .07612045 564.2194 .22836139 563.85189 .3806023 563.4844 .59737506 563.16 .87867966 562.87869 1.1599841 562.59738 1.4844074 562.38058 1.8519496 562.22836 2.2194918 562.0761 2.6021753 562 3 562Z" fill="#eeeeee"/>
<path transform="matrix(.7508532,0,0,.7508532,100.61433,13.515358)" stroke-width="1" stroke-linecap="butt" stroke-miterlimit="4" stroke-linejoin="miter" fill="none" stroke="#d4d4d4" d="M3 562H147C147.39781 562 147.78049 562.0761 148.14803 562.22836 148.51557 562.38058 148.84 562.59738 149.1213 562.87869 149.4026 563.16 149.61939 563.4844 149.77162 563.85189 149.92386 564.2194 149.99999 564.6021 150 565V624C149.99999 624.39779 149.92386 624.78048 149.77162 625.14797 149.61939 625.5155 149.4026 625.83999 149.1213 626.1213 148.84 626.4025 148.51557 626.61929 148.14803 626.77157 147.78049 626.9238 147.39781 626.99996 147 627H3C2.6021753 626.99996 2.2194918 626.9238 1.8519496 626.77157 1.4844074 626.61929 1.1599841 626.4025 .87867966 626.1213 .59737506 625.83999 .3806023 625.5155 .22836139 625.14797 .07612045 624.78048 0 624.39779 0 624V565C0 564.6021 .07612045 564.2194 .22836139 563.85189 .3806023 563.4844 .59737506 563.16 .87867966 562.87869 1.1599841 562.59738 1.4844074 562.38058 1.8519496 562.22836 2.2194918 562.0761 2.6021753 562 3 562Z"/>
<use data-text="A" xlink:href="#font_3_36" transform="matrix(12.013651,0,0,-12.013651,143.9057,464.40269)" fill="#333333"/>
<use data-text="l" xlink:href="#font_3_79" transform="matrix(12.013651,0,0,-12.013651,151.91881,464.40269)" fill="#333333"/>
<use data-text="i" xlink:href="#font_3_76" transform="matrix(12.013651,0,0,-12.013651,154.58585,464.40269)" fill="#333333"/>
<use data-text="c" xlink:href="#font_3_70" transform="matrix(12.013651,0,0,-12.013651,157.25287,464.40269)" fill="#333333"/>
<use data-text="e" xlink:href="#font_3_72" transform="matrix(12.013651,0,0,-12.013651,163.2597,464.40269)" fill="#333333"/>
<path transform="matrix(.7508532,0,0,.7508532,100.61433,13.515358)" stroke-width="2" stroke-linecap="butt" stroke-miterlimit="4" stroke-linejoin="miter" fill="none" stroke="#d4d4d4" d="M287 5V562"/>
<path transform="matrix(.7508532,0,0,.7508532,100.61433,13.515358)" d="M215 0H359C359.3978 0 359.7805 .07612045 360.148 .22836139 360.51557 .3806023 360.84 .59737506 361.1213 .87867966 361.4026 1.1599841 361.61933 1.4844074 361.77159 1.8519496 361.92384 2.2194918 361.99998 2.6021753 362 3V62C361.99998 62.397825 361.92384 62.780504 361.77159 63.148046 361.61933 63.515588 361.4026 63.840009 361.1213 64.121318 360.84 64.40262 360.51557 64.619388 360.148 64.77163 359.7805 64.923877 359.3978 64.99999 359 65H215C214.60216 64.99999 214.21945 64.923877 213.85192 64.77163 213.48438 64.619388 213.15995 64.40262 212.87865 64.121318 212.59734 63.840009 212.38056 63.515588 212.22832 63.148046 212.07608 62.780504 211.99999 62.397825 212 62V3C211.99999 2.6021753 212.07608 2.2194918 212.22832 1.8519496 212.38056 1.4844074 212.59734 1.1599841 212.87865 .87867966 213.15995 .59737506 213.48438 .3806023 213.85192 .22836139 214.21945 .07612045 214.60216 0 215 0Z" fill="#eeeeee"/>
<path transform="matrix(.7508532,0,0,.7508532,100.61433,13.515358)" stroke-width="1" stroke-linecap="butt" stroke-miterlimit="4" stroke-linejoin="miter" fill="none" stroke="#d4d4d4" d="M215 0H359C359.3978 0 359.7805 .07612045 360.148 .22836139 360.51557 .3806023 360.84 .59737506 361.1213 .87867966 361.4026 1.1599841 361.61933 1.4844074 361.77159 1.8519496 361.92384 2.2194918 361.99998 2.6021753 362 3V62C361.99998 62.397825 361.92384 62.780504 361.77159 63.148046 361.61933 63.515588 361.4026 63.840009 361.1213 64.121318 360.84 64.40262 360.51557 64.619388 360.148 64.77163 359.7805 64.923877 359.3978 64.99999 359 65H215C214.60216 64.99999 214.21945 64.923877 213.85192 64.77163 213.48438 64.619388 213.15995 64.40262 212.87865 64.121318 212.59734 63.840009 212.38056 63.515588 212.22832 63.148046 212.07608 62.780504 211.99999 62.397825 212 62V3C211.99999 2.6021753 212.07608 2.2194918 212.22832 1.8519496 212.38056 1.4844074 212.59734 1.1599841 212.87865 .87867966 213.15995 .59737506 213.48438 .3806023 213.85192 .22836139 214.21945 .07612045 214.60216 0 215 0Z"/>
<use data-text="B" xlink:href="#font_3_37" transform="matrix(12.013651,0,0,-12.013651,305.42127,42.423208)" fill="#333333"/>
<use data-text="o" xlink:href="#font_3_82" transform="matrix(12.013651,0,0,-12.013651,313.43437,42.423208)" fill="#333333"/>
<use data-text="b" xlink:href="#font_3_69" transform="matrix(12.013651,0,0,-12.013651,320.11396,42.423208)" fill="#333333"/>
<path transform="matrix(.7508532,0,0,.7508532,100.61433,13.515358)" stroke-width="2" stroke-linecap="butt" stroke-miterlimit="4" stroke-linejoin="miter" fill="none" stroke="#d4d4d4" d="M75 5V562"/>
<path transform="matrix(.7508532,0,0,.7508532,100.61433,13.515358)" d="M3 0H147C147.39781 0 147.78049 .07612045 148.14803 .22836139 148.51557 .3806023 148.84 .59737506 149.1213 .87867966 149.4026 1.1599841 149.61939 1.4844074 149.77162 1.8519496 149.92386 2.2194918 149.99999 2.6021753 150 3V62C149.99999 62.397825 149.92386 62.780504 149.77162 63.148046 149.61939 63.515588 149.4026 63.840009 149.1213 64.121318 148.84 64.40262 148.51557 64.619388 148.14803 64.77163 147.78049 64.923877 147.39781 64.99999 147 65H3C2.6021753 64.99999 2.2194918 64.923877 1.8519496 64.77163 1.4844074 64.619388 1.1599841 64.40262 .87867966 64.121318 .59737506 63.840009 .3806023 63.515588 .22836139 63.148046 .07612045 62.780504 0 62.397825 0 62V3C0 2.6021753 .07612045 2.2194918 .22836139 1.8519496 .3806023 1.4844074 .59737506 1.1599841 .87867966 .87867966 1.1599841 .59737506 1.4844074 .3806023 1.8519496 .22836139 2.2194918 .07612045 2.6021753 0 3 0Z" fill="#eeeeee"/>
<path transform="matrix(.7508532,0,0,.7508532,100.61433,13.515358)" stroke-width="1" stroke-linecap="butt" stroke-miterlimit="4" stroke-linejoin="miter" fill="none" stroke="#d4d4d4" d="M3 0H147C147.39781 0 147.78049 .07612045 148.14803 .22836139 148.51557 .3806023 148.84 .59737506 149.1213 .87867966 149.4026 1.1599841 149.61939 1.4844074 149.77162 1.8519496 149.92386 2.2194918 149.99999 2.6021753 150 3V62C149.99999 62.397825 149.92386 62.780504 149.77162 63.148046 149.61939 63.515588 149.4026 63.840009 149.1213 64.121318 148.84 64.40262 148.51557 64.619388 148.14803 64.77163 147.78049 64.923877 147.39781 64.99999 147 65H3C2.6021753 64.99999 2.2194918 64.923877 1.8519496 64.77163 1.4844074 64.619388 1.1599841 64.40262 .87867966 64.121318 .59737506 63.840009 .3806023 63.515588 .22836139 63.148046 .07612045 62.780504 0 62.397825 0 62V3C0 2.6021753 .07612045 2.2194918 .22836139 1.8519496 .3806023 1.4844074 .59737506 1.1599841 .87867966 .87867966 1.1599841 .59737506 1.4844074 .3806023 1.8519496 .22836139 2.2194918 .07612045 2.6021753 0 3 0Z"/>
<use data-text="A" xlink:href="#font_3_36" transform="matrix(12.013651,0,0,-12.013651,143.9057,42.423208)" fill="#333333"/>
<use data-text="l" xlink:href="#font_3_79" transform="matrix(12.013651,0,0,-12.013651,151.91881,42.423208)" fill="#333333"/>
<use data-text="i" xlink:href="#font_3_76" transform="matrix(12.013651,0,0,-12.013651,154.58585,42.423208)" fill="#333333"/>
<use data-text="c" xlink:href="#font_3_70" transform="matrix(12.013651,0,0,-12.013651,157.25287,42.423208)" fill="#333333"/>
<use data-text="e" xlink:href="#font_3_72" transform="matrix(12.013651,0,0,-12.013651,163.2597,42.423208)" fill="#333333"/>
<path transform="matrix(.7508532,0,0,.7508532,100.61433,13.515358)" d="M-9 75H159V112H-9Z" fill="#666666"/>
<path transform="matrix(.7508532,0,0,.7508532,100.61433,13.515358)" stroke-width="1" stroke-linecap="butt" stroke-miterlimit="4" stroke-linejoin="miter" fill="none" stroke="#999999" d="M-9 75H159V112H-9Z"/>
<use data-text="H" xlink:href="#font_3_43" transform="matrix(12.013651,0,0,-12.013651,94.16168,88.60068)" fill="#ffffff"/>
<use data-text="a" xlink:href="#font_3_68" transform="matrix(12.013651,0,0,-12.013651,102.83554,88.60068)" fill="#ffffff"/>
<use data-text="s" xlink:href="#font_3_86" transform="matrix(12.013651,0,0,-12.013651,109.51513,88.60068)" fill="#ffffff"/>
<use data-text=" " xlink:href="#font_3_3" transform="matrix(12.013651,0,0,-12.013651,115.52196,88.60068)" fill="#ffffff"/>
<use data-text="a" xlink:href="#font_3_68" transform="matrix(12.013651,0,0,-12.013651,118.86175,88.60068)" fill="#ffffff"/>
<use data-text=" " xlink:href="#font_3_3" transform="matrix(12.013651,0,0,-12.013651,125.541339,88.60068)" fill="#ffffff"/>
<use data-text="m" xlink:href="#font_3_80" transform="matrix(12.013651,0,0,-12.013651,128.88114,88.60068)" fill="#ffffff"/>
<use data-text="e" xlink:href="#font_3_72" transform="matrix(12.013651,0,0,-12.013651,138.88852,88.60068)" fill="#ffffff"/>
<use data-text="s" xlink:href="#font_3_86" transform="matrix(12.013651,0,0,-12.013651,145.5681,88.60068)" fill="#ffffff"/>
<use data-text="s" xlink:href="#font_3_86" transform="matrix(12.013651,0,0,-12.013651,151.57492,88.60068)" fill="#ffffff"/>
<use data-text="a" xlink:href="#font_3_68" transform="matrix(12.013651,0,0,-12.013651,157.58176,88.60068)" fill="#ffffff"/>
<use data-text="g" xlink:href="#font_3_74" transform="matrix(12.013651,0,0,-12.013651,164.26134,88.60068)" fill="#ffffff"/>
<use data-text="e" xlink:href="#font_3_72" transform="matrix(12.013651,0,0,-12.013651,170.94094,88.60068)" fill="#ffffff"/>
<use data-text=" " xlink:href="#font_3_3" transform="matrix(12.013651,0,0,-12.013651,177.62053,88.60068)" fill="#ffffff"/>
<use data-text="f" xlink:href="#font_3_73" transform="matrix(12.013651,0,0,-12.013651,180.96033,88.60068)" fill="#ffffff"/>
<use data-text="o" xlink:href="#font_3_82" transform="matrix(12.013651,0,0,-12.013651,184.30011,88.60068)" fill="#ffffff"/>
<use data-text="r" xlink:href="#font_3_85" transform="matrix(12.013651,0,0,-12.013651,190.9797,88.60068)" fill="#ffffff"/>
<use data-text=" " xlink:href="#font_3_3" transform="matrix(12.013651,0,0,-12.013651,194.98026,88.60068)" fill="#ffffff"/>
<use data-text="B" xlink:href="#font_3_37" transform="matrix(12.013651,0,0,-12.013651,198.32004,88.60068)" fill="#ffffff"/>
<use data-text="o" xlink:href="#font_3_82" transform="matrix(12.013651,0,0,-12.013651,206.33316,88.60068)" fill="#ffffff"/>
<use data-text="b" xlink:href="#font_3_69" transform="matrix(12.013651,0,0,-12.013651,213.01274,88.60068)" fill="#ffffff"/>
<path transform="matrix(.7508532,0,0,.7508532,100.61433,13.515358)" d="M282 158H292V204H282Z" fill="#f4f4f4"/>
<path transform="matrix(.7508532,0,0,.7508532,100.61433,13.515358)" stroke-width="1" stroke-linecap="butt" stroke-miterlimit="4" stroke-linejoin="miter" fill="none" stroke="#666666" d="M282 158H292V204H282Z"/>
<path transform="matrix(.7508532,0,0,.7508532,100.61433,13.515358)" d="M50 214H312V251H50Z" fill="#666666"/>
<path transform="matrix(.7508532,0,0,.7508532,100.61433,13.515358)" stroke-width="1" stroke-linecap="butt" stroke-miterlimit="4" stroke-linejoin="miter" fill="none" stroke="#999999" d="M50 214H312V251H50Z"/>
<use data-text="C" xlink:href="#font_3_38" transform="matrix(12.013651,0,0,-12.013651,157.7261,192.96927)" fill="#ffffff"/>
<use data-text="o" xlink:href="#font_3_82" transform="matrix(12.013651,0,0,-12.013651,166.39997,192.96927)" fill="#ffffff"/>
<use data-text="m" xlink:href="#font_3_80" transform="matrix(12.013651,0,0,-12.013651,173.07955,192.96927)" fill="#ffffff"/>
<use data-text="p" xlink:href="#font_3_83" transform="matrix(12.013651,0,0,-12.013651,183.08692,192.96927)" fill="#ffffff"/>
<use data-text="l" xlink:href="#font_3_79" transform="matrix(12.013651,0,0,-12.013651,189.76651,192.96927)" fill="#ffffff"/>
<use data-text="e" xlink:href="#font_3_72" transform="matrix(12.013651,0,0,-12.013651,192.43355,192.96927)" fill="#ffffff"/>
<use data-text="t" xlink:href="#font_3_87" transform="matrix(12.013651,0,0,-12.013651,199.11313,192.96927)" fill="#ffffff"/>
<use data-text="e" xlink:href="#font_3_72" transform="matrix(12.013651,0,0,-12.013651,202.45293,192.96927)" fill="#ffffff"/>
<use data-text=" " xlink:href="#font_3_3" transform="matrix(12.013651,0,0,-12.013651,209.1325,192.96927)" fill="#ffffff"/>
<use data-text="l" xlink:href="#font_3_79" transform="matrix(12.013651,0,0,-12.013651,212.4723,192.96927)" fill="#ffffff"/>
<use data-text="a" xlink:href="#font_3_68" transform="matrix(12.013651,0,0,-12.013651,215.13935,192.96927)" fill="#ffffff"/>
<use data-text="s" xlink:href="#font_3_86" transform="matrix(12.013651,0,0,-12.013651,221.81893,192.96927)" fill="#ffffff"/>
<use data-text="e" xlink:href="#font_3_72" transform="matrix(12.013651,0,0,-12.013651,227.82575,192.96927)" fill="#ffffff"/>
<use data-text="r" xlink:href="#font_3_85" transform="matrix(12.013651,0,0,-12.013651,234.50534,192.96927)" fill="#ffffff"/>
<use data-text=" " xlink:href="#font_3_3" transform="matrix(12.013651,0,0,-12.013651,238.50589,192.96927)" fill="#ffffff"/>
<use data-text="l" xlink:href="#font_3_79" transform="matrix(12.013651,0,0,-12.013651,241.84568,192.96927)" fill="#ffffff"/>
<use data-text="i" xlink:href="#font_3_76" transform="matrix(12.013651,0,0,-12.013651,244.5127,192.96927)" fill="#ffffff"/>
<use data-text="n" xlink:href="#font_3_81" transform="matrix(12.013651,0,0,-12.013651,247.17975,192.96927)" fill="#ffffff"/>
<use data-text="k" xlink:href="#font_3_78" transform="matrix(12.013651,0,0,-12.013651,253.85935,192.96927)" fill="#ffffff"/>
<use data-text=" " xlink:href="#font_3_3" transform="matrix(12.013651,0,0,-12.013651,259.86616,192.96927)" fill="#ffffff"/>
<use data-text="a" xlink:href="#font_3_68" transform="matrix(12.013651,0,0,-12.013651,263.20597,192.96927)" fill="#ffffff"/>
<use data-text="l" xlink:href="#font_3_79" transform="matrix(12.013651,0,0,-12.013651,269.88554,192.96927)" fill="#ffffff"/>
<use data-text="i" xlink:href="#font_3_76" transform="matrix(12.013651,0,0,-12.013651,272.55259,192.96927)" fill="#ffffff"/>
<use data-text="g" xlink:href="#font_3_74" transform="matrix(12.013651,0,0,-12.013651,275.2196,192.96927)" fill="#ffffff"/>
<use data-text="n" xlink:href="#font_3_81" transform="matrix(12.013651,0,0,-12.013651,281.8992,192.96927)" fill="#ffffff"/>
<use data-text="m" xlink:href="#font_3_80" transform="matrix(12.013651,0,0,-12.013651,288.57878,192.96927)" fill="#ffffff"/>
<use data-text="e" xlink:href="#font_3_72" transform="matrix(12.013651,0,0,-12.013651,298.58613,192.96927)" fill="#ffffff"/>
<use data-text="n" xlink:href="#font_3_81" transform="matrix(12.013651,0,0,-12.013651,305.26573,192.96927)" fill="#ffffff"/>
<use data-text="t" xlink:href="#font_3_87" transform="matrix(12.013651,0,0,-12.013651,311.9453,192.96927)" fill="#ffffff"/>
<path transform="matrix(.7508532,0,0,.7508532,100.61433,13.515358)" d="M50 505H312V542H50Z" fill="#666666"/>
<path transform="matrix(.7508532,0,0,.7508532,100.61433,13.515358)" stroke-width="1" stroke-linecap="butt" stroke-miterlimit="4" stroke-linejoin="miter" fill="none" stroke="#999999" d="M50 505H312V542H50Z"/>
<use data-text="C" xlink:href="#font_3_38" transform="matrix(12.013651,0,0,-12.013651,173.40015,411.46754)" fill="#ffffff"/>
<use data-text="o" xlink:href="#font_3_82" transform="matrix(12.013651,0,0,-12.013651,182.074,411.46754)" fill="#ffffff"/>
<use data-text="n" xlink:href="#font_3_81" transform="matrix(12.013651,0,0,-12.013651,188.7536,411.46754)" fill="#ffffff"/>
<use data-text="n" xlink:href="#font_3_81" transform="matrix(12.013651,0,0,-12.013651,195.4332,411.46754)" fill="#ffffff"/>
<use data-text="e" xlink:href="#font_3_72" transform="matrix(12.013651,0,0,-12.013651,202.1128,411.46754)" fill="#ffffff"/>
<use data-text="c" xlink:href="#font_3_70" transform="matrix(12.013651,0,0,-12.013651,208.79238,411.46754)" fill="#ffffff"/>
<use data-text="t" xlink:href="#font_3_87" transform="matrix(12.013651,0,0,-12.013651,214.7992,411.46754)" fill="#ffffff"/>
<use data-text="i" xlink:href="#font_3_76" transform="matrix(12.013651,0,0,-12.013651,218.13899,411.46754)" fill="#ffffff"/>
<use data-text="o" xlink:href="#font_3_82" transform="matrix(12.013651,0,0,-12.013651,220.80603,411.46754)" fill="#ffffff"/>
<use data-text="n" xlink:href="#font_3_81" transform="matrix(12.013651,0,0,-12.013651,227.48561,411.46754)" fill="#ffffff"/>
<use data-text=" " xlink:href="#font_3_3" transform="matrix(12.013651,0,0,-12.013651,234.16519,411.46754)" fill="#ffffff"/>
<use data-text="E" xlink:href="#font_3_40" transform="matrix(12.013651,0,0,-12.013651,237.505,411.46754)" fill="#ffffff"/>
<use data-text="s" xlink:href="#font_3_86" transform="matrix(12.013651,0,0,-12.013651,245.5181,411.46754)" fill="#ffffff"/>
<use data-text="t" xlink:href="#font_3_87" transform="matrix(12.013651,0,0,-12.013651,251.52494,411.46754)" fill="#ffffff"/>
<use data-text="a" xlink:href="#font_3_68" transform="matrix(12.013651,0,0,-12.013651,254.86472,411.46754)" fill="#ffffff"/>
<use data-text="b" xlink:href="#font_3_69" transform="matrix(12.013651,0,0,-12.013651,261.5443,411.46754)" fill="#ffffff"/>
<use data-text="l" xlink:href="#font_3_79" transform="matrix(12.013651,0,0,-12.013651,268.22389,411.46754)" fill="#ffffff"/>
<use data-text="i" xlink:href="#font_3_76" transform="matrix(12.013651,0,0,-12.013651,270.89094,411.46754)" fill="#ffffff"/>
<use data-text="s" xlink:href="#font_3_86" transform="matrix(12.013651,0,0,-12.013651,273.55796,411.46754)" fill="#ffffff"/>
<use data-text="h" xlink:href="#font_3_75" transform="matrix(12.013651,0,0,-12.013651,279.5648,411.46754)" fill="#ffffff"/>
<use data-text="e" xlink:href="#font_3_72" transform="matrix(12.013651,0,0,-12.013651,286.24436,411.46754)" fill="#ffffff"/>
<use data-text="d" xlink:href="#font_3_71" transform="matrix(12.013651,0,0,-12.013651,292.92396,411.46754)" fill="#ffffff"/>
<use data-text="D" xlink:href="#font_3_39" transform="matrix(12.013651,0,0,-12.013651,190.52899,124.05502)" fill="#333333"/>
<use data-text="e" xlink:href="#font_3_72" transform="matrix(12.013651,0,0,-12.013651,199.20285,124.05502)" fill="#333333"/>
<use data-text="l" xlink:href="#font_3_79" transform="matrix(12.013651,0,0,-12.013651,205.88245,124.05502)" fill="#333333"/>
<use data-text="i" xlink:href="#font_3_76" transform="matrix(12.013651,0,0,-12.013651,208.54947,124.05502)" fill="#333333"/>
<use data-text="v" xlink:href="#font_3_89" transform="matrix(12.013651,0,0,-12.013651,211.2165,124.05502)" fill="#333333"/>
<use data-text="e" xlink:href="#font_3_72" transform="matrix(12.013651,0,0,-12.013651,217.22333,124.05502)" fill="#333333"/>
<use data-text="r" xlink:href="#font_3_85" transform="matrix(12.013651,0,0,-12.013651,223.90293,124.05502)" fill="#333333"/>
<use data-text="y" xlink:href="#font_3_92" transform="matrix(12.013651,0,0,-12.013651,227.90348,124.05502)" fill="#333333"/>
<use data-text=" " xlink:href="#font_3_3" transform="matrix(12.013651,0,0,-12.013651,233.91028,124.05502)" fill="#333333"/>
<use data-text="B" xlink:href="#font_3_37" transform="matrix(12.013651,0,0,-12.013651,237.25009,124.05502)" fill="#333333"/>
<use data-text="e" xlink:href="#font_3_72" transform="matrix(12.013651,0,0,-12.013651,245.26319,124.05502)" fill="#333333"/>
<use data-text="a" xlink:href="#font_3_68" transform="matrix(12.013651,0,0,-12.013651,251.94278,124.05502)" fill="#333333"/>
<use data-text="c" xlink:href="#font_3_70" transform="matrix(12.013651,0,0,-12.013651,258.62236,124.05502)" fill="#333333"/>
<use data-text="o" xlink:href="#font_3_82" transform="matrix(12.013651,0,0,-12.013651,264.62919,124.05502)" fill="#333333"/>
<use data-text="n" xlink:href="#font_3_81" transform="matrix(12.013651,0,0,-12.013651,271.30879,124.05502)" fill="#333333"/>
<path transform="matrix(.7508532,0,0,.7508532,100.61433,13.515358)" stroke-width="1.5" stroke-linecap="butt" stroke-miterlimit="4" stroke-linejoin="miter" fill="none" stroke="#333333" d="M76 158H279"/>
</g>
<g clip-path="url(#clip_4)">
<path transform="matrix(.7508532,0,0,.7508532,304.17063,128.39589)" d="M0 0 10 5 0 10V0Z" fill="#333333"/>
<path transform="matrix(.7508532,0,0,.7508532,304.17063,128.39589)" stroke-width="1" stroke-linecap="butt" stroke-miterlimit="4" stroke-linejoin="miter" fill="none" stroke="#333333" d="M0 0 10 5 0 10V0Z"/>
</g>
<g clip-path="url(#clip_5)">
<use data-text="R" xlink:href="#font_3_53" transform="matrix(12.013651,0,0,-12.013651,201.7918,158.59427)" fill="#333333"/>
<use data-text="e" xlink:href="#font_3_72" transform="matrix(12.013651,0,0,-12.013651,210.46566,158.59427)" fill="#333333"/>
<use data-text="a" xlink:href="#font_3_68" transform="matrix(12.013651,0,0,-12.013651,217.14524,158.59427)" fill="#333333"/>
<use data-text="d" xlink:href="#font_3_71" transform="matrix(12.013651,0,0,-12.013651,223.82483,158.59427)" fill="#333333"/>
<use data-text="y" xlink:href="#font_3_92" transform="matrix(12.013651,0,0,-12.013651,230.50443,158.59427)" fill="#333333"/>
<use data-text=" " xlink:href="#font_3_3" transform="matrix(12.013651,0,0,-12.013651,236.51123,158.59427)" fill="#333333"/>
<use data-text="t" xlink:href="#font_3_87" transform="matrix(12.013651,0,0,-12.013651,239.85105,158.59427)" fill="#333333"/>
<use data-text="o" xlink:href="#font_3_82" transform="matrix(12.013651,0,0,-12.013651,243.19083,158.59427)" fill="#333333"/>
<use data-text=" " xlink:href="#font_3_3" transform="matrix(12.013651,0,0,-12.013651,249.87042,158.59427)" fill="#333333"/>
<use data-text="l" xlink:href="#font_3_79" transform="matrix(12.013651,0,0,-12.013651,253.2102,158.59427)" fill="#333333"/>
<use data-text="i" xlink:href="#font_3_76" transform="matrix(12.013651,0,0,-12.013651,255.87723,158.59427)" fill="#333333"/>
<use data-text="n" xlink:href="#font_3_81" transform="matrix(12.013651,0,0,-12.013651,258.54429,158.59427)" fill="#333333"/>
<use data-text="k" xlink:href="#font_3_78" transform="matrix(12.013651,0,0,-12.013651,265.22386,158.59427)" fill="#333333"/>
<path transform="matrix(.7508532,0,0,.7508532,100.61433,13.515358)" stroke-width="1.5" stroke-linecap="butt" stroke-miterlimit="4" stroke-linejoin="miter" fill="none" stroke="#333333" d="M282 204H79"/>
</g>
<g clip-path="url(#clip_6)">
<g clip-path="url(#clip_7)">
<g clip-path="url(#clip_8)">
<path transform="matrix(-.7508532,.000000000000000091953006,-.000000000000000091953006,-.7508532,165.86347,170.44367)" d="M0 0 10 5 0 10V0Z" fill="#333333"/>
<path transform="matrix(-.7508532,.000000000000000091953006,-.000000000000000091953006,-.7508532,165.86347,170.44367)" stroke-width="1" stroke-linecap="butt" stroke-miterlimit="4" stroke-linejoin="miter" fill="none" stroke="#333333" d="M0 0 10 5 0 10V0Z"/>
</g>
</g>
</g>
<g clip-path="url(#clip_9)">
<use data-text="P" xlink:href="#font_3_51" transform="matrix(12.013651,0,0,-12.013651,199.60962,228.42362)" fill="#333333"/>
<use data-text="r" xlink:href="#font_3_85" transform="matrix(12.013651,0,0,-12.013651,207.62273,228.42362)" fill="#333333"/>
<use data-text="e" xlink:href="#font_3_72" transform="matrix(12.013651,0,0,-12.013651,211.62328,228.42362)" fill="#333333"/>
<use data-text="k" xlink:href="#font_3_78" transform="matrix(12.013651,0,0,-12.013651,218.30286,228.42362)" fill="#333333"/>
<use data-text="e" xlink:href="#font_3_72" transform="matrix(12.013651,0,0,-12.013651,224.3097,228.42362)" fill="#333333"/>
<use data-text="y" xlink:href="#font_3_92" transform="matrix(12.013651,0,0,-12.013651,230.98929,228.42362)" fill="#333333"/>
<use data-text=" " xlink:href="#font_3_3" transform="matrix(12.013651,0,0,-12.013651,236.9961,228.42362)" fill="#333333"/>
<use data-text="b" xlink:href="#font_3_69" transform="matrix(12.013651,0,0,-12.013651,240.3359,228.42362)" fill="#333333"/>
<use data-text="u" xlink:href="#font_3_88" transform="matrix(12.013651,0,0,-12.013651,247.01548,228.42362)" fill="#333333"/>
<use data-text="n" xlink:href="#font_3_81" transform="matrix(12.013651,0,0,-12.013651,253.69507,228.42362)" fill="#333333"/>
<use data-text="d" xlink:href="#font_3_71" transform="matrix(12.013651,0,0,-12.013651,260.37467,228.42362)" fill="#333333"/>
<use data-text="l" xlink:href="#font_3_79" transform="matrix(12.013651,0,0,-12.013651,267.05424,228.42362)" fill="#333333"/>
<use data-text="e" xlink:href="#font_3_72" transform="matrix(12.013651,0,0,-12.013651,269.72129,228.42362)" fill="#333333"/>
<path transform="matrix(.7508532,0,0,.7508532,100.61433,13.515358)" stroke-width="1.5" stroke-linecap="butt" stroke-miterlimit="4" stroke-linejoin="miter" fill="none" stroke="#333333" d="M286 297H79"/>
</g>
<g clip-path="url(#clip_10)">
<g clip-path="url(#clip_11)">
<g clip-path="url(#clip_12)">
<path transform="matrix(-.7508532,.000000000000000091953006,-.000000000000000091953006,-.7508532,165.86347,240.27301)" d="M0 0 10 5 0 10V0Z" fill="#333333"/>
<path transform="matrix(-.7508532,.000000000000000091953006,-.000000000000000091953006,-.7508532,165.86347,240.27301)" stroke-width="1" stroke-linecap="butt" stroke-miterlimit="4" stroke-linejoin="miter" fill="none" stroke="#333333" d="M0 0 10 5 0 10V0Z"/>
</g>
</g>
</g>
<g clip-path="url(#clip_13)">
<use data-text="V" xlink:href="#font_3_57" transform="matrix(12.013651,0,0,-12.013651,33.48336,262.96287)" fill="#333333"/>
<use data-text="e" xlink:href="#font_3_72" transform="matrix(12.013651,0,0,-12.013651,40.833509,262.96287)" fill="#333333"/>
<use data-text="r" xlink:href="#font_3_85" transform="matrix(12.013651,0,0,-12.013651,47.5131,262.96287)" fill="#333333"/>
<use data-text="i" xlink:href="#font_3_76" transform="matrix(12.013651,0,0,-12.013651,51.51365,262.96287)" fill="#333333"/>
<use data-text="f" xlink:href="#font_3_73" transform="matrix(12.013651,0,0,-12.013651,54.18068,262.96287)" fill="#333333"/>
<use data-text="i" xlink:href="#font_3_76" transform="matrix(12.013651,0,0,-12.013651,57.520479,262.96287)" fill="#333333"/>
<use data-text="e" xlink:href="#font_3_72" transform="matrix(12.013651,0,0,-12.013651,60.187509,262.96287)" fill="#333333"/>
<use data-text="s" xlink:href="#font_3_86" transform="matrix(12.013651,0,0,-12.013651,66.867099,262.96287)" fill="#333333"/>
<use data-text=" " xlink:href="#font_3_3" transform="matrix(12.013651,0,0,-12.013651,72.873928,262.96287)" fill="#333333"/>
<use data-text="b" xlink:href="#font_3_69" transform="matrix(12.013651,0,0,-12.013651,76.21372,262.96287)" fill="#333333"/>
<use data-text="u" xlink:href="#font_3_88" transform="matrix(12.013651,0,0,-12.013651,82.89331,262.96287)" fill="#333333"/>
<use data-text="n" xlink:href="#font_3_81" transform="matrix(12.013651,0,0,-12.013651,89.5729,262.96287)" fill="#333333"/>
<use data-text="d" xlink:href="#font_3_71" transform="matrix(12.013651,0,0,-12.013651,96.252498,262.96287)" fill="#333333"/>
<use data-text="l" xlink:href="#font_3_79" transform="matrix(12.013651,0,0,-12.013651,102.93208,262.96287)" fill="#333333"/>
<use data-text="e" xlink:href="#font_3_72" transform="matrix(12.013651,0,0,-12.013651,105.59911,262.96287)" fill="#333333"/>
<use data-text="," xlink:href="#font_3_15" transform="matrix(12.013651,0,0,-12.013651,112.2787,262.96287)" fill="#333333"/>
<use data-text=" " xlink:href="#font_3_3" transform="matrix(12.013651,0,0,-12.013651,115.6185,262.96287)" fill="#333333"/>
<use data-text="D" xlink:href="#font_3_39" transform="matrix(12.013651,0,0,-12.013651,118.95829,262.96287)" fill="#333333"/>
<use data-text="e" xlink:href="#font_3_72" transform="matrix(12.013651,0,0,-12.013651,127.63215,262.96287)" fill="#333333"/>
<use data-text="r" xlink:href="#font_3_85" transform="matrix(12.013651,0,0,-12.013651,134.31174,262.96287)" fill="#333333"/>
<use data-text="i" xlink:href="#font_3_76" transform="matrix(12.013651,0,0,-12.013651,138.31229,262.96287)" fill="#333333"/>
<use data-text="v" xlink:href="#font_3_89" transform="matrix(12.013651,0,0,-12.013651,140.97931,262.96287)" fill="#333333"/>
<use data-text="e" xlink:href="#font_3_72" transform="matrix(12.013651,0,0,-12.013651,146.98615,262.96287)" fill="#333333"/>
<use data-text="s" xlink:href="#font_3_86" transform="matrix(12.013651,0,0,-12.013651,153.66573,262.96287)" fill="#333333"/>
<use data-text=" " xlink:href="#font_3_3" transform="matrix(12.013651,0,0,-12.013651,159.67256,262.96287)" fill="#333333"/>
<use data-text="k" xlink:href="#font_3_78" transform="matrix(12.013651,0,0,-12.013651,163.01235,262.96287)" fill="#333333"/>
<use data-text="e" xlink:href="#font_3_72" transform="matrix(12.013651,0,0,-12.013651,169.01917,262.96287)" fill="#333333"/>
<use data-text="y" xlink:href="#font_3_92" transform="matrix(12.013651,0,0,-12.013651,175.69876,262.96287)" fill="#333333"/>
<use data-text=" " xlink:href="#font_3_3" transform="matrix(12.013651,0,0,-12.013651,181.7056,262.96287)" fill="#333333"/>
<use data-text="f" xlink:href="#font_3_73" transform="matrix(12.013651,0,0,-12.013651,185.04538,262.96287)" fill="#333333"/>
<use data-text="o" xlink:href="#font_3_82" transform="matrix(12.013651,0,0,-12.013651,188.38518,262.96287)" fill="#333333"/>
<use data-text="r" xlink:href="#font_3_85" transform="matrix(12.013651,0,0,-12.013651,195.06478,262.96287)" fill="#333333"/>
<use data-text=" " xlink:href="#font_3_3" transform="matrix(12.013651,0,0,-12.013651,199.06533,262.96287)" fill="#333333"/>
<use data-text="i" xlink:href="#font_3_76" transform="matrix(12.013651,0,0,-12.013651,202.40512,262.96287)" fill="#333333"/>
<use data-text="n" xlink:href="#font_3_81" transform="matrix(12.013651,0,0,-12.013651,205.07215,262.96287)" fill="#333333"/>
<use data-text="i" xlink:href="#font_3_76" transform="matrix(12.013651,0,0,-12.013651,211.75174,262.96287)" fill="#333333"/>
<use data-text="t" xlink:href="#font_3_87" transform="matrix(12.013651,0,0,-12.013651,214.41876,262.96287)" fill="#333333"/>
<use data-text="i" xlink:href="#font_3_76" transform="matrix(12.013651,0,0,-12.013651,217.75856,262.96287)" fill="#333333"/>
<use data-text="a" xlink:href="#font_3_68" transform="matrix(12.013651,0,0,-12.013651,220.4256,262.96287)" fill="#333333"/>
<use data-text="l" xlink:href="#font_3_79" transform="matrix(12.013651,0,0,-12.013651,227.10518,262.96287)" fill="#333333"/>
<use data-text=" " xlink:href="#font_3_3" transform="matrix(12.013651,0,0,-12.013651,229.77222,262.96287)" fill="#333333"/>
<use data-text="m" xlink:href="#font_3_80" transform="matrix(12.013651,0,0,-12.013651,233.112,262.96287)" fill="#333333"/>
<use data-text="e" xlink:href="#font_3_72" transform="matrix(12.013651,0,0,-12.013651,243.11939,262.96287)" fill="#333333"/>
<use data-text="s" xlink:href="#font_3_86" transform="matrix(12.013651,0,0,-12.013651,249.79895,262.96287)" fill="#333333"/>
<use data-text="s" xlink:href="#font_3_86" transform="matrix(12.013651,0,0,-12.013651,255.80579,262.96287)" fill="#333333"/>
<use data-text="a" xlink:href="#font_3_68" transform="matrix(12.013651,0,0,-12.013651,261.81263,262.96287)" fill="#333333"/>
<use data-text="g" xlink:href="#font_3_74" transform="matrix(12.013651,0,0,-12.013651,268.4922,262.96287)" fill="#333333"/>
<use data-text="e" xlink:href="#font_3_72" transform="matrix(12.013651,0,0,-12.013651,275.17179,262.96287)" fill="#333333"/>
<path transform="matrix(.7508532,0,0,.7508532,100.61433,13.515358)" stroke-width="1.5" stroke-linecap="butt" stroke-miterlimit="4" stroke-linejoin="miter" fill="none" stroke="#333333" d="M76 343C136 333 136 373 76 363"/>
</g>
<g clip-path="url(#clip_14)">
<g clip-path="url(#clip_15)">
<g clip-path="url(#clip_16)">
<path transform="matrix(-.74063709,-.123439569,.123439569,-.74063709,162.91301,290.7534)" d="M0 0 10 5 0 10V0Z" fill="#333333"/>
<path transform="matrix(-.74063709,-.123439569,.123439569,-.74063709,162.91301,290.7534)" stroke-width="1" stroke-linecap="butt" stroke-miterlimit="4" stroke-linejoin="miter" fill="none" stroke="#333333" d="M0 0 10 5 0 10V0Z"/>
</g>
</g>
</g>
<g clip-path="url(#clip_17)">
<use data-text="I" xlink:href="#font_3_44" transform="matrix(12.013651,0,0,-12.013651,195.70285,320.0277)" fill="#333333"/>
<use data-text="n" xlink:href="#font_3_81" transform="matrix(12.013651,0,0,-12.013651,199.04264,320.0277)" fill="#333333"/>
<use data-text="i" xlink:href="#font_3_76" transform="matrix(12.013651,0,0,-12.013651,205.72223,320.0277)" fill="#333333"/>
<use data-text="t" xlink:href="#font_3_87" transform="matrix(12.013651,0,0,-12.013651,208.38925,320.0277)" fill="#333333"/>
<use data-text="i" xlink:href="#font_3_76" transform="matrix(12.013651,0,0,-12.013651,211.72905,320.0277)" fill="#333333"/>
<use data-text="a" xlink:href="#font_3_68" transform="matrix(12.013651,0,0,-12.013651,214.39609,320.0277)" fill="#333333"/>
<use data-text="l" xlink:href="#font_3_79" transform="matrix(12.013651,0,0,-12.013651,221.07567,320.0277)" fill="#333333"/>
<use data-text=" " xlink:href="#font_3_3" transform="matrix(12.013651,0,0,-12.013651,223.7427,320.0277)" fill="#333333"/>
<use data-text="m" xlink:href="#font_3_80" transform="matrix(12.013651,0,0,-12.013651,227.08249,320.0277)" fill="#333333"/>
<use data-text="e" xlink:href="#font_3_72" transform="matrix(12.013651,0,0,-12.013651,237.08988,320.0277)" fill="#333333"/>
<use data-text="s" xlink:href="#font_3_86" transform="matrix(12.013651,0,0,-12.013651,243.76944,320.0277)" fill="#333333"/>
<use data-text="s" xlink:href="#font_3_86" transform="matrix(12.013651,0,0,-12.013651,249.77628,320.0277)" fill="#333333"/>
<use data-text="a" xlink:href="#font_3_68" transform="matrix(12.013651,0,0,-12.013651,255.78311,320.0277)" fill="#333333"/>
<use data-text="g" xlink:href="#font_3_74" transform="matrix(12.013651,0,0,-12.013651,262.46269,320.0277)" fill="#333333"/>
<use data-text="e" xlink:href="#font_3_72" transform="matrix(12.013651,0,0,-12.013651,269.14228,320.0277)" fill="#333333"/>
<path transform="matrix(.7508532,0,0,.7508532,100.61433,13.515358)" stroke-width="1.5" stroke-linecap="butt" stroke-miterlimit="4" stroke-linejoin="miter" fill="none" stroke="#333333" d="M76 419H283"/>
</g>
<g clip-path="url(#clip_18)">
<path transform="matrix(.7508532,0,0,.7508532,307.17405,324.3686)" d="M0 0 10 5 0 10V0Z" fill="#333333"/>
<path transform="matrix(.7508532,0,0,.7508532,307.17405,324.3686)" stroke-width="1" stroke-linecap="butt" stroke-miterlimit="4" stroke-linejoin="miter" fill="none" stroke="#333333" d="M0 0 10 5 0 10V0Z"/>
</g>
<g clip-path="url(#clip_19)">
<use data-text="V" xlink:href="#font_3_57" transform="matrix(12.013651,0,0,-12.013651,229.71414,354.56697)" fill="#333333"/>
<use data-text="e" xlink:href="#font_3_72" transform="matrix(12.013651,0,0,-12.013651,237.0643,354.56697)" fill="#333333"/>
<use data-text="r" xlink:href="#font_3_85" transform="matrix(12.013651,0,0,-12.013651,243.74387,354.56697)" fill="#333333"/>
<use data-text="i" xlink:href="#font_3_76" transform="matrix(12.013651,0,0,-12.013651,247.74442,354.56697)" fill="#333333"/>
<use data-text="f" xlink:href="#font_3_73" transform="matrix(12.013651,0,0,-12.013651,250.41147,354.56697)" fill="#333333"/>
<use data-text="i" xlink:href="#font_3_76" transform="matrix(12.013651,0,0,-12.013651,253.75125,354.56697)" fill="#333333"/>
<use data-text="e" xlink:href="#font_3_72" transform="matrix(12.013651,0,0,-12.013651,256.41828,354.56697)" fill="#333333"/>
<use data-text="s" xlink:href="#font_3_86" transform="matrix(12.013651,0,0,-12.013651,263.09788,354.56697)" fill="#333333"/>
<use data-text=" " xlink:href="#font_3_3" transform="matrix(12.013651,0,0,-12.013651,269.1047,354.56697)" fill="#333333"/>
<use data-text="i" xlink:href="#font_3_76" transform="matrix(12.013651,0,0,-12.013651,272.4445,354.56697)" fill="#333333"/>
<use data-text="n" xlink:href="#font_3_81" transform="matrix(12.013651,0,0,-12.013651,275.1115,354.56697)" fill="#333333"/>
<use data-text="i" xlink:href="#font_3_76" transform="matrix(12.013651,0,0,-12.013651,281.7911,354.56697)" fill="#333333"/>
<use data-text="t" xlink:href="#font_3_87" transform="matrix(12.013651,0,0,-12.013651,284.45814,354.56697)" fill="#333333"/>
<use data-text="i" xlink:href="#font_3_76" transform="matrix(12.013651,0,0,-12.013651,287.79795,354.56697)" fill="#333333"/>
<use data-text="a" xlink:href="#font_3_68" transform="matrix(12.013651,0,0,-12.013651,290.46498,354.56697)" fill="#333333"/>
<use data-text="l" xlink:href="#font_3_79" transform="matrix(12.013651,0,0,-12.013651,297.14457,354.56697)" fill="#333333"/>
<use data-text=" " xlink:href="#font_3_3" transform="matrix(12.013651,0,0,-12.013651,299.81159,354.56697)" fill="#333333"/>
<use data-text="m" xlink:href="#font_3_80" transform="matrix(12.013651,0,0,-12.013651,303.15138,354.56697)" fill="#333333"/>
<use data-text="e" xlink:href="#font_3_72" transform="matrix(12.013651,0,0,-12.013651,313.15876,354.56697)" fill="#333333"/>
<use data-text="s" xlink:href="#font_3_86" transform="matrix(12.013651,0,0,-12.013651,319.83836,354.56697)" fill="#333333"/>
<use data-text="s" xlink:href="#font_3_86" transform="matrix(12.013651,0,0,-12.013651,325.84516,354.56697)" fill="#333333"/>
<use data-text="a" xlink:href="#font_3_68" transform="matrix(12.013651,0,0,-12.013651,331.852,354.56697)" fill="#333333"/>
<use data-text="g" xlink:href="#font_3_74" transform="matrix(12.013651,0,0,-12.013651,338.5316,354.56697)" fill="#333333"/>
<use data-text="e" xlink:href="#font_3_72" transform="matrix(12.013651,0,0,-12.013651,345.21116,354.56697)" fill="#333333"/>
<use data-text="," xlink:href="#font_3_15" transform="matrix(12.013651,0,0,-12.013651,351.89076,354.56697)" fill="#333333"/>
<use data-text=" " xlink:href="#font_3_3" transform="matrix(12.013651,0,0,-12.013651,355.23057,354.56697)" fill="#333333"/>
<use data-text="d" xlink:href="#font_3_71" transform="matrix(12.013651,0,0,-12.013651,358.57035,354.56697)" fill="#333333"/>
<use data-text="e" xlink:href="#font_3_72" transform="matrix(12.013651,0,0,-12.013651,365.2499,354.56697)" fill="#333333"/>
<use data-text="c" xlink:href="#font_3_70" transform="matrix(12.013651,0,0,-12.013651,371.9295,354.56697)" fill="#333333"/>
<use data-text="r" xlink:href="#font_3_85" transform="matrix(12.013651,0,0,-12.013651,377.93635,354.56697)" fill="#333333"/>
<use data-text="y" xlink:href="#font_3_92" transform="matrix(12.013651,0,0,-12.013651,381.9369,354.56697)" fill="#333333"/>
<use data-text="p" xlink:href="#font_3_83" transform="matrix(12.013651,0,0,-12.013651,387.9437,354.56697)" fill="#333333"/>
<use data-text="t" xlink:href="#font_3_87" transform="matrix(12.013651,0,0,-12.013651,394.6233,354.56697)" fill="#333333"/>
<use data-text="s" xlink:href="#font_3_86" transform="matrix(12.013651,0,0,-12.013651,397.96308,354.56697)" fill="#333333"/>
<path transform="matrix(.7508532,0,0,.7508532,100.61433,13.515358)" stroke-width="1.5" stroke-linecap="butt" stroke-miterlimit="4" stroke-linejoin="miter" fill="none" stroke="#333333" d="M288 465C348 455 348 495 288 485"/>
</g>
<g clip-path="url(#clip_20)">
<g clip-path="url(#clip_21)">
<g clip-path="url(#clip_22)">
<path transform="matrix(-.74063709,-.123439569,.123439569,-.74063709,322.09388,382.35749)" d="M0 0 10 5 0 10V0Z" fill="#333333"/>
<path transform="matrix(-.74063709,-.123439569,.123439569,-.74063709,322.09388,382.35749)" stroke-width="1" stroke-linecap="butt" stroke-miterlimit="4" stroke-linejoin="miter" fill="none" stroke="#333333" d="M0 0 10 5 0 10V0Z"/>
</g>
</g>
</g>
</svg>
