<?xml version="1.0" encoding="utf-8" standalone="no"?>
<!DOCTYPE svg PUBLIC "-//W3C//DTD SVG 1.1//EN"
  "http://www.w3.org/Graphics/SVG/1.1/DTD/svg11.dtd">
<svg xmlns:xlink="http://www.w3.org/1999/xlink" width="460.8pt" height="345.6pt" viewBox="0 0 460.8 345.6" xmlns="http://www.w3.org/2000/svg" version="1.1">
 <metadata>
  <rdf:RDF xmlns:dc="http://purl.org/dc/elements/1.1/" xmlns:cc="http://creativecommons.org/ns#" xmlns:rdf="http://www.w3.org/1999/02/22-rdf-syntax-ns#">
   <cc:Work>
    <dc:type rdf:resource="http://purl.org/dc/dcmitype/StillImage"/>
    <dc:date>2024-05-11T15:19:24.620112</dc:date>
    <dc:format>image/svg+xml</dc:format>
    <dc:creator>
     <cc:Agent>
      <dc:title>Matplotlib v3.7.1, https://matplotlib.org/</dc:title>
     </cc:Agent>
    </dc:creator>
   </cc:Work>
  </rdf:RDF>
 </metadata>
 <defs>
  <style type="text/css">*{stroke-linejoin: round; stroke-linecap: butt}</style>
 </defs>
 <g id="figure_1">
  <g id="patch_1">
   <path d="M 0 345.6 
L 460.8 345.6 
L 460.8 0 
L 0 0 
z
" style="fill: #ffffff"/>
  </g>
  <g id="axes_1">
   <g id="patch_2">
    <path d="M 57.6 307.584 
L 414.72 307.584 
L 414.72 41.472 
L 57.6 41.472 
z
" style="fill: #ffffff"/>
   </g>
   <g id="matplotlib.axis_1">
    <g id="xtick_1">
     <g id="line2d_1">
      <defs>
       <path id="mc1a8b5c5e4" d="M 0 0 
L 0 3.5 
" style="stroke: #000000; stroke-width: 0.8"/>
      </defs>
      <g>
       <use xlink:href="#mc1a8b5c5e4" x="73.832727" y="307.584" style="stroke: #000000; stroke-width: 0.8"/>
      </g>
     </g>
     <g id="text_1">
      <!-- 2028-01-01 -->
      <g transform="translate(44.774915 322.182437) scale(0.1 -0.1)">
       <defs>
        <path id="DejaVuSans-32" d="M 1228 531 
L 3431 531 
L 3431 0 
L 469 0 
L 469 531 
Q 828 903 1448 1529 
Q 2069 2156 2228 2338 
Q 2531 2678 2651 2914 
Q 2772 3150 2772 3378 
Q 2772 3750 2511 3984 
Q 2250 4219 1831 4219 
Q 1534 4219 1204 4116 
Q 875 4013 500 3803 
L 500 4441 
Q 881 4594 1212 4672 
Q 1544 4750 1819 4750 
Q 2544 4750 2975 4387 
Q 3406 4025 3406 3419 
Q 3406 3131 3298 2873 
Q 3191 2616 2906 2266 
Q 2828 2175 2409 1742 
Q 1991 1309 1228 531 
z
" transform="scale(0.015625)"/>
        <path id="DejaVuSans-30" d="M 2034 4250 
Q 1547 4250 1301 3770 
Q 1056 3291 1056 2328 
Q 1056 1369 1301 889 
Q 1547 409 2034 409 
Q 2525 409 2770 889 
Q 3016 1369 3016 2328 
Q 3016 3291 2770 3770 
Q 2525 4250 2034 4250 
z
M 2034 4750 
Q 2819 4750 3233 4129 
Q 3647 3509 3647 2328 
Q 3647 1150 3233 529 
Q 2819 -91 2034 -91 
Q 1250 -91 836 529 
Q 422 1150 422 2328 
Q 422 3509 836 4129 
Q 1250 4750 2034 4750 
z
" transform="scale(0.015625)"/>
        <path id="DejaVuSans-38" d="M 2034 2216 
Q 1584 2216 1326 1975 
Q 1069 1734 1069 1313 
Q 1069 891 1326 650 
Q 1584 409 2034 409 
Q 2484 409 2743 651 
Q 3003 894 3003 1313 
Q 3003 1734 2745 1975 
Q 2488 2216 2034 2216 
z
M 1403 2484 
Q 997 2584 770 2862 
Q 544 3141 544 3541 
Q 544 4100 942 4425 
Q 1341 4750 2034 4750 
Q 2731 4750 3128 4425 
Q 3525 4100 3525 3541 
Q 3525 3141 3298 2862 
Q 3072 2584 2669 2484 
Q 3125 2378 3379 2068 
Q 3634 1759 3634 1313 
Q 3634 634 3220 271 
Q 2806 -91 2034 -91 
Q 1263 -91 848 271 
Q 434 634 434 1313 
Q 434 1759 690 2068 
Q 947 2378 1403 2484 
z
M 1172 3481 
Q 1172 3119 1398 2916 
Q 1625 2713 2034 2713 
Q 2441 2713 2670 2916 
Q 2900 3119 2900 3481 
Q 2900 3844 2670 4047 
Q 2441 4250 2034 4250 
Q 1625 4250 1398 4047 
Q 1172 3844 1172 3481 
z
" transform="scale(0.015625)"/>
        <path id="DejaVuSans-2d" d="M 313 2009 
L 1997 2009 
L 1997 1497 
L 313 1497 
L 313 2009 
z
" transform="scale(0.015625)"/>
        <path id="DejaVuSans-31" d="M 794 531 
L 1825 531 
L 1825 4091 
L 703 3866 
L 703 4441 
L 1819 4666 
L 2450 4666 
L 2450 531 
L 3481 531 
L 3481 0 
L 794 0 
L 794 531 
z
" transform="scale(0.015625)"/>
       </defs>
       <use xlink:href="#DejaVuSans-32"/>
       <use xlink:href="#DejaVuSans-30" x="63.623047"/>
       <use xlink:href="#DejaVuSans-32" x="127.246094"/>
       <use xlink:href="#DejaVuSans-38" x="190.869141"/>
       <use xlink:href="#DejaVuSans-2d" x="254.492188"/>
       <use xlink:href="#DejaVuSans-30" x="290.576172"/>
       <use xlink:href="#DejaVuSans-31" x="354.199219"/>
       <use xlink:href="#DejaVuSans-2d" x="417.822266"/>
       <use xlink:href="#DejaVuSans-30" x="453.90625"/>
       <use xlink:href="#DejaVuSans-31" x="517.529297"/>
      </g>
     </g>
    </g>
    <g id="xtick_2">
     <g id="line2d_2">
      <g>
       <use xlink:href="#mc1a8b5c5e4" x="236.828931" y="307.584" style="stroke: #000000; stroke-width: 0.8"/>
      </g>
     </g>
     <g id="text_2">
      <!-- 2030-01-01 -->
      <g transform="translate(207.771119 322.182437) scale(0.1 -0.1)">
       <defs>
        <path id="DejaVuSans-33" d="M 2597 2516 
Q 3050 2419 3304 2112 
Q 3559 1806 3559 1356 
Q 3559 666 3084 287 
Q 2609 -91 1734 -91 
Q 1441 -91 1130 -33 
Q 819 25 488 141 
L 488 750 
Q 750 597 1062 519 
Q 1375 441 1716 441 
Q 2309 441 2620 675 
Q 2931 909 2931 1356 
Q 2931 1769 2642 2001 
Q 2353 2234 1838 2234 
L 1294 2234 
L 1294 2753 
L 1863 2753 
Q 2328 2753 2575 2939 
Q 2822 3125 2822 3475 
Q 2822 3834 2567 4026 
Q 2313 4219 1838 4219 
Q 1578 4219 1281 4162 
Q 984 4106 628 3988 
L 628 4550 
Q 988 4650 1302 4700 
Q 1616 4750 1894 4750 
Q 2613 4750 3031 4423 
Q 3450 4097 3450 3541 
Q 3450 3153 3228 2886 
Q 3006 2619 2597 2516 
z
" transform="scale(0.015625)"/>
       </defs>
       <use xlink:href="#DejaVuSans-32"/>
       <use xlink:href="#DejaVuSans-30" x="63.623047"/>
       <use xlink:href="#DejaVuSans-33" x="127.246094"/>
       <use xlink:href="#DejaVuSans-30" x="190.869141"/>
       <use xlink:href="#DejaVuSans-2d" x="254.492188"/>
       <use xlink:href="#DejaVuSans-30" x="290.576172"/>
       <use xlink:href="#DejaVuSans-31" x="354.199219"/>
       <use xlink:href="#DejaVuSans-2d" x="417.822266"/>
       <use xlink:href="#DejaVuSans-30" x="453.90625"/>
       <use xlink:href="#DejaVuSans-31" x="517.529297"/>
      </g>
     </g>
    </g>
    <g id="xtick_3">
     <g id="line2d_3">
      <g>
       <use xlink:href="#mc1a8b5c5e4" x="399.602158" y="307.584" style="stroke: #000000; stroke-width: 0.8"/>
      </g>
     </g>
     <g id="text_3">
      <!-- 2032-01-01 -->
      <g transform="translate(370.544345 322.182437) scale(0.1 -0.1)">
       <use xlink:href="#DejaVuSans-32"/>
       <use xlink:href="#DejaVuSans-30" x="63.623047"/>
       <use xlink:href="#DejaVuSans-33" x="127.246094"/>
       <use xlink:href="#DejaVuSans-32" x="190.869141"/>
       <use xlink:href="#DejaVuSans-2d" x="254.492188"/>
       <use xlink:href="#DejaVuSans-30" x="290.576172"/>
       <use xlink:href="#DejaVuSans-31" x="354.199219"/>
       <use xlink:href="#DejaVuSans-2d" x="417.822266"/>
       <use xlink:href="#DejaVuSans-30" x="453.90625"/>
       <use xlink:href="#DejaVuSans-31" x="517.529297"/>
      </g>
     </g>
    </g>
    <g id="text_4">
     <!-- Time -->
     <g transform="translate(223.926406 335.860562) scale(0.1 -0.1)">
      <defs>
       <path id="DejaVuSans-54" d="M -19 4666 
L 3928 4666 
L 3928 4134 
L 2272 4134 
L 2272 0 
L 1638 0 
L 1638 4134 
L -19 4134 
L -19 4666 
z
" transform="scale(0.015625)"/>
       <path id="DejaVuSans-69" d="M 603 3500 
L 1178 3500 
L 1178 0 
L 603 0 
L 603 3500 
z
M 603 4863 
L 1178 4863 
L 1178 4134 
L 603 4134 
L 603 4863 
z
" transform="scale(0.015625)"/>
       <path id="DejaVuSans-6d" d="M 3328 2828 
Q 3544 3216 3844 3400 
Q 4144 3584 4550 3584 
Q 5097 3584 5394 3201 
Q 5691 2819 5691 2113 
L 5691 0 
L 5113 0 
L 5113 2094 
Q 5113 2597 4934 2840 
Q 4756 3084 4391 3084 
Q 3944 3084 3684 2787 
Q 3425 2491 3425 1978 
L 3425 0 
L 2847 0 
L 2847 2094 
Q 2847 2600 2669 2842 
Q 2491 3084 2119 3084 
Q 1678 3084 1418 2786 
Q 1159 2488 1159 1978 
L 1159 0 
L 581 0 
L 581 3500 
L 1159 3500 
L 1159 2956 
Q 1356 3278 1631 3431 
Q 1906 3584 2284 3584 
Q 2666 3584 2933 3390 
Q 3200 3197 3328 2828 
z
" transform="scale(0.015625)"/>
       <path id="DejaVuSans-65" d="M 3597 1894 
L 3597 1613 
L 953 1613 
Q 991 1019 1311 708 
Q 1631 397 2203 397 
Q 2534 397 2845 478 
Q 3156 559 3463 722 
L 3463 178 
Q 3153 47 2828 -22 
Q 2503 -91 2169 -91 
Q 1331 -91 842 396 
Q 353 884 353 1716 
Q 353 2575 817 3079 
Q 1281 3584 2069 3584 
Q 2775 3584 3186 3129 
Q 3597 2675 3597 1894 
z
M 3022 2063 
Q 3016 2534 2758 2815 
Q 2500 3097 2075 3097 
Q 1594 3097 1305 2825 
Q 1016 2553 972 2059 
L 3022 2063 
z
" transform="scale(0.015625)"/>
      </defs>
      <use xlink:href="#DejaVuSans-54"/>
      <use xlink:href="#DejaVuSans-69" x="57.958984"/>
      <use xlink:href="#DejaVuSans-6d" x="85.742188"/>
      <use xlink:href="#DejaVuSans-65" x="183.154297"/>
     </g>
    </g>
   </g>
   <g id="matplotlib.axis_2">
    <g id="ytick_1">
     <g id="line2d_4">
      <defs>
       <path id="m1450da543b" d="M 0 0 
L -3.5 0 
" style="stroke: #000000; stroke-width: 0.8"/>
      </defs>
      <g>
       <use xlink:href="#m1450da543b" x="57.6" y="295.524717" style="stroke: #000000; stroke-width: 0.8"/>
      </g>
     </g>
     <g id="text_5">
      <!-- 100 -->
      <g transform="translate(31.5125 299.323936) scale(0.1 -0.1)">
       <use xlink:href="#DejaVuSans-31"/>
       <use xlink:href="#DejaVuSans-30" x="63.623047"/>
       <use xlink:href="#DejaVuSans-30" x="127.246094"/>
      </g>
     </g>
    </g>
    <g id="ytick_2">
     <g id="line2d_5">
      <g>
       <use xlink:href="#m1450da543b" x="57.6" y="255.853439" style="stroke: #000000; stroke-width: 0.8"/>
      </g>
     </g>
     <g id="text_6">
      <!-- 150 -->
      <g transform="translate(31.5125 259.652658) scale(0.1 -0.1)">
       <defs>
        <path id="DejaVuSans-35" d="M 691 4666 
L 3169 4666 
L 3169 4134 
L 1269 4134 
L 1269 2991 
Q 1406 3038 1543 3061 
Q 1681 3084 1819 3084 
Q 2600 3084 3056 2656 
Q 3513 2228 3513 1497 
Q 3513 744 3044 326 
Q 2575 -91 1722 -91 
Q 1428 -91 1123 -41 
Q 819 9 494 109 
L 494 744 
Q 775 591 1075 516 
Q 1375 441 1709 441 
Q 2250 441 2565 725 
Q 2881 1009 2881 1497 
Q 2881 1984 2565 2268 
Q 2250 2553 1709 2553 
Q 1456 2553 1204 2497 
Q 953 2441 691 2322 
L 691 4666 
z
" transform="scale(0.015625)"/>
       </defs>
       <use xlink:href="#DejaVuSans-31"/>
       <use xlink:href="#DejaVuSans-35" x="63.623047"/>
       <use xlink:href="#DejaVuSans-30" x="127.246094"/>
      </g>
     </g>
    </g>
    <g id="ytick_3">
     <g id="line2d_6">
      <g>
       <use xlink:href="#m1450da543b" x="57.6" y="216.182161" style="stroke: #000000; stroke-width: 0.8"/>
      </g>
     </g>
     <g id="text_7">
      <!-- 200 -->
      <g transform="translate(31.5125 219.98138) scale(0.1 -0.1)">
       <use xlink:href="#DejaVuSans-32"/>
       <use xlink:href="#DejaVuSans-30" x="63.623047"/>
       <use xlink:href="#DejaVuSans-30" x="127.246094"/>
      </g>
     </g>
    </g>
    <g id="ytick_4">
     <g id="line2d_7">
      <g>
       <use xlink:href="#m1450da543b" x="57.6" y="176.510883" style="stroke: #000000; stroke-width: 0.8"/>
      </g>
     </g>
     <g id="text_8">
      <!-- 250 -->
      <g transform="translate(31.5125 180.310102) scale(0.1 -0.1)">
       <use xlink:href="#DejaVuSans-32"/>
       <use xlink:href="#DejaVuSans-35" x="63.623047"/>
       <use xlink:href="#DejaVuSans-30" x="127.246094"/>
      </g>
     </g>
    </g>
    <g id="ytick_5">
     <g id="line2d_8">
      <g>
       <use xlink:href="#m1450da543b" x="57.6" y="136.839605" style="stroke: #000000; stroke-width: 0.8"/>
      </g>
     </g>
     <g id="text_9">
      <!-- 300 -->
      <g transform="translate(31.5125 140.638824) scale(0.1 -0.1)">
       <use xlink:href="#DejaVuSans-33"/>
       <use xlink:href="#DejaVuSans-30" x="63.623047"/>
       <use xlink:href="#DejaVuSans-30" x="127.246094"/>
      </g>
     </g>
    </g>
    <g id="ytick_6">
     <g id="line2d_9">
      <g>
       <use xlink:href="#m1450da543b" x="57.6" y="97.168327" style="stroke: #000000; stroke-width: 0.8"/>
      </g>
     </g>
     <g id="text_10">
      <!-- 350 -->
      <g transform="translate(31.5125 100.967546) scale(0.1 -0.1)">
       <use xlink:href="#DejaVuSans-33"/>
       <use xlink:href="#DejaVuSans-35" x="63.623047"/>
       <use xlink:href="#DejaVuSans-30" x="127.246094"/>
      </g>
     </g>
    </g>
    <g id="ytick_7">
     <g id="line2d_10">
      <g>
       <use xlink:href="#m1450da543b" x="57.6" y="57.497049" style="stroke: #000000; stroke-width: 0.8"/>
      </g>
     </g>
     <g id="text_11">
      <!-- 400 -->
      <g transform="translate(31.5125 61.296268) scale(0.1 -0.1)">
       <defs>
        <path id="DejaVuSans-34" d="M 2419 4116 
L 825 1625 
L 2419 1625 
L 2419 4116 
z
M 2253 4666 
L 3047 4666 
L 3047 1625 
L 3713 1625 
L 3713 1100 
L 3047 1100 
L 3047 0 
L 2419 0 
L 2419 1100 
L 313 1100 
L 313 1709 
L 2253 4666 
z
" transform="scale(0.015625)"/>
       </defs>
       <use xlink:href="#DejaVuSans-34"/>
       <use xlink:href="#DejaVuSans-30" x="63.623047"/>
       <use xlink:href="#DejaVuSans-30" x="127.246094"/>
      </g>
     </g>
    </g>
    <g id="text_12">
     <!-- Data Rate (Mbit/s) -->
     <g transform="translate(25.432812 220.135031) rotate(-90) scale(0.1 -0.1)">
      <defs>
       <path id="DejaVuSans-44" d="M 1259 4147 
L 1259 519 
L 2022 519 
Q 2988 519 3436 956 
Q 3884 1394 3884 2338 
Q 3884 3275 3436 3711 
Q 2988 4147 2022 4147 
L 1259 4147 
z
M 628 4666 
L 1925 4666 
Q 3281 4666 3915 4102 
Q 4550 3538 4550 2338 
Q 4550 1131 3912 565 
Q 3275 0 1925 0 
L 628 0 
L 628 4666 
z
" transform="scale(0.015625)"/>
       <path id="DejaVuSans-61" d="M 2194 1759 
Q 1497 1759 1228 1600 
Q 959 1441 959 1056 
Q 959 750 1161 570 
Q 1363 391 1709 391 
Q 2188 391 2477 730 
Q 2766 1069 2766 1631 
L 2766 1759 
L 2194 1759 
z
M 3341 1997 
L 3341 0 
L 2766 0 
L 2766 531 
Q 2569 213 2275 61 
Q 1981 -91 1556 -91 
Q 1019 -91 701 211 
Q 384 513 384 1019 
Q 384 1609 779 1909 
Q 1175 2209 1959 2209 
L 2766 2209 
L 2766 2266 
Q 2766 2663 2505 2880 
Q 2244 3097 1772 3097 
Q 1472 3097 1187 3025 
Q 903 2953 641 2809 
L 641 3341 
Q 956 3463 1253 3523 
Q 1550 3584 1831 3584 
Q 2591 3584 2966 3190 
Q 3341 2797 3341 1997 
z
" transform="scale(0.015625)"/>
       <path id="DejaVuSans-74" d="M 1172 4494 
L 1172 3500 
L 2356 3500 
L 2356 3053 
L 1172 3053 
L 1172 1153 
Q 1172 725 1289 603 
Q 1406 481 1766 481 
L 2356 481 
L 2356 0 
L 1766 0 
Q 1100 0 847 248 
Q 594 497 594 1153 
L 594 3053 
L 172 3053 
L 172 3500 
L 594 3500 
L 594 4494 
L 1172 4494 
z
" transform="scale(0.015625)"/>
       <path id="DejaVuSans-20" transform="scale(0.015625)"/>
       <path id="DejaVuSans-52" d="M 2841 2188 
Q 3044 2119 3236 1894 
Q 3428 1669 3622 1275 
L 4263 0 
L 3584 0 
L 2988 1197 
Q 2756 1666 2539 1819 
Q 2322 1972 1947 1972 
L 1259 1972 
L 1259 0 
L 628 0 
L 628 4666 
L 2053 4666 
Q 2853 4666 3247 4331 
Q 3641 3997 3641 3322 
Q 3641 2881 3436 2590 
Q 3231 2300 2841 2188 
z
M 1259 4147 
L 1259 2491 
L 2053 2491 
Q 2509 2491 2742 2702 
Q 2975 2913 2975 3322 
Q 2975 3731 2742 3939 
Q 2509 4147 2053 4147 
L 1259 4147 
z
" transform="scale(0.015625)"/>
       <path id="DejaVuSans-28" d="M 1984 4856 
Q 1566 4138 1362 3434 
Q 1159 2731 1159 2009 
Q 1159 1288 1364 580 
Q 1569 -128 1984 -844 
L 1484 -844 
Q 1016 -109 783 600 
Q 550 1309 550 2009 
Q 550 2706 781 3412 
Q 1013 4119 1484 4856 
L 1984 4856 
z
" transform="scale(0.015625)"/>
       <path id="DejaVuSans-4d" d="M 628 4666 
L 1569 4666 
L 2759 1491 
L 3956 4666 
L 4897 4666 
L 4897 0 
L 4281 0 
L 4281 4097 
L 3078 897 
L 2444 897 
L 1241 4097 
L 1241 0 
L 628 0 
L 628 4666 
z
" transform="scale(0.015625)"/>
       <path id="DejaVuSans-62" d="M 3116 1747 
Q 3116 2381 2855 2742 
Q 2594 3103 2138 3103 
Q 1681 3103 1420 2742 
Q 1159 2381 1159 1747 
Q 1159 1113 1420 752 
Q 1681 391 2138 391 
Q 2594 391 2855 752 
Q 3116 1113 3116 1747 
z
M 1159 2969 
Q 1341 3281 1617 3432 
Q 1894 3584 2278 3584 
Q 2916 3584 3314 3078 
Q 3713 2572 3713 1747 
Q 3713 922 3314 415 
Q 2916 -91 2278 -91 
Q 1894 -91 1617 61 
Q 1341 213 1159 525 
L 1159 0 
L 581 0 
L 581 4863 
L 1159 4863 
L 1159 2969 
z
" transform="scale(0.015625)"/>
       <path id="DejaVuSans-2f" d="M 1625 4666 
L 2156 4666 
L 531 -594 
L 0 -594 
L 1625 4666 
z
" transform="scale(0.015625)"/>
       <path id="DejaVuSans-73" d="M 2834 3397 
L 2834 2853 
Q 2591 2978 2328 3040 
Q 2066 3103 1784 3103 
Q 1356 3103 1142 2972 
Q 928 2841 928 2578 
Q 928 2378 1081 2264 
Q 1234 2150 1697 2047 
L 1894 2003 
Q 2506 1872 2764 1633 
Q 3022 1394 3022 966 
Q 3022 478 2636 193 
Q 2250 -91 1575 -91 
Q 1294 -91 989 -36 
Q 684 19 347 128 
L 347 722 
Q 666 556 975 473 
Q 1284 391 1588 391 
Q 1994 391 2212 530 
Q 2431 669 2431 922 
Q 2431 1156 2273 1281 
Q 2116 1406 1581 1522 
L 1381 1569 
Q 847 1681 609 1914 
Q 372 2147 372 2553 
Q 372 3047 722 3315 
Q 1072 3584 1716 3584 
Q 2034 3584 2315 3537 
Q 2597 3491 2834 3397 
z
" transform="scale(0.015625)"/>
       <path id="DejaVuSans-29" d="M 513 4856 
L 1013 4856 
Q 1481 4119 1714 3412 
Q 1947 2706 1947 2009 
Q 1947 1309 1714 600 
Q 1481 -109 1013 -844 
L 513 -844 
Q 928 -128 1133 580 
Q 1338 1288 1338 2009 
Q 1338 2731 1133 3434 
Q 928 4138 513 4856 
z
" transform="scale(0.015625)"/>
      </defs>
      <use xlink:href="#DejaVuSans-44"/>
      <use xlink:href="#DejaVuSans-61" x="77.001953"/>
      <use xlink:href="#DejaVuSans-74" x="138.28125"/>
      <use xlink:href="#DejaVuSans-61" x="177.490234"/>
      <use xlink:href="#DejaVuSans-20" x="238.769531"/>
      <use xlink:href="#DejaVuSans-52" x="270.556641"/>
      <use xlink:href="#DejaVuSans-61" x="337.789062"/>
      <use xlink:href="#DejaVuSans-74" x="399.068359"/>
      <use xlink:href="#DejaVuSans-65" x="438.277344"/>
      <use xlink:href="#DejaVuSans-20" x="499.800781"/>
      <use xlink:href="#DejaVuSans-28" x="531.587891"/>
      <use xlink:href="#DejaVuSans-4d" x="570.601562"/>
      <use xlink:href="#DejaVuSans-62" x="656.880859"/>
      <use xlink:href="#DejaVuSans-69" x="720.357422"/>
      <use xlink:href="#DejaVuSans-74" x="748.140625"/>
      <use xlink:href="#DejaVuSans-2f" x="787.349609"/>
      <use xlink:href="#DejaVuSans-73" x="821.041016"/>
      <use xlink:href="#DejaVuSans-29" x="873.140625"/>
     </g>
    </g>
   </g>
   <g id="line2d_11">
    <path d="M 73.832727 287.356724 
L 75.393566 282.505275 
L 76.954406 289.735445 
L 78.515245 278.705697 
L 80.076084 294.886648 
L 81.636923 288.818238 
L 83.197762 284.751613 
L 84.758601 292.434988 
L 86.319441 283.476618 
L 87.88028 287.295228 
L 89.441119 293.482147 
L 91.001958 294.082518 
L 92.562797 291.036452 
L 94.123636 295.488 
L 95.684476 291.908918 
L 97.245315 288.657681 
L 98.806154 291.106806 
L 100.366993 294.401142 
L 101.927832 292.233259 
L 103.488671 292.467471 
L 105.04951 295.153667 
L 106.61035 293.63081 
L 108.171189 293.583895 
L 109.732028 295.210633 
L 111.292867 292.496915 
L 112.853706 293.500965 
L 114.414545 295.39934 
L 115.975385 292.485018 
L 119.097063 294.541858 
L 120.657902 291.878931 
L 123.77958 294.279002 
L 125.34042 291.157388 
L 126.901259 291.629026 
L 128.462098 293.497328 
L 130.022937 290.352251 
L 131.583776 291.439823 
L 133.144615 293.871704 
L 134.705455 293.673635 
L 136.266294 291.164355 
L 137.827133 293.884303 
L 139.387972 289.91896 
L 140.948811 293.299443 
L 142.50965 294.206308 
L 144.07049 290.111666 
L 145.631329 292.282899 
L 147.192168 289.623984 
L 148.753007 290.901008 
L 150.313846 293.376785 
L 151.874685 292.969059 
L 153.435524 282.415541 
L 154.996364 294.449408 
L 156.557203 290.05941 
L 158.118042 286.601898 
L 159.678881 289.166748 
L 161.23972 283.674002 
L 162.800559 284.528757 
L 164.361399 286.889927 
L 165.922238 290.539311 
L 167.483077 290.649757 
L 169.043916 286.385591 
L 170.604755 283.356378 
L 172.165594 281.837543 
L 173.726434 281.960127 
L 175.287273 283.680835 
L 176.848112 286.795062 
L 178.408951 290.986737 
L 179.96979 277.409759 
L 181.530629 273.001617 
L 183.091469 273.170784 
L 184.652308 283.253737 
L 186.213147 292.429461 
L 187.773986 272.371084 
L 189.334825 292.005118 
L 190.895664 280.744986 
L 194.017343 291.403863 
L 195.578182 285.057603 
L 197.139021 294.221579 
L 198.69986 290.661655 
L 200.260699 282.946083 
L 201.821538 290.097103 
L 203.382378 285.465196 
L 204.943217 293.406368 
L 206.504056 288.672235 
L 208.064895 286.211381 
L 209.625734 293.781163 
L 211.186573 289.906646 
L 212.747413 294.950816 
L 214.308252 294.171972 
L 215.869091 287.799813 
L 217.42993 291.470807 
L 218.990769 289.245529 
L 220.551608 293.967293 
L 222.112448 292.286323 
L 223.673287 291.937072 
L 225.234126 291.979702 
L 226.794965 294.84172 
L 228.355804 293.767997 
L 229.916643 293.643458 
L 231.477483 293.972861 
L 233.038322 295.255951 
L 234.599161 294.386517 
L 236.16 294.26015 
L 237.720839 294.756062 
L 239.281678 294.526089 
L 240.842517 293.857099 
L 242.403357 295.477142 
L 243.964196 294.013525 
L 245.525035 292.85814 
L 247.085874 294.779586 
L 248.646713 292.57006 
L 250.207552 295.134336 
L 251.768392 291.276101 
L 253.329231 291.149029 
L 254.89007 294.730547 
L 256.450909 291.451494 
L 258.011748 294.888903 
L 259.572587 288.703833 
L 261.133427 293.426148 
L 262.694266 294.877082 
L 264.255105 294.744105 
L 265.815944 289.347768 
L 267.376783 295.29122 
L 268.937622 294.95673 
L 270.498462 293.487915 
L 272.059301 292.409995 
L 273.62014 288.056044 
L 276.741818 292.688484 
L 278.302657 288.236081 
L 279.863497 290.452241 
L 281.424336 293.707478 
L 282.985175 288.71817 
L 286.106853 293.284176 
L 287.667692 288.355002 
L 289.228531 292.405671 
L 290.789371 293.371041 
L 292.35021 288.002007 
L 295.471888 292.04124 
L 297.032727 291.339214 
L 298.593566 288.599494 
L 300.154406 291.59822 
L 301.715245 294.267504 
L 303.276084 293.045082 
L 304.836923 290.855115 
L 306.397762 294.599955 
L 307.958601 287.852668 
L 309.519441 290.85546 
L 311.08028 294.476469 
L 314.201958 294.800947 
L 315.762797 291.006551 
L 317.323636 288.461204 
L 318.884476 287.403406 
L 320.445315 287.919647 
L 322.006154 290.584119 
L 323.566993 295.087615 
L 325.127832 287.447195 
L 326.688671 282.682982 
L 328.24951 279.213413 
L 329.81035 277.304339 
L 331.371189 277.067094 
L 332.932028 292.244262 
L 334.492867 280.332328 
L 336.053706 272.390449 
L 337.614545 265.154216 
L 339.175385 259.059436 
L 340.736224 254.487472 
L 342.297063 251.697652 
L 343.857902 250.779628 
L 345.418741 261.026084 
L 348.54042 283.469719 
L 350.101259 293.419476 
L 351.662098 267.142635 
L 356.344615 282.689117 
L 357.905455 287.516695 
L 359.466294 294.050471 
L 361.027133 295.218263 
L 362.587972 295.190479 
L 364.148811 263.46396 
L 365.70965 294.418542 
L 367.27049 285.83309 
L 368.831329 294.356514 
L 370.392168 292.832844 
L 371.953007 294.921999 
L 373.513846 292.774957 
L 375.074685 290.904401 
L 376.635524 293.148815 
L 378.196364 290.294949 
L 379.757203 294.039598 
L 381.318042 288.307286 
L 382.878881 288.189924 
L 384.43972 291.858162 
L 386.000559 288.248366 
L 387.561399 293.211735 
L 389.122238 285.486347 
L 390.683077 291.286133 
L 392.243916 291.37117 
L 393.804755 287.518529 
L 395.365594 293.484383 
L 396.926434 284.467464 
L 398.487273 286.751631 
L 398.487273 286.751631 
" clip-path="url(#pd7c5dd22e3)" style="fill: none; stroke: #1f77b4; stroke-width: 1.5; stroke-linecap: square"/>
   </g>
   <g id="line2d_12">
    <path d="M 73.832727 229.033783 
L 75.393566 211.496159 
L 76.954406 210.455711 
L 78.515245 223.526732 
L 80.076084 240.160387 
L 81.636923 239.716137 
L 83.197762 220.688443 
L 84.758601 220.978286 
L 86.319441 234.669513 
L 87.88028 234.029456 
L 89.441119 233.549421 
L 91.001958 237.381145 
L 92.562797 237.553735 
L 94.123636 238.011565 
L 95.684476 212.168262 
L 97.245315 213.195535 
L 98.806154 229.408177 
L 100.366993 231.002803 
L 101.927832 231.855935 
L 103.488671 219.59745 
L 105.04951 235.909883 
L 106.61035 236.185379 
L 108.171189 222.808101 
L 109.732028 216.472212 
L 111.292867 219.438586 
L 112.853706 228.335668 
L 114.414545 229.998791 
L 115.975385 230.857959 
L 117.536224 232.063088 
L 119.097063 235.2836 
L 120.657902 219.867933 
L 122.218741 232.773691 
L 123.77958 234.768975 
L 125.34042 235.942008 
L 126.901259 231.474112 
L 128.462098 241.766881 
L 130.022937 242.427132 
L 133.144615 244.449017 
L 134.705455 244.770261 
L 136.266294 226.761341 
L 137.827133 229.600451 
L 139.387972 231.82554 
L 140.948811 242.338307 
L 142.50965 241.646215 
L 144.07049 244.239314 
L 145.631329 252.613498 
L 147.192168 253.678483 
L 148.753007 255.418662 
L 150.313846 257.577171 
L 151.874685 258.900938 
L 153.435524 241.458762 
L 154.996364 247.697541 
L 156.557203 243.438365 
L 158.118042 239.585632 
L 159.678881 262.943891 
L 162.800559 254.900715 
L 164.361399 251.323658 
L 165.922238 248.247252 
L 167.483077 259.45433 
L 169.043916 252.724241 
L 170.604755 248.300515 
L 172.165594 246.678173 
L 173.726434 247.978671 
L 175.287273 251.921519 
L 176.848112 257.934077 
L 178.408951 265.326342 
L 179.96979 247.118866 
L 181.530629 249.391975 
L 183.091469 252.043237 
L 184.652308 255.042507 
L 186.213147 258.345424 
L 187.773986 231.557753 
L 189.334825 257.083211 
L 190.895664 239.575376 
L 194.017343 247.916535 
L 195.578182 232.813939 
L 197.139021 234.267444 
L 198.69986 248.491525 
L 200.260699 247.282298 
L 201.821538 247.221133 
L 203.382378 245.821928 
L 204.943217 245.616857 
L 206.504056 228.391495 
L 208.064895 235.422371 
L 209.625734 234.487316 
L 211.186573 232.00255 
L 212.747413 233.47157 
L 214.308252 232.50452 
L 215.869091 249.904422 
L 217.42993 248.88759 
L 218.990769 224.226197 
L 220.551608 222.991796 
L 222.112448 218.023741 
L 223.673287 218.099986 
L 225.234126 215.941002 
L 226.794965 214.194501 
L 228.355804 220.107466 
L 229.916643 229.83005 
L 231.477483 228.640853 
L 233.038322 227.660054 
L 234.599161 210.015773 
L 236.16 223.898038 
L 239.281678 220.74321 
L 240.842517 202.020197 
L 242.403357 214.991127 
L 243.964196 233.841149 
L 245.525035 233.218141 
L 247.085874 232.980271 
L 248.646713 212.867522 
L 250.207552 230.355048 
L 251.768392 229.266243 
L 253.329231 228.425357 
L 254.89007 227.837332 
L 256.450909 211.838685 
L 258.011748 239.818018 
L 259.572587 239.461259 
L 261.133427 239.338361 
L 262.694266 226.740528 
L 264.255105 225.862488 
L 265.815944 226.305429 
L 267.376783 238.609942 
L 268.937622 229.877654 
L 270.498462 230.386105 
L 272.059301 227.267541 
L 273.62014 228.136664 
L 275.180979 229.368197 
L 276.741818 226.738183 
L 278.302657 228.806285 
L 279.863497 234.162868 
L 281.424336 235.259193 
L 282.985175 235.588736 
L 284.546014 221.56874 
L 286.106853 225.007171 
L 287.667692 226.921179 
L 289.228531 235.055151 
L 290.789371 236.745323 
L 292.35021 237.403761 
L 293.911049 238.749782 
L 295.471888 244.30993 
L 297.032727 245.008639 
L 298.593566 226.541353 
L 300.154406 229.410918 
L 301.715245 235.813635 
L 303.276084 238.090826 
L 304.836923 244.672152 
L 306.397762 246.813134 
L 307.958601 247.483643 
L 309.519441 249.434185 
L 311.08028 260.785101 
L 312.641119 261.655618 
L 314.201958 236.095128 
L 315.762797 243.623507 
L 318.884476 238.610926 
L 320.445315 236.40258 
L 322.006154 259.133403 
L 323.566993 267.290651 
L 328.24951 251.914787 
L 329.81035 247.344421 
L 331.371189 243.482239 
L 332.932028 285.341192 
L 334.492867 250.645904 
L 336.053706 244.58038 
L 337.614545 240.906227 
L 339.175385 239.838103 
L 340.736224 241.262946 
L 342.297063 244.817559 
L 343.857902 250.011929 
L 345.418741 256.334836 
L 350.101259 277.784014 
L 351.662098 240.940016 
L 357.905455 263.011762 
L 359.466294 267.835381 
L 361.027133 248.248155 
L 362.587972 240.757165 
L 364.148811 222.224961 
L 365.70965 236.107054 
L 367.27049 228.311144 
L 368.831329 230.924846 
L 370.392168 214.187716 
L 371.953007 209.06007 
L 373.513846 220.861021 
L 375.074685 247.994055 
L 376.635524 247.430645 
L 378.196364 216.526124 
L 379.757203 214.169731 
L 381.318042 237.84399 
L 382.878881 236.042924 
L 384.43972 234.62926 
L 386.000559 204.311967 
L 387.561399 202.733911 
L 389.122238 225.24988 
L 390.683077 249.798954 
L 392.243916 249.804496 
L 393.804755 219.208013 
L 395.365594 219.722482 
L 396.926434 241.363924 
L 398.487273 240.351811 
L 398.487273 240.351811 
" clip-path="url(#pd7c5dd22e3)" style="fill: none; stroke: #ff7f0e; stroke-width: 1.5; stroke-linecap: square"/>
   </g>
   <g id="line2d_13">
    <path d="M 73.832727 212.238971 
L 75.393566 103.789995 
L 76.954406 103.124259 
L 78.515245 163.172818 
L 80.076084 212.739411 
L 81.636923 218.250965 
L 83.197762 116.805768 
L 84.758601 123.384917 
L 86.319441 217.395981 
L 94.123636 215.710718 
L 95.684476 137.740636 
L 97.245315 133.406455 
L 98.806154 214.901495 
L 101.927832 214.569375 
L 103.488671 131.795056 
L 105.04951 214.447358 
L 106.61035 214.470223 
L 108.171189 183.767113 
L 109.732028 162.878489 
L 111.292867 174.863548 
L 112.853706 215.089057 
L 117.536224 215.973814 
L 119.097063 214.331762 
L 120.657902 173.469775 
L 123.77958 209.322033 
L 125.34042 217.364036 
L 126.901259 217.944973 
L 130.022937 218.429912 
L 131.583776 217.509012 
L 134.705455 217.481653 
L 136.266294 164.159445 
L 139.387972 198.424941 
L 140.948811 214.251308 
L 142.50965 218.496775 
L 147.192168 217.755298 
L 148.753007 216.587214 
L 156.557203 215.675852 
L 165.922238 214.443715 
L 167.483077 228.258904 
L 169.043916 219.062891 
L 170.604755 213.244651 
L 172.165594 211.518803 
L 173.726434 213.997215 
L 175.287273 220.162203 
L 176.848112 229.073091 
L 178.408951 239.665947 
L 179.96979 212.956753 
L 186.213147 212.644518 
L 187.773986 212.609943 
L 189.334825 217.901807 
L 190.895664 212.595422 
L 197.139021 212.783446 
L 201.821538 213.101412 
L 203.382378 218.684296 
L 204.943217 218.525307 
L 206.504056 197.426935 
L 208.064895 212.47169 
L 211.186573 175.127459 
L 212.747413 167.000358 
L 214.308252 164.566957 
L 215.869091 216.481808 
L 217.42993 216.139455 
L 218.990769 167.277686 
L 220.551608 170.39258 
L 222.112448 158.162358 
L 223.673287 178.102626 
L 225.234126 179.452466 
L 226.794965 159.21041 
L 228.355804 108.07596 
L 229.916643 194.649358 
L 233.038322 202.439189 
L 234.599161 71.788158 
L 236.16 209.999053 
L 237.720839 201.933182 
L 239.281678 182.864481 
L 240.842517 54.398799 
L 242.403357 53.568 
L 243.964196 216.206243 
L 247.085874 216.895135 
L 248.646713 67.079085 
L 250.207552 217.556976 
L 251.768392 217.857918 
L 253.329231 203.747461 
L 254.89007 186.503813 
L 256.450909 121.763857 
L 258.011748 218.710062 
L 261.133427 218.862033 
L 262.694266 182.799668 
L 264.255105 193.082233 
L 265.815944 190.961961 
L 267.376783 218.552783 
L 268.937622 191.221462 
L 270.498462 194.18091 
L 272.059301 173.59801 
L 275.180979 213.165893 
L 276.741818 216.880363 
L 279.863497 216.191622 
L 281.424336 214.530854 
L 282.985175 214.328931 
L 284.546014 166.721682 
L 287.667692 205.99347 
L 289.228531 214.628393 
L 290.789371 213.420849 
L 293.911049 213.130458 
L 295.471888 214.505629 
L 297.032727 214.613203 
L 298.593566 171.813811 
L 301.715245 207.944801 
L 303.276084 215.511237 
L 304.836923 215.822729 
L 306.397762 212.592368 
L 309.519441 212.635252 
L 311.08028 217.182185 
L 312.641119 217.50845 
L 314.201958 158.82032 
L 315.762797 212.932431 
L 320.445315 213.320575 
L 322.006154 218.799039 
L 323.566993 213.643635 
L 331.371189 214.602004 
L 332.932028 278.438121 
L 334.492867 220.959481 
L 336.053706 216.770311 
L 337.614545 216.658237 
L 339.175385 220.616771 
L 340.736224 228.03842 
L 342.297063 237.937465 
L 343.857902 249.24423 
L 346.97958 254.051046 
L 348.54042 257.672237 
L 350.101259 262.148552 
L 351.662098 216.985521 
L 357.905455 217.37364 
L 359.466294 217.432194 
L 361.027133 190.761211 
L 362.587972 192.305254 
L 364.148811 195.133013 
L 365.70965 198.900031 
L 367.27049 203.291091 
L 368.831329 208.041388 
L 370.392168 142.546059 
L 371.953007 129.469362 
L 373.513846 158.269427 
L 375.074685 217.459415 
L 376.635524 217.768063 
L 378.196364 89.182282 
L 379.757203 82.972135 
L 381.318042 218.504852 
L 382.878881 218.668963 
L 384.43972 208.58767 
L 386.000559 75.097437 
L 387.561399 77.109929 
L 389.122238 154.680699 
L 390.683077 218.741738 
L 392.243916 218.604512 
L 393.804755 98.53131 
L 395.365594 106.808189 
L 396.926434 217.932986 
L 398.487273 217.639203 
L 398.487273 217.639203 
" clip-path="url(#pd7c5dd22e3)" style="fill: none; stroke: #2ca02c; stroke-width: 1.5; stroke-linecap: square"/>
   </g>
   <g id="patch_3">
    <path d="M 57.6 307.584 
L 57.6 41.472 
" style="fill: none; stroke: #000000; stroke-width: 0.8; stroke-linejoin: miter; stroke-linecap: square"/>
   </g>
   <g id="patch_4">
    <path d="M 414.72 307.584 
L 414.72 41.472 
" style="fill: none; stroke: #000000; stroke-width: 0.8; stroke-linejoin: miter; stroke-linecap: square"/>
   </g>
   <g id="patch_5">
    <path d="M 57.6 307.584 
L 414.72 307.584 
" style="fill: none; stroke: #000000; stroke-width: 0.8; stroke-linejoin: miter; stroke-linecap: square"/>
   </g>
   <g id="patch_6">
    <path d="M 57.6 41.472 
L 414.72 41.472 
" style="fill: none; stroke: #000000; stroke-width: 0.8; stroke-linejoin: miter; stroke-linecap: square"/>
   </g>
   <g id="legend_1">
    <g id="patch_7">
     <path d="M 64.6 93.506375 
L 118.3875 93.506375 
Q 120.3875 93.506375 120.3875 91.506375 
L 120.3875 48.472 
Q 120.3875 46.472 118.3875 46.472 
L 64.6 46.472 
Q 62.6 46.472 62.6 48.472 
L 62.6 91.506375 
Q 62.6 93.506375 64.6 93.506375 
z
" style="fill: #ffffff; opacity: 0.8; stroke: #cccccc; stroke-linejoin: miter"/>
    </g>
    <g id="line2d_14">
     <path d="M 66.6 54.570438 
L 76.6 54.570438 
L 86.6 54.570438 
" style="fill: none; stroke: #1f77b4; stroke-width: 1.5; stroke-linecap: square"/>
    </g>
    <g id="text_13">
     <!-- min -->
     <g transform="translate(94.6 58.070438) scale(0.1 -0.1)">
      <defs>
       <path id="DejaVuSans-6e" d="M 3513 2113 
L 3513 0 
L 2938 0 
L 2938 2094 
Q 2938 2591 2744 2837 
Q 2550 3084 2163 3084 
Q 1697 3084 1428 2787 
Q 1159 2491 1159 1978 
L 1159 0 
L 581 0 
L 581 3500 
L 1159 3500 
L 1159 2956 
Q 1366 3272 1645 3428 
Q 1925 3584 2291 3584 
Q 2894 3584 3203 3211 
Q 3513 2838 3513 2113 
z
" transform="scale(0.015625)"/>
      </defs>
      <use xlink:href="#DejaVuSans-6d"/>
      <use xlink:href="#DejaVuSans-69" x="97.412109"/>
      <use xlink:href="#DejaVuSans-6e" x="125.195312"/>
     </g>
    </g>
    <g id="line2d_15">
     <path d="M 66.6 69.248563 
L 76.6 69.248563 
L 86.6 69.248563 
" style="fill: none; stroke: #ff7f0e; stroke-width: 1.5; stroke-linecap: square"/>
    </g>
    <g id="text_14">
     <!-- avg -->
     <g transform="translate(94.6 72.748563) scale(0.1 -0.1)">
      <defs>
       <path id="DejaVuSans-76" d="M 191 3500 
L 800 3500 
L 1894 563 
L 2988 3500 
L 3597 3500 
L 2284 0 
L 1503 0 
L 191 3500 
z
" transform="scale(0.015625)"/>
       <path id="DejaVuSans-67" d="M 2906 1791 
Q 2906 2416 2648 2759 
Q 2391 3103 1925 3103 
Q 1463 3103 1205 2759 
Q 947 2416 947 1791 
Q 947 1169 1205 825 
Q 1463 481 1925 481 
Q 2391 481 2648 825 
Q 2906 1169 2906 1791 
z
M 3481 434 
Q 3481 -459 3084 -895 
Q 2688 -1331 1869 -1331 
Q 1566 -1331 1297 -1286 
Q 1028 -1241 775 -1147 
L 775 -588 
Q 1028 -725 1275 -790 
Q 1522 -856 1778 -856 
Q 2344 -856 2625 -561 
Q 2906 -266 2906 331 
L 2906 616 
Q 2728 306 2450 153 
Q 2172 0 1784 0 
Q 1141 0 747 490 
Q 353 981 353 1791 
Q 353 2603 747 3093 
Q 1141 3584 1784 3584 
Q 2172 3584 2450 3431 
Q 2728 3278 2906 2969 
L 2906 3500 
L 3481 3500 
L 3481 434 
z
" transform="scale(0.015625)"/>
      </defs>
      <use xlink:href="#DejaVuSans-61"/>
      <use xlink:href="#DejaVuSans-76" x="61.279297"/>
      <use xlink:href="#DejaVuSans-67" x="120.458984"/>
     </g>
    </g>
    <g id="line2d_16">
     <path d="M 66.6 83.926688 
L 76.6 83.926688 
L 86.6 83.926688 
" style="fill: none; stroke: #2ca02c; stroke-width: 1.5; stroke-linecap: square"/>
    </g>
    <g id="text_15">
     <!-- max -->
     <g transform="translate(94.6 87.426688) scale(0.1 -0.1)">
      <defs>
       <path id="DejaVuSans-78" d="M 3513 3500 
L 2247 1797 
L 3578 0 
L 2900 0 
L 1881 1375 
L 863 0 
L 184 0 
L 1544 1831 
L 300 3500 
L 978 3500 
L 1906 2253 
L 2834 3500 
L 3513 3500 
z
" transform="scale(0.015625)"/>
      </defs>
      <use xlink:href="#DejaVuSans-6d"/>
      <use xlink:href="#DejaVuSans-61" x="97.412109"/>
      <use xlink:href="#DejaVuSans-78" x="158.691406"/>
     </g>
    </g>
   </g>
  </g>
 </g>
 <defs>
  <clipPath id="pd7c5dd22e3">
   <rect x="57.6" y="41.472" width="357.12" height="266.112"/>
  </clipPath>
 </defs>
</svg>
