<svg xmlns="http://www.w3.org/2000/svg" xmlns:xlink="http://www.w3.org/1999/xlink" version="1.1" width="371.03999pt" height="472.08pt" viewBox="0 0 371.03999 472.08">
<defs>
<clipPath id="clip_1">
<path transform="matrix(.24,0,0,.24,0,0)" d="M0 0H1545.8333V1965.1483H0Z" fill-rule="evenodd"/>
</clipPath>
<clipPath id="clip_2">
<path transform="matrix(.24,0,0,.24,0,0)" d="M25.033738 25.033738H1520.7994V1940.1146H25.033738Z" fill-rule="evenodd"/>
</clipPath>
<path id="font_3_37" d="M.6142578 .19384766C.6142578 .13264974 .59195968 .08504232 .5473633 .05102539 .5027669 .017008463 .44075523 0 .36132813 0H.08203125V.68847659H.33203126C.4934896 .68847659 .57421877 .63273116 .57421877 .52124026 .57421877 .4804891 .5628255 .44625346 .54003909 .41853334 .5172526 .39082337 .48502604 .37224327 .44335938 .36279298 .49804688 .35628257 .54020187 .33797203 .5698242 .30786134 .5994466 .27775065 .6142578 .2397461 .6142578 .19384766M.48046876 .510025C.48046876 .54721578 .46777345 .5738017 .4423828 .5897827 .4169922 .6057739 .38020835 .61376956 .33203126 .61376956H.17529297V.3955078H.33203126C.38183595 .3955078 .4190267 .40488688 .44360353 .42364503 .46818034 .44240318 .48046876 .4711965 .48046876 .510025M.52001956 .20117188C.52001956 .28222657 .46305339 .3227539 .3491211 .3227539H.17529297V.07470703H.3564453C.41341148 .07470703 .45491538 .08528646 .48095704 .10644531 .5069987 .12760417 .52001956 .15917969 .52001956 .20117188Z"/>
<path id="font_3_82" d="M.51416018 .26464845C.51416018 .17220052 .4938151 .10335287 .453125 .05810547 .4124349 .012858073 .35335288-.009765625 .2758789-.009765625 .19873047-.009765625 .14046224 .013753255 .10107422 .060791017 .0616862 .10782877 .041992189 .17578125 .041992189 .26464845 .041992189 .4469401 .12093099 .53808596 .2788086 .53808596 .35953776 .53808596 .4189453 .51586917 .45703126 .47143556 .4951172 .42700196 .51416018 .3580729 .51416018 .26464845M.421875 .26464845C.421875 .3375651 .41105143 .3905436 .3894043 .42358399 .36775718 .45662437 .33138023 .47314454 .28027345 .47314454 .22884114 .47314454 .19165039 .45629884 .16870117 .42260743 .14575196 .38891603 .13427735 .33626304 .13427735 .26464845 .13427735 .19498699 .14558919 .1426595 .16821289 .107666019 .1908366 .07267252 .22639974 .05517578 .27490235 .05517578 .32763673 .05517578 .36531578 .07210287 .38793946 .10595703 .41056315 .1398112 .421875 .19270833 .421875 .26464845Z"/>
<path id="font_3_69" d="M.51416018 .26660157C.51416018 .08235677 .4493815-.009765625 .31982423-.009765625 .27978517-.009765625 .24650066-.0025227864 .2199707 .011962891 .19344075 .026448569 .171875 .049804689 .15527344 .08203125H.15429688C.15429688 .0719401 .15364583 .056559247 .15234375 .035888673 .15104167 .015218099 .15006511 .0032552083 .14941406 0H.064453128C.06640625 .017578125 .06738281 .0538737 .06738281 .10888672V.7246094H.15527344V.5180664C.15527344 .49690757 .15462239 .47200523 .15332031 .44335938H.15527344C.17154949 .47721354 .19311524 .50146487 .2199707 .5161133 .24682617 .5307617 .2801107 .53808596 .31982423 .53808596 .386556 .53808596 .43562828 .515625 .46704103 .47070313 .49845378 .42578126 .51416018 .3577474 .51416018 .26660157M.421875 .26367188C.421875 .3375651 .41210938 .39046226 .39257813 .42236329 .37304688 .4542643 .3413086 .47021485 .29736329 .47021485 .24788411 .47021485 .21183269 .45328776 .18920899 .4194336 .16658528 .38557945 .15527344 .3318685 .15527344 .25830079 .15527344 .18896485 .16634114 .13777669 .18847656 .10473633 .21061199 .07169596 .24658203 .05517578 .29638673 .05517578 .34065757 .05517578 .37263999 .0715332 .39233399 .10424805 .41202799 .13696289 .421875 .19010417 .421875 .26367188Z"/>
<path id="font_3_36" d="M.5698242 0 .49121095 .20166016H.17773438L.09863281 0H.001953125L.28271485 .68847659H.38867188L.66503909 0H.5698242M.33447267 .61816409 .33007813 .6044922C.3219401 .57747396 .30989585 .54280599 .2939453 .5004883L.20605469 .27441407H.4633789L.375 .50146487C.3658854 .5239258 .35677085 .5493164 .34765626 .5776367L.33447267 .61816409Z"/>
<path id="font_3_79" d="M.06738281 0V.7246094H.15527344V0H.06738281Z"/>
<path id="font_3_76" d="M.06689453 .640625V.7246094H.15478516V.640625H.06689453M.06689453 0V.5283203H.15478516V0H.06689453Z"/>
<path id="font_3_70" d="M.13427735 .26660157C.13427735 .19628906 .14534505 .14420574 .16748047 .11035156 .18961589 .0764974 .22298177 .059570314 .26757813 .059570314 .29882813 .059570314 .32495118 .06803385 .34594728 .08496094 .36694337 .10188802 .3798828 .12792969 .38476563 .16308594L.4736328 .15722656C.46679688 .10644531 .44514976 .06591797 .4086914 .03564453 .37223307 .0053710939 .32600913-.009765625 .27001954-.009765625 .1961263-.009765625 .13972982 .013590495 .10083008 .060302736 .06193034 .10701498 .04248047 .1751302 .04248047 .26464845 .04248047 .35351563 .06201172 .42130534 .10107422 .46801759 .14013672 .5147298 .1961263 .53808596 .26904298 .53808596 .32307945 .53808596 .36791993 .5241292 .40356446 .49621583 .43920899 .4683024 .46158854 .42984519 .47070313 .38084413L.3803711 .37402345C.3758138 .40316773 .3642578 .4263204 .34570313 .44348146 .32714845 .46065269 .30078126 .46923829 .26660157 .46923829 .22005208 .46923829 .18636067 .45377604 .16552735 .42285157 .14469402 .3919271 .13427735 .33984376 .13427735 .26660157Z"/>
<path id="font_3_72" d="M.13476563 .24609375C.13476563 .18539429 .14729817 .13855998 .17236328 .10559082 .19742839 .072631839 .23404949 .056152345 .28222657 .056152345 .3203125 .056152345 .35083009 .06384786 .3737793 .07923889 .39672853 .09462992 .41227214 .114115398 .42041017 .13769531L.4975586 .11564636C.46598307 .032038373 .39420573-.009765625 .28222657-.009765625 .20410156-.009765625 .14461263 .013509114 .103759769 .060058595 .0629069 .10660807 .04248047 .17578125 .04248047 .26757813 .04248047 .35481773 .0629069 .42171226 .103759769 .46826173 .14461263 .5148112 .20296224 .53808596 .2788086 .53808596 .43408204 .53808596 .51171877 .44465638 .51171877 .25779725V.24609375H.13476563M.42089845 .31347657C.41601563 .36896769 .40185548 .40944926 .37841798 .43492127 .35498048 .46040345 .32128907 .47314454 .27734376 .47314454 .23470052 .47314454 .20092774 .4589437 .17602539 .430542 .15112305 .40215049 .13769531 .36312867 .13574219 .31347657H.42089845Z"/>
<path id="font_3_83" d="M.51416018 .2668457C.51416018 .08243815 .4493815-.009765625 .31982423-.009765625 .23844402-.009765625 .18375652 .020858765 .15576172 .082107547H.15332031C.15462239 .07950338 .15527344 .051778158 .15527344-.0010681152V-.20800781H.06738281V.42033387C.06738281 .47473655 .06640625 .510732 .064453128 .5283203H.14941406C.14973958 .5270284 .15022786 .5224101 .1508789 .51446536 .15152996 .50653079 .15226238 .4942983 .15307617 .47776795 .15388997 .46124778 .15429688 .4499105 .15429688 .4437561H.15625C.171875 .4763387 .19254558 .50020346 .21826172 .51535037 .24397786 .5305074 .27783204 .53808596 .31982423 .53808596 .38492839 .53808596 .43359376 .5162557 .4658203 .4725952 .49804688 .42893473 .51416018 .36035157 .51416018 .2668457M.421875 .26489259C.421875 .33855186 .41194663 .39118449 .39208985 .42279054 .37223307 .45440675 .34065757 .47021485 .29736329 .47021485 .26253257 .47021485 .23527019 .46288047 .21557617 .44821168 .19588216 .43355308 .1809082 .4106598 .1706543 .37953187 .16040039 .34840394 .15527344 .3079122 .15527344 .25805665 .15527344 .18863933 .16634114 .13747151 .18847656 .10455322 .21061199 .071634929 .24658203 .05517578 .29638673 .05517578 .3400065 .05517578 .37182618 .07122294 .3918457 .10331726 .41186524 .13542176 .421875 .1892802 .421875 .26489259Z"/>
<path id="font_3_68" d="M.20214844-.009765625C.14908855-.009765625 .10921224 .004231771 .08251953 .032226564 .055826826 .060221357 .04248047 .09863281 .04248047 .14746094 .04248047 .20214844 .060465497 .24414063 .09643555 .2734375 .1324056 .30273438 .19042969 .31835938 .2705078 .3203125L.38916017 .32226563V.35107423C.38916017 .39404298 .38004557 .4248047 .3618164 .44335938 .34358726 .46191407 .3149414 .4711914 .2758789 .4711914 .23649089 .4711914 .20784505 .46455384 .1899414 .4512787 .17203777 .4380137 .16129558 .41681925 .15771485 .3876953L.06591797 .39596559C.08089193 .4907125 .15152996 .53808596 .27783204 .53808596 .34423829 .53808596 .39420573 .52286788 .42773438 .49243165 .46126304 .46199546 .47802735 .41796876 .47802735 .36035157V.1328125C.47802735 .106770839 .4814453 .0871582 .48828126 .07397461 .4951172 .060791017 .508138 .05419922 .52734377 .05419922 .5358073 .05419922 .54541018 .055338544 .55615237 .057617189V.0029296876C.5340169-.0022786458 .51139327-.0048828127 .48828126-.0048828127 .45572917-.0048828127 .43204753 .0036621094 .41723634 .020751954 .40242515 .037841798 .39404298 .06461588 .39208985 .10107422H.38916017C.36669923 .060709638 .34057618 .032145185 .31079103 .015380859 .28100587-.0013834635 .24479167-.009765625 .20214844-.009765625M.22216797 .056152345C.25439454 .056152345 .28304038 .06347656 .30810548 .078125 .33317057 .09277344 .35294596 .11287435 .36743165 .13842774 .38191734 .16398113 .38916017 .19026692 .38916017 .21728516V.2607422L.29296876 .25878907C.2516276 .25813804 .22029622 .25390626 .19897461 .24609375 .177653 .23828125 .16129558 .22623699 .14990235 .20996094 .13850911 .19368489 .1328125 .17236328 .1328125 .1459961 .1328125 .11735026 .14054363 .095214847 .15600586 .079589847 .1714681 .063964847 .19352214 .056152345 .22216797 .056152345Z"/>
<path id="font_3_85" d="M.06933594 0V.40527345C.06933594 .4423828 .068359378 .48339845 .06640625 .5283203H.14941406C.15201824 .46842448 .15332031 .43245445 .15332031 .42041017H.15527344C.16927083 .46565757 .18538411 .49658204 .20361328 .5131836 .22184246 .52978518 .2475586 .53808596 .28076173 .53808596 .29248048 .53808596 .30436198 .5364583 .31640626 .5332031V.45263673C.3046875 .45589195 .2890625 .45751954 .26953126 .45751954 .23307292 .45751954 .20524089 .44181315 .18603516 .4104004 .16682942 .37898765 .15722656 .33398438 .15722656 .27539063V0H.06933594Z"/>
<path id="font_3_62" d="M.07128906-.20800781V.7246094H.27001954V.6616211H.15625V-.14501953H.27001954V-.20800781H.07128906Z"/>
<path id="font_3_39" d="M.6743164 .35131837C.6743164 .28030396 .66048178 .21816509 .6328125 .16490174 .60514327 .11164856 .56591799 .07085165 .5151367 .042510988 .46435548 .014170329 .40576173 0 .33935548 0H.08203125V.68847659H.3095703C.42610679 .68847659 .5160319 .6592407 .5793457 .60076907 .6426595 .54229739 .6743164 .45914714 .6743164 .35131837M.5805664 .35131837C.5805664 .4366862 .55721029 .50177 .51049807 .5465698 .4637858 .5913696 .39615885 .61376956 .3076172 .61376956H.17529297V.07470703H.32861329C.379069 .07470703 .42342124 .08578491 .46166993 .107940677 .4999186 .13009644 .5292969 .1620229 .5498047 .2037201 .5703125 .24542745 .5805664 .29462687 .5805664 .35131837Z"/>
<path id="font_3_87" d="M.2705078 .00390625C.24153646-.00390625 .21191406-.0078125 .18164063-.0078125 .111328128-.0078125 .076171878 .0320638 .076171878 .111816409V.46435548H.015136719V.5283203H.079589847L.10546875 .6464844H.1640625V.5283203H.26171876V.46435548H.1640625V.13085938C.1640625 .10546875 .16821289 .087646488 .17651367 .07739258 .18481446 .06713867 .19921875 .06201172 .21972656 .06201172 .23144531 .06201172 .24837239 .06429037 .2705078 .068847659V.00390625Z"/>
<path id="font_3_3" d="M0 0Z"/>
<path id="font_3_55" d="M.3515625 .6123047V0H.25878907V.6123047H.022460938V.68847659H.5878906V.6123047H.3515625Z"/>
<path id="font_3_81" d="M.40283204 0V.33496095C.40283204 .36979167 .39941407 .3968099 .39257813 .41601563 .3857422 .43522135 .37483726 .449056 .35986329 .45751954 .3448893 .46598307 .32291667 .47021485 .2939453 .47021485 .2516276 .47021485 .21826172 .45572917 .19384766 .4267578 .1694336 .39778648 .15722656 .35758464 .15722656 .30615235V0H.06933594V.41552735C.06933594 .47705079 .068359378 .51464846 .06640625 .5283203H.14941406C.14973958 .5266927 .15006511 .52229818 .15039063 .5151367 .15071614 .5079753 .15112305 .49975587 .15161133 .49047853 .15209961 .48120118 .15266927 .46370445 .15332031 .43798829H.15478516C.17496746 .47444663 .19832357 .50024417 .22485352 .51538088 .25138346 .5305176 .28434245 .53808596 .32373048 .53808596 .3816732 .53808596 .42407228 .52368167 .45092774 .49487306 .4777832 .46606446 .49121095 .41845704 .49121095 .35205079V0H.40283204Z"/>
<path id="font_3_86" d="M.4638672 .14613343C.4638672 .09628805 .44506837 .057840986 .4074707 .030792237 .36987306 .003753662 .31722007-.009765625 .24951172-.009765625 .18375652-.009765625 .13305664 .0010579428 .09741211 .022705079 .061767579 .044352216 .03857422 .078125 .027832032 .12402344L.10546875 .13916016C.11295573 .110839847 .12841797 .09008789 .15185547 .0769043 .17529297 .0637207 .20784505 .057128908 .24951172 .057128908 .29410807 .057128908 .32674156 .063975017 .3474121 .07766724 .36808268 .09136963 .37841798 .11191305 .37841798 .13929749 .37841798 .16015117 .3712565 .1770935 .3569336 .19012451 .3426107 .20315552 .3194987 .21390789 .28759767 .22238159L.22460938 .23899842C.17415364 .25202943 .13826497 .26481629 .11694336 .277359 .09562174 .28990174 .078938808 .30513 .06689453 .32304383 .05485026 .3409678 .048828126 .36296083 .048828126 .38902284 .048828126 .43725077 .06599935 .47398887 .1003418 .49923707 .13468425 .5244853 .18473308 .5371094 .25048829 .5371094 .3087565 .5371094 .35506187 .52685549 .3894043 .50634768 .42374674 .48583985 .44547526 .45296226 .45458985 .40771485L.37548829 .39794923C.37060548 .42138673 .35750328 .43937174 .33618165 .4519043 .31486003 .46443687 .28629557 .47070313 .25048829 .47070313 .21077474 .47070313 .18147786 .4646708 .16259766 .4526062 .14371746 .4405416 .13427735 .4222819 .13427735 .39782716 .13427735 .38284303 .1381836 .37046305 .1459961 .36068727 .1538086 .35091148 .16536458 .3426005 .18066406 .3357544 .19596355 .32891847 .22819011 .31947328 .27734376 .30741883 .32389323 .2956899 .35742188 .28485618 .3779297 .2749176 .3984375 .26497904 .41463218 .25398255 .42651368 .2419281 .43839518 .22987366 .44759117 .21594239 .45410157 .20013428 .46061198 .18433635 .4638672 .16633606 .4638672 .14613343Z"/>
<path id="font_3_73" d="M.17626953 .46435548V0H.088378909V.46435548H.014160156V.5283203H.088378909V.5878906C.088378909 .6360677 .098958339 .67073568 .12011719 .69189456 .14127605 .7130534 .17366536 .7236328 .21728516 .7236328 .24169922 .7236328 .26236979 .7216797 .27929688 .71777346V.6508789C.26464845 .6534831 .2516276 .65478518 .24023438 .65478518 .21777344 .65478518 .20149739 .64908859 .19140625 .6376953 .18131511 .62630209 .17626953 .60563156 .17626953 .5756836V.5283203H.27929688V.46435548H.17626953Z"/>
<path id="font_3_64" d="M.0078125-.20800781V-.14501953H.12158203V.6616211H.0078125V.7246094H.20654297V-.20800781H.0078125Z"/>
<path id="font_3_44" d="M.092285159 0V.68847659H.18554688V0H.092285159Z"/>
<path id="font_3_80" d="M.375 0V.33496095C.375 .38606773 .3680013 .42138673 .3540039 .44091798 .3400065 .46044923 .31477867 .47021485 .2783203 .47021485 .24088542 .47021485 .21126302 .45589195 .18945313 .4272461 .16764324 .39860026 .15673828 .3582357 .15673828 .30615235V0H.06933594V.41552735C.06933594 .47705079 .068359378 .51464846 .06640625 .5283203H.14941406C.14973958 .5266927 .15006511 .52229818 .15039063 .5151367 .15071614 .5079753 .15112305 .49975587 .15161133 .49047853 .15209961 .48120118 .15266927 .46370445 .15332031 .43798829H.15478516C.17366536 .4754232 .1953125 .50146487 .21972656 .5161133 .24414063 .5307617 .27392579 .53808596 .30908204 .53808596 .3491211 .53808596 .38077799 .53011068 .40405274 .51416018 .42732749 .49820964 .44352214 .472819 .45263673 .43798829H.45410157C.47233073 .47347007 .49438478 .49902345 .5202637 .51464846 .5461426 .53027346 .57747396 .53808596 .6142578 .53808596 .66764327 .53808596 .7064616 .5236003 .7307129 .4946289 .7549642 .46565757 .76708987 .4181315 .76708987 .35205079V0H.6801758V.33496095C.6801758 .38606773 .67317709 .42138673 .6591797 .44091798 .6451823 .46044923 .6199544 .47021485 .5834961 .47021485 .54508468 .47021485 .5152181 .4559733 .49389649 .42749024 .47257487 .39900718 .46191407 .3585612 .46191407 .30615235V0H.375Z"/>
<path id="font_3_84" d="M.23632813-.009765625C.16927083-.009765625 .12011719 .012858073 .08886719 .05810547 .057617189 .10335287 .041992189 .17122396 .041992189 .26171876 .041992189 .44596354 .106770839 .53808596 .23632813 .53808596 .2763672 .53808596 .30940757 .53100588 .33544923 .5168457 .36149089 .50268557 .38330079 .47916667 .4008789 .44628907H.40185548C.40185548 .4560547 .4025065 .4729004 .4038086 .49682618 .4051107 .52075198 .40641276 .5335286 .40771485 .53515627H.4921875C.48990885 .51594039 .48876954 .4678955 .48876954 .39102174V-.20800781H.4008789V.0066986086L.40283204 .08691406H.40185548C.38427735 .052083333 .36263023 .02726237 .33691407 .012451172 .3111979-.0023600262 .27766929-.009765625 .23632813-.009765625M.4008789 .2705078C.4008789 .33919273 .38964845 .39013673 .3671875 .42333985 .34472657 .45654298 .30891929 .47314454 .25976563 .47314454 .21516927 .47314454 .18310547 .45654298 .16357422 .42333985 .14404297 .39013673 .13427735 .3372396 .13427735 .26464845 .13427735 .1907552 .14412435 .13785808 .16381836 .10595703 .18351238 .07405599 .21516927 .05810547 .25878907 .05810547 .30859376 .05810547 .34472657 .07584635 .3671875 .111328128 .38964845 .14680989 .4008789 .1998698 .4008789 .2705078Z"/>
<path id="font_3_88" d="M.15332031 .5283203V.19335938C.15332031 .15852864 .15673828 .13151042 .16357422 .11230469 .17041016 .09309896 .18131511 .07926432 .19628906 .07080078 .21126302 .06233724 .23323567 .05810547 .26220704 .05810547 .30452476 .05810547 .33789063 .07259115 .3623047 .1015625 .38671876 .13053386 .39892579 .17073567 .39892579 .22216797V.5283203H.4868164V.11279297C.4868164 .05126953 .48779298 .013671875 .4897461 0H.40673829C.40641276 .0016276041 .40608726 .0060221354 .40576173 .013183594 .4054362 .020345053 .4050293 .028564454 .40454103 .037841798 .40405274 .04711914 .40348307 .06461588 .40283204 .09033203H.4013672C.3811849 .0538737 .35782878 .028076172 .33129884 .012939453 .3047689-.0021972657 .2718099-.009765625 .23242188-.009765625 .17447917-.009765625 .13208008 .004638672 .10522461 .033447267 .07836914 .06225586 .064941409 .10986328 .064941409 .17626953V.5283203H.15332031Z"/>
<path id="font_3_89" d="M.2993164 0H.1953125L.0034179688 .5283203H.09716797L.2133789 .18457031C.21761067 .17154949 .22884114 .13297527 .24707031 .068847659L.26416017 .12597656 .28320313 .18359375 .4033203 .5283203H.49658204L.2993164 0Z"/>
<path id="font_3_71" d="M.4008789 .08496094C.38460288 .05110677 .3630371 .026855469 .33618165 .012207031 .30932618-.0024414063 .27604167-.009765625 .23632813-.009765625 .16959636-.009765625 .120524089 .0126953129 .08911133 .057617189 .057698568 .10253906 .041992189 .17057292 .041992189 .26171876 .041992189 .44596354 .106770839 .53808596 .23632813 .53808596 .2763672 .53808596 .30973307 .5307617 .33642579 .5161133 .3631185 .50146487 .38460288 .4781901 .4008789 .44628907H.40185548L.4008789 .5053711V.7246094H.48876954V.10888672C.48876954 .0538737 .4897461 .017578125 .49169923 0H.40771485C.40673829 .0052083337 .40568034 .017252604 .40454103 .036132814 .4034017 .05501302 .40283204 .07128906 .40283204 .08496094H.4008789M.13427735 .26464845C.13427735 .1907552 .14404297 .13785808 .16357422 .10595703 .18310547 .07405599 .21484375 .05810547 .25878907 .05810547 .30859376 .05810547 .34472657 .07535807 .3671875 .10986328 .38964845 .14436849 .4008789 .19791667 .4008789 .2705078 .4008789 .34049479 .38964845 .3917643 .3671875 .4243164 .34472657 .4568685 .30891929 .47314454 .25976563 .47314454 .2154948 .47314454 .18351238 .4567871 .16381836 .42407228 .14412435 .39135743 .13427735 .33821617 .13427735 .26464845Z"/>
<path id="font_3_78" d="M.3984375 0 .21972656 .24121094 .15527344 .18798828V0H.06738281V.7246094H.15527344V.27197267L.38720704 .5283203H.49023438L.2758789 .30126954 .50146487 0H.3984375Z"/>
<path id="font_3_90" d="M.5732422 0H.4711914L.37890626 .37353517 .36132813 .4560547C.35839845 .44140626 .35384117 .42032878 .34765626 .39282228 .34147135 .36531578 .30826823 .234375 .24804688 0H.14648438L-.0014648438 .5283203H.08544922L.17480469 .1694336C.17708333 .1616211 .18408203 .12939453 .19580078 .072753909L.20410156 .10888672 .31445313 .5283203H.4086914L.50097659 .16552735 .5234375 .072753909 .5385742 .140625 .6386719 .5283203H.7246094L.5732422 0Z"/>
<path id="font_3_75" d="M.15478516 .43798829C.17366536 .4724935 .19637044 .49780274 .22290039 .513916 .24943035 .5300293 .28304038 .53808596 .32373048 .53808596 .38102214 .53808596 .42325846 .5238444 .45043946 .49536134 .47762046 .46687828 .49121095 .41910807 .49121095 .35205079V0H.40283204V.33496095C.40283204 .3720703 .39941407 .3996582 .39257813 .4177246 .3857422 .43579103 .37451173 .449056 .35888673 .45751954 .34326173 .46598307 .3216146 .47021485 .2939453 .47021485 .25260417 .47021485 .21948242 .45589195 .19458008 .4272461 .16967774 .39860026 .15722656 .36002604 .15722656 .31152345V0H.06933594V.7246094H.15722656V.5361328C.15722656 .51627609 .1566569 .49576823 .15551758 .47460938 .15437825 .45345054 .15364583 .4412435 .15332031 .43798829H.15478516Z"/>
<path id="font_3_74" d="M.26757813-.20800781C.20996094-.20800781 .1640625-.19669597 .12988281-.17407227 .095703128-.15144857 .07373047-.11930338 .063964847-.07763672L.15234375-.064941409C.15820313-.08935547 .17114258-.1081543 .19116211-.12133789 .21118164-.13452149 .23746746-.14111328 .27001954-.14111328 .35758464-.14111328 .4013672-.08972168 .4013672 .013061523V.098236087H.40039063C.38378907 .0643514 .3610026 .038853963 .33203126 .021743775 .3030599 .0046437585 .26920573-.00390625 .23046875-.00390625 .16569011-.00390625 .11808268 .01759847 .087646488 .06060791 .057210287 .10361735 .041992189 .17122396 .041992189 .26342774 .041992189 .3569336 .05834961 .42592369 .09106445 .47039796 .1237793 .51487228 .17350261 .5371094 .24023438 .5371094 .27766929 .5371094 .31013999 .52855429 .33764649 .5114441 .36515299 .4943441 .38639323 .46999107 .4013672 .438385H.40234376C.40234376 .44810996 .40299479 .46496073 .40429688 .48893739 .40559898 .5129242 .40690104 .5260518 .40820313 .5283203H.49169923C.4897461 .510732 .48876954 .47424827 .48876954 .41886903V.014801025C.48876954-.1337382 .41503907-.20800781 .26757813-.20800781M.4013672 .2644043C.4013672 .30742393 .3955078 .34449259 .38378907 .37561036 .3720703 .40673829 .35555015 .43053184 .33422853 .44699098 .3129069 .4634501 .28873698 .4716797 .26171876 .4716797 .21679688 .4716797 .18408203 .4553833 .16357422 .42279054 .1430664 .39019776 .1328125 .33740235 .1328125 .2644043 .1328125 .19204712 .14241536 .14006043 .1616211 .108444217 .18082683 .07683817 .21370442 .061035158 .2602539 .061035158 .2879232 .061035158 .3125 .06918335 .33398438 .08547974 .35546876 .10177612 .3720703 .12515767 .38378907 .15562439 .3955078 .18610128 .4013672 .22236125 .4013672 .2644043Z"/>
<path id="font_3_38" d="M.38671876 .6220703C.31054688 .6220703 .2513021 .5975749 .20898438 .548584 .16666667 .4995931 .14550781 .43245445 .14550781 .34716798 .14550781 .26285807 .16756185 .19506836 .21166992 .14379883 .25577799 .0925293 .3154297 .06689453 .390625 .06689453 .48697917 .06689453 .55940756 .114583339 .60791018 .20996094L.68408206 .171875C.6557617 .11263021 .6159668 .06754557 .56469729 .036621095 .51342776 .0056966149 .4539388-.009765625 .38623048-.009765625 .31689454-.009765625 .25691734 .004638672 .20629883 .033447267 .15568035 .06225586 .11710612 .10343424 .09057617 .15698242 .06404623 .2105306 .05078125 .27392579 .05078125 .34716798 .05078125 .4568685 .08040365 .54280599 .13964844 .60498049 .19889324 .66715499 .28092448 .6982422 .3857422 .6982422 .45898438 .6982422 .5201823 .6839549 .56933596 .65538027 .61848959 .6268056 .6546224 .5844269 .6777344 .528244L.58935549 .49902345C.57340499 .5388997 .5477702 .56937667 .5124512 .5904541 .47713218 .61153158 .43522135 .6220703 .38671876 .6220703Z"/>
<path id="font_3_40" d="M.08203125 0V.68847659H.6040039V.6123047H.17529297V.39160157H.57470706V.31640626H.17529297V.076171878H.62402346V0H.08203125Z"/>
<path id="font_3_41" d="M.17529297 .6123047V.3564453H.55908206V.27929688H.17529297V0H.08203125V.68847659H.5708008V.6123047H.17529297Z"/>
<path id="font_3_52" d="M.72998049 .34716798C.72998049 .25016276 .7055664 .17041016 .6567383 .107910159 .60791018 .045410158 .54003909 .008463542 .453125-.0029296876 .46647135-.044118246 .4839681-.07386271 .50561526-.092163089 .5272624-.11047363 .5546875-.119628909 .5878906-.119628909 .60579428-.119628909 .6245117-.11751302 .64404299-.11328125V-.17871094C.61376956-.18587239 .58479818-.18945313 .5571289-.18945313 .5079753-.18945313 .4675293-.17549642 .43579103-.14758301 .40405274-.11967977 .37809245-.0730896 .35791017-.0078125 .29345704-.0045572917 .23787435 .01180013 .19116211 .041259767 .14444988 .0707194 .108805339 .11173502 .084228519 .16430664 .05965169 .21687825 .04736328 .27783204 .04736328 .34716798 .04736328 .457194 .07747396 .5432129 .13769531 .6052246 .19791667 .6672363 .28173829 .6982422 .38916017 .6982422 .45914714 .6982422 .51985678 .6843262 .57128909 .65649417 .6227214 .6286621 .662028 .5882161 .689209 .53515627 .71638998 .48209635 .72998049 .4194336 .72998049 .34716798M.6347656 .34716798C.6347656 .43277995 .6133626 .5 .57055667 .5488281 .5277507 .59765627 .46728517 .6220703 .38916017 .6220703 .31038413 .6220703 .24951172 .59798178 .20654297 .5498047 .16357422 .5016276 .14208985 .43408204 .14208985 .34716798 .14208985 .26090495 .16381836 .19246419 .20727539 .1418457 .25073243 .09122721 .31103517 .06591797 .3881836 .06591797 .4676107 .06591797 .52856448 .090413417 .5710449 .1394043 .6135254 .18839519 .6347656 .25764976 .6347656 .34716798Z"/>
<clipPath id="clip_4">
<path transform="matrix(.24,0,0,.24,0,0)" d="M0 0H1545.8333V1965.1483H0Z"/>
</clipPath>
<clipPath id="clip_5">
<path transform="matrix(.24,0,0,.24,0,0)" d="M25.033738 25.033738H1520.7994V1940.1146H25.033738Z"/>
</clipPath>
<clipPath id="clip_6">
<path transform="matrix(.24,0,0,.24,0,0)" d="M415.0579 652.98037H452.53V690.46969H415.0579Z"/>
</clipPath>
<clipPath id="clip_7">
<path transform="matrix(.24,0,0,.24,0,0)" d="M25.033738 25.033738H1520.7994V1940.1146H25.033738Z" fill-rule="evenodd"/>
</clipPath>
<path id="font_3_48" d="M.6669922 0V.4593506C.6669922 .51017257 .66845706 .5590413 .6713867 .60595706 .6554362 .54763796 .6411133 .5020294 .62841799 .46913148L.4506836 0H.3852539L.20507813 .46913148 .17773438 .5522003 .1616211 .60595706 .16308594 .55171206 .16503906 .4593506V0H.08203125V.68847659H.20458985L.3876953 .21102906C.39420573 .19180298 .40047203 .17119344 .40649415 .14920044 .41251628 .1272176 .4165039 .111338298 .41845704 .1015625 .4210612 .114593509 .42651368 .13438416 .43481446 .16093445 .44311524 .18748474 .44873048 .20418294 .45166017 .21102906L.63134768 .68847659H.75097659V0H.6669922Z"/>
<clipPath id="clip_8">
<path transform="matrix(.24,0,0,.24,0,0)" d="M1093.3032 802.9377H1130.7754V840.427H1093.3032Z" fill-rule="evenodd"/>
</clipPath>
<clipPath id="clip_9">
<path transform="matrix(.24,0,0,.24,0,0)" d="M25.033738 25.033738H1520.7994V1940.1146H25.033738Z" fill-rule="evenodd"/>
</clipPath>
<clipPath id="clip_10">
<path transform="matrix(.24,0,0,.24,0,0)" d="M1093.3032 1080.9838H1130.7754V1118.4732H1093.3032Z" fill-rule="evenodd"/>
</clipPath>
<clipPath id="clip_11">
<path transform="matrix(.24,0,0,.24,0,0)" d="M25.033738 25.033738H1520.7994V1940.1146H25.033738Z" fill-rule="evenodd"/>
</clipPath>
<clipPath id="clip_12">
<path transform="matrix(.24,0,0,.24,0,0)" d="M0 0H1545.8333V1965.1483H0Z"/>
</clipPath>
<clipPath id="clip_13">
<path transform="matrix(.24,0,0,.24,0,0)" d="M25.033738 25.033738H1520.7994V1940.1146H25.033738Z"/>
</clipPath>
<clipPath id="clip_14">
<path transform="matrix(.24,0,0,.24,0,0)" d="M415.0579 1218.4447H452.53V1255.9341H415.0579Z"/>
</clipPath>
</defs>
<g clip-path="url(#clip_1)">
<path transform="matrix(.7510121,0,0,.7510121,6.0080969,6.0080969)" d="M0 0H478V612H0Z" fill="#ffffff"/>
</g>
<g clip-path="url(#clip_2)">
<path transform="matrix(.7494424,0,0,.749787,43.480657,13.505967)" d="M232 527H376C376.3978 527 376.78047 527.0761 377.148 527.22836 377.51557 527.38058 377.84 527.59738 378.1213 527.87869 378.4026 528.1599 378.61936 528.4843 378.7716 528.85189 378.92387 529.2194 378.99998 529.6021 379 530V589C378.99998 589.39779 378.92387 589.7804 378.7716 590.14797 378.61936 590.5155 378.4026 590.83999 378.1213 591.1213 377.84 591.4025 377.51557 591.61929 377.148 591.77157 376.78047 591.9238 376.3978 591.99996 376 592H232C231.60214 591.99996 231.21944 591.9238 230.8519 591.77157 230.48436 591.61929 230.15995 591.4025 229.87865 591.1213 229.59732 590.83999 229.38056 590.5155 229.22834 590.14797 229.0761 589.7804 228.99999 589.39779 229 589V530C228.99999 529.6021 229.0761 529.2194 229.22834 528.85189 229.38056 528.4843 229.59732 528.1599 229.87865 527.87869 230.15995 527.59738 230.48436 527.38058 230.8519 527.22836 231.21944 527.0761 231.60214 527 232 527Z" fill="#eeeeee"/>
<path transform="matrix(.7494424,0,0,.749787,43.480657,13.505967)" stroke-width="1" stroke-linecap="butt" stroke-miterlimit="4" stroke-linejoin="miter" fill="none" stroke="#d4d4d4" d="M232 527H376C376.3978 527 376.78047 527.0761 377.148 527.22836 377.51557 527.38058 377.84 527.59738 378.1213 527.87869 378.4026 528.1599 378.61936 528.4843 378.7716 528.85189 378.92387 529.2194 378.99998 529.6021 379 530V589C378.99998 589.39779 378.92387 589.7804 378.7716 590.14797 378.61936 590.5155 378.4026 590.83999 378.1213 591.1213 377.84 591.4025 377.51557 591.61929 377.148 591.77157 376.78047 591.9238 376.3978 591.99996 376 592H232C231.60214 591.99996 231.21944 591.9238 230.8519 591.77157 230.48436 591.61929 230.15995 591.4025 229.87865 591.1213 229.59732 590.83999 229.38056 590.5155 229.22834 590.14797 229.0761 589.7804 228.99999 589.39779 229 589V530C228.99999 529.6021 229.0761 529.2194 229.22834 528.85189 229.38056 528.4843 229.59732 528.1599 229.87865 527.87869 230.15995 527.59738 230.48436 527.38058 230.8519 527.22836 231.21944 527.0761 231.60214 527 232 527Z"/>
<use data-text="B" xlink:href="#font_3_37" transform="matrix(11.986153,0,0,-11.991664,260.6405,437.51808)" fill="#333333"/>
<use data-text="o" xlink:href="#font_3_82" transform="matrix(11.986153,0,0,-11.991664,268.63175,437.51808)" fill="#333333"/>
<use data-text="b" xlink:href="#font_3_69" transform="matrix(11.986153,0,0,-11.991664,275.29499,437.51808)" fill="#333333"/>
<path transform="matrix(.7494424,0,0,.749787,43.480657,13.505967)" d="M3 527H147C147.39781 527 147.78049 527.0761 148.14803 527.22836 148.51557 527.38058 148.84 527.59738 149.1213 527.87869 149.4026 528.1599 149.61939 528.4843 149.77162 528.85189 149.92386 529.2194 149.99999 529.6021 150 530V589C149.99999 589.39779 149.92386 589.7804 149.77162 590.14797 149.61939 590.5155 149.4026 590.83999 149.1213 591.1213 148.84 591.4025 148.51557 591.61929 148.14803 591.77157 147.78049 591.9238 147.39781 591.99996 147 592H3C2.6021753 591.99996 2.2194918 591.9238 1.8519496 591.77157 1.4844074 591.61929 1.1599841 591.4025 .87867966 591.1213 .59737506 590.83999 .3806023 590.5155 .22836139 590.14797 .07612045 589.7804 0 589.39779 0 589V530C0 529.6021 .07612045 529.2194 .22836139 528.85189 .3806023 528.4843 .59737506 528.1599 .87867966 527.87869 1.1599841 527.59738 1.4844074 527.38058 1.8519496 527.22836 2.2194918 527.0761 2.6021753 527 3 527Z" fill="#eeeeee"/>
<path transform="matrix(.7494424,0,0,.749787,43.480657,13.505967)" stroke-width="1" stroke-linecap="butt" stroke-miterlimit="4" stroke-linejoin="miter" fill="none" stroke="#d4d4d4" d="M3 527H147C147.39781 527 147.78049 527.0761 148.14803 527.22836 148.51557 527.38058 148.84 527.59738 149.1213 527.87869 149.4026 528.1599 149.61939 528.4843 149.77162 528.85189 149.92386 529.2194 149.99999 529.6021 150 530V589C149.99999 589.39779 149.92386 589.7804 149.77162 590.14797 149.61939 590.5155 149.4026 590.83999 149.1213 591.1213 148.84 591.4025 148.51557 591.61929 148.14803 591.77157 147.78049 591.9238 147.39781 591.99996 147 592H3C2.6021753 591.99996 2.2194918 591.9238 1.8519496 591.77157 1.4844074 591.61929 1.1599841 591.4025 .87867966 591.1213 .59737506 590.83999 .3806023 590.5155 .22836139 590.14797 .07612045 589.7804 0 589.39779 0 589V530C0 529.6021 .07612045 529.2194 .22836139 528.85189 .3806023 528.4843 .59737506 528.1599 .87867966 527.87869 1.1599841 527.59738 1.4844074 527.38058 1.8519496 527.22836 2.2194918 527.0761 2.6021753 527 3 527Z"/>
<use data-text="A" xlink:href="#font_3_36" transform="matrix(11.986153,0,0,-11.991664,86.69905,437.51808)" fill="#333333"/>
<use data-text="l" xlink:href="#font_3_79" transform="matrix(11.986153,0,0,-11.991664,94.69028,437.51808)" fill="#333333"/>
<use data-text="i" xlink:href="#font_3_76" transform="matrix(11.986153,0,0,-11.991664,97.35208,437.51808)" fill="#333333"/>
<use data-text="c" xlink:href="#font_3_70" transform="matrix(11.986153,0,0,-11.991664,100.01388,437.51808)" fill="#333333"/>
<use data-text="e" xlink:href="#font_3_72" transform="matrix(11.986153,0,0,-11.991664,106.00437,437.51808)" fill="#333333"/>
<path transform="matrix(.7494424,0,0,.749787,43.480657,13.505967)" stroke-width="2" stroke-linecap="butt" stroke-miterlimit="4" stroke-linejoin="miter" fill="none" stroke="#d4d4d4" d="M304 5V527"/>
<path transform="matrix(.7494424,0,0,.749787,43.480657,13.505967)" d="M232 0H376C376.3978 0 376.78047 .07612045 377.148 .22836139 377.51557 .3806023 377.84 .59737506 378.1213 .87867966 378.4026 1.1599841 378.61936 1.4844074 378.7716 1.8519496 378.92387 2.2194918 378.99998 2.6021753 379 3V62C378.99998 62.397825 378.92387 62.780504 378.7716 63.148046 378.61936 63.515588 378.4026 63.840009 378.1213 64.121318 377.84 64.40262 377.51557 64.619388 377.148 64.77163 376.78047 64.923877 376.3978 64.99999 376 65H232C231.60214 64.99999 231.21944 64.923877 230.8519 64.77163 230.48436 64.619388 230.15995 64.40262 229.87865 64.121318 229.59732 63.840009 229.38056 63.515588 229.22834 63.148046 229.0761 62.780504 228.99999 62.397825 229 62V3C228.99999 2.6021753 229.0761 2.2194918 229.22834 1.8519496 229.38056 1.4844074 229.59732 1.1599841 229.87865 .87867966 230.15995 .59737506 230.48436 .3806023 230.8519 .22836139 231.21944 .07612045 231.60214 0 232 0Z" fill="#eeeeee"/>
<path transform="matrix(.7494424,0,0,.749787,43.480657,13.505967)" stroke-width="1" stroke-linecap="butt" stroke-miterlimit="4" stroke-linejoin="miter" fill="none" stroke="#d4d4d4" d="M232 0H376C376.3978 0 376.78047 .07612045 377.148 .22836139 377.51557 .3806023 377.84 .59737506 378.1213 .87867966 378.4026 1.1599841 378.61936 1.4844074 378.7716 1.8519496 378.92387 2.2194918 378.99998 2.6021753 379 3V62C378.99998 62.397825 378.92387 62.780504 378.7716 63.148046 378.61936 63.515588 378.4026 63.840009 378.1213 64.121318 377.84 64.40262 377.51557 64.619388 377.148 64.77163 376.78047 64.923877 376.3978 64.99999 376 65H232C231.60214 64.99999 231.21944 64.923877 230.8519 64.77163 230.48436 64.619388 230.15995 64.40262 229.87865 64.121318 229.59732 63.840009 229.38056 63.515588 229.22834 63.148046 229.0761 62.780504 228.99999 62.397825 229 62V3C228.99999 2.6021753 229.0761 2.2194918 229.22834 1.8519496 229.38056 1.4844074 229.59732 1.1599841 229.87865 .87867966 230.15995 .59737506 230.48436 .3806023 230.8519 .22836139 231.21944 .07612045 231.60214 0 232 0Z"/>
<use data-text="B" xlink:href="#font_3_37" transform="matrix(11.986153,0,0,-11.991664,260.6405,42.374528)" fill="#333333"/>
<use data-text="o" xlink:href="#font_3_82" transform="matrix(11.986153,0,0,-11.991664,268.63175,42.374528)" fill="#333333"/>
<use data-text="b" xlink:href="#font_3_69" transform="matrix(11.986153,0,0,-11.991664,275.29499,42.374528)" fill="#333333"/>
<path transform="matrix(.7494424,0,0,.749787,43.480657,13.505967)" stroke-width="2" stroke-linecap="butt" stroke-miterlimit="4" stroke-linejoin="miter" fill="none" stroke="#d4d4d4" d="M75 5V527"/>
<path transform="matrix(.7494424,0,0,.749787,43.480657,13.505967)" d="M3 0H147C147.39781 0 147.78049 .07612045 148.14803 .22836139 148.51557 .3806023 148.84 .59737506 149.1213 .87867966 149.4026 1.1599841 149.61939 1.4844074 149.77162 1.8519496 149.92386 2.2194918 149.99999 2.6021753 150 3V62C149.99999 62.397825 149.92386 62.780504 149.77162 63.148046 149.61939 63.515588 149.4026 63.840009 149.1213 64.121318 148.84 64.40262 148.51557 64.619388 148.14803 64.77163 147.78049 64.923877 147.39781 64.99999 147 65H3C2.6021753 64.99999 2.2194918 64.923877 1.8519496 64.77163 1.4844074 64.619388 1.1599841 64.40262 .87867966 64.121318 .59737506 63.840009 .3806023 63.515588 .22836139 63.148046 .07612045 62.780504 0 62.397825 0 62V3C0 2.6021753 .07612045 2.2194918 .22836139 1.8519496 .3806023 1.4844074 .59737506 1.1599841 .87867966 .87867966 1.1599841 .59737506 1.4844074 .3806023 1.8519496 .22836139 2.2194918 .07612045 2.6021753 0 3 0Z" fill="#eeeeee"/>
<path transform="matrix(.7494424,0,0,.749787,43.480657,13.505967)" stroke-width="1" stroke-linecap="butt" stroke-miterlimit="4" stroke-linejoin="miter" fill="none" stroke="#d4d4d4" d="M3 0H147C147.39781 0 147.78049 .07612045 148.14803 .22836139 148.51557 .3806023 148.84 .59737506 149.1213 .87867966 149.4026 1.1599841 149.61939 1.4844074 149.77162 1.8519496 149.92386 2.2194918 149.99999 2.6021753 150 3V62C149.99999 62.397825 149.92386 62.780504 149.77162 63.148046 149.61939 63.515588 149.4026 63.840009 149.1213 64.121318 148.84 64.40262 148.51557 64.619388 148.14803 64.77163 147.78049 64.923877 147.39781 64.99999 147 65H3C2.6021753 64.99999 2.2194918 64.923877 1.8519496 64.77163 1.4844074 64.619388 1.1599841 64.40262 .87867966 64.121318 .59737506 63.840009 .3806023 63.515588 .22836139 63.148046 .07612045 62.780504 0 62.397825 0 62V3C0 2.6021753 .07612045 2.2194918 .22836139 1.8519496 .3806023 1.4844074 .59737506 1.1599841 .87867966 .87867966 1.1599841 .59737506 1.4844074 .3806023 1.8519496 .22836139 2.2194918 .07612045 2.6021753 0 3 0Z"/>
<use data-text="A" xlink:href="#font_3_36" transform="matrix(11.986153,0,0,-11.991664,86.69905,42.374528)" fill="#333333"/>
<use data-text="l" xlink:href="#font_3_79" transform="matrix(11.986153,0,0,-11.991664,94.69028,42.374528)" fill="#333333"/>
<use data-text="i" xlink:href="#font_3_76" transform="matrix(11.986153,0,0,-11.991664,97.35208,42.374528)" fill="#333333"/>
<use data-text="c" xlink:href="#font_3_70" transform="matrix(11.986153,0,0,-11.991664,100.01388,42.374528)" fill="#333333"/>
<use data-text="e" xlink:href="#font_3_72" transform="matrix(11.986153,0,0,-11.991664,106.00437,42.374528)" fill="#333333"/>
<path transform="matrix(.7494424,0,0,.749787,43.480657,13.505967)" d="M64 118H66V120H64M68 118H70V120H68M72 118H74V120H72M76 118H78V120H76M80 118H82V120H80M84 118H86V120H84M88 118H90V120H88M92 118H94V120H92M96 118H98V120H96M100 118H102V120H100M104 118H106V120H104M108 118H110V120H108M112 118H114V120H112M116 118H118V120H116M120 118H122V120H120M124 118H126V120H124M128 118H130V120H128M132 118H134V120H132M136 118H138V120H136M140 118H142V120H140M144 118H146V120H144M148 118H150V120H148M152 118H154V120H152M156 118H158V120H156M160 118H162V120H160M164 118H166V120H164M168 118H170V120H168M172 118H174V120H172M176 118H178V120H176M180 118H182V120H180M184 118H186V120H184M188 118H190V120H188M192 118H194V120H192M196 118H198V120H196M200 118H202V120H200M204 118H206V120H204M208 118H210V120H208M212 118H214V120H212M216 118H218V120H216M220 118H222V120H220M224 118H226V120H224M228 118H230V120H228M232 118H234V120H232M236 118H238V120H236M240 118H242V120H240M244 118H246V120H244M248 118H250V120H248M252 118H254V120H252M256 118H258V120H256M260 118H262V120H260M264 118H266V120H264M268 118H270V120H268M272 118H274V120H272M276 118H278V120H276M280 118H282V120H280M284 118H286V120H284M288 118H290V120H288M292 118H294V120H292M296 118H298V120H296M300 118H302V120H300M304 118H306V120H304M308 118H310V120H308M312 118H314V120H312" fill="#d4d4d4"/>
<path transform="matrix(.7494424,0,0,.749787,43.480657,13.505967)" d="M316 119V121H314V119M316 123V125H314V123M316 127V129H314V127M316 131V133H314V131M316 135V137H314V135M316 139V141H314V139M316 143V145H314V143M316 147V149H314V147M316 151V153H314V151M316 155V157H314V155M316 159V161H314V159M316 163V165H314V163M316 167V169H314V167M316 171V173H314V171M316 175V177H314V175M316 179V181H314V179M316 183V185H314V183M316 187V189H314V187M316 191V193H314V191M316 195V197H314V195M316 199V201H314V199M316 203V205H314V203M316 207V209H314V207M316 211V213H314V211M316 215V217H314V215M316 219V221H314V219M316 223V225H314V223M316 227V229H314V227M316 231V233H314V231M316 235V237H314V235M316 239V241H314V239M316 243V245H314V243M316 247V249H314V247M316 251V253H314V251M316 255V257H314V255M316 259V261H314V259M316 263V265H314V263M316 267V269H314V267M316 271V273H314V271M316 275V277H314V275M316 279V281H314V279M316 283V285H314V283M316 287V289H314V287M316 291V293H314V291M316 295V297H314V295M316 299V301H314V299M316 303V305H314V303M316 307V309H314V307M316 311V313H314V311M316 315V317H314V315M316 319V321H314V319M316 323V325H314V323M316 327V329H314V327M316 331V333H314V331M316 335V337H314V335M316 339V341H314V339M316 343V345H314V343M316 347V349H314V347M316 351V353H314V351M316 355V357H314V355M316 359V361H314V359M316 363V365H314V363M316 367V369H314V367M316 371V373H314V371M316 375V377H314V375M316 379V381H314V379M316 383V385H314V383M316 387V389H314V387" fill="#d4d4d4"/>
<path transform="matrix(.7494424,0,0,.749787,43.480657,13.505967)" d="M64 388H66V390H64M68 388H70V390H68M72 388H74V390H72M76 388H78V390H76M80 388H82V390H80M84 388H86V390H84M88 388H90V390H88M92 388H94V390H92M96 388H98V390H96M100 388H102V390H100M104 388H106V390H104M108 388H110V390H108M112 388H114V390H112M116 388H118V390H116M120 388H122V390H120M124 388H126V390H124M128 388H130V390H128M132 388H134V390H132M136 388H138V390H136M140 388H142V390H140M144 388H146V390H144M148 388H150V390H148M152 388H154V390H152M156 388H158V390H156M160 388H162V390H160M164 388H166V390H164M168 388H170V390H168M172 388H174V390H172M176 388H178V390H176M180 388H182V390H180M184 388H186V390H184M188 388H190V390H188M192 388H194V390H192M196 388H198V390H196M200 388H202V390H200M204 388H206V390H204M208 388H210V390H208M212 388H214V390H212M216 388H218V390H216M220 388H222V390H220M224 388H226V390H224M228 388H230V390H228M232 388H234V390H232M236 388H238V390H236M240 388H242V390H240M244 388H246V390H244M248 388H250V390H248M252 388H254V390H252M256 388H258V390H256M260 388H262V390H260M264 388H266V390H264M268 388H270V390H268M272 388H274V390H272M276 388H278V390H276M280 388H282V390H280M284 388H286V390H284M288 388H290V390H288M292 388H294V390H292M296 388H298V390H296M300 388H302V390H300M304 388H306V390H304M308 388H310V390H308M312 388H314V390H312" fill="#d4d4d4"/>
<path transform="matrix(.7494424,0,0,.749787,43.480657,13.505967)" d="M65 119V121H63V119M65 123V125H63V123M65 127V129H63V127M65 131V133H63V131M65 135V137H63V135M65 139V141H63V139M65 143V145H63V143M65 147V149H63V147M65 151V153H63V151M65 155V157H63V155M65 159V161H63V159M65 163V165H63V163M65 167V169H63V167M65 171V173H63V171M65 175V177H63V175M65 179V181H63V179M65 183V185H63V183M65 187V189H63V187M65 191V193H63V191M65 195V197H63V195M65 199V201H63V199M65 203V205H63V203M65 207V209H63V207M65 211V213H63V211M65 215V217H63V215M65 219V221H63V219M65 223V225H63V223M65 227V229H63V227M65 231V233H63V231M65 235V237H63V235M65 239V241H63V239M65 243V245H63V243M65 247V249H63V247M65 251V253H63V251M65 255V257H63V255M65 259V261H63V259M65 263V265H63V263M65 267V269H63V267M65 271V273H63V271M65 275V277H63V275M65 279V281H63V279M65 283V285H63V283M65 287V289H63V287M65 291V293H63V291M65 295V297H63V295M65 299V301H63V299M65 303V305H63V303M65 307V309H63V307M65 311V313H63V311M65 315V317H63V315M65 319V321H63V319M65 323V325H63V323M65 327V329H63V327M65 331V333H63V331M65 335V337H63V335M65 339V341H63V339M65 343V345H63V343M65 347V349H63V347M65 351V353H63V351M65 355V357H63V355M65 359V361H63V359M65 363V365H63V363M65 367V369H63V367M65 371V373H63V371M65 375V377H63V375M65 379V381H63V379M65 383V385H63V383M65 387V389H63V387" fill="#d4d4d4"/>
<path transform="matrix(.7494424,0,0,.749787,43.480657,13.505967)" d="M64 258H67V260H64M70 258H73V260H70M76 258H79V260H76M82 258H85V260H82M88 258H91V260H88M94 258H97V260H94M100 258H103V260H100M106 258H109V260H106M112 258H115V260H112M118 258H121V260H118M124 258H127V260H124M130 258H133V260H130M136 258H139V260H136M142 258H145V260H142M148 258H151V260H148M154 258H157V260H154M160 258H163V260H160M166 258H169V260H166M172 258H175V260H172M178 258H181V260H178M184 258H187V260H184M190 258H193V260H190M196 258H199V260H196M202 258H205V260H202M208 258H211V260H208M214 258H217V260H214M220 258H223V260H220M226 258H229V260H226M232 258H235V260H232M238 258H241V260H238M244 258H247V260H244M250 258H253V260H250M256 258H259V260H256M262 258H265V260H262M268 258H271V260H268M274 258H277V260H274M280 258H283V260H280M286 258H289V260H286M292 258H295V260H292M298 258H301V260H298M304 258H307V260H304M310 258H313V260H310" fill="#d4d4d4"/>
<path transform="matrix(.7494424,0,0,.749787,43.480657,13.505967)" d="M64 119H114V132L105.6 139H64V119Z" fill="#eeeeee"/>
<path transform="matrix(.7494424,0,0,.749787,43.480657,13.505967)" stroke-width="1" stroke-linecap="butt" stroke-miterlimit="4" stroke-linejoin="miter" fill="none" stroke="#d4d4d4" d="M64 119H114V132L105.6 139H64V119Z"/>
<use data-text="p" xlink:href="#font_3_83" transform="matrix(11.986153,0,0,-11.991664,101.519809,115.64361)" fill="#333333"/>
<use data-text="a" xlink:href="#font_3_68" transform="matrix(11.986153,0,0,-11.991664,108.183078,115.64361)" fill="#333333"/>
<use data-text="r" xlink:href="#font_3_85" transform="matrix(11.986153,0,0,-11.991664,114.84633,115.64361)" fill="#333333"/>
<use data-text="[" xlink:href="#font_3_62" transform="matrix(11.986153,0,0,-11.991664,164.60483,116.218868)" fill="#333333"/>
<use data-text="D" xlink:href="#font_3_39" transform="matrix(11.986153,0,0,-11.991664,167.93354,116.218868)" fill="#333333"/>
<use data-text="a" xlink:href="#font_3_68" transform="matrix(11.986153,0,0,-11.991664,176.58582,116.218868)" fill="#333333"/>
<use data-text="t" xlink:href="#font_3_87" transform="matrix(11.986153,0,0,-11.991664,183.24909,116.218868)" fill="#333333"/>
<use data-text="a" xlink:href="#font_3_68" transform="matrix(11.986153,0,0,-11.991664,186.57779,116.218868)" fill="#333333"/>
<use data-text=" " xlink:href="#font_3_3" transform="matrix(11.986153,0,0,-11.991664,193.24106,116.218868)" fill="#333333"/>
<use data-text="T" xlink:href="#font_3_55" transform="matrix(11.986153,0,0,-11.991664,196.35321,116.218868)" fill="#333333"/>
<use data-text="r" xlink:href="#font_3_85" transform="matrix(11.986153,0,0,-11.991664,203.22689,116.218868)" fill="#333333"/>
<use data-text="a" xlink:href="#font_3_68" transform="matrix(11.986153,0,0,-11.991664,207.21665,116.218868)" fill="#333333"/>
<use data-text="n" xlink:href="#font_3_81" transform="matrix(11.986153,0,0,-11.991664,213.8799,116.218868)" fill="#333333"/>
<use data-text="s" xlink:href="#font_3_86" transform="matrix(11.986153,0,0,-11.991664,220.54317,116.218868)" fill="#333333"/>
<use data-text="f" xlink:href="#font_3_73" transform="matrix(11.986153,0,0,-11.991664,226.53366,116.218868)" fill="#333333"/>
<use data-text="e" xlink:href="#font_3_72" transform="matrix(11.986153,0,0,-11.991664,229.86237,116.218868)" fill="#333333"/>
<use data-text="r" xlink:href="#font_3_85" transform="matrix(11.986153,0,0,-11.991664,236.52564,116.218868)" fill="#333333"/>
<use data-text="]" xlink:href="#font_3_64" transform="matrix(11.986153,0,0,-11.991664,240.5154,116.218868)" fill="#333333"/>
<use data-text="[" xlink:href="#font_3_62" transform="matrix(11.986153,0,0,-11.991664,145.87647,221.18584)" fill="#333333"/>
<use data-text="D" xlink:href="#font_3_39" transform="matrix(11.986153,0,0,-11.991664,149.20517,221.18584)" fill="#333333"/>
<use data-text="a" xlink:href="#font_3_68" transform="matrix(11.986153,0,0,-11.991664,157.85747,221.18584)" fill="#333333"/>
<use data-text="t" xlink:href="#font_3_87" transform="matrix(11.986153,0,0,-11.991664,164.52072,221.18584)" fill="#333333"/>
<use data-text="a" xlink:href="#font_3_68" transform="matrix(11.986153,0,0,-11.991664,167.84943,221.18584)" fill="#333333"/>
<use data-text=" " xlink:href="#font_3_3" transform="matrix(11.986153,0,0,-11.991664,174.5127,221.18584)" fill="#333333"/>
<use data-text="T" xlink:href="#font_3_55" transform="matrix(11.986153,0,0,-11.991664,177.62485,221.18584)" fill="#333333"/>
<use data-text="r" xlink:href="#font_3_85" transform="matrix(11.986153,0,0,-11.991664,184.49852,221.18584)" fill="#333333"/>
<use data-text="a" xlink:href="#font_3_68" transform="matrix(11.986153,0,0,-11.991664,188.48828,221.18584)" fill="#333333"/>
<use data-text="n" xlink:href="#font_3_81" transform="matrix(11.986153,0,0,-11.991664,195.15154,221.18584)" fill="#333333"/>
<use data-text="s" xlink:href="#font_3_86" transform="matrix(11.986153,0,0,-11.991664,201.8148,221.18584)" fill="#333333"/>
<use data-text="f" xlink:href="#font_3_73" transform="matrix(11.986153,0,0,-11.991664,207.8053,221.18584)" fill="#333333"/>
<use data-text="e" xlink:href="#font_3_72" transform="matrix(11.986153,0,0,-11.991664,211.134,221.18584)" fill="#333333"/>
<use data-text="r" xlink:href="#font_3_85" transform="matrix(11.986153,0,0,-11.991664,217.79727,221.18584)" fill="#333333"/>
<use data-text="]" xlink:href="#font_3_64" transform="matrix(11.986153,0,0,-11.991664,221.78704,221.18584)" fill="#333333"/>
<path transform="matrix(.7494424,0,0,.749787,43.480657,13.505967)" d="M50 460H329V497H50Z" fill="#666666"/>
<path transform="matrix(.7494424,0,0,.749787,43.480657,13.505967)" stroke-width="1" stroke-linecap="butt" stroke-miterlimit="4" stroke-linejoin="miter" fill="none" stroke="#999999" d="M50 460H329V497H50Z"/>
<use data-text="I" xlink:href="#font_3_44" transform="matrix(11.986153,0,0,-11.991664,117.59616,377.1512)" fill="#ffffff"/>
<use data-text="n" xlink:href="#font_3_81" transform="matrix(11.986153,0,0,-11.991664,120.924869,377.1512)" fill="#ffffff"/>
<use data-text="c" xlink:href="#font_3_70" transform="matrix(11.986153,0,0,-11.991664,127.588138,377.1512)" fill="#ffffff"/>
<use data-text="o" xlink:href="#font_3_82" transform="matrix(11.986153,0,0,-11.991664,133.57863,377.1512)" fill="#ffffff"/>
<use data-text="m" xlink:href="#font_3_80" transform="matrix(11.986153,0,0,-11.991664,140.24188,377.1512)" fill="#ffffff"/>
<use data-text="p" xlink:href="#font_3_83" transform="matrix(11.986153,0,0,-11.991664,150.22214,377.1512)" fill="#ffffff"/>
<use data-text="l" xlink:href="#font_3_79" transform="matrix(11.986153,0,0,-11.991664,156.8854,377.1512)" fill="#ffffff"/>
<use data-text="e" xlink:href="#font_3_72" transform="matrix(11.986153,0,0,-11.991664,159.54721,377.1512)" fill="#ffffff"/>
<use data-text="t" xlink:href="#font_3_87" transform="matrix(11.986153,0,0,-11.991664,166.21047,377.1512)" fill="#ffffff"/>
<use data-text="e" xlink:href="#font_3_72" transform="matrix(11.986153,0,0,-11.991664,169.53917,377.1512)" fill="#ffffff"/>
<use data-text=" " xlink:href="#font_3_3" transform="matrix(11.986153,0,0,-11.991664,176.20244,377.1512)" fill="#ffffff"/>
<use data-text="q" xlink:href="#font_3_84" transform="matrix(11.986153,0,0,-11.991664,179.53115,377.1512)" fill="#ffffff"/>
<use data-text="u" xlink:href="#font_3_88" transform="matrix(11.986153,0,0,-11.991664,186.1944,377.1512)" fill="#ffffff"/>
<use data-text="e" xlink:href="#font_3_72" transform="matrix(11.986153,0,0,-11.991664,192.85767,377.1512)" fill="#ffffff"/>
<use data-text="u" xlink:href="#font_3_88" transform="matrix(11.986153,0,0,-11.991664,199.52092,377.1512)" fill="#ffffff"/>
<use data-text="e" xlink:href="#font_3_72" transform="matrix(11.986153,0,0,-11.991664,206.18419,377.1512)" fill="#ffffff"/>
<use data-text="s" xlink:href="#font_3_86" transform="matrix(11.986153,0,0,-11.991664,212.84745,377.1512)" fill="#ffffff"/>
<use data-text=" " xlink:href="#font_3_3" transform="matrix(11.986153,0,0,-11.991664,218.83794,377.1512)" fill="#ffffff"/>
<use data-text="s" xlink:href="#font_3_86" transform="matrix(11.986153,0,0,-11.991664,222.16664,377.1512)" fill="#ffffff"/>
<use data-text="a" xlink:href="#font_3_68" transform="matrix(11.986153,0,0,-11.991664,228.15715,377.1512)" fill="#ffffff"/>
<use data-text="v" xlink:href="#font_3_89" transform="matrix(11.986153,0,0,-11.991664,234.8204,377.1512)" fill="#ffffff"/>
<use data-text="e" xlink:href="#font_3_72" transform="matrix(11.986153,0,0,-11.991664,240.81092,377.1512)" fill="#ffffff"/>
<use data-text="d" xlink:href="#font_3_71" transform="matrix(11.986153,0,0,-11.991664,247.47417,377.1512)" fill="#ffffff"/>
<path transform="matrix(.7494424,0,0,.749787,43.480657,13.505967)" d="M40 398H42V400H40M44 398H46V400H44M48 398H50V400H48M52 398H54V400H52M56 398H58V400H56M60 398H62V400H60M64 398H66V400H64M68 398H70V400H68M72 398H74V400H72M76 398H78V400H76M80 398H82V400H80M84 398H86V400H84M88 398H90V400H88M92 398H94V400H92M96 398H98V400H96M100 398H102V400H100M104 398H106V400H104M108 398H110V400H108M112 398H114V400H112M116 398H118V400H116M120 398H122V400H120M124 398H126V400H124M128 398H130V400H128M132 398H134V400H132M136 398H138V400H136M140 398H142V400H140M144 398H146V400H144M148 398H150V400H148M152 398H154V400H152M156 398H158V400H156M160 398H162V400H160M164 398H166V400H164M168 398H170V400H168M172 398H174V400H172M176 398H178V400H176M180 398H182V400H180M184 398H186V400H184M188 398H190V400H188M192 398H194V400H192M196 398H198V400H196M200 398H202V400H200M204 398H206V400H204M208 398H210V400H208M212 398H214V400H212M216 398H218V400H216M220 398H222V400H220M224 398H226V400H224M228 398H230V400H228M232 398H234V400H232M236 398H238V400H236M240 398H242V400H240M244 398H246V400H244M248 398H250V400H248M252 398H254V400H252M256 398H258V400H256M260 398H262V400H260M264 398H266V400H264M268 398H270V400H268M272 398H274V400H272M276 398H278V400H276M280 398H282V400H280M284 398H286V400H284M288 398H290V400H288M292 398H294V400H292M296 398H298V400H296M300 398H302V400H300M304 398H306V400H304M308 398H310V400H308M312 398H314V400H312M316 398H318V400H316M320 398H322V400H320M324 398H326V400H324M328 398H330V400H328M332 398H334V400H332M336 398H338V400H336" fill="#d4d4d4"/>
<path transform="matrix(.7494424,0,0,.749787,43.480657,13.505967)" d="M340 399V401H338V399M340 403V405H338V403M340 407V409H338V407M340 411V413H338V411M340 415V417H338V415M340 419V421H338V419M340 423V425H338V423M340 427V429H338V427M340 431V433H338V431M340 435V437H338V435M340 439V441H338V439M340 443V445H338V443M340 447V449H338V447M340 451V453H338V451M340 455V457H338V455M340 459V461H338V459M340 463V465H338V463M340 467V469H338V467M340 471V473H338V471M340 475V477H338V475M340 479V481H338V479M340 483V485H338V483M340 487V489H338V487M340 491V493H338V491M340 495V497H338V495M340 499V501H338V499M340 503V505H338V503" fill="#d4d4d4"/>
<path transform="matrix(.7494424,0,0,.749787,43.480657,13.505967)" d="M40 506H42V508H40M44 506H46V508H44M48 506H50V508H48M52 506H54V508H52M56 506H58V508H56M60 506H62V508H60M64 506H66V508H64M68 506H70V508H68M72 506H74V508H72M76 506H78V508H76M80 506H82V508H80M84 506H86V508H84M88 506H90V508H88M92 506H94V508H92M96 506H98V508H96M100 506H102V508H100M104 506H106V508H104M108 506H110V508H108M112 506H114V508H112M116 506H118V508H116M120 506H122V508H120M124 506H126V508H124M128 506H130V508H128M132 506H134V508H132M136 506H138V508H136M140 506H142V508H140M144 506H146V508H144M148 506H150V508H148M152 506H154V508H152M156 506H158V508H156M160 506H162V508H160M164 506H166V508H164M168 506H170V508H168M172 506H174V508H172M176 506H178V508H176M180 506H182V508H180M184 506H186V508H184M188 506H190V508H188M192 506H194V508H192M196 506H198V508H196M200 506H202V508H200M204 506H206V508H204M208 506H210V508H208M212 506H214V508H212M216 506H218V508H216M220 506H222V508H220M224 506H226V508H224M228 506H230V508H228M232 506H234V508H232M236 506H238V508H236M240 506H242V508H240M244 506H246V508H244M248 506H250V508H248M252 506H254V508H252M256 506H258V508H256M260 506H262V508H260M264 506H266V508H264M268 506H270V508H268M272 506H274V508H272M276 506H278V508H276M280 506H282V508H280M284 506H286V508H284M288 506H290V508H288M292 506H294V508H292M296 506H298V508H296M300 506H302V508H300M304 506H306V508H304M308 506H310V508H308M312 506H314V508H312M316 506H318V508H316M320 506H322V508H320M324 506H326V508H324M328 506H330V508H328M332 506H334V508H332M336 506H338V508H336" fill="#d4d4d4"/>
<path transform="matrix(.7494424,0,0,.749787,43.480657,13.505967)" d="M41 399V401H39V399M41 403V405H39V403M41 407V409H39V407M41 411V413H39V411M41 415V417H39V415M41 419V421H39V419M41 423V425H39V423M41 427V429H39V427M41 431V433H39V431M41 435V437H39V435M41 439V441H39V439M41 443V445H39V443M41 447V449H39V447M41 451V453H39V451M41 455V457H39V455M41 459V461H39V459M41 463V465H39V463M41 467V469H39V467M41 471V473H39V471M41 475V477H39V475M41 479V481H39V479M41 483V485H39V483M41 487V489H39V487M41 491V493H39V491M41 495V497H39V495M41 499V501H39V499M41 503V505H39V503" fill="#d4d4d4"/>
<path transform="matrix(.7494424,0,0,.749787,43.480657,13.505967)" d="M40 399H90V412L81.6 419H40V399Z" fill="#eeeeee"/>
<path transform="matrix(.7494424,0,0,.749787,43.480657,13.505967)" stroke-width="1" stroke-linecap="butt" stroke-miterlimit="4" stroke-linejoin="miter" fill="none" stroke="#d4d4d4" d="M40 399H90V412L81.6 419H40V399Z"/>
<use data-text="b" xlink:href="#font_3_69" transform="matrix(11.986153,0,0,-11.991664,77.205799,325.57759)" fill="#333333"/>
<use data-text="r" xlink:href="#font_3_85" transform="matrix(11.986153,0,0,-11.991664,83.86905,325.57759)" fill="#333333"/>
<use data-text="e" xlink:href="#font_3_72" transform="matrix(11.986153,0,0,-11.991664,87.85882,325.57759)" fill="#333333"/>
<use data-text="a" xlink:href="#font_3_68" transform="matrix(11.986153,0,0,-11.991664,94.52208,325.57759)" fill="#333333"/>
<use data-text="k" xlink:href="#font_3_78" transform="matrix(11.986153,0,0,-11.991664,101.18534,325.57759)" fill="#333333"/>
<use data-text="[" xlink:href="#font_3_62" transform="matrix(11.986153,0,0,-11.991664,120.30684,326.16459)" fill="#333333"/>
<use data-text="w" xlink:href="#font_3_90" transform="matrix(11.986153,0,0,-11.991664,123.63556,326.16459)" fill="#333333"/>
<use data-text="h" xlink:href="#font_3_75" transform="matrix(11.986153,0,0,-11.991664,132.28784,326.16459)" fill="#333333"/>
<use data-text="e" xlink:href="#font_3_72" transform="matrix(11.986153,0,0,-11.991664,138.95111,326.16459)" fill="#333333"/>
<use data-text="n" xlink:href="#font_3_81" transform="matrix(11.986153,0,0,-11.991664,145.61437,326.16459)" fill="#333333"/>
<use data-text=" " xlink:href="#font_3_3" transform="matrix(11.986153,0,0,-11.991664,152.27764,326.16459)" fill="#333333"/>
<use data-text="c" xlink:href="#font_3_70" transform="matrix(11.986153,0,0,-11.991664,155.60634,326.16459)" fill="#333333"/>
<use data-text="o" xlink:href="#font_3_82" transform="matrix(11.986153,0,0,-11.991664,161.59683,326.16459)" fill="#333333"/>
<use data-text="n" xlink:href="#font_3_81" transform="matrix(11.986153,0,0,-11.991664,168.2601,326.16459)" fill="#333333"/>
<use data-text="n" xlink:href="#font_3_81" transform="matrix(11.986153,0,0,-11.991664,174.92336,326.16459)" fill="#333333"/>
<use data-text="e" xlink:href="#font_3_72" transform="matrix(11.986153,0,0,-11.991664,181.58661,326.16459)" fill="#333333"/>
<use data-text="c" xlink:href="#font_3_70" transform="matrix(11.986153,0,0,-11.991664,188.24988,326.16459)" fill="#333333"/>
<use data-text="t" xlink:href="#font_3_87" transform="matrix(11.986153,0,0,-11.991664,194.24037,326.16459)" fill="#333333"/>
<use data-text="i" xlink:href="#font_3_76" transform="matrix(11.986153,0,0,-11.991664,197.56908,326.16459)" fill="#333333"/>
<use data-text="o" xlink:href="#font_3_82" transform="matrix(11.986153,0,0,-11.991664,200.23088,326.16459)" fill="#333333"/>
<use data-text="n" xlink:href="#font_3_81" transform="matrix(11.986153,0,0,-11.991664,206.89414,326.16459)" fill="#333333"/>
<use data-text=" " xlink:href="#font_3_3" transform="matrix(11.986153,0,0,-11.991664,213.5574,326.16459)" fill="#333333"/>
<use data-text="i" xlink:href="#font_3_76" transform="matrix(11.986153,0,0,-11.991664,216.88611,326.16459)" fill="#333333"/>
<use data-text="n" xlink:href="#font_3_81" transform="matrix(11.986153,0,0,-11.991664,219.5479,326.16459)" fill="#333333"/>
<use data-text="t" xlink:href="#font_3_87" transform="matrix(11.986153,0,0,-11.991664,226.21117,326.16459)" fill="#333333"/>
<use data-text="e" xlink:href="#font_3_72" transform="matrix(11.986153,0,0,-11.991664,229.53987,326.16459)" fill="#333333"/>
<use data-text="r" xlink:href="#font_3_85" transform="matrix(11.986153,0,0,-11.991664,236.20313,326.16459)" fill="#333333"/>
<use data-text="r" xlink:href="#font_3_85" transform="matrix(11.986153,0,0,-11.991664,240.19287,326.16459)" fill="#333333"/>
<use data-text="u" xlink:href="#font_3_88" transform="matrix(11.986153,0,0,-11.991664,244.18264,326.16459)" fill="#333333"/>
<use data-text="p" xlink:href="#font_3_83" transform="matrix(11.986153,0,0,-11.991664,250.84589,326.16459)" fill="#333333"/>
<use data-text="t" xlink:href="#font_3_87" transform="matrix(11.986153,0,0,-11.991664,257.50917,326.16459)" fill="#333333"/>
<use data-text="e" xlink:href="#font_3_72" transform="matrix(11.986153,0,0,-11.991664,260.8379,326.16459)" fill="#333333"/>
<use data-text="d" xlink:href="#font_3_71" transform="matrix(11.986153,0,0,-11.991664,267.50114,326.16459)" fill="#333333"/>
<use data-text=" " xlink:href="#font_3_3" transform="matrix(11.986153,0,0,-11.991664,274.1644,326.16459)" fill="#333333"/>
<use data-text="o" xlink:href="#font_3_82" transform="matrix(11.986153,0,0,-11.991664,277.49314,326.16459)" fill="#333333"/>
<use data-text="r" xlink:href="#font_3_85" transform="matrix(11.986153,0,0,-11.991664,284.15638,326.16459)" fill="#333333"/>
<use data-text="d" xlink:href="#font_3_71" transform="matrix(11.986153,0,0,-11.991664,158.93703,338.90245)" fill="#333333"/>
<use data-text="e" xlink:href="#font_3_72" transform="matrix(11.986153,0,0,-11.991664,165.6003,338.90245)" fill="#333333"/>
<use data-text="g" xlink:href="#font_3_74" transform="matrix(11.986153,0,0,-11.991664,172.26355,338.90245)" fill="#333333"/>
<use data-text="r" xlink:href="#font_3_85" transform="matrix(11.986153,0,0,-11.991664,178.9268,338.90245)" fill="#333333"/>
<use data-text="a" xlink:href="#font_3_68" transform="matrix(11.986153,0,0,-11.991664,182.91657,338.90245)" fill="#333333"/>
<use data-text="d" xlink:href="#font_3_71" transform="matrix(11.986153,0,0,-11.991664,189.57984,338.90245)" fill="#333333"/>
<use data-text="e" xlink:href="#font_3_72" transform="matrix(11.986153,0,0,-11.991664,196.24309,338.90245)" fill="#333333"/>
<use data-text="s" xlink:href="#font_3_86" transform="matrix(11.986153,0,0,-11.991664,202.90636,338.90245)" fill="#333333"/>
<use data-text=" " xlink:href="#font_3_3" transform="matrix(11.986153,0,0,-11.991664,208.89685,338.90245)" fill="#333333"/>
<use data-text="t" xlink:href="#font_3_87" transform="matrix(11.986153,0,0,-11.991664,212.22556,338.90245)" fill="#333333"/>
<use data-text="o" xlink:href="#font_3_82" transform="matrix(11.986153,0,0,-11.991664,215.55428,338.90245)" fill="#333333"/>
<use data-text="o" xlink:href="#font_3_82" transform="matrix(11.986153,0,0,-11.991664,222.21753,338.90245)" fill="#333333"/>
<use data-text=" " xlink:href="#font_3_3" transform="matrix(11.986153,0,0,-11.991664,228.88079,338.90245)" fill="#333333"/>
<use data-text="f" xlink:href="#font_3_73" transform="matrix(11.986153,0,0,-11.991664,232.2095,338.90245)" fill="#333333"/>
<use data-text="a" xlink:href="#font_3_68" transform="matrix(11.986153,0,0,-11.991664,235.53821,338.90245)" fill="#333333"/>
<use data-text="r" xlink:href="#font_3_85" transform="matrix(11.986153,0,0,-11.991664,242.20146,338.90245)" fill="#333333"/>
<use data-text="]" xlink:href="#font_3_64" transform="matrix(11.986153,0,0,-11.991664,246.19121,338.90245)" fill="#333333"/>
<use data-text="C" xlink:href="#font_3_38" transform="matrix(11.986153,0,0,-11.991664,122.92366,88.65344)" fill="#333333"/>
<use data-text="o" xlink:href="#font_3_82" transform="matrix(11.986153,0,0,-11.991664,131.57595,88.65344)" fill="#333333"/>
<use data-text="n" xlink:href="#font_3_81" transform="matrix(11.986153,0,0,-11.991664,138.23921,88.65344)" fill="#333333"/>
<use data-text="n" xlink:href="#font_3_81" transform="matrix(11.986153,0,0,-11.991664,144.90247,88.65344)" fill="#333333"/>
<use data-text="e" xlink:href="#font_3_72" transform="matrix(11.986153,0,0,-11.991664,151.56574,88.65344)" fill="#333333"/>
<use data-text="c" xlink:href="#font_3_70" transform="matrix(11.986153,0,0,-11.991664,158.22899,88.65344)" fill="#333333"/>
<use data-text="t" xlink:href="#font_3_87" transform="matrix(11.986153,0,0,-11.991664,164.21949,88.65344)" fill="#333333"/>
<use data-text="i" xlink:href="#font_3_76" transform="matrix(11.986153,0,0,-11.991664,167.54819,88.65344)" fill="#333333"/>
<use data-text="o" xlink:href="#font_3_82" transform="matrix(11.986153,0,0,-11.991664,170.20999,88.65344)" fill="#333333"/>
<use data-text="n" xlink:href="#font_3_81" transform="matrix(11.986153,0,0,-11.991664,176.87325,88.65344)" fill="#333333"/>
<use data-text=" " xlink:href="#font_3_3" transform="matrix(11.986153,0,0,-11.991664,183.53652,88.65344)" fill="#333333"/>
<use data-text="E" xlink:href="#font_3_40" transform="matrix(11.986153,0,0,-11.991664,186.86522,88.65344)" fill="#333333"/>
<use data-text="s" xlink:href="#font_3_86" transform="matrix(11.986153,0,0,-11.991664,194.85645,88.65344)" fill="#333333"/>
<use data-text="t" xlink:href="#font_3_87" transform="matrix(11.986153,0,0,-11.991664,200.84694,88.65344)" fill="#333333"/>
<use data-text="a" xlink:href="#font_3_68" transform="matrix(11.986153,0,0,-11.991664,204.17565,88.65344)" fill="#333333"/>
<use data-text="b" xlink:href="#font_3_69" transform="matrix(11.986153,0,0,-11.991664,210.83892,88.65344)" fill="#333333"/>
<use data-text="l" xlink:href="#font_3_79" transform="matrix(11.986153,0,0,-11.991664,217.50217,88.65344)" fill="#333333"/>
<use data-text="i" xlink:href="#font_3_76" transform="matrix(11.986153,0,0,-11.991664,220.16397,88.65344)" fill="#333333"/>
<use data-text="s" xlink:href="#font_3_86" transform="matrix(11.986153,0,0,-11.991664,222.82576,88.65344)" fill="#333333"/>
<use data-text="h" xlink:href="#font_3_75" transform="matrix(11.986153,0,0,-11.991664,228.81627,88.65344)" fill="#333333"/>
<use data-text="e" xlink:href="#font_3_72" transform="matrix(11.986153,0,0,-11.991664,235.47953,88.65344)" fill="#333333"/>
<use data-text="d" xlink:href="#font_3_71" transform="matrix(11.986153,0,0,-11.991664,242.14279,88.65344)" fill="#333333"/>
<path transform="matrix(.7494424,0,0,.749787,43.480657,13.505967)" d="M76 108.25H79V109.75H76M82 108.25H85V109.75H82M88 108.25H91V109.75H88M94 108.25H97V109.75H94M100 108.25H103V109.75H100M106 108.25H109V109.75H106M112 108.25H115V109.75H112M118 108.25H121V109.75H118M124 108.25H127V109.75H124M130 108.25H133V109.75H130M136 108.25H139V109.75H136M142 108.25H145V109.75H142M148 108.25H151V109.75H148M154 108.25H157V109.75H154M160 108.25H163V109.75H160M166 108.25H169V109.75H166M172 108.25H175V109.75H172M178 108.25H181V109.75H178M184 108.25H187V109.75H184M190 108.25H193V109.75H190M196 108.25H199V109.75H196M202 108.25H204.99999V109.75H202M207.99999 108.25H210.99999V109.75H207.99999M213.99999 108.25H216.99999V109.75H213.99999M219.99999 108.25H222.99999V109.75H219.99999M225.99999 108.25H228.99999V109.75H225.99999M231.99999 108.25H234.99999V109.75H231.99999M237.99999 108.25H240.99999V109.75H237.99999M243.99999 108.25H246.99999V109.75H243.99999M249.99999 108.25H252.99999V109.75H249.99999M255.99999 108.25H259V109.75H255.99999M262 108.25H265V109.75H262M268 108.25H271V109.75H268M274 108.25H277V109.75H274M280 108.25H283V109.75H280M286 108.25H289V109.75H286M292 108.25H295V109.75H292M298 108.25H301V109.75H298" fill="#333333"/>
<use data-text="F" xlink:href="#font_3_41" transform="matrix(11.986153,0,0,-11.991664,145.98207,155.38338)" fill="#333333"/>
<use data-text="l" xlink:href="#font_3_79" transform="matrix(11.986153,0,0,-11.991664,153.30054,155.38338)" fill="#333333"/>
<use data-text="u" xlink:href="#font_3_88" transform="matrix(11.986153,0,0,-11.991664,155.96234,155.38338)" fill="#333333"/>
<use data-text="s" xlink:href="#font_3_86" transform="matrix(11.986153,0,0,-11.991664,162.6256,155.38338)" fill="#333333"/>
<use data-text="h" xlink:href="#font_3_75" transform="matrix(11.986153,0,0,-11.991664,168.6161,155.38338)" fill="#333333"/>
<use data-text="e" xlink:href="#font_3_72" transform="matrix(11.986153,0,0,-11.991664,175.27936,155.38338)" fill="#333333"/>
<use data-text="s" xlink:href="#font_3_86" transform="matrix(11.986153,0,0,-11.991664,181.94261,155.38338)" fill="#333333"/>
<use data-text=" " xlink:href="#font_3_3" transform="matrix(11.986153,0,0,-11.991664,187.9331,155.38338)" fill="#333333"/>
<use data-text="Q" xlink:href="#font_3_52" transform="matrix(11.986153,0,0,-11.991664,191.26183,155.38338)" fill="#333333"/>
<use data-text="u" xlink:href="#font_3_88" transform="matrix(11.986153,0,0,-11.991664,200.58103,155.38338)" fill="#333333"/>
<use data-text="e" xlink:href="#font_3_72" transform="matrix(11.986153,0,0,-11.991664,207.24428,155.38338)" fill="#333333"/>
<use data-text="u" xlink:href="#font_3_88" transform="matrix(11.986153,0,0,-11.991664,213.90755,155.38338)" fill="#333333"/>
<use data-text="e" xlink:href="#font_3_72" transform="matrix(11.986153,0,0,-11.991664,220.5708,155.38338)" fill="#333333"/>
<path transform="matrix(.7494424,0,0,.749787,43.480657,13.505967)" stroke-width="1.5" stroke-linecap="butt" stroke-miterlimit="4" stroke-linejoin="miter" fill="none" stroke="#333333" d="M303 198H79"/>
</g>
<g clip-path="url(#clip_4)">
<g clip-path="url(#clip_5)">
<g clip-path="url(#clip_6)">
<path transform="matrix(-.7494424,.00000000000000009182242,-.00000000000000009178023,-.749787,108.6072,165.71273)" d="M0 0 10 5 0 10V0Z" fill="#333333"/>
<path transform="matrix(-.7494424,.00000000000000009182242,-.00000000000000009178023,-.749787,108.6072,165.71273)" stroke-width="1" stroke-linecap="butt" stroke-miterlimit="4" stroke-linejoin="miter" fill="none" stroke="#333333" d="M0 0 10 5 0 10V0Z"/>
</g>
</g>
</g>
<g clip-path="url(#clip_7)">
<use data-text="M" xlink:href="#font_3_48" transform="matrix(11.986153,0,0,-11.991664,119.76706,188.37265)" fill="#333333"/>
<use data-text="s" xlink:href="#font_3_86" transform="matrix(11.986153,0,0,-11.991664,129.74732,188.37265)" fill="#333333"/>
<use data-text="g" xlink:href="#font_3_74" transform="matrix(11.986153,0,0,-11.991664,135.73781,188.37265)" fill="#333333"/>
<use data-text=" " xlink:href="#font_3_3" transform="matrix(11.986153,0,0,-11.991664,142.40106,188.37265)" fill="#333333"/>
<use data-text="A" xlink:href="#font_3_36" transform="matrix(11.986153,0,0,-11.991664,145.06844,188.37265)" fill="#333333"/>
<use data-text="c" xlink:href="#font_3_70" transform="matrix(11.986153,0,0,-11.991664,153.05966,188.37265)" fill="#333333"/>
<use data-text="k" xlink:href="#font_3_78" transform="matrix(11.986153,0,0,-11.991664,159.05016,188.37265)" fill="#333333"/>
<use data-text="n" xlink:href="#font_3_81" transform="matrix(11.986153,0,0,-11.991664,165.04065,188.37265)" fill="#333333"/>
<use data-text="o" xlink:href="#font_3_82" transform="matrix(11.986153,0,0,-11.991664,171.7039,188.37265)" fill="#333333"/>
<use data-text="w" xlink:href="#font_3_90" transform="matrix(11.986153,0,0,-11.991664,178.36717,188.37265)" fill="#333333"/>
<use data-text="l" xlink:href="#font_3_79" transform="matrix(11.986153,0,0,-11.991664,187.01947,188.37265)" fill="#333333"/>
<use data-text="e" xlink:href="#font_3_72" transform="matrix(11.986153,0,0,-11.991664,189.68126,188.37265)" fill="#333333"/>
<use data-text="d" xlink:href="#font_3_71" transform="matrix(11.986153,0,0,-11.991664,196.34453,188.37265)" fill="#333333"/>
<use data-text="g" xlink:href="#font_3_74" transform="matrix(11.986153,0,0,-11.991664,203.00778,188.37265)" fill="#333333"/>
<use data-text="e" xlink:href="#font_3_72" transform="matrix(11.986153,0,0,-11.991664,209.67105,188.37265)" fill="#333333"/>
<use data-text="m" xlink:href="#font_3_80" transform="matrix(11.986153,0,0,-11.991664,216.3343,188.37265)" fill="#333333"/>
<use data-text="e" xlink:href="#font_3_72" transform="matrix(11.986153,0,0,-11.991664,226.31456,188.37265)" fill="#333333"/>
<use data-text="n" xlink:href="#font_3_81" transform="matrix(11.986153,0,0,-11.991664,232.97783,188.37265)" fill="#333333"/>
<use data-text="t" xlink:href="#font_3_87" transform="matrix(11.986153,0,0,-11.991664,239.64109,188.37265)" fill="#333333"/>
<use data-text="s" xlink:href="#font_3_86" transform="matrix(11.986153,0,0,-11.991664,242.9698,188.37265)" fill="#333333"/>
<path transform="matrix(.7494424,0,0,.749787,43.480657,13.505967)" stroke-width="1.5" stroke-linecap="butt" stroke-miterlimit="4" stroke-linejoin="miter" fill="none" stroke="#333333" d="M76 244H300"/>
</g>
<g clip-path="url(#clip_8)">
<path transform="matrix(.7494424,0,0,.749787,262.39277,192.70503)" d="M0 0 10 5 0 10V0Z" fill="#333333"/>
<path transform="matrix(.7494424,0,0,.749787,262.39277,192.70503)" stroke-width="1" stroke-linecap="butt" stroke-miterlimit="4" stroke-linejoin="miter" fill="none" stroke="#333333" d="M0 0 10 5 0 10V0Z"/>
</g>
<g clip-path="url(#clip_9)">
<use data-text="F" xlink:href="#font_3_41" transform="matrix(11.986153,0,0,-11.991664,143.74077,256.60533)" fill="#333333"/>
<use data-text="l" xlink:href="#font_3_79" transform="matrix(11.986153,0,0,-11.991664,151.05924,256.60533)" fill="#333333"/>
<use data-text="u" xlink:href="#font_3_88" transform="matrix(11.986153,0,0,-11.991664,153.72104,256.60533)" fill="#333333"/>
<use data-text="s" xlink:href="#font_3_86" transform="matrix(11.986153,0,0,-11.991664,160.3843,256.60533)" fill="#333333"/>
<use data-text="h" xlink:href="#font_3_75" transform="matrix(11.986153,0,0,-11.991664,166.3748,256.60533)" fill="#333333"/>
<use data-text="e" xlink:href="#font_3_72" transform="matrix(11.986153,0,0,-11.991664,173.03806,256.60533)" fill="#333333"/>
<use data-text="s" xlink:href="#font_3_86" transform="matrix(11.986153,0,0,-11.991664,179.70131,256.60533)" fill="#333333"/>
<use data-text=" " xlink:href="#font_3_3" transform="matrix(11.986153,0,0,-11.991664,185.6918,256.60533)" fill="#333333"/>
<use data-text="Q" xlink:href="#font_3_52" transform="matrix(11.986153,0,0,-11.991664,189.02053,256.60533)" fill="#333333"/>
<use data-text="u" xlink:href="#font_3_88" transform="matrix(11.986153,0,0,-11.991664,198.33972,256.60533)" fill="#333333"/>
<use data-text="e" xlink:href="#font_3_72" transform="matrix(11.986153,0,0,-11.991664,205.00298,256.60533)" fill="#333333"/>
<use data-text="u" xlink:href="#font_3_88" transform="matrix(11.986153,0,0,-11.991664,211.66625,256.60533)" fill="#333333"/>
<use data-text="e" xlink:href="#font_3_72" transform="matrix(11.986153,0,0,-11.991664,218.3295,256.60533)" fill="#333333"/>
<path transform="matrix(.7494424,0,0,.749787,43.480657,13.505967)" stroke-width="1.5" stroke-linecap="butt" stroke-miterlimit="4" stroke-linejoin="miter" fill="none" stroke="#333333" d="M76 333H300"/>
</g>
<g clip-path="url(#clip_10)">
<path transform="matrix(.7494424,0,0,.749787,262.39277,259.4361)" d="M0 0 10 5 0 10V0Z" fill="#333333"/>
<path transform="matrix(.7494424,0,0,.749787,262.39277,259.4361)" stroke-width="1" stroke-linecap="butt" stroke-miterlimit="4" stroke-linejoin="miter" fill="none" stroke="#333333" d="M0 0 10 5 0 10V0Z"/>
</g>
<g clip-path="url(#clip_11)">
<use data-text="M" xlink:href="#font_3_48" transform="matrix(11.986153,0,0,-11.991664,122.020099,289.5946)" fill="#333333"/>
<use data-text="s" xlink:href="#font_3_86" transform="matrix(11.986153,0,0,-11.991664,132.00035,289.5946)" fill="#333333"/>
<use data-text="g" xlink:href="#font_3_74" transform="matrix(11.986153,0,0,-11.991664,137.99085,289.5946)" fill="#333333"/>
<use data-text=" " xlink:href="#font_3_3" transform="matrix(11.986153,0,0,-11.991664,144.6541,289.5946)" fill="#333333"/>
<use data-text="A" xlink:href="#font_3_36" transform="matrix(11.986153,0,0,-11.991664,147.32147,289.5946)" fill="#333333"/>
<use data-text="c" xlink:href="#font_3_70" transform="matrix(11.986153,0,0,-11.991664,155.3127,289.5946)" fill="#333333"/>
<use data-text="k" xlink:href="#font_3_78" transform="matrix(11.986153,0,0,-11.991664,161.30319,289.5946)" fill="#333333"/>
<use data-text="n" xlink:href="#font_3_81" transform="matrix(11.986153,0,0,-11.991664,167.29369,289.5946)" fill="#333333"/>
<use data-text="o" xlink:href="#font_3_82" transform="matrix(11.986153,0,0,-11.991664,173.95694,289.5946)" fill="#333333"/>
<use data-text="w" xlink:href="#font_3_90" transform="matrix(11.986153,0,0,-11.991664,180.62021,289.5946)" fill="#333333"/>
<use data-text="l" xlink:href="#font_3_79" transform="matrix(11.986153,0,0,-11.991664,189.2725,289.5946)" fill="#333333"/>
<use data-text="e" xlink:href="#font_3_72" transform="matrix(11.986153,0,0,-11.991664,191.9343,289.5946)" fill="#333333"/>
<use data-text="d" xlink:href="#font_3_71" transform="matrix(11.986153,0,0,-11.991664,198.59757,289.5946)" fill="#333333"/>
<use data-text="g" xlink:href="#font_3_74" transform="matrix(11.986153,0,0,-11.991664,205.26082,289.5946)" fill="#333333"/>
<use data-text="e" xlink:href="#font_3_72" transform="matrix(11.986153,0,0,-11.991664,211.92409,289.5946)" fill="#333333"/>
<use data-text="m" xlink:href="#font_3_80" transform="matrix(11.986153,0,0,-11.991664,218.58734,289.5946)" fill="#333333"/>
<use data-text="e" xlink:href="#font_3_72" transform="matrix(11.986153,0,0,-11.991664,228.5676,289.5946)" fill="#333333"/>
<use data-text="n" xlink:href="#font_3_81" transform="matrix(11.986153,0,0,-11.991664,235.23087,289.5946)" fill="#333333"/>
<use data-text="t" xlink:href="#font_3_87" transform="matrix(11.986153,0,0,-11.991664,241.89412,289.5946)" fill="#333333"/>
<use data-text="s" xlink:href="#font_3_86" transform="matrix(11.986153,0,0,-11.991664,245.22284,289.5946)" fill="#333333"/>
<path transform="matrix(.7494424,0,0,.749787,43.480657,13.505967)" stroke-width="1.5" stroke-linecap="butt" stroke-miterlimit="4" stroke-linejoin="miter" fill="none" stroke="#333333" d="M303 379H79"/>
</g>
<g clip-path="url(#clip_12)">
<g clip-path="url(#clip_13)">
<g clip-path="url(#clip_14)">
<path transform="matrix(-.7494424,.00000000000000009182242,-.00000000000000009178023,-.749787,108.6072,301.42417)" d="M0 0 10 5 0 10V0Z" fill="#333333"/>
<path transform="matrix(-.7494424,.00000000000000009182242,-.00000000000000009178023,-.749787,108.6072,301.42417)" stroke-width="1" stroke-linecap="butt" stroke-miterlimit="4" stroke-linejoin="miter" fill="none" stroke="#333333" d="M0 0 10 5 0 10V0Z"/>
</g>
</g>
</g>
</svg>
