<svg xmlns="http://www.w3.org/2000/svg" xmlns:xlink="http://www.w3.org/1999/xlink" version="1.1" width="355.91999pt" height="383.03999pt" viewBox="0 0 355.91999 383.03999">
<defs>
<clipPath id="clip_1">
<path transform="matrix(.24,0,0,.24,0,0)" d="M0 0H1483.3333V1592.862H0Z" fill-rule="evenodd"/>
</clipPath>
<clipPath id="clip_2">
<path transform="matrix(.24,0,0,.24,0,0)" d="M25.03516 25.03516H1458.2981V1570.9563H25.03516Z" fill-rule="evenodd"/>
</clipPath>
<path id="font_3_53" d="M.5683594 0 .38964845 .28564454H.17529297V0H.08203125V.68847659H.40576173C.4832357 .68847659 .5430501 .67112228 .5852051 .6364136 .62736007 .6017049 .6484375 .55338546 .6484375 .49145509 .6484375 .44028727 .6335449 .39726258 .60375979 .36238099 .5739746 .32750956 .5328776 .30551148 .48046876 .29638673L.67578127 0H.5683594M.5546875 .49047853C.5546875 .53059896 .541097 .56117758 .513916 .58221438 .48673503 .60325118 .44759117 .61376956 .39648438 .61376956H.17529297V.359375H.40039063C.44954429 .359375 .48754884 .37086997 .5144043 .39385987 .54125979 .41685996 .5546875 .44906617 .5546875 .49047853Z"/>
<path id="font_3_72" d="M.13476563 .24609375C.13476563 .18539429 .14729817 .13855998 .17236328 .10559082 .19742839 .072631839 .23404949 .056152345 .28222657 .056152345 .3203125 .056152345 .35083009 .06384786 .3737793 .07923889 .39672853 .09462992 .41227214 .114115398 .42041017 .13769531L.4975586 .11564636C.46598307 .032038373 .39420573-.009765625 .28222657-.009765625 .20410156-.009765625 .14461263 .013509114 .103759769 .060058595 .0629069 .10660807 .04248047 .17578125 .04248047 .26757813 .04248047 .35481773 .0629069 .42171226 .103759769 .46826173 .14461263 .5148112 .20296224 .53808596 .2788086 .53808596 .43408204 .53808596 .51171877 .44465638 .51171877 .25779725V.24609375H.13476563M.42089845 .31347657C.41601563 .36896769 .40185548 .40944926 .37841798 .43492127 .35498048 .46040345 .32128907 .47314454 .27734376 .47314454 .23470052 .47314454 .20092774 .4589437 .17602539 .430542 .15112305 .40215049 .13769531 .36312867 .13574219 .31347657H.42089845Z"/>
<path id="font_3_70" d="M.13427735 .26660157C.13427735 .19628906 .14534505 .14420574 .16748047 .11035156 .18961589 .0764974 .22298177 .059570314 .26757813 .059570314 .29882813 .059570314 .32495118 .06803385 .34594728 .08496094 .36694337 .10188802 .3798828 .12792969 .38476563 .16308594L.4736328 .15722656C.46679688 .10644531 .44514976 .06591797 .4086914 .03564453 .37223307 .0053710939 .32600913-.009765625 .27001954-.009765625 .1961263-.009765625 .13972982 .013590495 .10083008 .060302736 .06193034 .10701498 .04248047 .1751302 .04248047 .26464845 .04248047 .35351563 .06201172 .42130534 .10107422 .46801759 .14013672 .5147298 .1961263 .53808596 .26904298 .53808596 .32307945 .53808596 .36791993 .5241292 .40356446 .49621583 .43920899 .4683024 .46158854 .42984519 .47070313 .38084413L.3803711 .37402345C.3758138 .40316773 .3642578 .4263204 .34570313 .44348146 .32714845 .46065269 .30078126 .46923829 .26660157 .46923829 .22005208 .46923829 .18636067 .45377604 .16552735 .42285157 .14469402 .3919271 .13427735 .33984376 .13427735 .26660157Z"/>
<path id="font_3_76" d="M.06689453 .640625V.7246094H.15478516V.640625H.06689453M.06689453 0V.5283203H.15478516V0H.06689453Z"/>
<path id="font_3_89" d="M.2993164 0H.1953125L.0034179688 .5283203H.09716797L.2133789 .18457031C.21761067 .17154949 .22884114 .13297527 .24707031 .068847659L.26416017 .12597656 .28320313 .18359375 .4033203 .5283203H.49658204L.2993164 0Z"/>
<path id="font_3_85" d="M.06933594 0V.40527345C.06933594 .4423828 .068359378 .48339845 .06640625 .5283203H.14941406C.15201824 .46842448 .15332031 .43245445 .15332031 .42041017H.15527344C.16927083 .46565757 .18538411 .49658204 .20361328 .5131836 .22184246 .52978518 .2475586 .53808596 .28076173 .53808596 .29248048 .53808596 .30436198 .5364583 .31640626 .5332031V.45263673C.3046875 .45589195 .2890625 .45751954 .26953126 .45751954 .23307292 .45751954 .20524089 .44181315 .18603516 .4104004 .16682942 .37898765 .15722656 .33398438 .15722656 .27539063V0H.06933594Z"/>
<path id="font_3_54" d="M.62109377 .1899414C.62109377 .12646485 .59627279 .077311199 .54663088 .04248047 .49698893 .0076497399 .42708335-.009765625 .33691407-.009765625 .16927083-.009765625 .07210287 .048502607 .045410158 .16503906L.13574219 .18310547C.14615886 .14176433 .16829427 .11140951 .20214844 .092041019 .23600261 .07267252 .2820638 .06298828 .34033204 .06298828 .40055339 .06298828 .44702149 .07332357 .47973634 .09399414 .5124512 .11466471 .5288086 .14501953 .5288086 .1850586 .5288086 .20751953 .52368167 .2257487 .51342776 .2397461 .5031738 .2537435 .48876954 .26529948 .47021485 .27441407 .45166017 .28352867 .42952476 .29117839 .4038086 .29736329 .37809245 .3035482 .34960938 .31022135 .31835938 .3173828 .2639974 .3294271 .22273763 .34147135 .19458008 .35351563 .16642253 .3655599 .14420574 .37898765 .12792969 .39379884 .11165365 .40861003 .09920248 .425944 .09057617 .44580079 .08194987 .46565757 .07763672 .488444 .07763672 .51416018 .07763672 .5730794 .10017904 .61848959 .14526367 .6503906 .19034831 .6822917 .2548828 .6982422 .3388672 .6982422 .4169922 .6982422 .47672526 .6862793 .5180664 .6623535 .55940756 .63842776 .5883789 .59765627 .60498049 .54003909L.5131836 .5239258C.50309249 .5603841 .48388673 .5868327 .4555664 .6032715 .4272461 .61971029 .38802085 .6279297 .33789063 .6279297 .2828776 .6279297 .24088542 .6188151 .21191406 .60058596 .1829427 .58235678 .16845703 .5551758 .16845703 .51904299 .16845703 .49788413 .17407227 .48038737 .18530274 .46655274 .1965332 .4527181 .21272786 .44099937 .23388672 .43139649 .25504557 .4217936 .29720054 .4099935 .36035157 .3959961 .3815104 .39111329 .4025879 .38614909 .42358399 .38110353 .44458009 .37605796 .464681 .3700358 .48388673 .3630371 .50309249 .35603843 .52107748 .347819 .5378418 .3383789 .55460616 .3289388 .56917318 .3173828 .58154299 .30371095 .5939128 .29003907 .603597 .27392579 .6105957 .2553711 .6175944 .2368164 .62109377 .21500652 .62109377 .1899414Z"/>
<path id="font_3_81" d="M.40283204 0V.33496095C.40283204 .36979167 .39941407 .3968099 .39257813 .41601563 .3857422 .43522135 .37483726 .449056 .35986329 .45751954 .3448893 .46598307 .32291667 .47021485 .2939453 .47021485 .2516276 .47021485 .21826172 .45572917 .19384766 .4267578 .1694336 .39778648 .15722656 .35758464 .15722656 .30615235V0H.06933594V.41552735C.06933594 .47705079 .068359378 .51464846 .06640625 .5283203H.14941406C.14973958 .5266927 .15006511 .52229818 .15039063 .5151367 .15071614 .5079753 .15112305 .49975587 .15161133 .49047853 .15209961 .48120118 .15266927 .46370445 .15332031 .43798829H.15478516C.17496746 .47444663 .19832357 .50024417 .22485352 .51538088 .25138346 .5305176 .28434245 .53808596 .32373048 .53808596 .3816732 .53808596 .42407228 .52368167 .45092774 .49487306 .4777832 .46606446 .49121095 .41845704 .49121095 .35205079V0H.40283204Z"/>
<path id="font_3_71" d="M.4008789 .08496094C.38460288 .05110677 .3630371 .026855469 .33618165 .012207031 .30932618-.0024414063 .27604167-.009765625 .23632813-.009765625 .16959636-.009765625 .120524089 .0126953129 .08911133 .057617189 .057698568 .10253906 .041992189 .17057292 .041992189 .26171876 .041992189 .44596354 .106770839 .53808596 .23632813 .53808596 .2763672 .53808596 .30973307 .5307617 .33642579 .5161133 .3631185 .50146487 .38460288 .4781901 .4008789 .44628907H.40185548L.4008789 .5053711V.7246094H.48876954V.10888672C.48876954 .0538737 .4897461 .017578125 .49169923 0H.40771485C.40673829 .0052083337 .40568034 .017252604 .40454103 .036132814 .4034017 .05501302 .40283204 .07128906 .40283204 .08496094H.4008789M.13427735 .26464845C.13427735 .1907552 .14404297 .13785808 .16357422 .10595703 .18310547 .07405599 .21484375 .05810547 .25878907 .05810547 .30859376 .05810547 .34472657 .07535807 .3671875 .10986328 .38964845 .14436849 .4008789 .19791667 .4008789 .2705078 .4008789 .34049479 .38964845 .3917643 .3671875 .4243164 .34472657 .4568685 .30891929 .47314454 .25976563 .47314454 .2154948 .47314454 .18351238 .4567871 .16381836 .42407228 .14412435 .39135743 .13427735 .33821617 .13427735 .26464845Z"/>
<path id="font_3_68" d="M.20214844-.009765625C.14908855-.009765625 .10921224 .004231771 .08251953 .032226564 .055826826 .060221357 .04248047 .09863281 .04248047 .14746094 .04248047 .20214844 .060465497 .24414063 .09643555 .2734375 .1324056 .30273438 .19042969 .31835938 .2705078 .3203125L.38916017 .32226563V.35107423C.38916017 .39404298 .38004557 .4248047 .3618164 .44335938 .34358726 .46191407 .3149414 .4711914 .2758789 .4711914 .23649089 .4711914 .20784505 .46455384 .1899414 .4512787 .17203777 .4380137 .16129558 .41681925 .15771485 .3876953L.06591797 .39596559C.08089193 .4907125 .15152996 .53808596 .27783204 .53808596 .34423829 .53808596 .39420573 .52286788 .42773438 .49243165 .46126304 .46199546 .47802735 .41796876 .47802735 .36035157V.1328125C.47802735 .106770839 .4814453 .0871582 .48828126 .07397461 .4951172 .060791017 .508138 .05419922 .52734377 .05419922 .5358073 .05419922 .54541018 .055338544 .55615237 .057617189V.0029296876C.5340169-.0022786458 .51139327-.0048828127 .48828126-.0048828127 .45572917-.0048828127 .43204753 .0036621094 .41723634 .020751954 .40242515 .037841798 .39404298 .06461588 .39208985 .10107422H.38916017C.36669923 .060709638 .34057618 .032145185 .31079103 .015380859 .28100587-.0013834635 .24479167-.009765625 .20214844-.009765625M.22216797 .056152345C.25439454 .056152345 .28304038 .06347656 .30810548 .078125 .33317057 .09277344 .35294596 .11287435 .36743165 .13842774 .38191734 .16398113 .38916017 .19026692 .38916017 .21728516V.2607422L.29296876 .25878907C.2516276 .25813804 .22029622 .25390626 .19897461 .24609375 .177653 .23828125 .16129558 .22623699 .14990235 .20996094 .13850911 .19368489 .1328125 .17236328 .1328125 .1459961 .1328125 .11735026 .14054363 .095214847 .15600586 .079589847 .1714681 .063964847 .19352214 .056152345 .22216797 .056152345Z"/>
<path id="font_3_79" d="M.06738281 0V.7246094H.15527344V0H.06738281Z"/>
<path id="font_3_87" d="M.2705078 .00390625C.24153646-.00390625 .21191406-.0078125 .18164063-.0078125 .111328128-.0078125 .076171878 .0320638 .076171878 .111816409V.46435548H.015136719V.5283203H.079589847L.10546875 .6464844H.1640625V.5283203H.26171876V.46435548H.1640625V.13085938C.1640625 .10546875 .16821289 .087646488 .17651367 .07739258 .18481446 .06713867 .19921875 .06201172 .21972656 .06201172 .23144531 .06201172 .24837239 .06429037 .2705078 .068847659V.00390625Z"/>
<path id="font_3_62" d="M.07128906-.20800781V.7246094H.27001954V.6616211H.15625V-.14501953H.27001954V-.20800781H.07128906Z"/>
<path id="font_3_51" d="M.6142578 .48120118C.6142578 .4160258 .5930176 .36420695 .5505371 .32574464 .50805667 .28729249 .45035807 .2680664 .3774414 .2680664H.17529297V0H.08203125V.68847659H.37158204C.44873048 .68847659 .50846359 .67038986 .55078127 .6342163 .59309896 .5980428 .6142578 .5470378 .6142578 .48120118M.5205078 .4802246C.5205078 .5692546 .4671224 .61376956 .36035157 .61376956H.17529297V.34179688H.3642578C.46842448 .34179688 .5205078 .38793946 .5205078 .4802246Z"/>
<path id="font_3_78" d="M.3984375 0 .21972656 .24121094 .15527344 .18798828V0H.06738281V.7246094H.15527344V.27197267L.38720704 .5283203H.49023438L.2758789 .30126954 .50146487 0H.3984375Z"/>
<path id="font_3_86" d="M.4638672 .14613343C.4638672 .09628805 .44506837 .057840986 .4074707 .030792237 .36987306 .003753662 .31722007-.009765625 .24951172-.009765625 .18375652-.009765625 .13305664 .0010579428 .09741211 .022705079 .061767579 .044352216 .03857422 .078125 .027832032 .12402344L.10546875 .13916016C.11295573 .110839847 .12841797 .09008789 .15185547 .0769043 .17529297 .0637207 .20784505 .057128908 .24951172 .057128908 .29410807 .057128908 .32674156 .063975017 .3474121 .07766724 .36808268 .09136963 .37841798 .11191305 .37841798 .13929749 .37841798 .16015117 .3712565 .1770935 .3569336 .19012451 .3426107 .20315552 .3194987 .21390789 .28759767 .22238159L.22460938 .23899842C.17415364 .25202943 .13826497 .26481629 .11694336 .277359 .09562174 .28990174 .078938808 .30513 .06689453 .32304383 .05485026 .3409678 .048828126 .36296083 .048828126 .38902284 .048828126 .43725077 .06599935 .47398887 .1003418 .49923707 .13468425 .5244853 .18473308 .5371094 .25048829 .5371094 .3087565 .5371094 .35506187 .52685549 .3894043 .50634768 .42374674 .48583985 .44547526 .45296226 .45458985 .40771485L.37548829 .39794923C.37060548 .42138673 .35750328 .43937174 .33618165 .4519043 .31486003 .46443687 .28629557 .47070313 .25048829 .47070313 .21077474 .47070313 .18147786 .4646708 .16259766 .4526062 .14371746 .4405416 .13427735 .4222819 .13427735 .39782716 .13427735 .38284303 .1381836 .37046305 .1459961 .36068727 .1538086 .35091148 .16536458 .3426005 .18066406 .3357544 .19596355 .32891847 .22819011 .31947328 .27734376 .30741883 .32389323 .2956899 .35742188 .28485618 .3779297 .2749176 .3984375 .26497904 .41463218 .25398255 .42651368 .2419281 .43839518 .22987366 .44759117 .21594239 .45410157 .20013428 .46061198 .18433635 .4638672 .16633606 .4638672 .14613343Z"/>
<path id="font_3_88" d="M.15332031 .5283203V.19335938C.15332031 .15852864 .15673828 .13151042 .16357422 .11230469 .17041016 .09309896 .18131511 .07926432 .19628906 .07080078 .21126302 .06233724 .23323567 .05810547 .26220704 .05810547 .30452476 .05810547 .33789063 .07259115 .3623047 .1015625 .38671876 .13053386 .39892579 .17073567 .39892579 .22216797V.5283203H.4868164V.11279297C.4868164 .05126953 .48779298 .013671875 .4897461 0H.40673829C.40641276 .0016276041 .40608726 .0060221354 .40576173 .013183594 .4054362 .020345053 .4050293 .028564454 .40454103 .037841798 .40405274 .04711914 .40348307 .06461588 .40283204 .09033203H.4013672C.3811849 .0538737 .35782878 .028076172 .33129884 .012939453 .3047689-.0021972657 .2718099-.009765625 .23242188-.009765625 .17447917-.009765625 .13208008 .004638672 .10522461 .033447267 .07836914 .06225586 .064941409 .10986328 .064941409 .17626953V.5283203H.15332031Z"/>
<path id="font_3_73" d="M.17626953 .46435548V0H.088378909V.46435548H.014160156V.5283203H.088378909V.5878906C.088378909 .6360677 .098958339 .67073568 .12011719 .69189456 .14127605 .7130534 .17366536 .7236328 .21728516 .7236328 .24169922 .7236328 .26236979 .7216797 .27929688 .71777346V.6508789C.26464845 .6534831 .2516276 .65478518 .24023438 .65478518 .21777344 .65478518 .20149739 .64908859 .19140625 .6376953 .18131511 .62630209 .17626953 .60563156 .17626953 .5756836V.5283203H.27929688V.46435548H.17626953Z"/>
<path id="font_3_92" d="M.09326172-.20800781C.06917318-.20800781 .048990888-.20621746 .032714845-.20263672V-.13671875C.045084638-.13867188 .05875651-.13964844 .07373047-.13964844 .12841797-.13964844 .17171224-.09930929 .20361328-.018630982L.21191406 .0024414063 .0024414063 .5283203H.096191409L.20751953 .23632813C.20914714 .23177083 .21110027 .22631836 .2133789 .2199707 .21565755 .21362305 .22298177 .19238281 .23535156 .15625 .24772136 .12011719 .25439454 .0999349 .2553711 .095703128L.28955079 .19189453 .40527345 .5283203H.49804688L.29492188 0C.27311198-.056447347 .25276695-.098454799 .23388672-.12602234 .21500652-.15360005 .1940918-.17415874 .17114258-.18769837 .14819336-.20123799 .12223307-.20800781 .09326172-.20800781Z"/>
<path id="font_3_64" d="M.0078125-.20800781V-.14501953H.12158203V.6616211H.0078125V.7246094H.20654297V-.20800781H.0078125Z"/>
<path id="font_3_55" d="M.3515625 .6123047V0H.25878907V.6123047H.022460938V.68847659H.5878906V.6123047H.3515625Z"/>
<path id="font_3_80" d="M.375 0V.33496095C.375 .38606773 .3680013 .42138673 .3540039 .44091798 .3400065 .46044923 .31477867 .47021485 .2783203 .47021485 .24088542 .47021485 .21126302 .45589195 .18945313 .4272461 .16764324 .39860026 .15673828 .3582357 .15673828 .30615235V0H.06933594V.41552735C.06933594 .47705079 .068359378 .51464846 .06640625 .5283203H.14941406C.14973958 .5266927 .15006511 .52229818 .15039063 .5151367 .15071614 .5079753 .15112305 .49975587 .15161133 .49047853 .15209961 .48120118 .15266927 .46370445 .15332031 .43798829H.15478516C.17366536 .4754232 .1953125 .50146487 .21972656 .5161133 .24414063 .5307617 .27392579 .53808596 .30908204 .53808596 .3491211 .53808596 .38077799 .53011068 .40405274 .51416018 .42732749 .49820964 .44352214 .472819 .45263673 .43798829H.45410157C.47233073 .47347007 .49438478 .49902345 .5202637 .51464846 .5461426 .53027346 .57747396 .53808596 .6142578 .53808596 .66764327 .53808596 .7064616 .5236003 .7307129 .4946289 .7549642 .46565757 .76708987 .4181315 .76708987 .35205079V0H.6801758V.33496095C.6801758 .38606773 .67317709 .42138673 .6591797 .44091798 .6451823 .46044923 .6199544 .47021485 .5834961 .47021485 .54508468 .47021485 .5152181 .4559733 .49389649 .42749024 .47257487 .39900718 .46191407 .3585612 .46191407 .30615235V0H.375Z"/>
<path id="font_3_82" d="M.51416018 .26464845C.51416018 .17220052 .4938151 .10335287 .453125 .05810547 .4124349 .012858073 .35335288-.009765625 .2758789-.009765625 .19873047-.009765625 .14046224 .013753255 .10107422 .060791017 .0616862 .10782877 .041992189 .17578125 .041992189 .26464845 .041992189 .4469401 .12093099 .53808596 .2788086 .53808596 .35953776 .53808596 .4189453 .51586917 .45703126 .47143556 .4951172 .42700196 .51416018 .3580729 .51416018 .26464845M.421875 .26464845C.421875 .3375651 .41105143 .3905436 .3894043 .42358399 .36775718 .45662437 .33138023 .47314454 .28027345 .47314454 .22884114 .47314454 .19165039 .45629884 .16870117 .42260743 .14575196 .38891603 .13427735 .33626304 .13427735 .26464845 .13427735 .19498699 .14558919 .1426595 .16821289 .107666019 .1908366 .07267252 .22639974 .05517578 .27490235 .05517578 .32763673 .05517578 .36531578 .07210287 .38793946 .10595703 .41056315 .1398112 .421875 .19270833 .421875 .26464845Z"/>
<path id="font_3_3" d="M0 0Z"/>
<clipPath id="clip_4">
<path transform="matrix(.24,0,0,.24,0,0)" d="M1030.8084 381.0655H1068.2781V418.54237H1030.8084Z" fill-rule="evenodd"/>
</clipPath>
<clipPath id="clip_5">
<path transform="matrix(.24,0,0,.24,0,0)" d="M25.03516 25.03516H1458.2981V1570.9563H25.03516Z" fill-rule="evenodd"/>
</clipPath>
<path id="font_3_36" d="M.5698242 0 .49121095 .20166016H.17773438L.09863281 0H.001953125L.28271485 .68847659H.38867188L.66503909 0H.5698242M.33447267 .61816409 .33007813 .6044922C.3219401 .57747396 .30989585 .54280599 .2939453 .5004883L.20605469 .27441407H.4633789L.375 .50146487C.3658854 .5239258 .35677085 .5493164 .34765626 .5776367L.33447267 .61816409Z"/>
<path id="font_3_38" d="M.38671876 .6220703C.31054688 .6220703 .2513021 .5975749 .20898438 .548584 .16666667 .4995931 .14550781 .43245445 .14550781 .34716798 .14550781 .26285807 .16756185 .19506836 .21166992 .14379883 .25577799 .0925293 .3154297 .06689453 .390625 .06689453 .48697917 .06689453 .55940756 .114583339 .60791018 .20996094L.68408206 .171875C.6557617 .11263021 .6159668 .06754557 .56469729 .036621095 .51342776 .0056966149 .4539388-.009765625 .38623048-.009765625 .31689454-.009765625 .25691734 .004638672 .20629883 .033447267 .15568035 .06225586 .11710612 .10343424 .09057617 .15698242 .06404623 .2105306 .05078125 .27392579 .05078125 .34716798 .05078125 .4568685 .08040365 .54280599 .13964844 .60498049 .19889324 .66715499 .28092448 .6982422 .3857422 .6982422 .45898438 .6982422 .5201823 .6839549 .56933596 .65538027 .61848959 .6268056 .6546224 .5844269 .6777344 .528244L.58935549 .49902345C.57340499 .5388997 .5477702 .56937667 .5124512 .5904541 .47713218 .61153158 .43522135 .6220703 .38671876 .6220703Z"/>
<path id="font_3_46" d="M.54003909 0 .26513673 .33226014 .17529297 .26385499V0H.08203125V.68847659H.17529297V.34350587L.50683596 .68847659H.6166992L.32373048 .3894348 .6557617 0H.54003909Z"/>
<clipPath id="clip_6">
<path transform="matrix(.24,0,0,.24,0,0)" d="M0 0H1483.3333V1592.862H0Z"/>
</clipPath>
<clipPath id="clip_7">
<path transform="matrix(.24,0,0,.24,0,0)" d="M25.03516 25.03516H1458.2981V1570.9563H25.03516Z"/>
</clipPath>
<clipPath id="clip_8">
<path transform="matrix(.24,0,0,.24,0,0)" d="M443.1575 752.7111H480.62727V790.188H443.1575Z"/>
</clipPath>
<clipPath id="clip_9">
<path transform="matrix(.24,0,0,.24,0,0)" d="M25.03516 25.03516H1458.2981V1570.9563H25.03516Z" fill-rule="evenodd"/>
</clipPath>
<clipPath id="clip_10">
<path transform="matrix(.24,0,0,.24,0,0)" d="M0 0H1483.3333V1592.862H0Z"/>
</clipPath>
<clipPath id="clip_11">
<path transform="matrix(.24,0,0,.24,0,0)" d="M25.03516 25.03516H1458.2981V1570.9563H25.03516Z"/>
</clipPath>
<clipPath id="clip_12">
<path transform="matrix(.24,0,0,.24,0,0)" d="M468.35755 1134.4465 431.39759 1128.2854 437.5576 1091.3184 474.51756 1097.4796 468.35755 1134.4465Z"/>
</clipPath>
</defs>
<g clip-path="url(#clip_1)">
<path transform="matrix(.75105479,0,0,.75105479,6.008438,6.008438)" d="M0 0H458V494H0Z" fill="#ffffff"/>
</g>
<g clip-path="url(#clip_2)">
<path transform="matrix(.74939528,0,0,.74953749,50.228094,13.503813)" d="M203 409H347C347.3978 409 347.7805 409.0761 348.148 409.2283 348.51554 409.38056 348.83998 409.59733 349.1213 409.87867 349.4026 410.15995 349.61936 410.48435 349.77159 410.8519 349.92384 411.21946 349.99998 411.60215 350 412V471C349.99998 471.3978 349.92384 471.78047 349.77159 472.148 349.61936 472.5155 349.4026 472.83995 349.1213 473.12129 348.83998 473.40257 348.51554 473.61933 348.148 473.77159 347.7805 473.9238 347.3978 473.99995 347 474H203C202.60216 473.99995 202.21945 473.9238 201.85192 473.77159 201.48438 473.61933 201.15996 473.40257 200.87866 473.12129 200.59734 472.83995 200.38057 472.5155 200.22834 472.14799 200.0761 471.78047 199.99999 471.3978 200 471V412C199.99999 411.60215 200.0761 411.21946 200.22834 410.8519 200.38057 410.48435 200.59734 410.15995 200.87866 409.87867 201.15996 409.59733 201.48438 409.38056 201.85192 409.2283 202.21945 409.0761 202.60216 409 203 409Z" fill="#eeeeee"/>
<path transform="matrix(.74939528,0,0,.74953749,50.228094,13.503813)" stroke-width="1" stroke-linecap="butt" stroke-miterlimit="4" stroke-linejoin="miter" fill="none" stroke="#d4d4d4" d="M203 409H347C347.3978 409 347.7805 409.0761 348.148 409.2283 348.51554 409.38056 348.83998 409.59733 349.1213 409.87867 349.4026 410.15995 349.61936 410.48435 349.77159 410.8519 349.92384 411.21946 349.99998 411.60215 350 412V471C349.99998 471.3978 349.92384 471.78047 349.77159 472.148 349.61936 472.5155 349.4026 472.83995 349.1213 473.12129 348.83998 473.40257 348.51554 473.61933 348.148 473.77159 347.7805 473.9238 347.3978 473.99995 347 474H203C202.60216 473.99995 202.21945 473.9238 201.85192 473.77159 201.48438 473.61933 201.15996 473.40257 200.87866 473.12129 200.59734 472.83995 200.38057 472.5155 200.22834 472.14799 200.0761 471.78047 199.99999 471.3978 200 471V412C199.99999 411.60215 200.0761 411.21946 200.22834 410.8519 200.38057 410.48435 200.59734 410.15995 200.87866 409.87867 201.15996 409.59733 201.48438 409.38056 201.85192 409.2283 202.21945 409.0761 202.60216 409 203 409Z"/>
<use data-text="R" xlink:href="#font_3_53" transform="matrix(11.9868359,0,0,-11.989111,232.664,348.9252)" fill="#333333"/>
<use data-text="e" xlink:href="#font_3_72" transform="matrix(11.9868359,0,0,-11.989111,241.31679,348.9252)" fill="#333333"/>
<use data-text="c" xlink:href="#font_3_70" transform="matrix(11.9868359,0,0,-11.989111,247.98043,348.9252)" fill="#333333"/>
<use data-text="e" xlink:href="#font_3_72" transform="matrix(11.9868359,0,0,-11.989111,253.97127,348.9252)" fill="#333333"/>
<use data-text="i" xlink:href="#font_3_76" transform="matrix(11.9868359,0,0,-11.989111,260.63493,348.9252)" fill="#333333"/>
<use data-text="v" xlink:href="#font_3_89" transform="matrix(11.9868359,0,0,-11.989111,263.29685,348.9252)" fill="#333333"/>
<use data-text="e" xlink:href="#font_3_72" transform="matrix(11.9868359,0,0,-11.989111,269.2877,348.9252)" fill="#333333"/>
<use data-text="r" xlink:href="#font_3_85" transform="matrix(11.9868359,0,0,-11.989111,275.95133,348.9252)" fill="#333333"/>
<path transform="matrix(.74939528,0,0,.74953749,50.228094,13.503813)" d="M3 409H147C147.39781 409 147.78049 409.0761 148.14803 409.2283 148.51557 409.38056 148.84 409.59733 149.1213 409.87867 149.4026 410.15995 149.61939 410.48435 149.77162 410.8519 149.92386 411.21946 149.99999 411.60215 150 412V471C149.99999 471.3978 149.92386 471.78047 149.77162 472.148 149.61939 472.5155 149.4026 472.83995 149.1213 473.12129 148.84 473.40257 148.51557 473.61933 148.14803 473.77159 147.78049 473.9238 147.39781 473.99995 147 474H3C2.6021753 473.99995 2.2194918 473.9238 1.8519496 473.77159 1.4844074 473.61933 1.1599841 473.40257 .87867966 473.12129 .59737506 472.83995 .3806023 472.5155 .22836139 472.14799 .07612045 471.78047 0 471.3978 0 471V412C0 411.60215 .07612045 411.21946 .22836139 410.8519 .3806023 410.48435 .59737506 410.15995 .87867966 409.87867 1.1599841 409.59733 1.4844074 409.38056 1.8519496 409.2283 2.2194918 409.0761 2.6021753 409 3 409Z" fill="#eeeeee"/>
<path transform="matrix(.74939528,0,0,.74953749,50.228094,13.503813)" stroke-width="1" stroke-linecap="butt" stroke-miterlimit="4" stroke-linejoin="miter" fill="none" stroke="#d4d4d4" d="M3 409H147C147.39781 409 147.78049 409.0761 148.14803 409.2283 148.51557 409.38056 148.84 409.59733 149.1213 409.87867 149.4026 410.15995 149.61939 410.48435 149.77162 410.8519 149.92386 411.21946 149.99999 411.60215 150 412V471C149.99999 471.3978 149.92386 471.78047 149.77162 472.148 149.61939 472.5155 149.4026 472.83995 149.1213 473.12129 148.84 473.40257 148.51557 473.61933 148.14803 473.77159 147.78049 473.9238 147.39781 473.99995 147 474H3C2.6021753 473.99995 2.2194918 473.9238 1.8519496 473.77159 1.4844074 473.61933 1.1599841 473.40257 .87867966 473.12129 .59737506 472.83995 .3806023 472.5155 .22836139 472.14799 .07612045 471.78047 0 471.3978 0 471V412C0 411.60215 .07612045 411.21946 .22836139 410.8519 .3806023 410.48435 .59737506 410.15995 .87867966 409.87867 1.1599841 409.59733 1.4844074 409.38056 1.8519496 409.2283 2.2194918 409.0761 2.6021753 409 3 409Z"/>
<use data-text="S" xlink:href="#font_3_54" transform="matrix(11.9868359,0,0,-11.989111,87.10019,348.9252)" fill="#333333"/>
<use data-text="e" xlink:href="#font_3_72" transform="matrix(11.9868359,0,0,-11.989111,95.09187,348.9252)" fill="#333333"/>
<use data-text="n" xlink:href="#font_3_81" transform="matrix(11.9868359,0,0,-11.989111,101.75551,348.9252)" fill="#333333"/>
<use data-text="d" xlink:href="#font_3_71" transform="matrix(11.9868359,0,0,-11.989111,108.41915,348.9252)" fill="#333333"/>
<use data-text="e" xlink:href="#font_3_72" transform="matrix(11.9868359,0,0,-11.989111,115.082798,348.9252)" fill="#333333"/>
<use data-text="r" xlink:href="#font_3_85" transform="matrix(11.9868359,0,0,-11.989111,121.74643,348.9252)" fill="#333333"/>
<path transform="matrix(.74939528,0,0,.74953749,50.228094,13.503813)" stroke-width="2" stroke-linecap="butt" stroke-miterlimit="4" stroke-linejoin="miter" fill="none" stroke="#d4d4d4" d="M275 5V409"/>
<path transform="matrix(.74939528,0,0,.74953749,50.228094,13.503813)" d="M203 0H347C347.3978 0 347.7805 .07612045 348.148 .22836139 348.51554 .3806023 348.83998 .59737506 349.1213 .87867966 349.4026 1.1599841 349.61936 1.4844074 349.77159 1.8519496 349.92384 2.2194918 349.99998 2.6021753 350 3V62C349.99998 62.397825 349.92384 62.780504 349.77159 63.148046 349.61936 63.515588 349.4026 63.840009 349.1213 64.121318 348.83998 64.40262 348.51554 64.619388 348.148 64.77163 347.7805 64.923877 347.3978 64.99999 347 65H203C202.60216 64.99999 202.21945 64.923877 201.85192 64.77163 201.48438 64.619388 201.15996 64.40262 200.87866 64.121318 200.59734 63.840009 200.38057 63.515588 200.22834 63.148046 200.0761 62.780504 199.99999 62.397825 200 62V3C199.99999 2.6021753 200.0761 2.2194918 200.22834 1.8519496 200.38057 1.4844074 200.59734 1.1599841 200.87866 .87867966 201.15996 .59737506 201.48438 .3806023 201.85192 .22836139 202.21945 .07612045 202.60216 0 203 0Z" fill="#eeeeee"/>
<path transform="matrix(.74939528,0,0,.74953749,50.228094,13.503813)" stroke-width="1" stroke-linecap="butt" stroke-miterlimit="4" stroke-linejoin="miter" fill="none" stroke="#d4d4d4" d="M203 0H347C347.3978 0 347.7805 .07612045 348.148 .22836139 348.51554 .3806023 348.83998 .59737506 349.1213 .87867966 349.4026 1.1599841 349.61936 1.4844074 349.77159 1.8519496 349.92384 2.2194918 349.99998 2.6021753 350 3V62C349.99998 62.397825 349.92384 62.780504 349.77159 63.148046 349.61936 63.515588 349.4026 63.840009 349.1213 64.121318 348.83998 64.40262 348.51554 64.619388 348.148 64.77163 347.7805 64.923877 347.3978 64.99999 347 65H203C202.60216 64.99999 202.21945 64.923877 201.85192 64.77163 201.48438 64.619388 201.15996 64.40262 200.87866 64.121318 200.59734 63.840009 200.38057 63.515588 200.22834 63.148046 200.0761 62.780504 199.99999 62.397825 200 62V3C199.99999 2.6021753 200.0761 2.2194918 200.22834 1.8519496 200.38057 1.4844074 200.59734 1.1599841 200.87866 .87867966 201.15996 .59737506 201.48438 .3806023 201.85192 .22836139 202.21945 .07612045 202.60216 0 203 0Z"/>
<use data-text="R" xlink:href="#font_3_53" transform="matrix(11.9868359,0,0,-11.989111,232.664,42.366228)" fill="#333333"/>
<use data-text="e" xlink:href="#font_3_72" transform="matrix(11.9868359,0,0,-11.989111,241.31679,42.366228)" fill="#333333"/>
<use data-text="c" xlink:href="#font_3_70" transform="matrix(11.9868359,0,0,-11.989111,247.98043,42.366228)" fill="#333333"/>
<use data-text="e" xlink:href="#font_3_72" transform="matrix(11.9868359,0,0,-11.989111,253.97127,42.366228)" fill="#333333"/>
<use data-text="i" xlink:href="#font_3_76" transform="matrix(11.9868359,0,0,-11.989111,260.63493,42.366228)" fill="#333333"/>
<use data-text="v" xlink:href="#font_3_89" transform="matrix(11.9868359,0,0,-11.989111,263.29685,42.366228)" fill="#333333"/>
<use data-text="e" xlink:href="#font_3_72" transform="matrix(11.9868359,0,0,-11.989111,269.2877,42.366228)" fill="#333333"/>
<use data-text="r" xlink:href="#font_3_85" transform="matrix(11.9868359,0,0,-11.989111,275.95133,42.366228)" fill="#333333"/>
<path transform="matrix(.74939528,0,0,.74953749,50.228094,13.503813)" stroke-width="2" stroke-linecap="butt" stroke-miterlimit="4" stroke-linejoin="miter" fill="none" stroke="#d4d4d4" d="M75 5V409"/>
<path transform="matrix(.74939528,0,0,.74953749,50.228094,13.503813)" d="M3 0H147C147.39781 0 147.78049 .07612045 148.14803 .22836139 148.51557 .3806023 148.84 .59737506 149.1213 .87867966 149.4026 1.1599841 149.61939 1.4844074 149.77162 1.8519496 149.92386 2.2194918 149.99999 2.6021753 150 3V62C149.99999 62.397825 149.92386 62.780504 149.77162 63.148046 149.61939 63.515588 149.4026 63.840009 149.1213 64.121318 148.84 64.40262 148.51557 64.619388 148.14803 64.77163 147.78049 64.923877 147.39781 64.99999 147 65H3C2.6021753 64.99999 2.2194918 64.923877 1.8519496 64.77163 1.4844074 64.619388 1.1599841 64.40262 .87867966 64.121318 .59737506 63.840009 .3806023 63.515588 .22836139 63.148046 .07612045 62.780504 0 62.397825 0 62V3C0 2.6021753 .07612045 2.2194918 .22836139 1.8519496 .3806023 1.4844074 .59737506 1.1599841 .87867966 .87867966 1.1599841 .59737506 1.4844074 .3806023 1.8519496 .22836139 2.2194918 .07612045 2.6021753 0 3 0Z" fill="#eeeeee"/>
<path transform="matrix(.74939528,0,0,.74953749,50.228094,13.503813)" stroke-width="1" stroke-linecap="butt" stroke-miterlimit="4" stroke-linejoin="miter" fill="none" stroke="#d4d4d4" d="M3 0H147C147.39781 0 147.78049 .07612045 148.14803 .22836139 148.51557 .3806023 148.84 .59737506 149.1213 .87867966 149.4026 1.1599841 149.61939 1.4844074 149.77162 1.8519496 149.92386 2.2194918 149.99999 2.6021753 150 3V62C149.99999 62.397825 149.92386 62.780504 149.77162 63.148046 149.61939 63.515588 149.4026 63.840009 149.1213 64.121318 148.84 64.40262 148.51557 64.619388 148.14803 64.77163 147.78049 64.923877 147.39781 64.99999 147 65H3C2.6021753 64.99999 2.2194918 64.923877 1.8519496 64.77163 1.4844074 64.619388 1.1599841 64.40262 .87867966 64.121318 .59737506 63.840009 .3806023 63.515588 .22836139 63.148046 .07612045 62.780504 0 62.397825 0 62V3C0 2.6021753 .07612045 2.2194918 .22836139 1.8519496 .3806023 1.4844074 .59737506 1.1599841 .87867966 .87867966 1.1599841 .59737506 1.4844074 .3806023 1.8519496 .22836139 2.2194918 .07612045 2.6021753 0 3 0Z"/>
<use data-text="S" xlink:href="#font_3_54" transform="matrix(11.9868359,0,0,-11.989111,87.10019,42.366228)" fill="#333333"/>
<use data-text="e" xlink:href="#font_3_72" transform="matrix(11.9868359,0,0,-11.989111,95.09187,42.366228)" fill="#333333"/>
<use data-text="n" xlink:href="#font_3_81" transform="matrix(11.9868359,0,0,-11.989111,101.75551,42.366228)" fill="#333333"/>
<use data-text="d" xlink:href="#font_3_71" transform="matrix(11.9868359,0,0,-11.989111,108.41915,42.366228)" fill="#333333"/>
<use data-text="e" xlink:href="#font_3_72" transform="matrix(11.9868359,0,0,-11.989111,115.082798,42.366228)" fill="#333333"/>
<use data-text="r" xlink:href="#font_3_85" transform="matrix(11.9868359,0,0,-11.989111,121.74643,42.366228)" fill="#333333"/>
<path transform="matrix(.74939528,0,0,.74953749,50.228094,13.503813)" d="M-9 118H-7V120H-9M-5 118H-3V120H-5M-1 118H1V120H-1M3 118H5V120H3M7 118H9V120H7M11 118H13V120H11M15 118H17V120H15M19 118H21V120H19M23 118H25V120H23M27 118H29V120H27M31 118H33V120H31M35 118H37V120H35M39 118H41V120H39M43 118H45V120H43M47 118H49V120H47M51 118H53V120H51M55 118H57V120H55M59 118H61V120H59M63 118H65V120H63M67 118H69V120H67M71 118H73V120H71M75 118H77V120H75M79 118H81V120H79M83 118H85V120H83M87 118H89V120H87M91 118H93V120H91M95 118H97V120H95M99 118H101V120H99M103 118H105V120H103M107 118H109V120H107M111 118H113V120H111M115 118H117V120H115M119 118H121V120H119M123 118H125V120H123M127 118H129V120H127M131 118H133V120H131M135 118H137V120H135M139 118H141V120H139M143 118H145V120H143M147 118H149V120H147M151 118H153V120H151M155 118H157V120H155M159 118H161V120H159M163 118H165V120H163M167 118H169V120H167M171 118H173V120H171M175 118H177V120H175M179 118H181V120H179M183 118H185V120H183M187 118H189V120H187M191 118H193V120H191M195 118H197V120H195M199 118H201V120H199M203 118H205V120H203M207 118H209V120H207M211 118H213V120H211M215 118H217V120H215M219 118H221V120H219M223 118H225V120H223M227 118H229V120H227M231 118H233V120H231M235 118H237V120H235M239 118H241V120H239M243 118H245V120H243M247 118H249V120H247M251 118H253V120H251M255 118H257V120H255M259 118H261V120H259M263 118H265V120H263M267 118H269V120H267M271 118H273V120H271M275 118H277V120H275M279 118H281V120H279M283 118H285V120H283" fill="#d4d4d4"/>
<path transform="matrix(.74939528,0,0,.74953749,50.228094,13.503813)" d="M287 119V121H285V119M287 123V125H285V123M287 127V129H285V127M287 131V133H285V131M287 135V137H285V135M287 139V141H285V139M287 143V145H285V143M287 147V149H285V147M287 151V153H285V151M287 155V157H285V155M287 159V161H285V159M287 163V165H285V163M287 167V169H285V167M287 171V173H285V171M287 175V177H285V175M287 179V181H285V179M287 183V185H285V183M287 187V189H285V187M287 191V193H285V191M287 195V197H285V195M287 199V201H285V199M287 203V205H285V203M287 207V209H285V207M287 211V213H285V211M287 215V217H285V215M287 219V221H285V219M287 223V225H285V223M287 227V229H285V227M287 231V233H285V231M287 235V237H285V235M287 239V241H285V239M287 243V245H285V243M287 247V249H285V247M287 251V253H285V251M287 255V257H285V255M287 259V261H285V259M287 263V265H285V263M287 267V269H285V267M287 271V273H285V271M287 275V277H285V275M287 279V281H285V279M287 283V285H285V283M287 287V289H285V287M287 291V293H285V291M287 295V297H285V295M287 299V301H285V299M287 303V305H285V303M287 307V309H285V307M287 311V313H285V311M287 315V317H285V315M287 319V321H285V319M287 323V325H285V323M287 327V329H285V327M287 331V333H285V331M287 335V337H285V335M287 339V341H285V339M287 343V345H285V343M287 347V349H285V347M287 351V353H285V351M287 355V357H285V355M287 359V361H285V359M287 363V365H285V363M287 367V369H285V367M287 371V373H285V371M287 375V377H285V375M287 379V381H285V379M287 383V385H285V383M287 387V389H285V387" fill="#d4d4d4"/>
<path transform="matrix(.74939528,0,0,.74953749,50.228094,13.503813)" d="M-9 388H-7V390H-9M-5 388H-3V390H-5M-1 388H1V390H-1M3 388H5V390H3M7 388H9V390H7M11 388H13V390H11M15 388H17V390H15M19 388H21V390H19M23 388H25V390H23M27 388H29V390H27M31 388H33V390H31M35 388H37V390H35M39 388H41V390H39M43 388H45V390H43M47 388H49V390H47M51 388H53V390H51M55 388H57V390H55M59 388H61V390H59M63 388H65V390H63M67 388H69V390H67M71 388H73V390H71M75 388H77V390H75M79 388H81V390H79M83 388H85V390H83M87 388H89V390H87M91 388H93V390H91M95 388H97V390H95M99 388H101V390H99M103 388H105V390H103M107 388H109V390H107M111 388H113V390H111M115 388H117V390H115M119 388H121V390H119M123 388H125V390H123M127 388H129V390H127M131 388H133V390H131M135 388H137V390H135M139 388H141V390H139M143 388H145V390H143M147 388H149V390H147M151 388H153V390H151M155 388H157V390H155M159 388H161V390H159M163 388H165V390H163M167 388H169V390H167M171 388H173V390H171M175 388H177V390H175M179 388H181V390H179M183 388H185V390H183M187 388H189V390H187M191 388H193V390H191M195 388H197V390H195M199 388H201V390H199M203 388H205V390H203M207 388H209V390H207M211 388H213V390H211M215 388H217V390H215M219 388H221V390H219M223 388H225V390H223M227 388H229V390H227M231 388H233V390H231M235 388H237V390H235M239 388H241V390H239M243 388H245V390H243M247 388H249V390H247M251 388H253V390H251M255 388H257V390H255M259 388H261V390H259M263 388H265V390H263M267 388H269V390H267M271 388H273V390H271M275 388H277V390H275M279 388H281V390H279M283 388H285V390H283" fill="#d4d4d4"/>
<path transform="matrix(.74939528,0,0,.74953749,50.228094,13.503813)" d="M-8 119V121H-10V119M-8 123V125H-10V123M-8 127V129H-10V127M-8 131V133H-10V131M-8 135V137H-10V135M-8 139V141H-10V139M-8 143V145H-10V143M-8 147V149H-10V147M-8 151V153H-10V151M-8 155V157H-10V155M-8 159V161H-10V159M-8 163V165H-10V163M-8 167V169H-10V167M-8 171V173H-10V171M-8 175V177H-10V175M-8 179V181H-10V179M-8 183V185H-10V183M-8 187V189H-10V187M-8 191V193H-10V191M-8 195V197H-10V195M-8 199V201H-10V199M-8 203V205H-10V203M-8 207V209H-10V207M-8 211V213H-10V211M-8 215V217H-10V215M-8 219V221H-10V219M-8 223V225H-10V223M-8 227V229H-10V227M-8 231V233H-10V231M-8 235V237H-10V235M-8 239V241H-10V239M-8 243V245H-10V243M-8 247V249H-10V247M-8 251V253H-10V251M-8 255V257H-10V255M-8 259V261H-10V259M-8 263V265H-10V263M-8 267V269H-10V267M-8 271V273H-10V271M-8 275V277H-10V275M-8 279V281H-10V279M-8 283V285H-10V283M-8 287V289H-10V287M-8 291V293H-10V291M-8 295V297H-10V295M-8 299V301H-10V299M-8 303V305H-10V303M-8 307V309H-10V307M-8 311V313H-10V311M-8 315V317H-10V315M-8 319V321H-10V319M-8 323V325H-10V323M-8 327V329H-10V327M-8 331V333H-10V331M-8 335V337H-10V335M-8 339V341H-10V339M-8 343V345H-10V343M-8 347V349H-10V347M-8 351V353H-10V351M-8 355V357H-10V355M-8 359V361H-10V359M-8 363V365H-10V363M-8 367V369H-10V367M-8 371V373H-10V371M-8 375V377H-10V375M-8 379V381H-10V379M-8 383V385H-10V383M-8 387V389H-10V387" fill="#d4d4d4"/>
<path transform="matrix(.74939528,0,0,.74953749,50.228094,13.503813)" d="M-9 244H-6V246H-9M-3 244H0V246H-3M3 244H6V246H3M9 244H12V246H9M15 244H18V246H15M21 244H24V246H21M27 244H30V246H27M33 244H36V246H33M39 244H42V246H39M45 244H48V246H45M51 244H54V246H51M57 244H60V246H57M63 244H66V246H63M69 244H72V246H69M75 244H78V246H75M81 244H84V246H81M87 244H90V246H87M93 244H96V246H93M99 244H102V246H99M105 244H108V246H105M111 244H114V246H111M117 244H120V246H117M123 244H126V246H123M129 244H132V246H129M135 244H138V246H135M141 244H144V246H141M147 244H150V246H147M153 244H156V246H153M159 244H162V246H159M165 244H168V246H165M171 244H174V246H171M177 244H180V246H177M183 244H186V246H183M189 244H192V246H189M195 244H198V246H195M201 244H204V246H201M207 244H210V246H207M213 244H216V246H213M219 244H222V246H219M225 244H228V246H225M231 244H234V246H231M237 244H240V246H237M243 244H246V246H243M249 244H252V246H249M255 244H258V246H255M261 244H264V246H261M267 244H270V246H267M273 244H276V246H273M279 244H282V246H279M285 244H286V246H285" fill="#d4d4d4"/>
<path transform="matrix(.74939528,0,0,.74953749,50.228094,13.503813)" d="M-9 119H41V132L32.6 139H-9V119Z" fill="#eeeeee"/>
<path transform="matrix(.74939528,0,0,.74953749,50.228094,13.503813)" stroke-width="1" stroke-linecap="butt" stroke-miterlimit="4" stroke-linejoin="miter" fill="none" stroke="#d4d4d4" d="M-9 119H41V132L32.6 139H-9V119Z"/>
<use data-text="a" xlink:href="#font_3_68" transform="matrix(11.9868359,0,0,-11.989111,55.884477,115.60797)" fill="#333333"/>
<use data-text="l" xlink:href="#font_3_79" transform="matrix(11.9868359,0,0,-11.989111,62.548116,115.60797)" fill="#333333"/>
<use data-text="t" xlink:href="#font_3_87" transform="matrix(11.9868359,0,0,-11.989111,65.21007,115.60797)" fill="#333333"/>
<use data-text="[" xlink:href="#font_3_62" transform="matrix(11.9868359,0,0,-11.989111,152.77056,116.183109)" fill="#333333"/>
<use data-text="P" xlink:href="#font_3_51" transform="matrix(11.9868359,0,0,-11.989111,156.09944,116.183109)" fill="#333333"/>
<use data-text="a" xlink:href="#font_3_68" transform="matrix(11.9868359,0,0,-11.989111,164.09113,116.183109)" fill="#333333"/>
<use data-text="c" xlink:href="#font_3_70" transform="matrix(11.9868359,0,0,-11.989111,170.75476,116.183109)" fill="#333333"/>
<use data-text="k" xlink:href="#font_3_78" transform="matrix(11.9868359,0,0,-11.989111,176.7456,116.183109)" fill="#333333"/>
<use data-text="e" xlink:href="#font_3_72" transform="matrix(11.9868359,0,0,-11.989111,182.73644,116.183109)" fill="#333333"/>
<use data-text="t" xlink:href="#font_3_87" transform="matrix(11.9868359,0,0,-11.989111,189.40007,116.183109)" fill="#333333"/>
<use data-text="r" xlink:href="#font_3_85" transform="matrix(11.9868359,0,0,-11.989111,150.09491,128.93)" fill="#333333"/>
<use data-text="e" xlink:href="#font_3_72" transform="matrix(11.9868359,0,0,-11.989111,154.0849,128.93)" fill="#333333"/>
<use data-text="c" xlink:href="#font_3_70" transform="matrix(11.9868359,0,0,-11.989111,160.74855,128.93)" fill="#333333"/>
<use data-text="e" xlink:href="#font_3_72" transform="matrix(11.9868359,0,0,-11.989111,166.73938,128.93)" fill="#333333"/>
<use data-text="i" xlink:href="#font_3_76" transform="matrix(11.9868359,0,0,-11.989111,173.40302,128.93)" fill="#333333"/>
<use data-text="v" xlink:href="#font_3_89" transform="matrix(11.9868359,0,0,-11.989111,176.06497,128.93)" fill="#333333"/>
<use data-text="e" xlink:href="#font_3_72" transform="matrix(11.9868359,0,0,-11.989111,182.0558,128.93)" fill="#333333"/>
<use data-text="d" xlink:href="#font_3_71" transform="matrix(11.9868359,0,0,-11.989111,188.71944,128.93)" fill="#333333"/>
<use data-text="s" xlink:href="#font_3_86" transform="matrix(11.9868359,0,0,-11.989111,138.78215,141.66513)" fill="#333333"/>
<use data-text="u" xlink:href="#font_3_88" transform="matrix(11.9868359,0,0,-11.989111,144.77298,141.66513)" fill="#333333"/>
<use data-text="c" xlink:href="#font_3_70" transform="matrix(11.9868359,0,0,-11.989111,151.43663,141.66513)" fill="#333333"/>
<use data-text="c" xlink:href="#font_3_70" transform="matrix(11.9868359,0,0,-11.989111,157.42746,141.66513)" fill="#333333"/>
<use data-text="e" xlink:href="#font_3_72" transform="matrix(11.9868359,0,0,-11.989111,163.4183,141.66513)" fill="#333333"/>
<use data-text="s" xlink:href="#font_3_86" transform="matrix(11.9868359,0,0,-11.989111,170.08194,141.66513)" fill="#333333"/>
<use data-text="s" xlink:href="#font_3_86" transform="matrix(11.9868359,0,0,-11.989111,176.07277,141.66513)" fill="#333333"/>
<use data-text="f" xlink:href="#font_3_73" transform="matrix(11.9868359,0,0,-11.989111,182.0636,141.66513)" fill="#333333"/>
<use data-text="u" xlink:href="#font_3_88" transform="matrix(11.9868359,0,0,-11.989111,185.3925,141.66513)" fill="#333333"/>
<use data-text="l" xlink:href="#font_3_79" transform="matrix(11.9868359,0,0,-11.989111,192.05614,141.66513)" fill="#333333"/>
<use data-text="l" xlink:href="#font_3_79" transform="matrix(11.9868359,0,0,-11.989111,194.7181,141.66513)" fill="#333333"/>
<use data-text="y" xlink:href="#font_3_92" transform="matrix(11.9868359,0,0,-11.989111,197.38004,141.66513)" fill="#333333"/>
<use data-text="]" xlink:href="#font_3_64" transform="matrix(11.9868359,0,0,-11.989111,203.37088,141.66513)" fill="#333333"/>
<use data-text="[" xlink:href="#font_3_62" transform="matrix(11.9868359,0,0,-11.989111,129.26488,210.62271)" fill="#333333"/>
<use data-text="T" xlink:href="#font_3_55" transform="matrix(11.9868359,0,0,-11.989111,132.59378,210.62271)" fill="#333333"/>
<use data-text="i" xlink:href="#font_3_76" transform="matrix(11.9868359,0,0,-11.989111,139.46784,210.62271)" fill="#333333"/>
<use data-text="m" xlink:href="#font_3_80" transform="matrix(11.9868359,0,0,-11.989111,142.12979,210.62271)" fill="#333333"/>
<use data-text="e" xlink:href="#font_3_72" transform="matrix(11.9868359,0,0,-11.989111,152.11061,210.62271)" fill="#333333"/>
<use data-text="o" xlink:href="#font_3_82" transform="matrix(11.9868359,0,0,-11.989111,158.77425,210.62271)" fill="#333333"/>
<use data-text="u" xlink:href="#font_3_88" transform="matrix(11.9868359,0,0,-11.989111,165.4379,210.62271)" fill="#333333"/>
<use data-text="t" xlink:href="#font_3_87" transform="matrix(11.9868359,0,0,-11.989111,172.10153,210.62271)" fill="#333333"/>
<use data-text="]" xlink:href="#font_3_64" transform="matrix(11.9868359,0,0,-11.989111,175.43044,210.62271)" fill="#333333"/>
<use data-text="T" xlink:href="#font_3_55" transform="matrix(11.9868359,0,0,-11.989111,137.56169,88.62356)" fill="#333333"/>
<use data-text="r" xlink:href="#font_3_85" transform="matrix(11.9868359,0,0,-11.989111,144.43575,88.62356)" fill="#333333"/>
<use data-text="a" xlink:href="#font_3_68" transform="matrix(11.9868359,0,0,-11.989111,148.42574,88.62356)" fill="#333333"/>
<use data-text="n" xlink:href="#font_3_81" transform="matrix(11.9868359,0,0,-11.989111,155.08937,88.62356)" fill="#333333"/>
<use data-text="s" xlink:href="#font_3_86" transform="matrix(11.9868359,0,0,-11.989111,161.75302,88.62356)" fill="#333333"/>
<use data-text="m" xlink:href="#font_3_80" transform="matrix(11.9868359,0,0,-11.989111,167.74385,88.62356)" fill="#333333"/>
<use data-text="i" xlink:href="#font_3_76" transform="matrix(11.9868359,0,0,-11.989111,177.72469,88.62356)" fill="#333333"/>
<use data-text="t" xlink:href="#font_3_87" transform="matrix(11.9868359,0,0,-11.989111,180.38663,88.62356)" fill="#333333"/>
<use data-text=" " xlink:href="#font_3_3" transform="matrix(11.9868359,0,0,-11.989111,183.71553,88.62356)" fill="#333333"/>
<use data-text="P" xlink:href="#font_3_51" transform="matrix(11.9868359,0,0,-11.989111,187.04442,88.62356)" fill="#333333"/>
<use data-text="a" xlink:href="#font_3_68" transform="matrix(11.9868359,0,0,-11.989111,195.0361,88.62356)" fill="#333333"/>
<use data-text="c" xlink:href="#font_3_70" transform="matrix(11.9868359,0,0,-11.989111,201.69974,88.62356)" fill="#333333"/>
<use data-text="k" xlink:href="#font_3_78" transform="matrix(11.9868359,0,0,-11.989111,207.69058,88.62356)" fill="#333333"/>
<use data-text="e" xlink:href="#font_3_72" transform="matrix(11.9868359,0,0,-11.989111,213.68141,88.62356)" fill="#333333"/>
<use data-text="t" xlink:href="#font_3_87" transform="matrix(11.9868359,0,0,-11.989111,220.34505,88.62356)" fill="#333333"/>
<path transform="matrix(.74939528,0,0,.74953749,50.228094,13.503813)" stroke-width="1.5" stroke-linecap="butt" stroke-miterlimit="4" stroke-linejoin="miter" fill="none" stroke="#333333" d="M76 109H271"/>
</g>
<g clip-path="url(#clip_4)">
<path transform="matrix(.74939528,0,0,.74953749,247.394,91.45572)" d="M0 0 10 5 0 10V0Z" fill="#333333"/>
<path transform="matrix(.74939528,0,0,.74953749,247.394,91.45572)" stroke-width="1" stroke-linecap="butt" stroke-miterlimit="4" stroke-linejoin="miter" fill="none" stroke="#333333" d="M0 0 10 5 0 10V0Z"/>
</g>
<g clip-path="url(#clip_5)">
<use data-text="A" xlink:href="#font_3_36" transform="matrix(11.9868359,0,0,-11.989111,170.53769,179.31891)" fill="#333333"/>
<use data-text="C" xlink:href="#font_3_38" transform="matrix(11.9868359,0,0,-11.989111,178.52936,179.31891)" fill="#333333"/>
<use data-text="K" xlink:href="#font_3_46" transform="matrix(11.9868359,0,0,-11.989111,187.18215,179.31891)" fill="#333333"/>
<path transform="matrix(.74939528,0,0,.74953749,50.228094,13.503813)" stroke-width="1.5" stroke-linecap="butt" stroke-miterlimit="4" stroke-linejoin="miter" fill="none" stroke="#333333" d="M274 230H79"/>
</g>
<g clip-path="url(#clip_6)">
<g clip-path="url(#clip_7)">
<g clip-path="url(#clip_8)">
<path transform="matrix(-.74939528,.00000000000000009179187,-.00000000000000009177446,-.74953749,115.35054,189.64511)" d="M0 0 10 5 0 10V0Z" fill="#333333"/>
<path transform="matrix(-.74939528,.00000000000000009179187,-.00000000000000009177446,-.74953749,115.35054,189.64511)" stroke-width="1" stroke-linecap="butt" stroke-miterlimit="4" stroke-linejoin="miter" fill="none" stroke="#333333" d="M0 0 10 5 0 10V0Z"/>
</g>
</g>
</g>
<g clip-path="url(#clip_9)">
<use data-text="R" xlink:href="#font_3_53" transform="matrix(11.9868359,0,0,-11.989111,58.23152,246.02289)" fill="#333333"/>
<use data-text="e" xlink:href="#font_3_72" transform="matrix(11.9868359,0,0,-11.989111,66.88431,246.02289)" fill="#333333"/>
<use data-text="t" xlink:href="#font_3_87" transform="matrix(11.9868359,0,0,-11.989111,73.54794,246.02289)" fill="#333333"/>
<use data-text="r" xlink:href="#font_3_85" transform="matrix(11.9868359,0,0,-11.989111,76.87685,246.02289)" fill="#333333"/>
<use data-text="a" xlink:href="#font_3_68" transform="matrix(11.9868359,0,0,-11.989111,80.86684,246.02289)" fill="#333333"/>
<use data-text="n" xlink:href="#font_3_81" transform="matrix(11.9868359,0,0,-11.989111,87.53047,246.02289)" fill="#333333"/>
<use data-text="s" xlink:href="#font_3_86" transform="matrix(11.9868359,0,0,-11.989111,94.194118,246.02289)" fill="#333333"/>
<use data-text="m" xlink:href="#font_3_80" transform="matrix(11.9868359,0,0,-11.989111,100.18495,246.02289)" fill="#333333"/>
<use data-text="i" xlink:href="#font_3_76" transform="matrix(11.9868359,0,0,-11.989111,110.16577,246.02289)" fill="#333333"/>
<use data-text="t" xlink:href="#font_3_87" transform="matrix(11.9868359,0,0,-11.989111,112.82773,246.02289)" fill="#333333"/>
<use data-text=" " xlink:href="#font_3_3" transform="matrix(11.9868359,0,0,-11.989111,116.15662,246.02289)" fill="#333333"/>
<use data-text="P" xlink:href="#font_3_51" transform="matrix(11.9868359,0,0,-11.989111,119.48552,246.02289)" fill="#333333"/>
<use data-text="a" xlink:href="#font_3_68" transform="matrix(11.9868359,0,0,-11.989111,127.4772,246.02289)" fill="#333333"/>
<use data-text="c" xlink:href="#font_3_70" transform="matrix(11.9868359,0,0,-11.989111,134.14084,246.02289)" fill="#333333"/>
<use data-text="k" xlink:href="#font_3_78" transform="matrix(11.9868359,0,0,-11.989111,140.13169,246.02289)" fill="#333333"/>
<use data-text="e" xlink:href="#font_3_72" transform="matrix(11.9868359,0,0,-11.989111,146.12252,246.02289)" fill="#333333"/>
<use data-text="t" xlink:href="#font_3_87" transform="matrix(11.9868359,0,0,-11.989111,152.78615,246.02289)" fill="#333333"/>
<path transform="matrix(.74939528,0,0,.74953749,50.228094,13.503813)" stroke-width="1.5" stroke-linecap="butt" stroke-miterlimit="4" stroke-linejoin="miter" fill="none" stroke="#333333" d="M76 319C136 309 136 349 76 339"/>
</g>
<g clip-path="url(#clip_10)">
<g clip-path="url(#clip_11)">
<g clip-path="url(#clip_12)">
<path transform="matrix(-.7391989,-.12322325,.12319988,-.7393392,112.40581,272.26716)" d="M0 0 10 5 0 10V0Z" fill="#333333"/>
<path transform="matrix(-.7391989,-.12322325,.12319988,-.7393392,112.40581,272.26716)" stroke-width="1" stroke-linecap="butt" stroke-miterlimit="4" stroke-linejoin="miter" fill="none" stroke="#333333" d="M0 0 10 5 0 10V0Z"/>
</g>
</g>
</g>
</svg>
