<svg xmlns="http://www.w3.org/2000/svg" xmlns:xlink="http://www.w3.org/1999/xlink" version="1.1" width="403.91999pt" height="323.03999pt" viewBox="0 0 403.91999 323.03999">
<defs>
<clipPath id="clip_1">
<path transform="matrix(.24,0,0,.24,0,0)" d="M0 0H1683.3333V1345.415H0Z" fill-rule="evenodd"/>
</clipPath>
<clipPath id="clip_2">
<path transform="matrix(.24,0,0,.24,0,0)" d="M25.030978 25.030978H1655.1734V1323.513H25.030978Z" fill-rule="evenodd"/>
</clipPath>
<clipPath id="clip_3">
<path transform="matrix(.24,0,0,.24,0,0)" d="M0 0H1683.3333V1345.415H0Z"/>
</clipPath>
<clipPath id="clip_4">
<path transform="matrix(.24,0,0,.24,0,0)" d="M25.030978 25.030978H1655.1734V1323.513H25.030978Z"/>
</clipPath>
<clipPath id="clip_5">
<path transform="matrix(.24,0,0,.24,0,0)" d="M478.89994 247.1809H522.6687V309.75834H478.89994Z"/>
</clipPath>
<clipPath id="clip_6">
<path transform="matrix(.24,0,0,.24,0,0)" d="M25.030978 25.030978H1655.1734V1323.513H25.030978Z" fill-rule="evenodd"/>
</clipPath>
<clipPath id="clip_7">
<path transform="matrix(.24,0,0,.24,0,0)" d="M0 0H1683.3333V1345.415H0Z"/>
</clipPath>
<clipPath id="clip_8">
<path transform="matrix(.24,0,0,.24,0,0)" d="M25.030978 25.030978H1655.1734V1323.513H25.030978Z"/>
</clipPath>
<clipPath id="clip_9">
<path transform="matrix(.24,0,0,.24,0,0)" d="M1224.5689 563.197H1268.3377V625.7745H1224.5689Z"/>
</clipPath>
<clipPath id="clip_10">
<path transform="matrix(.24,0,0,.24,0,0)" d="M25.030978 25.030978H1655.1734V1323.513H25.030978Z" fill-rule="evenodd"/>
</clipPath>
<clipPath id="clip_11">
<path transform="matrix(.24,0,0,.24,0,0)" d="M0 0H1683.3333V1345.415H0Z"/>
</clipPath>
<clipPath id="clip_12">
<path transform="matrix(.24,0,0,.24,0,0)" d="M25.030978 25.030978H1655.1734V1323.513H25.030978Z"/>
</clipPath>
<clipPath id="clip_13">
<path transform="matrix(.24,0,0,.24,0,0)" d="M944.7793 1243.5321 1006.6934 1252.2708 1000.58139 1295.6458 938.6672 1286.9071 944.7793 1243.5321Z"/>
</clipPath>
<clipPath id="clip_14">
<path transform="matrix(.24,0,0,.24,0,0)" d="M25.030978 25.030978H1655.1734V1323.513H25.030978Z" fill-rule="evenodd"/>
</clipPath>
<clipPath id="clip_15">
<path transform="matrix(.24,0,0,.24,0,0)" d="M0 0H1683.3333V1345.415H0Z"/>
</clipPath>
<clipPath id="clip_16">
<path transform="matrix(.24,0,0,.24,0,0)" d="M25.030978 25.030978H1655.1734V1323.513H25.030978Z"/>
</clipPath>
<clipPath id="clip_17">
<path transform="matrix(.24,0,0,.24,0,0)" d="M775.8368 936.8348 818.97177 982.1371 787.28579 1012.35598 744.1508 967.0537 775.8368 936.8348Z"/>
</clipPath>
<clipPath id="clip_18">
<path transform="matrix(.24,0,0,.24,0,0)" d="M25.030978 25.030978H1655.1734V1323.513H25.030978Z" fill-rule="evenodd"/>
</clipPath>
<clipPath id="clip_19">
<path transform="matrix(.24,0,0,.24,0,0)" d="M0 0H1683.3333V1345.415H0Z"/>
</clipPath>
<clipPath id="clip_20">
<path transform="matrix(.24,0,0,.24,0,0)" d="M25.030978 25.030978H1655.1734V1323.513H25.030978Z"/>
</clipPath>
<clipPath id="clip_21">
<path transform="matrix(.24,0,0,.24,0,0)" d="M915.0299 948.6752 890.78677 1006.35757 850.4418 989.37356 874.68496 931.6912 915.0299 948.6752Z"/>
</clipPath>
<clipPath id="clip_22">
<path transform="matrix(.24,0,0,.24,0,0)" d="M25.030978 25.030978H1655.1734V1323.513H25.030978Z" fill-rule="evenodd"/>
</clipPath>
<clipPath id="clip_23">
<path transform="matrix(.24,0,0,.24,0,0)" d="M0 0H1683.3333V1345.415H0Z"/>
</clipPath>
<clipPath id="clip_24">
<path transform="matrix(.24,0,0,.24,0,0)" d="M25.030978 25.030978H1655.1734V1323.513H25.030978Z"/>
</clipPath>
<clipPath id="clip_25">
<path transform="matrix(.24,0,0,.24,0,0)" d="M1158.274 762.0047 1194.166 710.764 1230.0055 735.9087 1194.1135 787.1494 1158.274 762.0047Z"/>
</clipPath>
<clipPath id="clip_26">
<path transform="matrix(.24,0,0,.24,0,0)" d="M25.030978 25.030978H1655.1734V1323.513H25.030978Z" fill-rule="evenodd"/>
</clipPath>
<clipPath id="clip_27">
<path transform="matrix(.24,0,0,.24,0,0)" d="M0 0H1683.3333V1345.415H0Z"/>
</clipPath>
<clipPath id="clip_28">
<path transform="matrix(.24,0,0,.24,0,0)" d="M25.030978 25.030978H1655.1734V1323.513H25.030978Z"/>
</clipPath>
<clipPath id="clip_29">
<path transform="matrix(.24,0,0,.24,0,0)" d="M962.93838 1216.7582 1016.99398 1248.2097 994.9957 1286.0792 940.9401 1254.6277 962.93838 1216.7582Z"/>
</clipPath>
<clipPath id="clip_30">
<path transform="matrix(.24,0,0,.24,0,0)" d="M25.030978 25.030978H1655.1734V1323.513H25.030978Z" fill-rule="evenodd"/>
</clipPath>
<clipPath id="clip_31">
<path transform="matrix(.24,0,0,.24,0,0)" d="M0 0H1683.3333V1345.415H0Z"/>
</clipPath>
<clipPath id="clip_32">
<path transform="matrix(.24,0,0,.24,0,0)" d="M25.030978 25.030978H1655.1734V1323.513H25.030978Z"/>
</clipPath>
<clipPath id="clip_33">
<path transform="matrix(.24,0,0,.24,0,0)" d="M1106.1688 1270.4656 1047.1309 1291.0767 1032.7149 1249.7167 1091.7528 1229.1056 1106.1688 1270.4656Z"/>
</clipPath>
<clipPath id="clip_34">
<path transform="matrix(.24,0,0,.24,0,0)" d="M25.030978 25.030978H1655.1734V1323.513H25.030978Z" fill-rule="evenodd"/>
</clipPath>
<clipPath id="clip_35">
<path transform="matrix(.24,0,0,.24,65.28,41.28)" d="M0 0H458V57H0Z" fill-rule="evenodd"/>
</clipPath>
<clipPath id="clip_36">
<path transform="matrix(.24,0,0,.24,0,0)" d="M272.78126 172.08797H729.227V228.40767H272.78126Z" fill-rule="evenodd"/>
</clipPath>
<path id="font_37_49" d="M.5283203 0 .16015625 .5864258 .16259766 .5390167 .16503906 .45741273V0H.08203125V.68847659H.19042969L.5625 .09814453C.55859377 .16199748 .5566406 .20826213 .5566406 .23693848V.68847659H.640625V0H.5283203Z"/>
<path id="font_37_82" d="M.51416018 .26464845C.51416018 .17220052 .4938151 .10335287 .453125 .05810547 .4124349 .012858073 .35335288-.009765625 .2758789-.009765625 .19873047-.009765625 .14046224 .013753255 .10107422 .060791017 .0616862 .10782877 .041992189 .17578125 .041992189 .26464845 .041992189 .4469401 .12093099 .53808596 .2788086 .53808596 .35953776 .53808596 .4189453 .51586917 .45703126 .47143556 .4951172 .42700196 .51416018 .3580729 .51416018 .26464845M.421875 .26464845C.421875 .3375651 .41105143 .3905436 .3894043 .42358399 .36775718 .45662437 .33138023 .47314454 .28027345 .47314454 .22884114 .47314454 .19165039 .45629884 .16870117 .42260743 .14575196 .38891603 .13427735 .33626304 .13427735 .26464845 .13427735 .19498699 .14558919 .1426595 .16821289 .107666019 .1908366 .07267252 .22639974 .05517578 .27490235 .05517578 .32763673 .05517578 .36531578 .07210287 .38793946 .10595703 .41056315 .1398112 .421875 .19270833 .421875 .26464845Z"/>
<path id="font_37_71" d="M.4008789 .08496094C.38460288 .05110677 .3630371 .026855469 .33618165 .012207031 .30932618-.0024414063 .27604167-.009765625 .23632813-.009765625 .16959636-.009765625 .120524089 .0126953129 .08911133 .057617189 .057698568 .10253906 .041992189 .17057292 .041992189 .26171876 .041992189 .44596354 .106770839 .53808596 .23632813 .53808596 .2763672 .53808596 .30973307 .5307617 .33642579 .5161133 .3631185 .50146487 .38460288 .4781901 .4008789 .44628907H.40185548L.4008789 .5053711V.7246094H.48876954V.10888672C.48876954 .0538737 .4897461 .017578125 .49169923 0H.40771485C.40673829 .0052083337 .40568034 .017252604 .40454103 .036132814 .4034017 .05501302 .40283204 .07128906 .40283204 .08496094H.4008789M.13427735 .26464845C.13427735 .1907552 .14404297 .13785808 .16357422 .10595703 .18310547 .07405599 .21484375 .05810547 .25878907 .05810547 .30859376 .05810547 .34472657 .07535807 .3671875 .10986328 .38964845 .14436849 .4008789 .19791667 .4008789 .2705078 .4008789 .34049479 .38964845 .3917643 .3671875 .4243164 .34472657 .4568685 .30891929 .47314454 .25976563 .47314454 .2154948 .47314454 .18351238 .4567871 .16381836 .42407228 .14412435 .39135743 .13427735 .33821617 .13427735 .26464845Z"/>
<path id="font_37_72" d="M.13476563 .24609375C.13476563 .18539429 .14729817 .13855998 .17236328 .10559082 .19742839 .072631839 .23404949 .056152345 .28222657 .056152345 .3203125 .056152345 .35083009 .06384786 .3737793 .07923889 .39672853 .09462992 .41227214 .114115398 .42041017 .13769531L.4975586 .11564636C.46598307 .032038373 .39420573-.009765625 .28222657-.009765625 .20410156-.009765625 .14461263 .013509114 .103759769 .060058595 .0629069 .10660807 .04248047 .17578125 .04248047 .26757813 .04248047 .35481773 .0629069 .42171226 .103759769 .46826173 .14461263 .5148112 .20296224 .53808596 .2788086 .53808596 .43408204 .53808596 .51171877 .44465638 .51171877 .25779725V.24609375H.13476563M.42089845 .31347657C.41601563 .36896769 .40185548 .40944926 .37841798 .43492127 .35498048 .46040345 .32128907 .47314454 .27734376 .47314454 .23470052 .47314454 .20092774 .4589437 .17602539 .430542 .15112305 .40215049 .13769531 .36312867 .13574219 .31347657H.42089845Z"/>
<path id="font_37_3" d="M0 0Z"/>
<path id="font_37_80" d="M.375 0V.33496095C.375 .38606773 .3680013 .42138673 .3540039 .44091798 .3400065 .46044923 .31477867 .47021485 .2783203 .47021485 .24088542 .47021485 .21126302 .45589195 .18945313 .4272461 .16764324 .39860026 .15673828 .3582357 .15673828 .30615235V0H.06933594V.41552735C.06933594 .47705079 .068359378 .51464846 .06640625 .5283203H.14941406C.14973958 .5266927 .15006511 .52229818 .15039063 .5151367 .15071614 .5079753 .15112305 .49975587 .15161133 .49047853 .15209961 .48120118 .15266927 .46370445 .15332031 .43798829H.15478516C.17366536 .4754232 .1953125 .50146487 .21972656 .5161133 .24414063 .5307617 .27392579 .53808596 .30908204 .53808596 .3491211 .53808596 .38077799 .53011068 .40405274 .51416018 .42732749 .49820964 .44352214 .472819 .45263673 .43798829H.45410157C.47233073 .47347007 .49438478 .49902345 .5202637 .51464846 .5461426 .53027346 .57747396 .53808596 .6142578 .53808596 .66764327 .53808596 .7064616 .5236003 .7307129 .4946289 .7549642 .46565757 .76708987 .4181315 .76708987 .35205079V0H.6801758V.33496095C.6801758 .38606773 .67317709 .42138673 .6591797 .44091798 .6451823 .46044923 .6199544 .47021485 .5834961 .47021485 .54508468 .47021485 .5152181 .4559733 .49389649 .42749024 .47257487 .39900718 .46191407 .3585612 .46191407 .30615235V0H.375Z"/>
<path id="font_37_68" d="M.20214844-.009765625C.14908855-.009765625 .10921224 .004231771 .08251953 .032226564 .055826826 .060221357 .04248047 .09863281 .04248047 .14746094 .04248047 .20214844 .060465497 .24414063 .09643555 .2734375 .1324056 .30273438 .19042969 .31835938 .2705078 .3203125L.38916017 .32226563V.35107423C.38916017 .39404298 .38004557 .4248047 .3618164 .44335938 .34358726 .46191407 .3149414 .4711914 .2758789 .4711914 .23649089 .4711914 .20784505 .46455384 .1899414 .4512787 .17203777 .4380137 .16129558 .41681925 .15771485 .3876953L.06591797 .39596559C.08089193 .4907125 .15152996 .53808596 .27783204 .53808596 .34423829 .53808596 .39420573 .52286788 .42773438 .49243165 .46126304 .46199546 .47802735 .41796876 .47802735 .36035157V.1328125C.47802735 .106770839 .4814453 .0871582 .48828126 .07397461 .4951172 .060791017 .508138 .05419922 .52734377 .05419922 .5358073 .05419922 .54541018 .055338544 .55615237 .057617189V.0029296876C.5340169-.0022786458 .51139327-.0048828127 .48828126-.0048828127 .45572917-.0048828127 .43204753 .0036621094 .41723634 .020751954 .40242515 .037841798 .39404298 .06461588 .39208985 .10107422H.38916017C.36669923 .060709638 .34057618 .032145185 .31079103 .015380859 .28100587-.0013834635 .24479167-.009765625 .20214844-.009765625M.22216797 .056152345C.25439454 .056152345 .28304038 .06347656 .30810548 .078125 .33317057 .09277344 .35294596 .11287435 .36743165 .13842774 .38191734 .16398113 .38916017 .19026692 .38916017 .21728516V.2607422L.29296876 .25878907C.2516276 .25813804 .22029622 .25390626 .19897461 .24609375 .177653 .23828125 .16129558 .22623699 .14990235 .20996094 .13850911 .19368489 .1328125 .17236328 .1328125 .1459961 .1328125 .11735026 .14054363 .095214847 .15600586 .079589847 .1714681 .063964847 .19352214 .056152345 .22216797 .056152345Z"/>
<path id="font_37_78" d="M.3984375 0 .21972656 .24121094 .15527344 .18798828V0H.06738281V.7246094H.15527344V.27197267L.38720704 .5283203H.49023438L.2758789 .30126954 .50146487 0H.3984375Z"/>
<path id="font_37_86" d="M.4638672 .14613343C.4638672 .09628805 .44506837 .057840986 .4074707 .030792237 .36987306 .003753662 .31722007-.009765625 .24951172-.009765625 .18375652-.009765625 .13305664 .0010579428 .09741211 .022705079 .061767579 .044352216 .03857422 .078125 .027832032 .12402344L.10546875 .13916016C.11295573 .110839847 .12841797 .09008789 .15185547 .0769043 .17529297 .0637207 .20784505 .057128908 .24951172 .057128908 .29410807 .057128908 .32674156 .063975017 .3474121 .07766724 .36808268 .09136963 .37841798 .11191305 .37841798 .13929749 .37841798 .16015117 .3712565 .1770935 .3569336 .19012451 .3426107 .20315552 .3194987 .21390789 .28759767 .22238159L.22460938 .23899842C.17415364 .25202943 .13826497 .26481629 .11694336 .277359 .09562174 .28990174 .078938808 .30513 .06689453 .32304383 .05485026 .3409678 .048828126 .36296083 .048828126 .38902284 .048828126 .43725077 .06599935 .47398887 .1003418 .49923707 .13468425 .5244853 .18473308 .5371094 .25048829 .5371094 .3087565 .5371094 .35506187 .52685549 .3894043 .50634768 .42374674 .48583985 .44547526 .45296226 .45458985 .40771485L.37548829 .39794923C.37060548 .42138673 .35750328 .43937174 .33618165 .4519043 .31486003 .46443687 .28629557 .47070313 .25048829 .47070313 .21077474 .47070313 .18147786 .4646708 .16259766 .4526062 .14371746 .4405416 .13427735 .4222819 .13427735 .39782716 .13427735 .38284303 .1381836 .37046305 .1459961 .36068727 .1538086 .35091148 .16536458 .3426005 .18066406 .3357544 .19596355 .32891847 .22819011 .31947328 .27734376 .30741883 .32389323 .2956899 .35742188 .28485618 .3779297 .2749176 .3984375 .26497904 .41463218 .25398255 .42651368 .2419281 .43839518 .22987366 .44759117 .21594239 .45410157 .20013428 .46061198 .18433635 .4638672 .16633606 .4638672 .14613343Z"/>
<path id="font_37_70" d="M.13427735 .26660157C.13427735 .19628906 .14534505 .14420574 .16748047 .11035156 .18961589 .0764974 .22298177 .059570314 .26757813 .059570314 .29882813 .059570314 .32495118 .06803385 .34594728 .08496094 .36694337 .10188802 .3798828 .12792969 .38476563 .16308594L.4736328 .15722656C.46679688 .10644531 .44514976 .06591797 .4086914 .03564453 .37223307 .0053710939 .32600913-.009765625 .27001954-.009765625 .1961263-.009765625 .13972982 .013590495 .10083008 .060302736 .06193034 .10701498 .04248047 .1751302 .04248047 .26464845 .04248047 .35351563 .06201172 .42130534 .10107422 .46801759 .14013672 .5147298 .1961263 .53808596 .26904298 .53808596 .32307945 .53808596 .36791993 .5241292 .40356446 .49621583 .43920899 .4683024 .46158854 .42984519 .47070313 .38084413L.3803711 .37402345C.3758138 .40316773 .3642578 .4263204 .34570313 .44348146 .32714845 .46065269 .30078126 .46923829 .26660157 .46923829 .22005208 .46923829 .18636067 .45377604 .16552735 .42285157 .14469402 .3919271 .13427735 .33984376 .13427735 .26660157Z"/>
<path id="font_37_81" d="M.40283204 0V.33496095C.40283204 .36979167 .39941407 .3968099 .39257813 .41601563 .3857422 .43522135 .37483726 .449056 .35986329 .45751954 .3448893 .46598307 .32291667 .47021485 .2939453 .47021485 .2516276 .47021485 .21826172 .45572917 .19384766 .4267578 .1694336 .39778648 .15722656 .35758464 .15722656 .30615235V0H.06933594V.41552735C.06933594 .47705079 .068359378 .51464846 .06640625 .5283203H.14941406C.14973958 .5266927 .15006511 .52229818 .15039063 .5151367 .15071614 .5079753 .15112305 .49975587 .15161133 .49047853 .15209961 .48120118 .15266927 .46370445 .15332031 .43798829H.15478516C.17496746 .47444663 .19832357 .50024417 .22485352 .51538088 .25138346 .5305176 .28434245 .53808596 .32373048 .53808596 .3816732 .53808596 .42407228 .52368167 .45092774 .49487306 .4777832 .46606446 .49121095 .41845704 .49121095 .35205079V0H.40283204Z"/>
<path id="font_37_87" d="M.2705078 .00390625C.24153646-.00390625 .21191406-.0078125 .18164063-.0078125 .111328128-.0078125 .076171878 .0320638 .076171878 .111816409V.46435548H.015136719V.5283203H.079589847L.10546875 .6464844H.1640625V.5283203H.26171876V.46435548H.1640625V.13085938C.1640625 .10546875 .16821289 .087646488 .17651367 .07739258 .18481446 .06713867 .19921875 .06201172 .21972656 .06201172 .23144531 .06201172 .24837239 .06429037 .2705078 .068847659V.00390625Z"/>
<clipPath id="clip_38">
<path transform="matrix(.24,0,0,.24,0,0)" d="M25.030978 25.030978H1655.1734V1323.513H25.030978Z" fill-rule="evenodd"/>
</clipPath>
<clipPath id="clip_39">
<path transform="matrix(.24,0,0,.24,206.87999,117.119998)" d="M0 0H770V57H0Z" fill-rule="evenodd"/>
</clipPath>
<clipPath id="clip_40">
<path transform="matrix(.24,0,0,.24,0,0)" d="M862.7438 488.10408H1628.6973V544.42379H862.7438Z" fill-rule="evenodd"/>
</clipPath>
<path id="font_37_43" d="M.5473633 0V.31933595H.17529297V0H.08203125V.68847659H.17529297V.39746095H.5473633V.68847659H.640625V0H.5473633Z"/>
<path id="font_37_89" d="M.2993164 0H.1953125L.0034179688 .5283203H.09716797L.2133789 .18457031C.21761067 .17154949 .22884114 .13297527 .24707031 .068847659L.26416017 .12597656 .28320313 .18359375 .4033203 .5283203H.49658204L.2993164 0Z"/>
<path id="font_37_74" d="M.26757813-.20800781C.20996094-.20800781 .1640625-.19669597 .12988281-.17407227 .095703128-.15144857 .07373047-.11930338 .063964847-.07763672L.15234375-.064941409C.15820313-.08935547 .17114258-.1081543 .19116211-.12133789 .21118164-.13452149 .23746746-.14111328 .27001954-.14111328 .35758464-.14111328 .4013672-.08972168 .4013672 .013061523V.098236087H.40039063C.38378907 .0643514 .3610026 .038853963 .33203126 .021743775 .3030599 .0046437585 .26920573-.00390625 .23046875-.00390625 .16569011-.00390625 .11808268 .01759847 .087646488 .06060791 .057210287 .10361735 .041992189 .17122396 .041992189 .26342774 .041992189 .3569336 .05834961 .42592369 .09106445 .47039796 .1237793 .51487228 .17350261 .5371094 .24023438 .5371094 .27766929 .5371094 .31013999 .52855429 .33764649 .5114441 .36515299 .4943441 .38639323 .46999107 .4013672 .438385H.40234376C.40234376 .44810996 .40299479 .46496073 .40429688 .48893739 .40559898 .5129242 .40690104 .5260518 .40820313 .5283203H.49169923C.4897461 .510732 .48876954 .47424827 .48876954 .41886903V.014801025C.48876954-.1337382 .41503907-.20800781 .26757813-.20800781M.4013672 .2644043C.4013672 .30742393 .3955078 .34449259 .38378907 .37561036 .3720703 .40673829 .35555015 .43053184 .33422853 .44699098 .3129069 .4634501 .28873698 .4716797 .26171876 .4716797 .21679688 .4716797 .18408203 .4553833 .16357422 .42279054 .1430664 .39019776 .1328125 .33740235 .1328125 .2644043 .1328125 .19204712 .14241536 .14006043 .1616211 .108444217 .18082683 .07683817 .21370442 .061035158 .2602539 .061035158 .2879232 .061035158 .3125 .06918335 .33398438 .08547974 .35546876 .10177612 .3720703 .12515767 .38378907 .15562439 .3955078 .18610128 .4013672 .22236125 .4013672 .2644043Z"/>
<path id="font_37_76" d="M.06689453 .640625V.7246094H.15478516V.640625H.06689453M.06689453 0V.5283203H.15478516V0H.06689453Z"/>
<path id="font_37_73" d="M.17626953 .46435548V0H.088378909V.46435548H.014160156V.5283203H.088378909V.5878906C.088378909 .6360677 .098958339 .67073568 .12011719 .69189456 .14127605 .7130534 .17366536 .7236328 .21728516 .7236328 .24169922 .7236328 .26236979 .7216797 .27929688 .71777346V.6508789C.26464845 .6534831 .2516276 .65478518 .24023438 .65478518 .21777344 .65478518 .20149739 .64908859 .19140625 .6376953 .18131511 .62630209 .17626953 .60563156 .17626953 .5756836V.5283203H.27929688V.46435548H.17626953Z"/>
<path id="font_37_85" d="M.06933594 0V.40527345C.06933594 .4423828 .068359378 .48339845 .06640625 .5283203H.14941406C.15201824 .46842448 .15332031 .43245445 .15332031 .42041017H.15527344C.16927083 .46565757 .18538411 .49658204 .20361328 .5131836 .22184246 .52978518 .2475586 .53808596 .28076173 .53808596 .29248048 .53808596 .30436198 .5364583 .31640626 .5332031V.45263673C.3046875 .45589195 .2890625 .45751954 .26953126 .45751954 .23307292 .45751954 .20524089 .44181315 .18603516 .4104004 .16682942 .37898765 .15722656 .33398438 .15722656 .27539063V0H.06933594Z"/>
<clipPath id="clip_41">
<path transform="matrix(.24,0,0,.24,0,0)" d="M25.030978 25.030978H1655.1734V1323.513H25.030978Z" fill-rule="evenodd"/>
</clipPath>
<clipPath id="clip_42">
<path transform="matrix(.24,0,0,.24,12,192.95999)" d="M0 0H529V113H0Z" fill-rule="evenodd"/>
</clipPath>
<clipPath id="clip_43">
<path transform="matrix(.24,0,0,.24,0,0)" d="M50.041704 804.1202H575.2669V916.7596H50.041704Z" fill-rule="evenodd"/>
</clipPath>
<path id="font_37_84" d="M.23632813-.009765625C.16927083-.009765625 .12011719 .012858073 .08886719 .05810547 .057617189 .10335287 .041992189 .17122396 .041992189 .26171876 .041992189 .44596354 .106770839 .53808596 .23632813 .53808596 .2763672 .53808596 .30940757 .53100588 .33544923 .5168457 .36149089 .50268557 .38330079 .47916667 .4008789 .44628907H.40185548C.40185548 .4560547 .4025065 .4729004 .4038086 .49682618 .4051107 .52075198 .40641276 .5335286 .40771485 .53515627H.4921875C.48990885 .51594039 .48876954 .4678955 .48876954 .39102174V-.20800781H.4008789V.0066986086L.40283204 .08691406H.40185548C.38427735 .052083333 .36263023 .02726237 .33691407 .012451172 .3111979-.0023600262 .27766929-.009765625 .23632813-.009765625M.4008789 .2705078C.4008789 .33919273 .38964845 .39013673 .3671875 .42333985 .34472657 .45654298 .30891929 .47314454 .25976563 .47314454 .21516927 .47314454 .18310547 .45654298 .16357422 .42333985 .14404297 .39013673 .13427735 .3372396 .13427735 .26464845 .13427735 .1907552 .14412435 .13785808 .16381836 .10595703 .18351238 .07405599 .21516927 .05810547 .25878907 .05810547 .30859376 .05810547 .34472657 .07584635 .3671875 .111328128 .38964845 .14680989 .4008789 .1998698 .4008789 .2705078Z"/>
<path id="font_37_88" d="M.15332031 .5283203V.19335938C.15332031 .15852864 .15673828 .13151042 .16357422 .11230469 .17041016 .09309896 .18131511 .07926432 .19628906 .07080078 .21126302 .06233724 .23323567 .05810547 .26220704 .05810547 .30452476 .05810547 .33789063 .07259115 .3623047 .1015625 .38671876 .13053386 .39892579 .17073567 .39892579 .22216797V.5283203H.4868164V.11279297C.4868164 .05126953 .48779298 .013671875 .4897461 0H.40673829C.40641276 .0016276041 .40608726 .0060221354 .40576173 .013183594 .4054362 .020345053 .4050293 .028564454 .40454103 .037841798 .40405274 .04711914 .40348307 .06461588 .40283204 .09033203H.4013672C.3811849 .0538737 .35782878 .028076172 .33129884 .012939453 .3047689-.0021972657 .2718099-.009765625 .23242188-.009765625 .17447917-.009765625 .13208008 .004638672 .10522461 .033447267 .07836914 .06225586 .064941409 .10986328 .064941409 .17626953V.5283203H.15332031Z"/>
<path id="font_37_15" d="M.18798828 .107421878V.025222779C.18798828-.009353638 .18489583-.038223268 .17871094-.06138611 .17252605-.08454895 .16292317-.10673014 .14990235-.12792969H.08984375C.12044271-.08365885 .13574219-.041015626 .13574219 0H.09277344V.107421878H.18798828Z"/>
<clipPath id="clip_44">
<path transform="matrix(.24,0,0,.24,0,0)" d="M25.030978 25.030978H1655.1734V1323.513H25.030978Z" fill-rule="evenodd"/>
</clipPath>
<clipPath id="clip_45">
<path transform="matrix(.24,0,0,.24,90,155.04)" d="M0 0H598V57H0Z" fill-rule="evenodd"/>
</clipPath>
<clipPath id="clip_46">
<path transform="matrix(.24,0,0,.24,0,0)" d="M375.3521 646.1121H969.3568V702.4318H375.3521Z" fill-rule="evenodd"/>
</clipPath>
<path id="font_37_75" d="M.15478516 .43798829C.17366536 .4724935 .19637044 .49780274 .22290039 .513916 .24943035 .5300293 .28304038 .53808596 .32373048 .53808596 .38102214 .53808596 .42325846 .5238444 .45043946 .49536134 .47762046 .46687828 .49121095 .41910807 .49121095 .35205079V0H.40283204V.33496095C.40283204 .3720703 .39941407 .3996582 .39257813 .4177246 .3857422 .43579103 .37451173 .449056 .35888673 .45751954 .34326173 .46598307 .3216146 .47021485 .2939453 .47021485 .25260417 .47021485 .21948242 .45589195 .19458008 .4272461 .16967774 .39860026 .15722656 .36002604 .15722656 .31152345V0H.06933594V.7246094H.15722656V.5361328C.15722656 .51627609 .1566569 .49576823 .15551758 .47460938 .15437825 .45345054 .15364583 .4412435 .15332031 .43798829H.15478516Z"/>
<clipPath id="clip_47">
<path transform="matrix(.24,0,0,.24,0,0)" d="M25.030978 25.030978H1655.1734V1323.513H25.030978Z" fill-rule="evenodd"/>
</clipPath>
<clipPath id="clip_48">
<path transform="matrix(.24,0,0,.24,207.59999,199.68)" d="M0 0H129V57H0Z" fill-rule="evenodd"/>
</clipPath>
<clipPath id="clip_49">
<path transform="matrix(.24,0,0,.24,0,0)" d="M865.7968 832.28H990.85049V888.59976H865.7968Z" fill-rule="evenodd"/>
</clipPath>
<path id="font_37_54" d="M.62109377 .1899414C.62109377 .12646485 .59627279 .077311199 .54663088 .04248047 .49698893 .0076497399 .42708335-.009765625 .33691407-.009765625 .16927083-.009765625 .07210287 .048502607 .045410158 .16503906L.13574219 .18310547C.14615886 .14176433 .16829427 .11140951 .20214844 .092041019 .23600261 .07267252 .2820638 .06298828 .34033204 .06298828 .40055339 .06298828 .44702149 .07332357 .47973634 .09399414 .5124512 .11466471 .5288086 .14501953 .5288086 .1850586 .5288086 .20751953 .52368167 .2257487 .51342776 .2397461 .5031738 .2537435 .48876954 .26529948 .47021485 .27441407 .45166017 .28352867 .42952476 .29117839 .4038086 .29736329 .37809245 .3035482 .34960938 .31022135 .31835938 .3173828 .2639974 .3294271 .22273763 .34147135 .19458008 .35351563 .16642253 .3655599 .14420574 .37898765 .12792969 .39379884 .11165365 .40861003 .09920248 .425944 .09057617 .44580079 .08194987 .46565757 .07763672 .488444 .07763672 .51416018 .07763672 .5730794 .10017904 .61848959 .14526367 .6503906 .19034831 .6822917 .2548828 .6982422 .3388672 .6982422 .4169922 .6982422 .47672526 .6862793 .5180664 .6623535 .55940756 .63842776 .5883789 .59765627 .60498049 .54003909L.5131836 .5239258C.50309249 .5603841 .48388673 .5868327 .4555664 .6032715 .4272461 .61971029 .38802085 .6279297 .33789063 .6279297 .2828776 .6279297 .24088542 .6188151 .21191406 .60058596 .1829427 .58235678 .16845703 .5551758 .16845703 .51904299 .16845703 .49788413 .17407227 .48038737 .18530274 .46655274 .1965332 .4527181 .21272786 .44099937 .23388672 .43139649 .25504557 .4217936 .29720054 .4099935 .36035157 .3959961 .3815104 .39111329 .4025879 .38614909 .42358399 .38110353 .44458009 .37605796 .464681 .3700358 .48388673 .3630371 .50309249 .35603843 .52107748 .347819 .5378418 .3383789 .55460616 .3289388 .56917318 .3173828 .58154299 .30371095 .5939128 .29003907 .603597 .27392579 .6105957 .2553711 .6175944 .2368164 .62109377 .21500652 .62109377 .1899414Z"/>
<path id="font_37_90" d="M.5732422 0H.4711914L.37890626 .37353517 .36132813 .4560547C.35839845 .44140626 .35384117 .42032878 .34765626 .39282228 .34147135 .36531578 .30826823 .234375 .24804688 0H.14648438L-.0014648438 .5283203H.08544922L.17480469 .1694336C.17708333 .1616211 .18408203 .12939453 .19580078 .072753909L.20410156 .10888672 .31445313 .5283203H.4086914L.50097659 .16552735 .5234375 .072753909 .5385742 .140625 .6386719 .5283203H.7246094L.5732422 0Z"/>
<path id="font_37_83" d="M.51416018 .2668457C.51416018 .08243815 .4493815-.009765625 .31982423-.009765625 .23844402-.009765625 .18375652 .020858765 .15576172 .082107547H.15332031C.15462239 .07950338 .15527344 .051778158 .15527344-.0010681152V-.20800781H.06738281V.42033387C.06738281 .47473655 .06640625 .510732 .064453128 .5283203H.14941406C.14973958 .5270284 .15022786 .5224101 .1508789 .51446536 .15152996 .50653079 .15226238 .4942983 .15307617 .47776795 .15388997 .46124778 .15429688 .4499105 .15429688 .4437561H.15625C.171875 .4763387 .19254558 .50020346 .21826172 .51535037 .24397786 .5305074 .27783204 .53808596 .31982423 .53808596 .38492839 .53808596 .43359376 .5162557 .4658203 .4725952 .49804688 .42893473 .51416018 .36035157 .51416018 .2668457M.421875 .26489259C.421875 .33855186 .41194663 .39118449 .39208985 .42279054 .37223307 .45440675 .34065757 .47021485 .29736329 .47021485 .26253257 .47021485 .23527019 .46288047 .21557617 .44821168 .19588216 .43355308 .1809082 .4106598 .1706543 .37953187 .16040039 .34840394 .15527344 .3079122 .15527344 .25805665 .15527344 .18863933 .16634114 .13747151 .18847656 .10455322 .21061199 .071634929 .24658203 .05517578 .29638673 .05517578 .3400065 .05517578 .37182618 .07122294 .3918457 .10331726 .41186524 .13542176 .421875 .1892802 .421875 .26489259Z"/>
<clipPath id="clip_50">
<path transform="matrix(.24,0,0,.24,0,0)" d="M25.030978 25.030978H1655.1734V1323.513H25.030978Z" fill-rule="evenodd"/>
</clipPath>
<clipPath id="clip_51">
<path transform="matrix(.24,0,0,.24,252.72,199.68)" d="M0 0H129V57H0Z" fill-rule="evenodd"/>
</clipPath>
<clipPath id="clip_52">
<path transform="matrix(.24,0,0,.24,0,0)" d="M1053.475 832.28H1178.5286V888.59976H1053.475Z" fill-rule="evenodd"/>
</clipPath>
<clipPath id="clip_53">
<path transform="matrix(.24,0,0,.24,0,0)" d="M25.030978 25.030978H1655.1734V1323.513H25.030978Z" fill-rule="evenodd"/>
</clipPath>
<clipPath id="clip_54">
<path transform="matrix(.24,0,0,.24,0,0)" d="M238.00072 330.096H763.22598V386.4157H238.00072Z" fill-rule="evenodd"/>
</clipPath>
<path id="font_37_38" d="M.38671876 .6220703C.31054688 .6220703 .2513021 .5975749 .20898438 .548584 .16666667 .4995931 .14550781 .43245445 .14550781 .34716798 .14550781 .26285807 .16756185 .19506836 .21166992 .14379883 .25577799 .0925293 .3154297 .06689453 .390625 .06689453 .48697917 .06689453 .55940756 .114583339 .60791018 .20996094L.68408206 .171875C.6557617 .11263021 .6159668 .06754557 .56469729 .036621095 .51342776 .0056966149 .4539388-.009765625 .38623048-.009765625 .31689454-.009765625 .25691734 .004638672 .20629883 .033447267 .15568035 .06225586 .11710612 .10343424 .09057617 .15698242 .06404623 .2105306 .05078125 .27392579 .05078125 .34716798 .05078125 .4568685 .08040365 .54280599 .13964844 .60498049 .19889324 .66715499 .28092448 .6982422 .3857422 .6982422 .45898438 .6982422 .5201823 .6839549 .56933596 .65538027 .61848959 .6268056 .6546224 .5844269 .6777344 .528244L.58935549 .49902345C.57340499 .5388997 .5477702 .56937667 .5124512 .5904541 .47713218 .61153158 .43522135 .6220703 .38671876 .6220703Z"/>
<path id="font_37_40" d="M.08203125 0V.68847659H.6040039V.6123047H.17529297V.39160157H.57470706V.31640626H.17529297V.076171878H.62402346V0H.08203125Z"/>
<path id="font_37_69" d="M.51416018 .26660157C.51416018 .08235677 .4493815-.009765625 .31982423-.009765625 .27978517-.009765625 .24650066-.0025227864 .2199707 .011962891 .19344075 .026448569 .171875 .049804689 .15527344 .08203125H.15429688C.15429688 .0719401 .15364583 .056559247 .15234375 .035888673 .15104167 .015218099 .15006511 .0032552083 .14941406 0H.064453128C.06640625 .017578125 .06738281 .0538737 .06738281 .10888672V.7246094H.15527344V.5180664C.15527344 .49690757 .15462239 .47200523 .15332031 .44335938H.15527344C.17154949 .47721354 .19311524 .50146487 .2199707 .5161133 .24682617 .5307617 .2801107 .53808596 .31982423 .53808596 .386556 .53808596 .43562828 .515625 .46704103 .47070313 .49845378 .42578126 .51416018 .3577474 .51416018 .26660157M.421875 .26367188C.421875 .3375651 .41210938 .39046226 .39257813 .42236329 .37304688 .4542643 .3413086 .47021485 .29736329 .47021485 .24788411 .47021485 .21183269 .45328776 .18920899 .4194336 .16658528 .38557945 .15527344 .3318685 .15527344 .25830079 .15527344 .18896485 .16634114 .13777669 .18847656 .10473633 .21061199 .07169596 .24658203 .05517578 .29638673 .05517578 .34065757 .05517578 .37263999 .0715332 .39233399 .10424805 .41202799 .13696289 .421875 .19010417 .421875 .26367188Z"/>
<path id="font_37_79" d="M.06738281 0V.7246094H.15527344V0H.06738281Z"/>
<clipPath id="clip_55">
<path transform="matrix(.24,0,0,.24,0,0)" d="M25.030978 25.030978H1655.1734V1323.513H25.030978Z" fill-rule="evenodd"/>
</clipPath>
<clipPath id="clip_56">
<path transform="matrix(.24,0,0,.24,0,0)" d="M1103.2522 646.1121H1390.8755V702.4318H1103.2522Z" fill-rule="evenodd"/>
</clipPath>
<path id="font_37_41" d="M.17529297 .6123047V.3564453H.55908206V.27929688H.17529297V0H.08203125V.68847659H.5708008V.6123047H.17529297Z"/>
<path id="font_37_52" d="M.72998049 .34716798C.72998049 .25016276 .7055664 .17041016 .6567383 .107910159 .60791018 .045410158 .54003909 .008463542 .453125-.0029296876 .46647135-.044118246 .4839681-.07386271 .50561526-.092163089 .5272624-.11047363 .5546875-.119628909 .5878906-.119628909 .60579428-.119628909 .6245117-.11751302 .64404299-.11328125V-.17871094C.61376956-.18587239 .58479818-.18945313 .5571289-.18945313 .5079753-.18945313 .4675293-.17549642 .43579103-.14758301 .40405274-.11967977 .37809245-.0730896 .35791017-.0078125 .29345704-.0045572917 .23787435 .01180013 .19116211 .041259767 .14444988 .0707194 .108805339 .11173502 .084228519 .16430664 .05965169 .21687825 .04736328 .27783204 .04736328 .34716798 .04736328 .457194 .07747396 .5432129 .13769531 .6052246 .19791667 .6672363 .28173829 .6982422 .38916017 .6982422 .45914714 .6982422 .51985678 .6843262 .57128909 .65649417 .6227214 .6286621 .662028 .5882161 .689209 .53515627 .71638998 .48209635 .72998049 .4194336 .72998049 .34716798M.6347656 .34716798C.6347656 .43277995 .6133626 .5 .57055667 .5488281 .5277507 .59765627 .46728517 .6220703 .38916017 .6220703 .31038413 .6220703 .24951172 .59798178 .20654297 .5498047 .16357422 .5016276 .14208985 .43408204 .14208985 .34716798 .14208985 .26090495 .16381836 .19246419 .20727539 .1418457 .25073243 .09122721 .31103517 .06591797 .3881836 .06591797 .4676107 .06591797 .52856448 .090413417 .5710449 .1394043 .6135254 .18839519 .6347656 .25764976 .6347656 .34716798Z"/>
<clipPath id="clip_57">
<path transform="matrix(.24,0,0,.24,0,0)" d="M25.030978 25.030978H1655.1734V1323.513H25.030978Z" fill-rule="evenodd"/>
</clipPath>
<clipPath id="clip_58">
<path transform="matrix(.24,0,0,.24,0,0)" d="M638.83187 1018.44796H1060.8878V1074.7676H638.83187Z" fill-rule="evenodd"/>
</clipPath>
<path id="font_37_53" d="M.5683594 0 .38964845 .28564454H.17529297V0H.08203125V.68847659H.40576173C.4832357 .68847659 .5430501 .67112228 .5852051 .6364136 .62736007 .6017049 .6484375 .55338546 .6484375 .49145509 .6484375 .44028727 .6335449 .39726258 .60375979 .36238099 .5739746 .32750956 .5328776 .30551148 .48046876 .29638673L.67578127 0H.5683594M.5546875 .49047853C.5546875 .53059896 .541097 .56117758 .513916 .58221438 .48673503 .60325118 .44759117 .61376956 .39648438 .61376956H.17529297V.359375H.40039063C.44954429 .359375 .48754884 .37086997 .5144043 .39385987 .54125979 .41685996 .5546875 .44906617 .5546875 .49047853Z"/>
<path id="font_37_48" d="M.6669922 0V.4593506C.6669922 .51017257 .66845706 .5590413 .6713867 .60595706 .6554362 .54763796 .6411133 .5020294 .62841799 .46913148L.4506836 0H.3852539L.20507813 .46913148 .17773438 .5522003 .1616211 .60595706 .16308594 .55171206 .16503906 .4593506V0H.08203125V.68847659H.20458985L.3876953 .21102906C.39420573 .19180298 .40047203 .17119344 .40649415 .14920044 .41251628 .1272176 .4165039 .111338298 .41845704 .1015625 .4210612 .114593509 .42651368 .13438416 .43481446 .16093445 .44311524 .18748474 .44873048 .20418294 .45166017 .21102906L.63134768 .68847659H.75097659V0H.6669922Z"/>
<clipPath id="clip_59">
<path transform="matrix(.24,0,0,.24,0,0)" d="M25.030978 25.030978H1655.1734V1323.513H25.030978Z" fill-rule="evenodd"/>
</clipPath>
</defs>
<g>
<g clip-path="url(#clip_1)">
<path transform="matrix(.7509293,0,0,.7509293,6.0074346,6.0074346)" d="M0 0H521V415H0Z" fill="#ffffff"/>
</g>
<g clip-path="url(#clip_2)">
<path transform="matrix(.75032177,0,0,.7509293,6.0074346,6.0074346)" stroke-width="1" stroke-linecap="butt" stroke-miterlimit="4" stroke-linejoin="miter" fill="none" stroke="#000000" d="M152.17578 22V27.666666C152.17578 33.333333 152.17578 44.666669 152.17578 56 152.17578 67.333339 152.17578 78.666667 152.17578 84.333339V90"/>
</g>
<g clip-path="url(#clip_3)">
<g clip-path="url(#clip_4)">
<g clip-path="url(#clip_5)">
<path transform="matrix(.000000000000000045943958,.7509293,-.75032177,.00000000000000004598116,125.44048,59.323415)" d="M19 7 9 13 14 7 9 1 19 7Z"/>
</g>
</g>
</g>
<g clip-path="url(#clip_6)">
<path transform="matrix(.75032177,0,0,.7509293,6.0074346,6.0074346)" stroke-width="1" stroke-linecap="butt" stroke-miterlimit="4" stroke-linejoin="miter" fill="none" stroke="#000000" d="M230.10535 123 256.86906 128.66667C283.63273 134.33333 337.16014 145.66667 363.9238 157 390.6875 168.33333 390.6875 179.66667 390.6875 185.33333V191"/>
</g>
<g clip-path="url(#clip_7)">
<g clip-path="url(#clip_8)">
<g clip-path="url(#clip_9)">
<path transform="matrix(.000000000000000045943958,.7509293,-.75032177,.00000000000000004598116,304.40104,135.16728)" d="M19 7 9 13 14 7 9 1 19 7Z"/>
</g>
</g>
</g>
<g clip-path="url(#clip_10)">
<path transform="matrix(.75032177,0,0,.7509293,6.0074346,6.0074346)" stroke-width="1" stroke-linecap="butt" stroke-miterlimit="4" stroke-linejoin="miter" fill="none" stroke="#000000" d="M132.53226 123 125.785999 128.66667C119.039737 134.33333 105.54721 145.66667 98.80095 159.75 92.05469 173.83333 92.05469 190.66667 92.05469 209 92.05469 227.33333 92.05469 247.16667 92.05469 267 92.05469 286.83335 92.05469 306.66667 92.05469 323.5 92.05469 340.33335 92.05469 354.16667 128.71717 366.25376 165.37964 378.34083 238.70458 388.68165 275.36708 393.85209L312.02955 399.0225"/>
</g>
<g clip-path="url(#clip_11)">
<g clip-path="url(#clip_12)">
<g clip-path="url(#clip_13)">
<path transform="matrix(.74296978,.10486385,-.10477901,.7435714,226.74703,298.4477)" d="M19 7 9 13 14 7 9 1 19 7Z"/>
</g>
</g>
</g>
<g clip-path="url(#clip_14)">
<path transform="matrix(.75032177,0,0,.7509293,6.0074346,6.0074346)" stroke-width="1" stroke-linecap="butt" stroke-miterlimit="4" stroke-linejoin="miter" fill="none" stroke="#000000" d="M170.16011 123 176.33657 128.66667C182.513 134.33333 194.86588 145.66667 201.04232 159.75 207.21875 173.83333 207.21875 190.66667 207.21875 209 207.21875 227.33333 207.21875 247.16667 214.04807 264.25 220.87738 281.33335 234.53603 295.66667 241.36534 302.83335L248.19466 310"/>
</g>
<g clip-path="url(#clip_15)">
<g clip-path="url(#clip_16)">
<g clip-path="url(#clip_17)">
<path transform="matrix(.51761946,.54362758,-.5431877,.5180386,186.20082,224.84035)" d="M19 7 9 13 14 7 9 1 19 7Z"/>
</g>
</g>
</g>
<g clip-path="url(#clip_18)">
<path transform="matrix(.75032177,0,0,.7509293,6.0074346,6.0074346)" stroke-width="1" stroke-linecap="butt" stroke-miterlimit="4" stroke-linejoin="miter" fill="none" stroke="#000000" d="M362.47328 224 350.21864 231.16667C337.96397 238.33333 313.45463 252.66667 298.1855 267 282.91633 281.33335 276.88734 295.66667 273.87284 302.83335L270.85835 310"/>
</g>
<g clip-path="url(#clip_19)">
<g clip-path="url(#clip_20)">
<g clip-path="url(#clip_21)">
<path transform="matrix(-.290918,.69218817,-.69162818,-.29115356,219.60718,227.68204)" d="M19 7 9 13 14 7 9 1 19 7Z"/>
</g>
</g>
</g>
<g clip-path="url(#clip_22)">
<path transform="matrix(.75032177,0,0,.7509293,6.0074346,6.0074346)" stroke-width="1" stroke-linecap="butt" stroke-miterlimit="4" stroke-linejoin="miter" fill="none" stroke="#000000" d="M287.50566 310 297.7508 302.83335C307.99595 295.66667 328.48628 281.33335 343.7554 267 359.02458 252.66667 369.0726 238.33333 374.0966 231.16667L379.1206 224"/>
</g>
<g clip-path="url(#clip_23)">
<g clip-path="url(#clip_24)">
<g clip-path="url(#clip_25)">
<path transform="matrix(.4307039,-.61488899,.61439147,.43105266,277.98579,182.88112)" d="M19 7 9 13 14 7 9 1 19 7Z"/>
</g>
</g>
</g>
<g clip-path="url(#clip_26)">
<path transform="matrix(.75032177,0,0,.7509293,6.0074346,6.0074346)" stroke-width="1" stroke-linecap="butt" stroke-miterlimit="4" stroke-linejoin="miter" fill="none" stroke="#000000" d="M263.91798 343V347.16667C263.91798 351.33335 263.91798 359.66667 272.0832 368.5803 280.2484 377.49394 296.57887 386.98786 304.74409 391.73484L312.9093 396.4818"/>
</g>
<g clip-path="url(#clip_27)">
<g clip-path="url(#clip_28)">
<g clip-path="url(#clip_29)">
<path transform="matrix(.648667,.37741799,-.3771126,.6491922,231.1052,292.02195)" d="M19 7 9 13 14 7 9 1 19 7Z"/>
</g>
</g>
</g>
<g clip-path="url(#clip_30)">
<path transform="matrix(.75032177,0,0,.7509293,6.0074346,6.0074346)" stroke-width="1" stroke-linecap="butt" stroke-miterlimit="4" stroke-linejoin="miter" fill="none" stroke="#000000" d="M396.23588 224 398.64579 231.16667C401.0557 238.33333 405.8755 252.66667 408.2854 269.75 410.6953 286.83335 410.6953 306.66667 410.6953 323.5 410.6953 340.33335 410.6953 354.16667 396.5078 366.0324 382.3203 377.89814 353.94535 387.79627 339.75785 392.74537L325.57035 397.69444"/>
</g>
<g clip-path="url(#clip_31)">
<g clip-path="url(#clip_32)">
<g clip-path="url(#clip_33)">
<path transform="matrix(-.7084549,.24733252,-.24713238,-.70902857,265.4805,304.91175)" d="M19 7 9 13 14 7 9 1 19 7Z"/>
</g>
</g>
</g>
<g clip-path="url(#clip_34)">
<g opacity=".5">
<g clip-path="url(#clip_35)">
<path transform="matrix(.75032177,0,0,.7509293,65.4675,41.30111)" d="M0 0H145.85938V18H0Z" fill="#eeeeee"/>
</g>
</g>
</g>
<g clip-path="url(#clip_36)">
<use data-text="N" xlink:href="#font_37_49" transform="matrix(12.005148,0,0,-12.014869,65.4675,51.814119)"/>
<use data-text="o" xlink:href="#font_37_82" transform="matrix(12.005148,0,0,-12.014869,74.135219,51.814119)"/>
<use data-text="d" xlink:href="#font_37_71" transform="matrix(12.005148,0,0,-12.014869,80.81008,51.814119)"/>
<use data-text="e" xlink:href="#font_37_72" transform="matrix(12.005148,0,0,-12.014869,87.48494,51.814119)"/>
<use data-text=" " xlink:href="#font_37_3" transform="matrix(12.005148,0,0,-12.014869,94.159809,51.814119)"/>
<use data-text="m" xlink:href="#font_37_80" transform="matrix(12.005148,0,0,-12.014869,97.49724,51.814119)"/>
<use data-text="a" xlink:href="#font_37_68" transform="matrix(12.005148,0,0,-12.014869,107.49753,51.814119)"/>
<use data-text="k" xlink:href="#font_37_78" transform="matrix(12.005148,0,0,-12.014869,114.17239,51.814119)"/>
<use data-text="e" xlink:href="#font_37_72" transform="matrix(12.005148,0,0,-12.014869,120.174968,51.814119)"/>
<use data-text="s" xlink:href="#font_37_86" transform="matrix(12.005148,0,0,-12.014869,126.84983,51.814119)"/>
<use data-text=" " xlink:href="#font_37_3" transform="matrix(12.005148,0,0,-12.014869,132.8524,51.814119)"/>
<use data-text="c" xlink:href="#font_37_70" transform="matrix(12.005148,0,0,-12.014869,136.18984,51.814119)"/>
<use data-text="o" xlink:href="#font_37_82" transform="matrix(12.005148,0,0,-12.014869,142.19242,51.814119)"/>
<use data-text="n" xlink:href="#font_37_81" transform="matrix(12.005148,0,0,-12.014869,148.86728,51.814119)"/>
<use data-text="t" xlink:href="#font_37_87" transform="matrix(12.005148,0,0,-12.014869,155.54215,51.814119)"/>
<use data-text="a" xlink:href="#font_37_68" transform="matrix(12.005148,0,0,-12.014869,158.87958,51.814119)"/>
<use data-text="c" xlink:href="#font_37_70" transform="matrix(12.005148,0,0,-12.014869,165.55443,51.814119)"/>
<use data-text="t" xlink:href="#font_37_87" transform="matrix(12.005148,0,0,-12.014869,171.557,51.814119)"/>
</g>
<g clip-path="url(#clip_38)">
<g opacity=".5">
<g clip-path="url(#clip_39)">
<path transform="matrix(.75032177,0,0,.7509293,207.0585,117.14497)" d="M0 0H245.46875V18H0Z" fill="#eeeeee"/>
</g>
</g>
</g>
<g clip-path="url(#clip_40)">
<use data-text="H" xlink:href="#font_37_43" transform="matrix(12.005148,0,0,-12.014869,207.0585,127.65798)"/>
<use data-text="a" xlink:href="#font_37_68" transform="matrix(12.005148,0,0,-12.014869,215.72623,127.65798)"/>
<use data-text="v" xlink:href="#font_37_89" transform="matrix(12.005148,0,0,-12.014869,222.40108,127.65798)"/>
<use data-text="e" xlink:href="#font_37_72" transform="matrix(12.005148,0,0,-12.014869,228.40366,127.65798)"/>
<use data-text=" " xlink:href="#font_37_3" transform="matrix(12.005148,0,0,-12.014869,235.07852,127.65798)"/>
<use data-text="m" xlink:href="#font_37_80" transform="matrix(12.005148,0,0,-12.014869,238.41596,127.65798)"/>
<use data-text="e" xlink:href="#font_37_72" transform="matrix(12.005148,0,0,-12.014869,248.41625,127.65798)"/>
<use data-text="s" xlink:href="#font_37_86" transform="matrix(12.005148,0,0,-12.014869,255.0911,127.65798)"/>
<use data-text="s" xlink:href="#font_37_86" transform="matrix(12.005148,0,0,-12.014869,261.0937,127.65798)"/>
<use data-text="a" xlink:href="#font_37_68" transform="matrix(12.005148,0,0,-12.014869,267.09626,127.65798)"/>
<use data-text="g" xlink:href="#font_37_74" transform="matrix(12.005148,0,0,-12.014869,273.77113,127.65798)"/>
<use data-text="e" xlink:href="#font_37_72" transform="matrix(12.005148,0,0,-12.014869,280.44599,127.65798)"/>
<use data-text="s" xlink:href="#font_37_86" transform="matrix(12.005148,0,0,-12.014869,287.12086,127.65798)"/>
<use data-text=" " xlink:href="#font_37_3" transform="matrix(12.005148,0,0,-12.014869,293.1234,127.65798)"/>
<use data-text="d" xlink:href="#font_37_71" transform="matrix(12.005148,0,0,-12.014869,296.46086,127.65798)"/>
<use data-text="e" xlink:href="#font_37_72" transform="matrix(12.005148,0,0,-12.014869,303.1357,127.65798)"/>
<use data-text="s" xlink:href="#font_37_86" transform="matrix(12.005148,0,0,-12.014869,309.81059,127.65798)"/>
<use data-text="t" xlink:href="#font_37_87" transform="matrix(12.005148,0,0,-12.014869,315.81315,127.65798)"/>
<use data-text="i" xlink:href="#font_37_76" transform="matrix(12.005148,0,0,-12.014869,319.15058,127.65798)"/>
<use data-text="n" xlink:href="#font_37_81" transform="matrix(12.005148,0,0,-12.014869,321.81575,127.65798)"/>
<use data-text="e" xlink:href="#font_37_72" transform="matrix(12.005148,0,0,-12.014869,328.4906,127.65798)"/>
<use data-text="d" xlink:href="#font_37_71" transform="matrix(12.005148,0,0,-12.014869,335.16545,127.65798)"/>
<use data-text=" " xlink:href="#font_37_3" transform="matrix(12.005148,0,0,-12.014869,341.8403,127.65798)"/>
<use data-text="f" xlink:href="#font_37_73" transform="matrix(12.005148,0,0,-12.014869,345.17774,127.65798)"/>
<use data-text="o" xlink:href="#font_37_82" transform="matrix(12.005148,0,0,-12.014869,348.51518,127.65798)"/>
<use data-text="r" xlink:href="#font_37_85" transform="matrix(12.005148,0,0,-12.014869,355.19,127.65798)"/>
<use data-text=" " xlink:href="#font_37_3" transform="matrix(12.005148,0,0,-12.014869,359.18775,127.65798)"/>
<use data-text="N" xlink:href="#font_37_49" transform="matrix(12.005148,0,0,-12.014869,362.52516,127.65798)"/>
<use data-text="o" xlink:href="#font_37_82" transform="matrix(12.005148,0,0,-12.014869,371.19288,127.65798)"/>
<use data-text="d" xlink:href="#font_37_71" transform="matrix(12.005148,0,0,-12.014869,377.86775,127.65798)"/>
<use data-text="e" xlink:href="#font_37_72" transform="matrix(12.005148,0,0,-12.014869,384.5426,127.65798)"/>
</g>
<g clip-path="url(#clip_41)">
<g opacity=".5">
<g clip-path="url(#clip_42)">
<path transform="matrix(.75032177,0,0,.7509293,12.010009,192.98883)" d="M0 0H168.10938V36H0Z" fill="#eeeeee"/>
</g>
</g>
</g>
<g clip-path="url(#clip_43)">
<use data-text="N" xlink:href="#font_37_49" transform="matrix(12.005148,0,0,-12.014869,12.010008,203.50186)"/>
<use data-text="o" xlink:href="#font_37_82" transform="matrix(12.005148,0,0,-12.014869,20.677727,203.50186)"/>
<use data-text=" " xlink:href="#font_37_3" transform="matrix(12.005148,0,0,-12.014869,27.352589,203.50186)"/>
<use data-text="m" xlink:href="#font_37_80" transform="matrix(12.005148,0,0,-12.014869,30.69002,203.50186)"/>
<use data-text="e" xlink:href="#font_37_72" transform="matrix(12.005148,0,0,-12.014869,40.690309,203.50186)"/>
<use data-text="s" xlink:href="#font_37_86" transform="matrix(12.005148,0,0,-12.014869,47.365175,203.50186)"/>
<use data-text="s" xlink:href="#font_37_86" transform="matrix(12.005148,0,0,-12.014869,53.367746,203.50186)"/>
<use data-text="a" xlink:href="#font_37_68" transform="matrix(12.005148,0,0,-12.014869,59.370317,203.50186)"/>
<use data-text="g" xlink:href="#font_37_74" transform="matrix(12.005148,0,0,-12.014869,66.04518,203.50186)"/>
<use data-text="e" xlink:href="#font_37_72" transform="matrix(12.005148,0,0,-12.014869,72.72005,203.50186)"/>
<use data-text="s" xlink:href="#font_37_86" transform="matrix(12.005148,0,0,-12.014869,79.39491,203.50186)"/>
<use data-text=" " xlink:href="#font_37_3" transform="matrix(12.005148,0,0,-12.014869,85.39749,203.50186)"/>
<use data-text="i" xlink:href="#font_37_76" transform="matrix(12.005148,0,0,-12.014869,88.73492,203.50186)"/>
<use data-text="n" xlink:href="#font_37_81" transform="matrix(12.005148,0,0,-12.014869,91.40006,203.50186)"/>
<use data-text=" " xlink:href="#font_37_3" transform="matrix(12.005148,0,0,-12.014869,98.07493,203.50186)"/>
<use data-text="q" xlink:href="#font_37_84" transform="matrix(12.005148,0,0,-12.014869,101.41236,203.50186)"/>
<use data-text="u" xlink:href="#font_37_88" transform="matrix(12.005148,0,0,-12.014869,108.08723,203.50186)"/>
<use data-text="e" xlink:href="#font_37_72" transform="matrix(12.005148,0,0,-12.014869,114.762088,203.50186)"/>
<use data-text="u" xlink:href="#font_37_88" transform="matrix(12.005148,0,0,-12.014869,121.43694,203.50186)"/>
<use data-text="e" xlink:href="#font_37_72" transform="matrix(12.005148,0,0,-12.014869,128.1118,203.50186)"/>
<use data-text="," xlink:href="#font_37_15" transform="matrix(12.005148,0,0,-12.014869,134.78665,203.50186)"/>
<use data-text="N" xlink:href="#font_37_49" transform="matrix(12.005148,0,0,-12.014869,12.010008,217.01859)"/>
<use data-text="o" xlink:href="#font_37_82" transform="matrix(12.005148,0,0,-12.014869,20.677727,217.01859)"/>
<use data-text="n" xlink:href="#font_37_81" transform="matrix(12.005148,0,0,-12.014869,27.352589,217.01859)"/>
<use data-text="e" xlink:href="#font_37_72" transform="matrix(12.005148,0,0,-12.014869,34.02745,217.01859)"/>
<use data-text=" " xlink:href="#font_37_3" transform="matrix(12.005148,0,0,-12.014869,40.702314,217.01859)"/>
<use data-text="t" xlink:href="#font_37_87" transform="matrix(12.005148,0,0,-12.014869,44.03974,217.01859)"/>
<use data-text="o" xlink:href="#font_37_82" transform="matrix(12.005148,0,0,-12.014869,47.377176,217.01859)"/>
<use data-text=" " xlink:href="#font_37_3" transform="matrix(12.005148,0,0,-12.014869,54.05204,217.01859)"/>
<use data-text="r" xlink:href="#font_37_85" transform="matrix(12.005148,0,0,-12.014869,57.389474,217.01859)"/>
<use data-text="e" xlink:href="#font_37_72" transform="matrix(12.005148,0,0,-12.014869,61.387186,217.01859)"/>
<use data-text="c" xlink:href="#font_37_70" transform="matrix(12.005148,0,0,-12.014869,68.06205,217.01859)"/>
<use data-text="e" xlink:href="#font_37_72" transform="matrix(12.005148,0,0,-12.014869,74.06463,217.01859)"/>
<use data-text="i" xlink:href="#font_37_76" transform="matrix(12.005148,0,0,-12.014869,80.739498,217.01859)"/>
<use data-text="v" xlink:href="#font_37_89" transform="matrix(12.005148,0,0,-12.014869,83.40463,217.01859)"/>
<use data-text="e" xlink:href="#font_37_72" transform="matrix(12.005148,0,0,-12.014869,89.40721,217.01859)"/>
</g>
<g clip-path="url(#clip_44)">
<g opacity=".5">
<g clip-path="url(#clip_45)">
<path transform="matrix(.75032177,0,0,.7509293,90.0845,155.06691)" d="M0 0H190.32813V18H0Z" fill="#eeeeee"/>
</g>
</g>
</g>
<g clip-path="url(#clip_46)">
<use data-text="N" xlink:href="#font_37_49" transform="matrix(12.005148,0,0,-12.014869,90.0845,165.57993)"/>
<use data-text="o" xlink:href="#font_37_82" transform="matrix(12.005148,0,0,-12.014869,98.75222,165.57993)"/>
<use data-text="d" xlink:href="#font_37_71" transform="matrix(12.005148,0,0,-12.014869,105.427089,165.57993)"/>
<use data-text="e" xlink:href="#font_37_72" transform="matrix(12.005148,0,0,-12.014869,112.101947,165.57993)"/>
<use data-text=" " xlink:href="#font_37_3" transform="matrix(12.005148,0,0,-12.014869,118.77681,165.57993)"/>
<use data-text="h" xlink:href="#font_37_75" transform="matrix(12.005148,0,0,-12.014869,122.11424,165.57993)"/>
<use data-text="a" xlink:href="#font_37_68" transform="matrix(12.005148,0,0,-12.014869,128.78911,165.57993)"/>
<use data-text="s" xlink:href="#font_37_86" transform="matrix(12.005148,0,0,-12.014869,135.46396,165.57993)"/>
<use data-text=" " xlink:href="#font_37_3" transform="matrix(12.005148,0,0,-12.014869,141.46654,165.57993)"/>
<use data-text="m" xlink:href="#font_37_80" transform="matrix(12.005148,0,0,-12.014869,144.80397,165.57993)"/>
<use data-text="e" xlink:href="#font_37_72" transform="matrix(12.005148,0,0,-12.014869,154.80426,165.57993)"/>
<use data-text="s" xlink:href="#font_37_86" transform="matrix(12.005148,0,0,-12.014869,161.47913,165.57993)"/>
<use data-text="s" xlink:href="#font_37_86" transform="matrix(12.005148,0,0,-12.014869,167.48169,165.57993)"/>
<use data-text="a" xlink:href="#font_37_68" transform="matrix(12.005148,0,0,-12.014869,173.48427,165.57993)"/>
<use data-text="g" xlink:href="#font_37_74" transform="matrix(12.005148,0,0,-12.014869,180.15914,165.57993)"/>
<use data-text="e" xlink:href="#font_37_72" transform="matrix(12.005148,0,0,-12.014869,186.834,165.57993)"/>
<use data-text="s" xlink:href="#font_37_86" transform="matrix(12.005148,0,0,-12.014869,193.50885,165.57993)"/>
<use data-text=" " xlink:href="#font_37_3" transform="matrix(12.005148,0,0,-12.014869,199.51145,165.57993)"/>
<use data-text="f" xlink:href="#font_37_73" transform="matrix(12.005148,0,0,-12.014869,202.84886,165.57993)"/>
<use data-text="o" xlink:href="#font_37_82" transform="matrix(12.005148,0,0,-12.014869,206.1863,165.57993)"/>
<use data-text="r" xlink:href="#font_37_85" transform="matrix(12.005148,0,0,-12.014869,212.86115,165.57993)"/>
<use data-text=" " xlink:href="#font_37_3" transform="matrix(12.005148,0,0,-12.014869,216.85887,165.57993)"/>
<use data-text="u" xlink:href="#font_37_88" transform="matrix(12.005148,0,0,-12.014869,220.1963,165.57993)"/>
<use data-text="s" xlink:href="#font_37_86" transform="matrix(12.005148,0,0,-12.014869,226.87116,165.57993)"/>
</g>
<g clip-path="url(#clip_47)">
<g opacity=".5">
<g clip-path="url(#clip_48)">
<path transform="matrix(.75032177,0,0,.7509293,207.79123,199.7472)" d="M0 0H40.03125V18H0Z" fill="#eeeeee"/>
</g>
</g>
</g>
<g clip-path="url(#clip_49)">
<use data-text="S" xlink:href="#font_37_54" transform="matrix(12.005148,0,0,-12.014869,207.79123,210.26023)"/>
<use data-text="w" xlink:href="#font_37_90" transform="matrix(12.005148,0,0,-12.014869,215.79866,210.26023)"/>
<use data-text="a" xlink:href="#font_37_68" transform="matrix(12.005148,0,0,-12.014869,224.46639,210.26023)"/>
<use data-text="p" xlink:href="#font_37_83" transform="matrix(12.005148,0,0,-12.014869,231.14125,210.26023)"/>
</g>
<g clip-path="url(#clip_50)">
<g opacity=".5">
<g clip-path="url(#clip_51)">
<path transform="matrix(.75032177,0,0,.7509293,252.834,199.7472)" d="M0 0H40.03125V18H0Z" fill="#eeeeee"/>
</g>
</g>
</g>
<g clip-path="url(#clip_52)">
<use data-text="S" xlink:href="#font_37_54" transform="matrix(12.005148,0,0,-12.014869,252.83399,210.26023)"/>
<use data-text="w" xlink:href="#font_37_90" transform="matrix(12.005148,0,0,-12.014869,260.84144,210.26023)"/>
<use data-text="a" xlink:href="#font_37_68" transform="matrix(12.005148,0,0,-12.014869,269.50914,210.26023)"/>
<use data-text="p" xlink:href="#font_37_83" transform="matrix(12.005148,0,0,-12.014869,276.184,210.26023)"/>
</g>
<g clip-path="url(#clip_53)">
<path transform="matrix(.75032177,0,0,.7509293,120.18823,85.98141)" d="M-86.55469-16.5H86.55469C87.21772-16.499999 87.85552-16.37313 88.468097-16.119397 89.080669-15.865662 89.62137-15.5043749 90.09022-15.035534 90.55905-14.566692 90.92034-14.025987 91.17407-13.413417 91.4278-12.800846 91.55468-12.163041 91.55469-11.5V11.5C91.55468 12.163041 91.4278 12.800846 91.17407 13.413417 90.92034 14.025987 90.55905 14.566692 90.09022 15.035534 89.62137 15.5043749 89.080669 15.865662 88.468097 16.119397 87.85552 16.37313 87.21772 16.499999 86.55469 16.5H-86.55469C-87.21772 16.499999-87.85552 16.37313-88.468097 16.119397-89.080669 15.865662-89.62137 15.5043749-90.09022 15.035534-90.55905 14.566692-90.92034 14.025987-91.17407 13.413417-91.4278 12.800846-91.55468 12.163041-91.55469 11.5V-11.5C-91.55468-12.163041-91.4278-12.800846-91.17407-13.413417-90.92034-14.025987-90.55905-14.566692-90.09022-15.035534-89.62137-15.5043749-89.080669-15.865662-88.468097-16.119397-87.85552-16.37313-87.21772-16.499999-86.55469-16.5Z" fill="#eeeeee"/>
<path transform="matrix(.75032177,0,0,.7509293,120.18823,85.98141)" stroke-width="1" stroke-linecap="butt" stroke-miterlimit="4" stroke-linejoin="miter" fill="none" stroke="#000000" d="M-86.55469-16.5H86.55469C87.21772-16.499999 87.85552-16.37313 88.468097-16.119397 89.080669-15.865662 89.62137-15.5043749 90.09022-15.035534 90.55905-14.566692 90.92034-14.025987 91.17407-13.413417 91.4278-12.800846 91.55468-12.163041 91.55469-11.5V11.5C91.55468 12.163041 91.4278 12.800846 91.17407 13.413417 90.92034 14.025987 90.55905 14.566692 90.09022 15.035534 89.62137 15.5043749 89.080669 15.865662 88.468097 16.119397 87.85552 16.37313 87.21772 16.499999 86.55469 16.5H-86.55469C-87.21772 16.499999-87.85552 16.37313-88.468097 16.119397-89.080669 15.865662-89.62137 15.5043749-90.09022 15.035534-90.55905 14.566692-90.92034 14.025987-91.17407 13.413417-91.4278 12.800846-91.55468 12.163041-91.55469 11.5V-11.5C-91.55468-12.163041-91.4278-12.800846-91.17407-13.413417-90.92034-14.025987-90.55905-14.566692-90.09022-15.035534-89.62137-15.5043749-89.080669-15.865662-88.468097-16.119397-87.85552-16.37313-87.21772-16.499999-86.55469-16.5Z"/>
</g>
<g clip-path="url(#clip_54)">
<use data-text="C" xlink:href="#font_37_38" transform="matrix(12.005148,0,0,-12.014869,57.12017,89.736049)" fill="#111111"/>
<use data-text="o" xlink:href="#font_37_82" transform="matrix(12.005148,0,0,-12.014869,65.78789,89.736049)" fill="#111111"/>
<use data-text="n" xlink:href="#font_37_81" transform="matrix(12.005148,0,0,-12.014869,72.46275,89.736049)" fill="#111111"/>
<use data-text="n" xlink:href="#font_37_81" transform="matrix(12.005148,0,0,-12.014869,79.13761,89.736049)" fill="#111111"/>
<use data-text="e" xlink:href="#font_37_72" transform="matrix(12.005148,0,0,-12.014869,85.81248,89.736049)" fill="#111111"/>
<use data-text="c" xlink:href="#font_37_70" transform="matrix(12.005148,0,0,-12.014869,92.487339,89.736049)" fill="#111111"/>
<use data-text="t" xlink:href="#font_37_87" transform="matrix(12.005148,0,0,-12.014869,98.489917,89.736049)" fill="#111111"/>
<use data-text="i" xlink:href="#font_37_76" transform="matrix(12.005148,0,0,-12.014869,101.82735,89.736049)" fill="#111111"/>
<use data-text="o" xlink:href="#font_37_82" transform="matrix(12.005148,0,0,-12.014869,104.49249,89.736049)" fill="#111111"/>
<use data-text="n" xlink:href="#font_37_81" transform="matrix(12.005148,0,0,-12.014869,111.16735,89.736049)" fill="#111111"/>
<use data-text=" " xlink:href="#font_37_3" transform="matrix(12.005148,0,0,-12.014869,117.84222,89.736049)" fill="#111111"/>
<use data-text="E" xlink:href="#font_37_40" transform="matrix(12.005148,0,0,-12.014869,121.17964,89.736049)" fill="#111111"/>
<use data-text="s" xlink:href="#font_37_86" transform="matrix(12.005148,0,0,-12.014869,129.18708,89.736049)" fill="#111111"/>
<use data-text="t" xlink:href="#font_37_87" transform="matrix(12.005148,0,0,-12.014869,135.18965,89.736049)" fill="#111111"/>
<use data-text="a" xlink:href="#font_37_68" transform="matrix(12.005148,0,0,-12.014869,138.52707,89.736049)" fill="#111111"/>
<use data-text="b" xlink:href="#font_37_69" transform="matrix(12.005148,0,0,-12.014869,145.20194,89.736049)" fill="#111111"/>
<use data-text="l" xlink:href="#font_37_79" transform="matrix(12.005148,0,0,-12.014869,151.8768,89.736049)" fill="#111111"/>
<use data-text="i" xlink:href="#font_37_76" transform="matrix(12.005148,0,0,-12.014869,154.54196,89.736049)" fill="#111111"/>
<use data-text="s" xlink:href="#font_37_86" transform="matrix(12.005148,0,0,-12.014869,157.20709,89.736049)" fill="#111111"/>
<use data-text="h" xlink:href="#font_37_75" transform="matrix(12.005148,0,0,-12.014869,163.20967,89.736049)" fill="#111111"/>
<use data-text="e" xlink:href="#font_37_72" transform="matrix(12.005148,0,0,-12.014869,169.88452,89.736049)" fill="#111111"/>
<use data-text="d" xlink:href="#font_37_71" transform="matrix(12.005148,0,0,-12.014869,176.55939,89.736049)" fill="#111111"/>
</g>
<g clip-path="url(#clip_55)">
<path transform="matrix(.75032177,0,0,.7509293,299.14878,161.82527)" d="M-48.304689-16.5H48.304689C48.967725-16.499999 49.60553-16.37313 50.2181-16.119397 50.83067-15.865662 51.371377-15.5043749 51.84022-15.035534 52.30906-14.566692 52.670347-14.025987 52.92408-13.413417 53.177816-12.800846 53.304685-12.163041 53.304689-11.5V11.5C53.304685 12.163041 53.177816 12.800846 52.92408 13.413417 52.670347 14.025987 52.30906 14.566692 51.84022 15.035534 51.371377 15.5043749 50.83067 15.865662 50.2181 16.119397 49.60553 16.37313 48.967725 16.499999 48.304689 16.5H-48.304689C-48.967725 16.499999-49.60553 16.37313-50.2181 16.119397-50.83067 15.865662-51.371377 15.5043749-51.84022 15.035534-52.30906 14.566692-52.670347 14.025987-52.92408 13.413417-53.177816 12.800846-53.304685 12.163041-53.304689 11.5V-11.5C-53.304685-12.163041-53.177816-12.800846-52.92408-13.413417-52.670347-14.025987-52.30906-14.566692-51.84022-15.035534-51.371377-15.5043749-50.83067-15.865662-50.2181-16.119397-49.60553-16.37313-48.967725-16.499999-48.304689-16.5Z" fill="#eeeeee"/>
<path transform="matrix(.75032177,0,0,.7509293,299.14878,161.82527)" stroke-width="1" stroke-linecap="butt" stroke-miterlimit="4" stroke-linejoin="miter" fill="none" stroke="#000000" d="M-48.304689-16.5H48.304689C48.967725-16.499999 49.60553-16.37313 50.2181-16.119397 50.83067-15.865662 51.371377-15.5043749 51.84022-15.035534 52.30906-14.566692 52.670347-14.025987 52.92408-13.413417 53.177816-12.800846 53.304685-12.163041 53.304689-11.5V11.5C53.304685 12.163041 53.177816 12.800846 52.92408 13.413417 52.670347 14.025987 52.30906 14.566692 51.84022 15.035534 51.371377 15.5043749 50.83067 15.865662 50.2181 16.119397 49.60553 16.37313 48.967725 16.499999 48.304689 16.5H-48.304689C-48.967725 16.499999-49.60553 16.37313-50.2181 16.119397-50.83067 15.865662-51.371377 15.5043749-51.84022 15.035534-52.30906 14.566692-52.670347 14.025987-52.92408 13.413417-53.177816 12.800846-53.304685 12.163041-53.304689 11.5V-11.5C-53.304685-12.163041-53.177816-12.800846-52.92408-13.413417-52.670347-14.025987-52.30906-14.566692-51.84022-15.035534-51.371377-15.5043749-50.83067-15.865662-50.2181-16.119397-49.60553-16.37313-48.967725-16.499999-48.304689-16.5Z"/>
</g>
<g clip-path="url(#clip_56)">
<use data-text="F" xlink:href="#font_37_41" transform="matrix(12.005148,0,0,-12.014869,264.78053,165.57993)" fill="#111111"/>
<use data-text="l" xlink:href="#font_37_79" transform="matrix(12.005148,0,0,-12.014869,272.11567,165.57993)" fill="#111111"/>
<use data-text="u" xlink:href="#font_37_88" transform="matrix(12.005148,0,0,-12.014869,274.7808,165.57993)" fill="#111111"/>
<use data-text="s" xlink:href="#font_37_86" transform="matrix(12.005148,0,0,-12.014869,281.45567,165.57993)" fill="#111111"/>
<use data-text="h" xlink:href="#font_37_75" transform="matrix(12.005148,0,0,-12.014869,287.45826,165.57993)" fill="#111111"/>
<use data-text=" " xlink:href="#font_37_3" transform="matrix(12.005148,0,0,-12.014869,294.13313,165.57993)" fill="#111111"/>
<use data-text="Q" xlink:href="#font_37_52" transform="matrix(12.005148,0,0,-12.014869,297.47056,165.57993)" fill="#111111"/>
<use data-text="u" xlink:href="#font_37_88" transform="matrix(12.005148,0,0,-12.014869,306.81056,165.57993)" fill="#111111"/>
<use data-text="e" xlink:href="#font_37_72" transform="matrix(12.005148,0,0,-12.014869,313.4854,165.57993)" fill="#111111"/>
<use data-text="u" xlink:href="#font_37_88" transform="matrix(12.005148,0,0,-12.014869,320.16029,165.57993)" fill="#111111"/>
<use data-text="e" xlink:href="#font_37_72" transform="matrix(12.005148,0,0,-12.014869,326.83515,165.57993)" fill="#111111"/>
</g>
<g clip-path="url(#clip_57)">
<path transform="matrix(.75032177,0,0,.7509293,204.03084,251.18587)" d="M-70.08594-16.5H70.08594C70.74897-16.499999 71.38677-16.37313 71.999347-16.119397 72.611919-15.865662 73.15262-15.5043749 73.62147-15.035534 74.0903-14.566692 74.45159-14.025987 74.70532-13.413417 74.95906-12.800846 75.08593-12.163041 75.08594-11.5V11.5C75.08593 12.163041 74.95906 12.800846 74.70532 13.413417 74.45159 14.025987 74.0903 14.566692 73.62147 15.035534 73.15262 15.5043749 72.611919 15.865662 71.999347 16.119397 71.38677 16.37313 70.74897 16.499999 70.08594 16.5H-70.08594C-70.74897 16.499999-71.38677 16.37313-71.999347 16.119397-72.611919 15.865662-73.15262 15.5043749-73.62147 15.035534-74.0903 14.566692-74.45159 14.025987-74.70532 13.413417-74.95906 12.800846-75.08593 12.163041-75.08594 11.5V-11.5C-75.08593-12.163041-74.95906-12.800846-74.70532-13.413417-74.45159-14.025987-74.0903-14.566692-73.62147-15.035534-73.15262-15.5043749-72.611919-15.865662-71.999347-16.119397-71.38677-16.37313-70.74897-16.499999-70.08594-16.5Z" fill="#eeeeee"/>
<path transform="matrix(.75032177,0,0,.7509293,204.03084,251.18587)" stroke-width="1" stroke-linecap="butt" stroke-miterlimit="4" stroke-linejoin="miter" fill="none" stroke="#000000" d="M-70.08594-16.5H70.08594C70.74897-16.499999 71.38677-16.37313 71.999347-16.119397 72.611919-15.865662 73.15262-15.5043749 73.62147-15.035534 74.0903-14.566692 74.45159-14.025987 74.70532-13.413417 74.95906-12.800846 75.08593-12.163041 75.08594-11.5V11.5C75.08593 12.163041 74.95906 12.800846 74.70532 13.413417 74.45159 14.025987 74.0903 14.566692 73.62147 15.035534 73.15262 15.5043749 72.611919 15.865662 71.999347 16.119397 71.38677 16.37313 70.74897 16.499999 70.08594 16.5H-70.08594C-70.74897 16.499999-71.38677 16.37313-71.999347 16.119397-72.611919 15.865662-73.15262 15.5043749-73.62147 15.035534-74.0903 14.566692-74.45159 14.025987-74.70532 13.413417-74.95906 12.800846-75.08593 12.163041-75.08594 11.5V-11.5C-75.08593-12.163041-74.95906-12.800846-74.70532-13.413417-74.45159-14.025987-74.0903-14.566692-73.62147-15.035534-73.15262-15.5043749-72.611919-15.865662-71.999347-16.119397-71.38677-16.37313-70.74897-16.499999-70.08594-16.5Z"/>
</g>
<g clip-path="url(#clip_58)">
<use data-text="R" xlink:href="#font_37_53" transform="matrix(12.005148,0,0,-12.014869,153.31964,254.94052)" fill="#111111"/>
<use data-text="e" xlink:href="#font_37_72" transform="matrix(12.005148,0,0,-12.014869,161.98737,254.94052)" fill="#111111"/>
<use data-text="c" xlink:href="#font_37_70" transform="matrix(12.005148,0,0,-12.014869,168.66222,254.94052)" fill="#111111"/>
<use data-text="e" xlink:href="#font_37_72" transform="matrix(12.005148,0,0,-12.014869,174.6648,254.94052)" fill="#111111"/>
<use data-text="i" xlink:href="#font_37_76" transform="matrix(12.005148,0,0,-12.014869,181.33966,254.94052)" fill="#111111"/>
<use data-text="v" xlink:href="#font_37_89" transform="matrix(12.005148,0,0,-12.014869,184.0048,254.94052)" fill="#111111"/>
<use data-text="e" xlink:href="#font_37_72" transform="matrix(12.005148,0,0,-12.014869,190.00739,254.94052)" fill="#111111"/>
<use data-text=" " xlink:href="#font_37_3" transform="matrix(12.005148,0,0,-12.014869,196.68224,254.94052)" fill="#111111"/>
<use data-text="M" xlink:href="#font_37_48" transform="matrix(12.005148,0,0,-12.014869,200.01967,254.94052)" fill="#111111"/>
<use data-text="e" xlink:href="#font_37_72" transform="matrix(12.005148,0,0,-12.014869,210.01996,254.94052)" fill="#111111"/>
<use data-text="s" xlink:href="#font_37_86" transform="matrix(12.005148,0,0,-12.014869,216.69483,254.94052)" fill="#111111"/>
<use data-text="s" xlink:href="#font_37_86" transform="matrix(12.005148,0,0,-12.014869,222.6974,254.94052)" fill="#111111"/>
<use data-text="a" xlink:href="#font_37_68" transform="matrix(12.005148,0,0,-12.014869,228.69998,254.94052)" fill="#111111"/>
<use data-text="g" xlink:href="#font_37_74" transform="matrix(12.005148,0,0,-12.014869,235.37485,254.94052)" fill="#111111"/>
<use data-text="e" xlink:href="#font_37_72" transform="matrix(12.005148,0,0,-12.014869,242.04972,254.94052)" fill="#111111"/>
<use data-text="s" xlink:href="#font_37_86" transform="matrix(12.005148,0,0,-12.014869,248.72458,254.94052)" fill="#111111"/>
</g>
<g clip-path="url(#clip_59)">
<path transform="matrix(.75032177,0,0,.7509293,120.18823,17.271374)" d="M7 0C6.9999997 .45962657 6.9551646 .91483727 6.8654959 1.3656322 6.775827 1.8164272 6.6430475 2.2541445 6.467156 2.678784 6.2912647 3.1034234 6.075641 3.506826 5.8202865 3.888991 5.5649316 4.2711565 5.2747519 4.624742 4.949747 4.949747 4.624742 5.2747519 4.2711565 5.5649316 3.888991 5.8202865 3.506826 6.075641 3.1034234 6.2912647 2.678784 6.467156 2.2541445 6.6430475 1.8164272 6.7758276 1.3656322 6.865496 .91483727 6.955165 .45962657 6.9999997 0 7-.45962657 6.9999997-.91483727 6.9551646-1.3656322 6.8654959-1.8164272 6.775827-2.2541445 6.6430475-2.678784 6.467156-3.1034234 6.2912647-3.506826 6.075641-3.888991 5.8202865-4.2711565 5.5649316-4.624742 5.2747519-4.949747 4.949747-5.2747519 4.624742-5.5649316 4.2711565-5.8202865 3.888991-6.075641 3.506826-6.2912647 3.1034234-6.467156 2.678784-6.6430475 2.2541445-6.7758276 1.8164272-6.865496 1.3656322-6.955165 .91483727-6.9999997 .45962657-7 0-6.9999997-.45962657-6.9551646-.91483727-6.8654959-1.3656322-6.775827-1.8164272-6.6430475-2.2541445-6.467156-2.678784-6.2912647-3.1034234-6.075641-3.506826-5.8202865-3.888991-5.5649316-4.2711565-5.2747519-4.624742-4.949747-4.949747-4.624742-5.2747519-4.2711565-5.5649316-3.888991-5.8202865-3.506826-6.075641-3.1034234-6.2912647-2.678784-6.467156-2.2541445-6.6430475-1.8164272-6.7758276-1.3656322-6.865496-.91483727-6.955165-.45962657-6.9999997 0-7 .45962657-6.9999997 .91483727-6.9551646 1.3656322-6.8654959 1.8164272-6.775827 2.2541445-6.6430475 2.678784-6.467156 3.1034234-6.2912647 3.506826-6.075641 3.888991-5.8202865 4.2711565-5.5649316 4.624742-5.2747519 4.949747-4.949747 5.2747519-4.624742 5.5649316-4.2711565 5.8202865-3.888991 6.075641-3.506826 6.2912647-3.1034234 6.467156-2.678784 6.6430475-2.2541445 6.7758276-1.8164272 6.865496-1.3656322 6.955165-.91483727 6.9999997-.45962657 7 0Z" fill="#222222"/>
<path transform="matrix(.75032177,0,0,.7509293,120.18823,17.271374)" stroke-width="1" stroke-linecap="butt" stroke-miterlimit="4" stroke-linejoin="miter" fill="none" stroke="#222222" d="M7 0C6.9999997 .45962657 6.9551646 .91483727 6.8654959 1.3656322 6.775827 1.8164272 6.6430475 2.2541445 6.467156 2.678784 6.2912647 3.1034234 6.075641 3.506826 5.8202865 3.888991 5.5649316 4.2711565 5.2747519 4.624742 4.949747 4.949747 4.624742 5.2747519 4.2711565 5.5649316 3.888991 5.8202865 3.506826 6.075641 3.1034234 6.2912647 2.678784 6.467156 2.2541445 6.6430475 1.8164272 6.7758276 1.3656322 6.865496 .91483727 6.955165 .45962657 6.9999997 0 7-.45962657 6.9999997-.91483727 6.9551646-1.3656322 6.8654959-1.8164272 6.775827-2.2541445 6.6430475-2.678784 6.467156-3.1034234 6.2912647-3.506826 6.075641-3.888991 5.8202865-4.2711565 5.5649316-4.624742 5.2747519-4.949747 4.949747-5.2747519 4.624742-5.5649316 4.2711565-5.8202865 3.888991-6.075641 3.506826-6.2912647 3.1034234-6.467156 2.678784-6.6430475 2.2541445-6.7758276 1.8164272-6.865496 1.3656322-6.955165 .91483727-6.9999997 .45962657-7 0-6.9999997-.45962657-6.9551646-.91483727-6.8654959-1.3656322-6.775827-1.8164272-6.6430475-2.2541445-6.467156-2.678784-6.2912647-3.1034234-6.075641-3.506826-5.8202865-3.888991-5.5649316-4.2711565-5.2747519-4.624742-4.949747-4.949747-4.624742-5.2747519-4.2711565-5.5649316-3.888991-5.8202865-3.506826-6.075641-3.1034234-6.2912647-2.678784-6.467156-2.2541445-6.6430475-1.8164272-6.7758276-1.3656322-6.865496-.91483727-6.955165-.45962657-6.9999997 0-7 .45962657-6.9999997 .91483727-6.9551646 1.3656322-6.8654959 1.8164272-6.775827 2.2541445-6.6430475 2.678784-6.467156 3.1034234-6.2912647 3.506826-6.075641 3.888991-5.8202865 4.2711565-5.5649316 4.624742-5.2747519 4.949747-4.949747 5.2747519-4.624742 5.5649316-4.2711565 5.8202865-3.888991 6.075641-3.506826 6.2912647-3.1034234 6.467156-2.678784 6.6430475-2.2541445 6.7758276-1.8164272 6.865496-1.3656322 6.955165-.91483727 6.9999997-.45962657 7 0Z"/>
<path transform="matrix(.75032177,0,0,.7509293,245.33077,306.37916)" d="M7 0C6.9999997 .45962657 6.9551646 .91483727 6.8654959 1.3656322 6.775827 1.8164272 6.6430475 2.2541445 6.467156 2.678784 6.2912647 3.1034234 6.075641 3.506826 5.8202865 3.888991 5.5649316 4.2711565 5.2747519 4.624742 4.949747 4.949747 4.624742 5.2747519 4.2711565 5.5649316 3.888991 5.8202865 3.506826 6.075641 3.1034234 6.2912647 2.678784 6.467156 2.2541445 6.6430475 1.8164272 6.7758276 1.3656322 6.865496 .91483727 6.955165 .45962657 6.9999997 0 7-.45962657 6.9999997-.91483727 6.9551646-1.3656322 6.8654959-1.8164272 6.775827-2.2541445 6.6430475-2.678784 6.467156-3.1034234 6.2912647-3.506826 6.075641-3.888991 5.8202865-4.2711565 5.5649316-4.624742 5.2747519-4.949747 4.949747-5.2747519 4.624742-5.5649316 4.2711565-5.8202865 3.888991-6.075641 3.506826-6.2912647 3.1034234-6.467156 2.678784-6.6430475 2.2541445-6.7758276 1.8164272-6.865496 1.3656322-6.955165 .91483727-6.9999997 .45962657-7 0-6.9999997-.45962657-6.9551646-.91483727-6.8654959-1.3656322-6.775827-1.8164272-6.6430475-2.2541445-6.467156-2.678784-6.2912647-3.1034234-6.075641-3.506826-5.8202865-3.888991-5.5649316-4.2711565-5.2747519-4.624742-4.949747-4.949747-4.624742-5.2747519-4.2711565-5.5649316-3.888991-5.8202865-3.506826-6.075641-3.1034234-6.2912647-2.678784-6.467156-2.2541445-6.6430475-1.8164272-6.7758276-1.3656322-6.865496-.91483727-6.955165-.45962657-6.9999997 0-7 .45962657-6.9999997 .91483727-6.9551646 1.3656322-6.8654959 1.8164272-6.775827 2.2541445-6.6430475 2.678784-6.467156 3.1034234-6.2912647 3.506826-6.075641 3.888991-5.8202865 4.2711565-5.5649316 4.624742-5.2747519 4.949747-4.949747 5.2747519-4.624742 5.5649316-4.2711565 5.8202865-3.888991 6.075641-3.506826 6.2912647-3.1034234 6.467156-2.678784 6.6430475-2.2541445 6.7758276-1.8164272 6.865496-1.3656322 6.955165-.91483727 6.9999997-.45962657 7 0Z" fill="#222222"/>
<path transform="matrix(.75032177,0,0,.7509293,245.33077,306.37916)" stroke-width="1" stroke-linecap="butt" stroke-miterlimit="4" stroke-linejoin="miter" fill="none" stroke="#222222" d="M7 0C6.9999997 .45962657 6.9551646 .91483727 6.8654959 1.3656322 6.775827 1.8164272 6.6430475 2.2541445 6.467156 2.678784 6.2912647 3.1034234 6.075641 3.506826 5.8202865 3.888991 5.5649316 4.2711565 5.2747519 4.624742 4.949747 4.949747 4.624742 5.2747519 4.2711565 5.5649316 3.888991 5.8202865 3.506826 6.075641 3.1034234 6.2912647 2.678784 6.467156 2.2541445 6.6430475 1.8164272 6.7758276 1.3656322 6.865496 .91483727 6.955165 .45962657 6.9999997 0 7-.45962657 6.9999997-.91483727 6.9551646-1.3656322 6.8654959-1.8164272 6.775827-2.2541445 6.6430475-2.678784 6.467156-3.1034234 6.2912647-3.506826 6.075641-3.888991 5.8202865-4.2711565 5.5649316-4.624742 5.2747519-4.949747 4.949747-5.2747519 4.624742-5.5649316 4.2711565-5.8202865 3.888991-6.075641 3.506826-6.2912647 3.1034234-6.467156 2.678784-6.6430475 2.2541445-6.7758276 1.8164272-6.865496 1.3656322-6.955165 .91483727-6.9999997 .45962657-7 0-6.9999997-.45962657-6.9551646-.91483727-6.8654959-1.3656322-6.775827-1.8164272-6.6430475-2.2541445-6.467156-2.678784-6.2912647-3.1034234-6.075641-3.506826-5.8202865-3.888991-5.5649316-4.2711565-5.2747519-4.624742-4.949747-4.949747-4.624742-5.2747519-4.2711565-5.5649316-3.888991-5.8202865-3.506826-6.075641-3.1034234-6.2912647-2.678784-6.467156-2.2541445-6.6430475-1.8164272-6.7758276-1.3656322-6.865496-.91483727-6.955165-.45962657-6.9999997 0-7 .45962657-6.9999997 .91483727-6.9551646 1.3656322-6.8654959 1.8164272-6.775827 2.2541445-6.6430475 2.678784-6.467156 3.1034234-6.2912647 3.506826-6.075641 3.888991-5.8202865 4.2711565-5.5649316 4.624742-5.2747519 4.949747-4.949747 5.2747519-4.624742 5.5649316-4.2711565 5.8202865-3.888991 6.075641-3.506826 6.2912647-3.1034234 6.467156-2.678784 6.6430475-2.2541445 6.7758276-1.8164272 6.865496-1.3656322 6.955165-.91483727 6.9999997-.45962657 7 0Z"/>
<path transform="matrix(.75032177,0,0,.7509293,245.33077,306.37916)" d="M5 0C4.9999997 .6630411 4.873132 1.3008467 4.619397 1.9134169 4.365662 2.5259872 4.0043747 3.0666927 3.5355337 3.5355337 3.0666927 4.0043747 2.5259872 4.365662 1.9134169 4.619397 1.3008467 4.873132 .6630411 4.9999997 0 5-.6630411 4.9999997-1.3008467 4.873132-1.9134169 4.619397-2.5259872 4.365662-3.0666927 4.0043747-3.5355337 3.5355337-4.0043747 3.0666927-4.365662 2.5259872-4.619397 1.9134169-4.873132 1.3008467-4.9999997 .6630411-5 0-4.9999997-.6630411-4.873132-1.3008467-4.619397-1.9134169-4.365662-2.5259872-4.0043747-3.0666927-3.5355337-3.5355337-3.0666927-4.0043747-2.5259872-4.365662-1.9134169-4.619397-1.3008467-4.873132-.6630411-4.9999997 0-5 .6630411-4.9999997 1.3008467-4.873132 1.9134169-4.619397 2.5259872-4.365662 3.0666927-4.0043747 3.5355337-3.5355337 4.0043747-3.0666927 4.365662-2.5259872 4.619397-1.9134169 4.873132-1.3008467 4.9999997-.6630411 5 0Z" fill="#d5d5d5"/>
<path transform="matrix(.75032177,0,0,.7509293,245.33077,306.37916)" stroke-width="1.5" stroke-linecap="butt" stroke-miterlimit="4" stroke-linejoin="miter" fill="none" stroke="#ffffff" d="M5 0C4.9999997 .6630411 4.873132 1.3008467 4.619397 1.9134169 4.365662 2.5259872 4.0043747 3.0666927 3.5355337 3.5355337 3.0666927 4.0043747 2.5259872 4.365662 1.9134169 4.619397 1.3008467 4.873132 .6630411 4.9999997 0 5-.6630411 4.9999997-1.3008467 4.873132-1.9134169 4.619397-2.5259872 4.365662-3.0666927 4.0043747-3.5355337 3.5355337-4.0043747 3.0666927-4.365662 2.5259872-4.619397 1.9134169-4.873132 1.3008467-4.9999997 .6630411-5 0-4.9999997-.6630411-4.873132-1.3008467-4.619397-1.9134169-4.365662-2.5259872-4.0043747-3.0666927-3.5355337-3.5355337-3.0666927-4.0043747-2.5259872-4.365662-1.9134169-4.619397-1.3008467-4.873132-.6630411-4.9999997 0-5 .6630411-4.9999997 1.3008467-4.873132 1.9134169-4.619397 2.5259872-4.365662 3.0666927-4.0043747 3.5355337-3.5355337 4.0043747-3.0666927 4.365662-2.5259872 4.619397-1.9134169 4.873132-1.3008467 4.9999997-.6630411 5 0Z"/>
</g>
</g>
</svg>
