<svg xmlns="http://www.w3.org/2000/svg" xmlns:xlink="http://www.w3.org/1999/xlink" version="1.1" width="499.91999pt" height="343.91999pt" viewBox="0 0 499.91999 343.91999">
<defs>
<clipPath id="clip_1">
<path transform="matrix(.24,0,0,.24,0,0)" d="M0 0H2083.3333V1432.6826H0Z" fill-rule="evenodd"/>
</clipPath>
<clipPath id="clip_2">
<path transform="matrix(.24,0,0,.24,0,0)" d="M25.025025 25.025025H2058.308V1407.6576H25.025025Z" fill-rule="evenodd"/>
</clipPath>
<path id="font_3_38" d="M.38671876 .6220703C.31054688 .6220703 .2513021 .5975749 .20898438 .548584 .16666667 .4995931 .14550781 .43245445 .14550781 .34716798 .14550781 .26285807 .16756185 .19506836 .21166992 .14379883 .25577799 .0925293 .3154297 .06689453 .390625 .06689453 .48697917 .06689453 .55940756 .114583339 .60791018 .20996094L.68408206 .171875C.6557617 .11263021 .6159668 .06754557 .56469729 .036621095 .51342776 .0056966149 .4539388-.009765625 .38623048-.009765625 .31689454-.009765625 .25691734 .004638672 .20629883 .033447267 .15568035 .06225586 .11710612 .10343424 .09057617 .15698242 .06404623 .2105306 .05078125 .27392579 .05078125 .34716798 .05078125 .4568685 .08040365 .54280599 .13964844 .60498049 .19889324 .66715499 .28092448 .6982422 .3857422 .6982422 .45898438 .6982422 .5201823 .6839549 .56933596 .65538027 .61848959 .6268056 .6546224 .5844269 .6777344 .528244L.58935549 .49902345C.57340499 .5388997 .5477702 .56937667 .5124512 .5904541 .47713218 .61153158 .43522135 .6220703 .38671876 .6220703Z"/>
<path id="font_3_22" d="M.51220706 .19021607C.51220706 .12664795 .49202476 .077423099 .45166017 .042541505 .41129557 .0076700847 .35367839-.009765625 .2788086-.009765625 .20914714-.009765625 .15356446 .0059407555 .11206055 .037353517 .07055664 .06876627 .045898439 .115234378 .038085939 .17675781L.12890625 .1850586C.140625 .10367838 .19059246 .06298828 .2788086 .06298828 .32307945 .06298828 .35782878 .073913577 .38305665 .09576416 .40828453 .117614749 .42089845 .15007019 .42089845 .1931305 .42089845 .2306366 .40649415 .25990806 .37768556 .28094483 .34887696 .3019816 .30729167 .3125 .2529297 .3125H.203125V.38867188H.25097657C.29915367 .38867188 .33650718 .39914958 .3630371 .42010499 .38956706 .4410604 .40283204 .4700521 .40283204 .5070801 .40283204 .5437927 .39200846 .5727844 .37036134 .5940552 .3487142 .6153361 .316569 .62597659 .27392579 .62597659 .2351888 .62597659 .20385742 .61604818 .17993164 .5961914 .15600586 .57633468 .14208985 .54833987 .1381836 .51220706L.049804689 .51904299C.056315107 .5753581 .07967123 .6193034 .11987305 .6508789 .16007488 .6824544 .2117513 .6982422 .27490235 .6982422 .34391276 .6982422 .39754234 .68223068 .43579103 .6502075 .4740397 .6181946 .49316407 .57358297 .49316407 .5163727 .49316407 .4724884 .48087565 .43681336 .45629884 .40934754 .43172203 .3818817 .3959961 .3632711 .3491211 .35351563V.3515625C.40055339 .34601847 .44059245 .32874046 .46923829 .2997284 .49788413 .27071635 .51220706 .23421224 .51220706 .19021607Z"/>
<path id="font_3_54" d="M.62109377 .1899414C.62109377 .12646485 .59627279 .077311199 .54663088 .04248047 .49698893 .0076497399 .42708335-.009765625 .33691407-.009765625 .16927083-.009765625 .07210287 .048502607 .045410158 .16503906L.13574219 .18310547C.14615886 .14176433 .16829427 .11140951 .20214844 .092041019 .23600261 .07267252 .2820638 .06298828 .34033204 .06298828 .40055339 .06298828 .44702149 .07332357 .47973634 .09399414 .5124512 .11466471 .5288086 .14501953 .5288086 .1850586 .5288086 .20751953 .52368167 .2257487 .51342776 .2397461 .5031738 .2537435 .48876954 .26529948 .47021485 .27441407 .45166017 .28352867 .42952476 .29117839 .4038086 .29736329 .37809245 .3035482 .34960938 .31022135 .31835938 .3173828 .2639974 .3294271 .22273763 .34147135 .19458008 .35351563 .16642253 .3655599 .14420574 .37898765 .12792969 .39379884 .11165365 .40861003 .09920248 .425944 .09057617 .44580079 .08194987 .46565757 .07763672 .488444 .07763672 .51416018 .07763672 .5730794 .10017904 .61848959 .14526367 .6503906 .19034831 .6822917 .2548828 .6982422 .3388672 .6982422 .4169922 .6982422 .47672526 .6862793 .5180664 .6623535 .55940756 .63842776 .5883789 .59765627 .60498049 .54003909L.5131836 .5239258C.50309249 .5603841 .48388673 .5868327 .4555664 .6032715 .4272461 .61971029 .38802085 .6279297 .33789063 .6279297 .2828776 .6279297 .24088542 .6188151 .21191406 .60058596 .1829427 .58235678 .16845703 .5551758 .16845703 .51904299 .16845703 .49788413 .17407227 .48038737 .18530274 .46655274 .1965332 .4527181 .21272786 .44099937 .23388672 .43139649 .25504557 .4217936 .29720054 .4099935 .36035157 .3959961 .3815104 .39111329 .4025879 .38614909 .42358399 .38110353 .44458009 .37605796 .464681 .3700358 .48388673 .3630371 .50309249 .35603843 .52107748 .347819 .5378418 .3383789 .55460616 .3289388 .56917318 .3173828 .58154299 .30371095 .5939128 .29003907 .603597 .27392579 .6105957 .2553711 .6175944 .2368164 .62109377 .21500652 .62109377 .1899414Z"/>
<path id="font_3_92" d="M.09326172-.20800781C.06917318-.20800781 .048990888-.20621746 .032714845-.20263672V-.13671875C.045084638-.13867188 .05875651-.13964844 .07373047-.13964844 .12841797-.13964844 .17171224-.09930929 .20361328-.018630982L.21191406 .0024414063 .0024414063 .5283203H.096191409L.20751953 .23632813C.20914714 .23177083 .21110027 .22631836 .2133789 .2199707 .21565755 .21362305 .22298177 .19238281 .23535156 .15625 .24772136 .12011719 .25439454 .0999349 .2553711 .095703128L.28955079 .19189453 .40527345 .5283203H.49804688L.29492188 0C.27311198-.056447347 .25276695-.098454799 .23388672-.12602234 .21500652-.15360005 .1940918-.17415874 .17114258-.18769837 .14819336-.20123799 .12223307-.20800781 .09326172-.20800781Z"/>
<path id="font_3_86" d="M.4638672 .14613343C.4638672 .09628805 .44506837 .057840986 .4074707 .030792237 .36987306 .003753662 .31722007-.009765625 .24951172-.009765625 .18375652-.009765625 .13305664 .0010579428 .09741211 .022705079 .061767579 .044352216 .03857422 .078125 .027832032 .12402344L.10546875 .13916016C.11295573 .110839847 .12841797 .09008789 .15185547 .0769043 .17529297 .0637207 .20784505 .057128908 .24951172 .057128908 .29410807 .057128908 .32674156 .063975017 .3474121 .07766724 .36808268 .09136963 .37841798 .11191305 .37841798 .13929749 .37841798 .16015117 .3712565 .1770935 .3569336 .19012451 .3426107 .20315552 .3194987 .21390789 .28759767 .22238159L.22460938 .23899842C.17415364 .25202943 .13826497 .26481629 .11694336 .277359 .09562174 .28990174 .078938808 .30513 .06689453 .32304383 .05485026 .3409678 .048828126 .36296083 .048828126 .38902284 .048828126 .43725077 .06599935 .47398887 .1003418 .49923707 .13468425 .5244853 .18473308 .5371094 .25048829 .5371094 .3087565 .5371094 .35506187 .52685549 .3894043 .50634768 .42374674 .48583985 .44547526 .45296226 .45458985 .40771485L.37548829 .39794923C.37060548 .42138673 .35750328 .43937174 .33618165 .4519043 .31486003 .46443687 .28629557 .47070313 .25048829 .47070313 .21077474 .47070313 .18147786 .4646708 .16259766 .4526062 .14371746 .4405416 .13427735 .4222819 .13427735 .39782716 .13427735 .38284303 .1381836 .37046305 .1459961 .36068727 .1538086 .35091148 .16536458 .3426005 .18066406 .3357544 .19596355 .32891847 .22819011 .31947328 .27734376 .30741883 .32389323 .2956899 .35742188 .28485618 .3779297 .2749176 .3984375 .26497904 .41463218 .25398255 .42651368 .2419281 .43839518 .22987366 .44759117 .21594239 .45410157 .20013428 .46061198 .18433635 .4638672 .16633606 .4638672 .14613343Z"/>
<path id="font_3_87" d="M.2705078 .00390625C.24153646-.00390625 .21191406-.0078125 .18164063-.0078125 .111328128-.0078125 .076171878 .0320638 .076171878 .111816409V.46435548H.015136719V.5283203H.079589847L.10546875 .6464844H.1640625V.5283203H.26171876V.46435548H.1640625V.13085938C.1640625 .10546875 .16821289 .087646488 .17651367 .07739258 .18481446 .06713867 .19921875 .06201172 .21972656 .06201172 .23144531 .06201172 .24837239 .06429037 .2705078 .068847659V.00390625Z"/>
<path id="font_3_72" d="M.13476563 .24609375C.13476563 .18539429 .14729817 .13855998 .17236328 .10559082 .19742839 .072631839 .23404949 .056152345 .28222657 .056152345 .3203125 .056152345 .35083009 .06384786 .3737793 .07923889 .39672853 .09462992 .41227214 .114115398 .42041017 .13769531L.4975586 .11564636C.46598307 .032038373 .39420573-.009765625 .28222657-.009765625 .20410156-.009765625 .14461263 .013509114 .103759769 .060058595 .0629069 .10660807 .04248047 .17578125 .04248047 .26757813 .04248047 .35481773 .0629069 .42171226 .103759769 .46826173 .14461263 .5148112 .20296224 .53808596 .2788086 .53808596 .43408204 .53808596 .51171877 .44465638 .51171877 .25779725V.24609375H.13476563M.42089845 .31347657C.41601563 .36896769 .40185548 .40944926 .37841798 .43492127 .35498048 .46040345 .32128907 .47314454 .27734376 .47314454 .23470052 .47314454 .20092774 .4589437 .17602539 .430542 .15112305 .40215049 .13769531 .36312867 .13574219 .31347657H.42089845Z"/>
<path id="font_3_80" d="M.375 0V.33496095C.375 .38606773 .3680013 .42138673 .3540039 .44091798 .3400065 .46044923 .31477867 .47021485 .2783203 .47021485 .24088542 .47021485 .21126302 .45589195 .18945313 .4272461 .16764324 .39860026 .15673828 .3582357 .15673828 .30615235V0H.06933594V.41552735C.06933594 .47705079 .068359378 .51464846 .06640625 .5283203H.14941406C.14973958 .5266927 .15006511 .52229818 .15039063 .5151367 .15071614 .5079753 .15112305 .49975587 .15161133 .49047853 .15209961 .48120118 .15266927 .46370445 .15332031 .43798829H.15478516C.17366536 .4754232 .1953125 .50146487 .21972656 .5161133 .24414063 .5307617 .27392579 .53808596 .30908204 .53808596 .3491211 .53808596 .38077799 .53011068 .40405274 .51416018 .42732749 .49820964 .44352214 .472819 .45263673 .43798829H.45410157C.47233073 .47347007 .49438478 .49902345 .5202637 .51464846 .5461426 .53027346 .57747396 .53808596 .6142578 .53808596 .66764327 .53808596 .7064616 .5236003 .7307129 .4946289 .7549642 .46565757 .76708987 .4181315 .76708987 .35205079V0H.6801758V.33496095C.6801758 .38606773 .67317709 .42138673 .6591797 .44091798 .6451823 .46044923 .6199544 .47021485 .5834961 .47021485 .54508468 .47021485 .5152181 .4559733 .49389649 .42749024 .47257487 .39900718 .46191407 .3585612 .46191407 .30615235V0H.375Z"/>
<path id="font_3_3" d="M0 0Z"/>
<path id="font_3_83" d="M.51416018 .2668457C.51416018 .08243815 .4493815-.009765625 .31982423-.009765625 .23844402-.009765625 .18375652 .020858765 .15576172 .082107547H.15332031C.15462239 .07950338 .15527344 .051778158 .15527344-.0010681152V-.20800781H.06738281V.42033387C.06738281 .47473655 .06640625 .510732 .064453128 .5283203H.14941406C.14973958 .5270284 .15022786 .5224101 .1508789 .51446536 .15152996 .50653079 .15226238 .4942983 .15307617 .47776795 .15388997 .46124778 .15429688 .4499105 .15429688 .4437561H.15625C.171875 .4763387 .19254558 .50020346 .21826172 .51535037 .24397786 .5305074 .27783204 .53808596 .31982423 .53808596 .38492839 .53808596 .43359376 .5162557 .4658203 .4725952 .49804688 .42893473 .51416018 .36035157 .51416018 .2668457M.421875 .26489259C.421875 .33855186 .41194663 .39118449 .39208985 .42279054 .37223307 .45440675 .34065757 .47021485 .29736329 .47021485 .26253257 .47021485 .23527019 .46288047 .21557617 .44821168 .19588216 .43355308 .1809082 .4106598 .1706543 .37953187 .16040039 .34840394 .15527344 .3079122 .15527344 .25805665 .15527344 .18863933 .16634114 .13747151 .18847656 .10455322 .21061199 .071634929 .24658203 .05517578 .29638673 .05517578 .3400065 .05517578 .37182618 .07122294 .3918457 .10331726 .41186524 .13542176 .421875 .1892802 .421875 .26489259Z"/>
<path id="font_3_68" d="M.20214844-.009765625C.14908855-.009765625 .10921224 .004231771 .08251953 .032226564 .055826826 .060221357 .04248047 .09863281 .04248047 .14746094 .04248047 .20214844 .060465497 .24414063 .09643555 .2734375 .1324056 .30273438 .19042969 .31835938 .2705078 .3203125L.38916017 .32226563V.35107423C.38916017 .39404298 .38004557 .4248047 .3618164 .44335938 .34358726 .46191407 .3149414 .4711914 .2758789 .4711914 .23649089 .4711914 .20784505 .46455384 .1899414 .4512787 .17203777 .4380137 .16129558 .41681925 .15771485 .3876953L.06591797 .39596559C.08089193 .4907125 .15152996 .53808596 .27783204 .53808596 .34423829 .53808596 .39420573 .52286788 .42773438 .49243165 .46126304 .46199546 .47802735 .41796876 .47802735 .36035157V.1328125C.47802735 .106770839 .4814453 .0871582 .48828126 .07397461 .4951172 .060791017 .508138 .05419922 .52734377 .05419922 .5358073 .05419922 .54541018 .055338544 .55615237 .057617189V.0029296876C.5340169-.0022786458 .51139327-.0048828127 .48828126-.0048828127 .45572917-.0048828127 .43204753 .0036621094 .41723634 .020751954 .40242515 .037841798 .39404298 .06461588 .39208985 .10107422H.38916017C.36669923 .060709638 .34057618 .032145185 .31079103 .015380859 .28100587-.0013834635 .24479167-.009765625 .20214844-.009765625M.22216797 .056152345C.25439454 .056152345 .28304038 .06347656 .30810548 .078125 .33317057 .09277344 .35294596 .11287435 .36743165 .13842774 .38191734 .16398113 .38916017 .19026692 .38916017 .21728516V.2607422L.29296876 .25878907C.2516276 .25813804 .22029622 .25390626 .19897461 .24609375 .177653 .23828125 .16129558 .22623699 .14990235 .20996094 .13850911 .19368489 .1328125 .17236328 .1328125 .1459961 .1328125 .11735026 .14054363 .095214847 .15600586 .079589847 .1714681 .063964847 .19352214 .056152345 .22216797 .056152345Z"/>
<path id="font_3_74" d="M.26757813-.20800781C.20996094-.20800781 .1640625-.19669597 .12988281-.17407227 .095703128-.15144857 .07373047-.11930338 .063964847-.07763672L.15234375-.064941409C.15820313-.08935547 .17114258-.1081543 .19116211-.12133789 .21118164-.13452149 .23746746-.14111328 .27001954-.14111328 .35758464-.14111328 .4013672-.08972168 .4013672 .013061523V.098236087H.40039063C.38378907 .0643514 .3610026 .038853963 .33203126 .021743775 .3030599 .0046437585 .26920573-.00390625 .23046875-.00390625 .16569011-.00390625 .11808268 .01759847 .087646488 .06060791 .057210287 .10361735 .041992189 .17122396 .041992189 .26342774 .041992189 .3569336 .05834961 .42592369 .09106445 .47039796 .1237793 .51487228 .17350261 .5371094 .24023438 .5371094 .27766929 .5371094 .31013999 .52855429 .33764649 .5114441 .36515299 .4943441 .38639323 .46999107 .4013672 .438385H.40234376C.40234376 .44810996 .40299479 .46496073 .40429688 .48893739 .40559898 .5129242 .40690104 .5260518 .40820313 .5283203H.49169923C.4897461 .510732 .48876954 .47424827 .48876954 .41886903V.014801025C.48876954-.1337382 .41503907-.20800781 .26757813-.20800781M.4013672 .2644043C.4013672 .30742393 .3955078 .34449259 .38378907 .37561036 .3720703 .40673829 .35555015 .43053184 .33422853 .44699098 .3129069 .4634501 .28873698 .4716797 .26171876 .4716797 .21679688 .4716797 .18408203 .4553833 .16357422 .42279054 .1430664 .39019776 .1328125 .33740235 .1328125 .2644043 .1328125 .19204712 .14241536 .14006043 .1616211 .108444217 .18082683 .07683817 .21370442 .061035158 .2602539 .061035158 .2879232 .061035158 .3125 .06918335 .33398438 .08547974 .35546876 .10177612 .3720703 .12515767 .38378907 .15562439 .3955078 .18610128 .4013672 .22236125 .4013672 .2644043Z"/>
<path id="font_3_70" d="M.13427735 .26660157C.13427735 .19628906 .14534505 .14420574 .16748047 .11035156 .18961589 .0764974 .22298177 .059570314 .26757813 .059570314 .29882813 .059570314 .32495118 .06803385 .34594728 .08496094 .36694337 .10188802 .3798828 .12792969 .38476563 .16308594L.4736328 .15722656C.46679688 .10644531 .44514976 .06591797 .4086914 .03564453 .37223307 .0053710939 .32600913-.009765625 .27001954-.009765625 .1961263-.009765625 .13972982 .013590495 .10083008 .060302736 .06193034 .10701498 .04248047 .1751302 .04248047 .26464845 .04248047 .35351563 .06201172 .42130534 .10107422 .46801759 .14013672 .5147298 .1961263 .53808596 .26904298 .53808596 .32307945 .53808596 .36791993 .5241292 .40356446 .49621583 .43920899 .4683024 .46158854 .42984519 .47070313 .38084413L.3803711 .37402345C.3758138 .40316773 .3642578 .4263204 .34570313 .44348146 .32714845 .46065269 .30078126 .46923829 .26660157 .46923829 .22005208 .46923829 .18636067 .45377604 .16552735 .42285157 .14469402 .3919271 .13427735 .33984376 .13427735 .26660157Z"/>
<path id="font_3_85" d="M.06933594 0V.40527345C.06933594 .4423828 .068359378 .48339845 .06640625 .5283203H.14941406C.15201824 .46842448 .15332031 .43245445 .15332031 .42041017H.15527344C.16927083 .46565757 .18538411 .49658204 .20361328 .5131836 .22184246 .52978518 .2475586 .53808596 .28076173 .53808596 .29248048 .53808596 .30436198 .5364583 .31640626 .5332031V.45263673C.3046875 .45589195 .2890625 .45751954 .26953126 .45751954 .23307292 .45751954 .20524089 .44181315 .18603516 .4104004 .16682942 .37898765 .15722656 .33398438 .15722656 .27539063V0H.06933594Z"/>
<path id="font_3_82" d="M.51416018 .26464845C.51416018 .17220052 .4938151 .10335287 .453125 .05810547 .4124349 .012858073 .35335288-.009765625 .2758789-.009765625 .19873047-.009765625 .14046224 .013753255 .10107422 .060791017 .0616862 .10782877 .041992189 .17578125 .041992189 .26464845 .041992189 .4469401 .12093099 .53808596 .2788086 .53808596 .35953776 .53808596 .4189453 .51586917 .45703126 .47143556 .4951172 .42700196 .51416018 .3580729 .51416018 .26464845M.421875 .26464845C.421875 .3375651 .41105143 .3905436 .3894043 .42358399 .36775718 .45662437 .33138023 .47314454 .28027345 .47314454 .22884114 .47314454 .19165039 .45629884 .16870117 .42260743 .14575196 .38891603 .13427735 .33626304 .13427735 .26464845 .13427735 .19498699 .14558919 .1426595 .16821289 .107666019 .1908366 .07267252 .22639974 .05517578 .27490235 .05517578 .32763673 .05517578 .36531578 .07210287 .38793946 .10595703 .41056315 .1398112 .421875 .19270833 .421875 .26464845Z"/>
<path id="font_3_79" d="M.06738281 0V.7246094H.15527344V0H.06738281Z"/>
<path id="font_3_81" d="M.40283204 0V.33496095C.40283204 .36979167 .39941407 .3968099 .39257813 .41601563 .3857422 .43522135 .37483726 .449056 .35986329 .45751954 .3448893 .46598307 .32291667 .47021485 .2939453 .47021485 .2516276 .47021485 .21826172 .45572917 .19384766 .4267578 .1694336 .39778648 .15722656 .35758464 .15722656 .30615235V0H.06933594V.41552735C.06933594 .47705079 .068359378 .51464846 .06640625 .5283203H.14941406C.14973958 .5266927 .15006511 .52229818 .15039063 .5151367 .15071614 .5079753 .15112305 .49975587 .15161133 .49047853 .15209961 .48120118 .15266927 .46370445 .15332031 .43798829H.15478516C.17496746 .47444663 .19832357 .50024417 .22485352 .51538088 .25138346 .5305176 .28434245 .53808596 .32373048 .53808596 .3816732 .53808596 .42407228 .52368167 .45092774 .49487306 .4777832 .46606446 .49121095 .41845704 .49121095 .35205079V0H.40283204Z"/>
<path id="font_3_71" d="M.4008789 .08496094C.38460288 .05110677 .3630371 .026855469 .33618165 .012207031 .30932618-.0024414063 .27604167-.009765625 .23632813-.009765625 .16959636-.009765625 .120524089 .0126953129 .08911133 .057617189 .057698568 .10253906 .041992189 .17057292 .041992189 .26171876 .041992189 .44596354 .106770839 .53808596 .23632813 .53808596 .2763672 .53808596 .30973307 .5307617 .33642579 .5161133 .3631185 .50146487 .38460288 .4781901 .4008789 .44628907H.40185548L.4008789 .5053711V.7246094H.48876954V.10888672C.48876954 .0538737 .4897461 .017578125 .49169923 0H.40771485C.40673829 .0052083337 .40568034 .017252604 .40454103 .036132814 .4034017 .05501302 .40283204 .07128906 .40283204 .08496094H.4008789M.13427735 .26464845C.13427735 .1907552 .14404297 .13785808 .16357422 .10595703 .18310547 .07405599 .21484375 .05810547 .25878907 .05810547 .30859376 .05810547 .34472657 .07535807 .3671875 .10986328 .38964845 .14436849 .4008789 .19791667 .4008789 .2705078 .4008789 .34049479 .38964845 .3917643 .3671875 .4243164 .34472657 .4568685 .30891929 .47314454 .25976563 .47314454 .2154948 .47314454 .18351238 .4567871 .16381836 .42407228 .14412435 .39135743 .13427735 .33821617 .13427735 .26464845Z"/>
<path id="font_3_36" d="M.5698242 0 .49121095 .20166016H.17773438L.09863281 0H.001953125L.28271485 .68847659H.38867188L.66503909 0H.5698242M.33447267 .61816409 .33007813 .6044922C.3219401 .57747396 .30989585 .54280599 .2939453 .5004883L.20605469 .27441407H.4633789L.375 .50146487C.3658854 .5239258 .35677085 .5493164 .34765626 .5776367L.33447267 .61816409Z"/>
<path id="font_3_76" d="M.06689453 .640625V.7246094H.15478516V.640625H.06689453M.06689453 0V.5283203H.15478516V0H.06689453Z"/>
<path id="font_3_37" d="M.6142578 .19384766C.6142578 .13264974 .59195968 .08504232 .5473633 .05102539 .5027669 .017008463 .44075523 0 .36132813 0H.08203125V.68847659H.33203126C.4934896 .68847659 .57421877 .63273116 .57421877 .52124026 .57421877 .4804891 .5628255 .44625346 .54003909 .41853334 .5172526 .39082337 .48502604 .37224327 .44335938 .36279298 .49804688 .35628257 .54020187 .33797203 .5698242 .30786134 .5994466 .27775065 .6142578 .2397461 .6142578 .19384766M.48046876 .510025C.48046876 .54721578 .46777345 .5738017 .4423828 .5897827 .4169922 .6057739 .38020835 .61376956 .33203126 .61376956H.17529297V.3955078H.33203126C.38183595 .3955078 .4190267 .40488688 .44360353 .42364503 .46818034 .44240318 .48046876 .4711965 .48046876 .510025M.52001956 .20117188C.52001956 .28222657 .46305339 .3227539 .3491211 .3227539H.17529297V.07470703H.3564453C.41341148 .07470703 .45491538 .08528646 .48095704 .10644531 .5069987 .12760417 .52001956 .15917969 .52001956 .20117188Z"/>
<path id="font_3_69" d="M.51416018 .26660157C.51416018 .08235677 .4493815-.009765625 .31982423-.009765625 .27978517-.009765625 .24650066-.0025227864 .2199707 .011962891 .19344075 .026448569 .171875 .049804689 .15527344 .08203125H.15429688C.15429688 .0719401 .15364583 .056559247 .15234375 .035888673 .15104167 .015218099 .15006511 .0032552083 .14941406 0H.064453128C.06640625 .017578125 .06738281 .0538737 .06738281 .10888672V.7246094H.15527344V.5180664C.15527344 .49690757 .15462239 .47200523 .15332031 .44335938H.15527344C.17154949 .47721354 .19311524 .50146487 .2199707 .5161133 .24682617 .5307617 .2801107 .53808596 .31982423 .53808596 .386556 .53808596 .43562828 .515625 .46704103 .47070313 .49845378 .42578126 .51416018 .3577474 .51416018 .26660157M.421875 .26367188C.421875 .3375651 .41210938 .39046226 .39257813 .42236329 .37304688 .4542643 .3413086 .47021485 .29736329 .47021485 .24788411 .47021485 .21183269 .45328776 .18920899 .4194336 .16658528 .38557945 .15527344 .3318685 .15527344 .25830079 .15527344 .18896485 .16634114 .13777669 .18847656 .10473633 .21061199 .07169596 .24658203 .05517578 .29638673 .05517578 .34065757 .05517578 .37263999 .0715332 .39233399 .10424805 .41202799 .13696289 .421875 .19010417 .421875 .26367188Z"/>
<path id="font_3_52" d="M.72998049 .34716798C.72998049 .25016276 .7055664 .17041016 .6567383 .107910159 .60791018 .045410158 .54003909 .008463542 .453125-.0029296876 .46647135-.044118246 .4839681-.07386271 .50561526-.092163089 .5272624-.11047363 .5546875-.119628909 .5878906-.119628909 .60579428-.119628909 .6245117-.11751302 .64404299-.11328125V-.17871094C.61376956-.18587239 .58479818-.18945313 .5571289-.18945313 .5079753-.18945313 .4675293-.17549642 .43579103-.14758301 .40405274-.11967977 .37809245-.0730896 .35791017-.0078125 .29345704-.0045572917 .23787435 .01180013 .19116211 .041259767 .14444988 .0707194 .108805339 .11173502 .084228519 .16430664 .05965169 .21687825 .04736328 .27783204 .04736328 .34716798 .04736328 .457194 .07747396 .5432129 .13769531 .6052246 .19791667 .6672363 .28173829 .6982422 .38916017 .6982422 .45914714 .6982422 .51985678 .6843262 .57128909 .65649417 .6227214 .6286621 .662028 .5882161 .689209 .53515627 .71638998 .48209635 .72998049 .4194336 .72998049 .34716798M.6347656 .34716798C.6347656 .43277995 .6133626 .5 .57055667 .5488281 .5277507 .59765627 .46728517 .6220703 .38916017 .6220703 .31038413 .6220703 .24951172 .59798178 .20654297 .5498047 .16357422 .5016276 .14208985 .43408204 .14208985 .34716798 .14208985 .26090495 .16381836 .19246419 .20727539 .1418457 .25073243 .09122721 .31103517 .06591797 .3881836 .06591797 .4676107 .06591797 .52856448 .090413417 .5710449 .1394043 .6135254 .18839519 .6347656 .25764976 .6347656 .34716798Z"/>
<path id="font_3_88" d="M.15332031 .5283203V.19335938C.15332031 .15852864 .15673828 .13151042 .16357422 .11230469 .17041016 .09309896 .18131511 .07926432 .19628906 .07080078 .21126302 .06233724 .23323567 .05810547 .26220704 .05810547 .30452476 .05810547 .33789063 .07259115 .3623047 .1015625 .38671876 .13053386 .39892579 .17073567 .39892579 .22216797V.5283203H.4868164V.11279297C.4868164 .05126953 .48779298 .013671875 .4897461 0H.40673829C.40641276 .0016276041 .40608726 .0060221354 .40576173 .013183594 .4054362 .020345053 .4050293 .028564454 .40454103 .037841798 .40405274 .04711914 .40348307 .06461588 .40283204 .09033203H.4013672C.3811849 .0538737 .35782878 .028076172 .33129884 .012939453 .3047689-.0021972657 .2718099-.009765625 .23242188-.009765625 .17447917-.009765625 .13208008 .004638672 .10522461 .033447267 .07836914 .06225586 .064941409 .10986328 .064941409 .17626953V.5283203H.15332031Z"/>
<path id="font_3_48" d="M.6669922 0V.4593506C.6669922 .51017257 .66845706 .5590413 .6713867 .60595706 .6554362 .54763796 .6411133 .5020294 .62841799 .46913148L.4506836 0H.3852539L.20507813 .46913148 .17773438 .5522003 .1616211 .60595706 .16308594 .55171206 .16503906 .4593506V0H.08203125V.68847659H.20458985L.3876953 .21102906C.39420573 .19180298 .40047203 .17119344 .40649415 .14920044 .41251628 .1272176 .4165039 .111338298 .41845704 .1015625 .4210612 .114593509 .42651368 .13438416 .43481446 .16093445 .44311524 .18748474 .44873048 .20418294 .45166017 .21102906L.63134768 .68847659H.75097659V0H.6669922Z"/>
<clipPath id="clip_4">
<path transform="matrix(.24,0,0,.24,0,0)" d="M1004.4419 387.88789H1041.9795V425.4254H1004.4419Z" fill-rule="evenodd"/>
</clipPath>
<clipPath id="clip_5">
<path transform="matrix(.24,0,0,.24,0,0)" d="M25.025025 25.025025H2058.308V1407.6576H25.025025Z" fill-rule="evenodd"/>
</clipPath>
<clipPath id="clip_6">
<path transform="matrix(.24,0,0,.24,0,0)" d="M0 0H2083.3333V1432.6826H0Z"/>
</clipPath>
<clipPath id="clip_7">
<path transform="matrix(.24,0,0,.24,0,0)" d="M25.025025 25.025025H2058.308V1407.6576H25.025025Z"/>
</clipPath>
<clipPath id="clip_8">
<path transform="matrix(.24,0,0,.24,0,0)" d="M415.7282 519.2692H453.26576V556.80679H415.7282Z"/>
</clipPath>
<clipPath id="clip_9">
<path transform="matrix(.24,0,0,.24,0,0)" d="M25.025025 25.025025H2058.308V1407.6576H25.025025Z" fill-rule="evenodd"/>
</clipPath>
<path id="font_3_41" d="M.17529297 .6123047V.3564453H.55908206V.27929688H.17529297V0H.08203125V.68847659H.5708008V.6123047H.17529297Z"/>
<path id="font_3_75" d="M.15478516 .43798829C.17366536 .4724935 .19637044 .49780274 .22290039 .513916 .24943035 .5300293 .28304038 .53808596 .32373048 .53808596 .38102214 .53808596 .42325846 .5238444 .45043946 .49536134 .47762046 .46687828 .49121095 .41910807 .49121095 .35205079V0H.40283204V.33496095C.40283204 .3720703 .39941407 .3996582 .39257813 .4177246 .3857422 .43579103 .37451173 .449056 .35888673 .45751954 .34326173 .46598307 .3216146 .47021485 .2939453 .47021485 .25260417 .47021485 .21948242 .45589195 .19458008 .4272461 .16967774 .39860026 .15722656 .36002604 .15722656 .31152345V0H.06933594V.7246094H.15722656V.5361328C.15722656 .51627609 .1566569 .49576823 .15551758 .47460938 .15437825 .45345054 .15364583 .4412435 .15332031 .43798829H.15478516Z"/>
<clipPath id="clip_10">
<path transform="matrix(.24,0,0,.24,0,0)" d="M1630.0675 810.1852H1667.605V847.7227H1630.0675Z" fill-rule="evenodd"/>
</clipPath>
<clipPath id="clip_11">
<path transform="matrix(.24,0,0,.24,0,0)" d="M25.025025 25.025025H2058.308V1407.6576H25.025025Z" fill-rule="evenodd"/>
</clipPath>
<path id="font_3_53" d="M.5683594 0 .38964845 .28564454H.17529297V0H.08203125V.68847659H.40576173C.4832357 .68847659 .5430501 .67112228 .5852051 .6364136 .62736007 .6017049 .6484375 .55338546 .6484375 .49145509 .6484375 .44028727 .6335449 .39726258 .60375979 .36238099 .5739746 .32750956 .5328776 .30551148 .48046876 .29638673L.67578127 0H.5683594M.5546875 .49047853C.5546875 .53059896 .541097 .56117758 .513916 .58221438 .48673503 .60325118 .44759117 .61376956 .39648438 .61376956H.17529297V.359375H.40039063C.44954429 .359375 .48754884 .37086997 .5144043 .39385987 .54125979 .41685996 .5546875 .44906617 .5546875 .49047853Z"/>
<path id="font_3_89" d="M.2993164 0H.1953125L.0034179688 .5283203H.09716797L.2133789 .18457031C.21761067 .17154949 .22884114 .13297527 .24707031 .068847659L.26416017 .12597656 .28320313 .18359375 .4033203 .5283203H.49658204L.2993164 0Z"/>
<clipPath id="clip_12">
<path transform="matrix(.24,0,0,.24,0,0)" d="M0 0H2083.3333V1432.6826H0Z"/>
</clipPath>
<clipPath id="clip_13">
<path transform="matrix(.24,0,0,.24,0,0)" d="M25.025025 25.025025H2058.308V1407.6576H25.025025Z"/>
</clipPath>
<clipPath id="clip_14">
<path transform="matrix(.24,0,0,.24,0,0)" d="M1041.3538 941.5666H1078.8914V979.1041H1041.3538Z"/>
</clipPath>
<clipPath id="clip_15">
<path transform="matrix(.24,0,0,.24,0,0)" d="M25.025025 25.025025H2058.308V1407.6576H25.025025Z" fill-rule="evenodd"/>
</clipPath>
<path id="font_3_78" d="M.3984375 0 .21972656 .24121094 .15527344 .18798828V0H.06738281V.7246094H.15527344V.27197267L.38720704 .5283203H.49023438L.2758789 .30126954 .50146487 0H.3984375Z"/>
<clipPath id="clip_16">
<path transform="matrix(.24,0,0,.24,0,0)" d="M0 0H2083.3333V1432.6826H0Z"/>
</clipPath>
<clipPath id="clip_17">
<path transform="matrix(.24,0,0,.24,0,0)" d="M25.025025 25.025025H2058.308V1407.6576H25.025025Z"/>
</clipPath>
<clipPath id="clip_18">
<path transform="matrix(.24,0,0,.24,0,0)" d="M415.7282 1085.4605H453.26576V1122.9979H415.7282Z"/>
</clipPath>
<clipPath id="clip_19">
<path transform="matrix(.24,0,0,.24,0,0)" d="M25.025025 25.025025H2058.308V1407.6576H25.025025Z" fill-rule="evenodd"/>
</clipPath>
</defs>
<g clip-path="url(#clip_1)">
<path transform="matrix(.7507507,0,0,.7507507,6.006006,6.006006)" d="M0 0H650V442H0Z" fill="#ffffff"/>
</g>
<g clip-path="url(#clip_2)">
<path transform="matrix(.7507507,0,0,.7507507,43.54354,13.513513)" d="M203 356H347C347.3978 356 347.7805 356.0761 348.148 356.22834 348.51554 356.38059 348.83998 356.59736 349.1213 356.87864 349.4026 357.1599 349.61936 357.48435 349.77159 357.8519 349.92384 358.21943 349.99998 358.60215 350 359V418C349.99998 418.3978 349.92384 418.7805 349.77159 419.14805 349.61936 419.51557 349.4026 419.83998 349.1213 420.1213 348.83998 420.4026 348.51554 420.61936 348.148 420.77159 347.7805 420.92384 347.3978 420.99998 347 421H203C202.60216 420.99998 202.21945 420.92384 201.85192 420.77159 201.48438 420.61936 201.15996 420.4026 200.87866 420.1213 200.59734 419.83998 200.38057 419.51554 200.22834 419.148 200.0761 418.7805 199.99999 418.3978 200 418V359C199.99999 358.60215 200.0761 358.21943 200.22834 357.8519 200.38057 357.48435 200.59734 357.1599 200.87866 356.87864 201.15996 356.59736 201.48438 356.38059 201.85192 356.22834 202.21945 356.0761 202.60216 356 203 356Z" fill="#eeeeee"/>
<path transform="matrix(.7507507,0,0,.7507507,43.54354,13.513513)" stroke-width="1" stroke-linecap="butt" stroke-miterlimit="4" stroke-linejoin="miter" fill="none" stroke="#d4d4d4" d="M203 356H347C347.3978 356 347.7805 356.0761 348.148 356.22834 348.51554 356.38059 348.83998 356.59736 349.1213 356.87864 349.4026 357.1599 349.61936 357.48435 349.77159 357.8519 349.92384 358.21943 349.99998 358.60215 350 359V418C349.99998 418.3978 349.92384 418.7805 349.77159 419.14805 349.61936 419.51557 349.4026 419.83998 349.1213 420.1213 348.83998 420.4026 348.51554 420.61936 348.148 420.77159 347.7805 420.92384 347.3978 420.99998 347 421H203C202.60216 420.99998 202.21945 420.92384 201.85192 420.77159 201.48438 420.61936 201.15996 420.4026 200.87866 420.1213 200.59734 419.83998 200.38057 419.51554 200.22834 419.148 200.0761 418.7805 199.99999 418.3978 200 418V359C199.99999 358.60215 200.0761 358.21943 200.22834 357.8519 200.38057 357.48435 200.59734 357.1599 200.87866 356.87864 201.15996 356.59736 201.48438 356.38059 201.85192 356.22834 202.21945 356.0761 202.60216 356 203 356Z"/>
<use data-text="C" xlink:href="#font_3_38" transform="matrix(12.012012,0,0,-12.012012,242.31653,309.6847)" fill="#333333"/>
<use data-text="3" xlink:href="#font_3_22" transform="matrix(12.012012,0,0,-12.012012,250.9892,309.6847)" fill="#333333"/>
<path transform="matrix(.7507507,0,0,.7507507,43.54354,13.513513)" stroke-width="2" stroke-linecap="butt" stroke-miterlimit="4" stroke-linejoin="miter" fill="none" stroke="#d4d4d4" d="M275 5V356"/>
<path transform="matrix(.7507507,0,0,.7507507,43.54354,13.513513)" d="M203 0H347C347.3978 0 347.7805 .07612045 348.148 .22836139 348.51554 .3806023 348.83998 .59737506 349.1213 .87867966 349.4026 1.1599841 349.61936 1.4844074 349.77159 1.8519496 349.92384 2.2194918 349.99998 2.6021753 350 3V62C349.99998 62.397825 349.92384 62.780504 349.77159 63.148046 349.61936 63.515588 349.4026 63.840009 349.1213 64.121318 348.83998 64.40262 348.51554 64.619388 348.148 64.77163 347.7805 64.923877 347.3978 64.99999 347 65H203C202.60216 64.99999 202.21945 64.923877 201.85192 64.77163 201.48438 64.619388 201.15996 64.40262 200.87866 64.121318 200.59734 63.840009 200.38057 63.515588 200.22834 63.148046 200.0761 62.780504 199.99999 62.397825 200 62V3C199.99999 2.6021753 200.0761 2.2194918 200.22834 1.8519496 200.38057 1.4844074 200.59734 1.1599841 200.87866 .87867966 201.15996 .59737506 201.48438 .3806023 201.85192 .22836139 202.21945 .07612045 202.60216 0 203 0Z" fill="#eeeeee"/>
<path transform="matrix(.7507507,0,0,.7507507,43.54354,13.513513)" stroke-width="1" stroke-linecap="butt" stroke-miterlimit="4" stroke-linejoin="miter" fill="none" stroke="#d4d4d4" d="M203 0H347C347.3978 0 347.7805 .07612045 348.148 .22836139 348.51554 .3806023 348.83998 .59737506 349.1213 .87867966 349.4026 1.1599841 349.61936 1.4844074 349.77159 1.8519496 349.92384 2.2194918 349.99998 2.6021753 350 3V62C349.99998 62.397825 349.92384 62.780504 349.77159 63.148046 349.61936 63.515588 349.4026 63.840009 349.1213 64.121318 348.83998 64.40262 348.51554 64.619388 348.148 64.77163 347.7805 64.923877 347.3978 64.99999 347 65H203C202.60216 64.99999 202.21945 64.923877 201.85192 64.77163 201.48438 64.619388 201.15996 64.40262 200.87866 64.121318 200.59734 63.840009 200.38057 63.515588 200.22834 63.148046 200.0761 62.780504 199.99999 62.397825 200 62V3C199.99999 2.6021753 200.0761 2.2194918 200.22834 1.8519496 200.38057 1.4844074 200.59734 1.1599841 200.87866 .87867966 201.15996 .59737506 201.48438 .3806023 201.85192 .22836139 202.21945 .07612045 202.60216 0 203 0Z"/>
<use data-text="C" xlink:href="#font_3_38" transform="matrix(12.012012,0,0,-12.012012,242.31653,42.417417)" fill="#333333"/>
<use data-text="3" xlink:href="#font_3_22" transform="matrix(12.012012,0,0,-12.012012,250.9892,42.417417)" fill="#333333"/>
<path transform="matrix(.7507507,0,0,.7507507,43.54354,13.513513)" d="M129 165H421V202H129Z" fill="#666666"/>
<path transform="matrix(.7507507,0,0,.7507507,43.54354,13.513513)" stroke-width="1" stroke-linecap="butt" stroke-miterlimit="4" stroke-linejoin="miter" fill="none" stroke="#999999" d="M129 165H421V202H129Z"/>
<use data-text="S" xlink:href="#font_3_54" transform="matrix(12.012012,0,0,-12.012012,131.1585,156.15616)" fill="#ffffff"/>
<use data-text="y" xlink:href="#font_3_92" transform="matrix(12.012012,0,0,-12.012012,139.1705,156.15616)" fill="#ffffff"/>
<use data-text="s" xlink:href="#font_3_86" transform="matrix(12.012012,0,0,-12.012012,145.17652,156.15616)" fill="#ffffff"/>
<use data-text="t" xlink:href="#font_3_87" transform="matrix(12.012012,0,0,-12.012012,151.18253,156.15616)" fill="#ffffff"/>
<use data-text="e" xlink:href="#font_3_72" transform="matrix(12.012012,0,0,-12.012012,154.52185,156.15616)" fill="#ffffff"/>
<use data-text="m" xlink:href="#font_3_80" transform="matrix(12.012012,0,0,-12.012012,161.20053,156.15616)" fill="#ffffff"/>
<use data-text=" " xlink:href="#font_3_3" transform="matrix(12.012012,0,0,-12.012012,171.20655,156.15616)" fill="#ffffff"/>
<use data-text="p" xlink:href="#font_3_83" transform="matrix(12.012012,0,0,-12.012012,174.54587,156.15616)" fill="#ffffff"/>
<use data-text="a" xlink:href="#font_3_68" transform="matrix(12.012012,0,0,-12.012012,181.22455,156.15616)" fill="#ffffff"/>
<use data-text="s" xlink:href="#font_3_86" transform="matrix(12.012012,0,0,-12.012012,187.90323,156.15616)" fill="#ffffff"/>
<use data-text="s" xlink:href="#font_3_86" transform="matrix(12.012012,0,0,-12.012012,193.90924,156.15616)" fill="#ffffff"/>
<use data-text="e" xlink:href="#font_3_72" transform="matrix(12.012012,0,0,-12.012012,199.91526,156.15616)" fill="#ffffff"/>
<use data-text="s" xlink:href="#font_3_86" transform="matrix(12.012012,0,0,-12.012012,206.5939,156.15616)" fill="#ffffff"/>
<use data-text=" " xlink:href="#font_3_3" transform="matrix(12.012012,0,0,-12.012012,212.59992,156.15616)" fill="#ffffff"/>
<use data-text="m" xlink:href="#font_3_80" transform="matrix(12.012012,0,0,-12.012012,215.93927,156.15616)" fill="#ffffff"/>
<use data-text="e" xlink:href="#font_3_72" transform="matrix(12.012012,0,0,-12.012012,225.94525,156.15616)" fill="#ffffff"/>
<use data-text="s" xlink:href="#font_3_86" transform="matrix(12.012012,0,0,-12.012012,232.62393,156.15616)" fill="#ffffff"/>
<use data-text="s" xlink:href="#font_3_86" transform="matrix(12.012012,0,0,-12.012012,238.62995,156.15616)" fill="#ffffff"/>
<use data-text="a" xlink:href="#font_3_68" transform="matrix(12.012012,0,0,-12.012012,244.63596,156.15616)" fill="#ffffff"/>
<use data-text="g" xlink:href="#font_3_74" transform="matrix(12.012012,0,0,-12.012012,251.31464,156.15616)" fill="#ffffff"/>
<use data-text="e" xlink:href="#font_3_72" transform="matrix(12.012012,0,0,-12.012012,257.99333,156.15616)" fill="#ffffff"/>
<use data-text=" " xlink:href="#font_3_3" transform="matrix(12.012012,0,0,-12.012012,264.67198,156.15616)" fill="#ffffff"/>
<use data-text="a" xlink:href="#font_3_68" transform="matrix(12.012012,0,0,-12.012012,268.01133,156.15616)" fill="#ffffff"/>
<use data-text="c" xlink:href="#font_3_70" transform="matrix(12.012012,0,0,-12.012012,274.69,156.15616)" fill="#ffffff"/>
<use data-text="r" xlink:href="#font_3_85" transform="matrix(12.012012,0,0,-12.012012,280.69599,156.15616)" fill="#ffffff"/>
<use data-text="o" xlink:href="#font_3_82" transform="matrix(12.012012,0,0,-12.012012,284.696,156.15616)" fill="#ffffff"/>
<use data-text="s" xlink:href="#font_3_86" transform="matrix(12.012012,0,0,-12.012012,291.37467,156.15616)" fill="#ffffff"/>
<use data-text="s" xlink:href="#font_3_86" transform="matrix(12.012012,0,0,-12.012012,297.38069,156.15616)" fill="#ffffff"/>
<use data-text=" " xlink:href="#font_3_3" transform="matrix(12.012012,0,0,-12.012012,303.3867,156.15616)" fill="#ffffff"/>
<use data-text="r" xlink:href="#font_3_85" transform="matrix(12.012012,0,0,-12.012012,306.72605,156.15616)" fill="#ffffff"/>
<use data-text="e" xlink:href="#font_3_72" transform="matrix(12.012012,0,0,-12.012012,310.72605,156.15616)" fill="#ffffff"/>
<use data-text="l" xlink:href="#font_3_79" transform="matrix(12.012012,0,0,-12.012012,317.40473,156.15616)" fill="#ffffff"/>
<use data-text="a" xlink:href="#font_3_68" transform="matrix(12.012012,0,0,-12.012012,320.07139,156.15616)" fill="#ffffff"/>
<use data-text="y" xlink:href="#font_3_92" transform="matrix(12.012012,0,0,-12.012012,326.75007,156.15616)" fill="#ffffff"/>
<use data-text=" " xlink:href="#font_3_3" transform="matrix(12.012012,0,0,-12.012012,332.75608,156.15616)" fill="#ffffff"/>
<use data-text="n" xlink:href="#font_3_81" transform="matrix(12.012012,0,0,-12.012012,336.0954,156.15616)" fill="#ffffff"/>
<use data-text="o" xlink:href="#font_3_82" transform="matrix(12.012012,0,0,-12.012012,342.77409,156.15616)" fill="#ffffff"/>
<use data-text="d" xlink:href="#font_3_71" transform="matrix(12.012012,0,0,-12.012012,349.45277,156.15616)" fill="#ffffff"/>
<use data-text="e" xlink:href="#font_3_72" transform="matrix(12.012012,0,0,-12.012012,356.1314,156.15616)" fill="#ffffff"/>
<use data-text="s" xlink:href="#font_3_86" transform="matrix(12.012012,0,0,-12.012012,362.8101,156.15616)" fill="#ffffff"/>
<path transform="matrix(.7507507,0,0,.7507507,43.54354,13.513513)" stroke-width="2" stroke-linecap="butt" stroke-miterlimit="4" stroke-linejoin="miter" fill="none" stroke="#d4d4d4" d="M75 80V356"/>
<path transform="matrix(.7507507,0,0,.7507507,43.54354,13.513513)" stroke-width="2" stroke-linecap="butt" stroke-miterlimit="4" stroke-linejoin="miter" fill="none" stroke="#d4d4d4" d="M75 25V45"/>
<path transform="matrix(.7507507,0,0,.7507507,43.54354,13.513513)" stroke-width="2" stroke-linecap="butt" stroke-miterlimit="4" stroke-linejoin="miter" fill="none" stroke="#d4d4d4" d="M57 33H93"/>
<path transform="matrix(.7507507,0,0,.7507507,43.54354,13.513513)" d="M57 60 75 45" fill="#eeeeee"/>
<path transform="matrix(.7507507,0,0,.7507507,43.54354,13.513513)" stroke-width="2" stroke-linecap="butt" stroke-miterlimit="4" stroke-linejoin="miter" fill="none" stroke="#d4d4d4" d="M57 60 75 45"/>
<path transform="matrix(.7507507,0,0,.7507507,43.54354,13.513513)" d="M75 45 91 60" fill="#eeeeee"/>
<path transform="matrix(.7507507,0,0,.7507507,43.54354,13.513513)" stroke-width="2" stroke-linecap="butt" stroke-miterlimit="4" stroke-linejoin="miter" fill="none" stroke="#d4d4d4" d="M75 45 91 60"/>
<path transform="matrix(.7507507,0,0,.7507507,43.54354,13.513513)" d="M90 10C90 10.984914 89.90392 11.960364 89.71178 12.926353 89.51963 13.892343 89.23511 14.830307 88.85819 15.740249 88.48128 16.65019 88.019229 17.514626 87.47204 18.333552 86.92485 19.152478 86.30304 19.91016 85.6066 20.6066 84.910167 21.30304 84.15248 21.924853 83.33355 22.472043 82.51462 23.01923 81.650188 23.48128 80.74024 23.85819 79.83031 24.2351 78.89234 24.519629 77.926349 24.711777 76.96036 24.903925 75.98491 24.999999 75 25 74.01508 24.999999 73.039638 24.903925 72.07364 24.711777 71.10764 24.519629 70.16968 24.235098 69.25974 23.858189 68.3498 23.48128 67.48537 23.01923 66.66644 22.47204 65.84751 21.924853 65.08983 21.30304 64.393398 20.6066 63.696954 19.91016 63.075139 19.152478 62.527948 18.333552 61.98076 17.514626 61.51871 16.65019 61.1418 15.740249 60.76489 14.830307 60.48036 13.892342 60.288217 12.9263529 60.096067 11.960364 59.999998 10.984914 60 10 59.999998 9.015086 60.096067 8.039635 60.28821 7.073645 60.48036 6.1076557 60.76489 5.16969 61.1418 4.259748 61.51871 3.349806 61.98076 2.4853724 62.52795 1.6664463 63.075139 .8475203 63.696954 .08983773 64.393398-.60660168 65.08983-1.303041 65.84751-1.9248549 66.666439-2.4720438 67.48537-3.0192326 68.3498-3.481282 69.25974-3.8581925 70.16968-4.2351028 71.10764-4.5196316 72.07364-4.7117788 73.039638-4.903926 74.01508-4.9999997 75-5 75.98491-4.9999997 76.96036-4.903926 77.926349-4.7117788 78.89234-4.5196316 79.83031-4.2351028 80.74024-3.8581925 81.650188-3.481282 82.51462-3.0192326 83.33355-2.4720438 84.15248-1.9248549 84.910167-1.303041 85.6066-.60660168 86.30304 .08983773 86.92485 .8475203 87.47204 1.6664463 88.019229 2.4853724 88.48128 3.349806 88.858188 4.259748 89.2351 5.16969 89.51963 6.1076557 89.71178 7.0736448 89.90392 8.039634 90 9.015086 90 10Z" fill="#eeeeee"/>
<path transform="matrix(.7507507,0,0,.7507507,43.54354,13.513513)" stroke-width="2" stroke-linecap="butt" stroke-miterlimit="4" stroke-linejoin="miter" fill="none" stroke="#d4d4d4" d="M90 10C90 10.984914 89.90392 11.960364 89.71178 12.926353 89.51963 13.892343 89.23511 14.830307 88.85819 15.740249 88.48128 16.65019 88.019229 17.514626 87.47204 18.333552 86.92485 19.152478 86.30304 19.91016 85.6066 20.6066 84.910167 21.30304 84.15248 21.924853 83.33355 22.472043 82.51462 23.01923 81.650188 23.48128 80.74024 23.85819 79.83031 24.2351 78.89234 24.519629 77.926349 24.711777 76.96036 24.903925 75.98491 24.999999 75 25 74.01508 24.999999 73.039638 24.903925 72.07364 24.711777 71.10764 24.519629 70.16968 24.235098 69.25974 23.858189 68.3498 23.48128 67.48537 23.01923 66.66644 22.47204 65.84751 21.924853 65.08983 21.30304 64.393398 20.6066 63.696954 19.91016 63.075139 19.152478 62.527948 18.333552 61.98076 17.514626 61.51871 16.65019 61.1418 15.740249 60.76489 14.830307 60.48036 13.892342 60.288217 12.9263529 60.096067 11.960364 59.999998 10.984914 60 10 59.999998 9.015086 60.096067 8.039635 60.28821 7.073645 60.48036 6.1076557 60.76489 5.16969 61.1418 4.259748 61.51871 3.349806 61.98076 2.4853724 62.52795 1.6664463 63.075139 .8475203 63.696954 .08983773 64.393398-.60660168 65.08983-1.303041 65.84751-1.9248549 66.666439-2.4720438 67.48537-3.0192326 68.3498-3.481282 69.25974-3.8581925 70.16968-4.2351028 71.10764-4.5196316 72.07364-4.7117788 73.039638-4.903926 74.01508-4.9999997 75-5 75.98491-4.9999997 76.96036-4.903926 77.926349-4.7117788 78.89234-4.5196316 79.83031-4.2351028 80.74024-3.8581925 81.650188-3.481282 82.51462-3.0192326 83.33355-2.4720438 84.15248-1.9248549 84.910167-1.303041 85.6066-.60660168 86.30304 .08983773 86.92485 .8475203 87.47204 1.6664463 88.019229 2.4853724 88.48128 3.349806 88.858188 4.259748 89.2351 5.16969 89.51963 6.1076557 89.71178 7.0736448 89.90392 8.039634 90 9.015086 90 10Z"/>
<use data-text="A" xlink:href="#font_3_36" transform="matrix(12.012012,0,0,-12.012012,86.82901,68.693698)" fill="#333333"/>
<use data-text="l" xlink:href="#font_3_79" transform="matrix(12.012012,0,0,-12.012012,94.84102,68.693698)" fill="#333333"/>
<use data-text="i" xlink:href="#font_3_76" transform="matrix(12.012012,0,0,-12.012012,97.50769,68.693698)" fill="#333333"/>
<use data-text="c" xlink:href="#font_3_70" transform="matrix(12.012012,0,0,-12.012012,100.17436,68.693698)" fill="#333333"/>
<use data-text="e" xlink:href="#font_3_72" transform="matrix(12.012012,0,0,-12.012012,106.18036,68.693698)" fill="#333333"/>
<path transform="matrix(.7507507,0,0,.7507507,43.54354,13.513513)" stroke-width="2" stroke-linecap="butt" stroke-miterlimit="4" stroke-linejoin="miter" fill="none" stroke="#d4d4d4" d="M475 80V356"/>
<path transform="matrix(.7507507,0,0,.7507507,43.54354,13.513513)" stroke-width="2" stroke-linecap="butt" stroke-miterlimit="4" stroke-linejoin="miter" fill="none" stroke="#d4d4d4" d="M475 25V45"/>
<path transform="matrix(.7507507,0,0,.7507507,43.54354,13.513513)" stroke-width="2" stroke-linecap="butt" stroke-miterlimit="4" stroke-linejoin="miter" fill="none" stroke="#d4d4d4" d="M457 33H493"/>
<path transform="matrix(.7507507,0,0,.7507507,43.54354,13.513513)" d="M457 60 475 45" fill="#eeeeee"/>
<path transform="matrix(.7507507,0,0,.7507507,43.54354,13.513513)" stroke-width="2" stroke-linecap="butt" stroke-miterlimit="4" stroke-linejoin="miter" fill="none" stroke="#d4d4d4" d="M457 60 475 45"/>
<path transform="matrix(.7507507,0,0,.7507507,43.54354,13.513513)" d="M475 45 491 60" fill="#eeeeee"/>
<path transform="matrix(.7507507,0,0,.7507507,43.54354,13.513513)" stroke-width="2" stroke-linecap="butt" stroke-miterlimit="4" stroke-linejoin="miter" fill="none" stroke="#d4d4d4" d="M475 45 491 60"/>
<path transform="matrix(.7507507,0,0,.7507507,43.54354,13.513513)" d="M490 10C489.99998 10.984914 489.9039 11.960364 489.71174 12.926353 489.51957 13.892343 489.23506 14.830307 488.85813 15.740249 488.4812 16.65019 488.01918 17.514626 487.472 18.333552 486.92478 19.152478 486.30299 19.91016 485.60658 20.6066 484.91014 21.30304 484.15245 21.924853 483.3335 22.472043 482.51457 23.01923 481.65013 23.48128 480.7402 23.85819 479.83027 24.2351 478.8923 24.519629 477.92634 24.711777 476.96034 24.903925 475.9849 24.999999 475 25 474.01509 24.999999 473.0396 24.903925 472.07365 24.711777 471.1076 24.519629 470.16966 24.235098 469.2597 23.858189 468.34977 23.48128 467.48533 23.01923 466.6664 22.47204 465.84748 21.924853 465.08979 21.30304 464.39338 20.6066 463.69694 19.91016 463.0751 19.152478 462.5279 18.333552 461.9807 17.514626 461.51869 16.65019 461.14176 15.740249 460.76487 14.830307 460.48036 13.892342 460.28819 12.9263529 460.09605 11.960364 459.99998 10.984914 460 10 459.99998 9.015086 460.09605 8.039635 460.28819 7.073645 460.48036 6.1076557 460.76487 5.16969 461.14176 4.259748 461.51869 3.349806 461.9807 2.4853724 462.5279 1.6664463 463.0751 .8475203 463.69694 .08983773 464.39338-.60660168 465.08979-1.303041 465.84748-1.9248549 466.6664-2.4720438 467.48533-3.0192326 468.34977-3.481282 469.2597-3.8581925 470.16966-4.2351028 471.1076-4.5196316 472.0736-4.7117788 473.0396-4.903926 474.01509-4.9999997 475-5 475.9849-4.9999997 476.96034-4.903926 477.92634-4.7117788 478.8923-4.5196316 479.83027-4.2351028 480.7402-3.8581925 481.65013-3.481282 482.51457-3.0192326 483.3335-2.4720438 484.15245-1.9248549 484.91014-1.303041 485.60658-.60660168 486.30299 .08983773 486.9248 .8475203 487.47203 1.6664463 488.01918 2.4853724 488.48124 3.349806 488.85816 4.259748 489.23506 5.16969 489.51957 6.1076557 489.71174 7.0736448 489.9039 8.039634 489.99998 9.015086 490 10Z" fill="#eeeeee"/>
<path transform="matrix(.7507507,0,0,.7507507,43.54354,13.513513)" stroke-width="2" stroke-linecap="butt" stroke-miterlimit="4" stroke-linejoin="miter" fill="none" stroke="#d4d4d4" d="M490 10C489.99998 10.984914 489.9039 11.960364 489.71174 12.926353 489.51957 13.892343 489.23506 14.830307 488.85813 15.740249 488.4812 16.65019 488.01918 17.514626 487.472 18.333552 486.92478 19.152478 486.30299 19.91016 485.60658 20.6066 484.91014 21.30304 484.15245 21.924853 483.3335 22.472043 482.51457 23.01923 481.65013 23.48128 480.7402 23.85819 479.83027 24.2351 478.8923 24.519629 477.92634 24.711777 476.96034 24.903925 475.9849 24.999999 475 25 474.01509 24.999999 473.0396 24.903925 472.07365 24.711777 471.1076 24.519629 470.16966 24.235098 469.2597 23.858189 468.34977 23.48128 467.48533 23.01923 466.6664 22.47204 465.84748 21.924853 465.08979 21.30304 464.39338 20.6066 463.69694 19.91016 463.0751 19.152478 462.5279 18.333552 461.9807 17.514626 461.51869 16.65019 461.14176 15.740249 460.76487 14.830307 460.48036 13.892342 460.28819 12.9263529 460.09605 11.960364 459.99998 10.984914 460 10 459.99998 9.015086 460.09605 8.039635 460.28819 7.073645 460.48036 6.1076557 460.76487 5.16969 461.14176 4.259748 461.51869 3.349806 461.9807 2.4853724 462.5279 1.6664463 463.0751 .8475203 463.69694 .08983773 464.39338-.60660168 465.08979-1.303041 465.84748-1.9248549 466.6664-2.4720438 467.48533-3.0192326 468.34977-3.481282 469.2597-3.8581925 470.16966-4.2351028 471.1076-4.5196316 472.0736-4.7117788 473.0396-4.903926 474.01509-4.9999997 475-5 475.9849-4.9999997 476.96034-4.903926 477.92634-4.7117788 478.8923-4.5196316 479.83027-4.2351028 480.7402-3.8581925 481.65013-3.481282 482.51457-3.0192326 483.3335-2.4720438 484.15245-1.9248549 484.91014-1.303041 485.60658-.60660168 486.30299 .08983773 486.9248 .8475203 487.47203 1.6664463 488.01918 2.4853724 488.48124 3.349806 488.85816 4.259748 489.23506 5.16969 489.51957 6.1076557 489.71174 7.0736448 489.9039 8.039634 489.99998 9.015086 490 10Z"/>
<use data-text="B" xlink:href="#font_3_37" transform="matrix(12.012012,0,0,-12.012012,389.46369,68.693698)" fill="#333333"/>
<use data-text="o" xlink:href="#font_3_82" transform="matrix(12.012012,0,0,-12.012012,397.47569,68.693698)" fill="#333333"/>
<use data-text="b" xlink:href="#font_3_69" transform="matrix(12.012012,0,0,-12.012012,404.15437,68.693698)" fill="#333333"/>
<use data-text="Q" xlink:href="#font_3_52" transform="matrix(12.012012,0,0,-12.012012,127.09975,88.75281)" fill="#333333"/>
<use data-text="u" xlink:href="#font_3_88" transform="matrix(12.012012,0,0,-12.012012,136.4451,88.75281)" fill="#333333"/>
<use data-text="e" xlink:href="#font_3_72" transform="matrix(12.012012,0,0,-12.012012,143.12378,88.75281)" fill="#333333"/>
<use data-text="u" xlink:href="#font_3_88" transform="matrix(12.012012,0,0,-12.012012,149.80245,88.75281)" fill="#333333"/>
<use data-text="e" xlink:href="#font_3_72" transform="matrix(12.012012,0,0,-12.012012,156.48111,88.75281)" fill="#333333"/>
<use data-text="s" xlink:href="#font_3_86" transform="matrix(12.012012,0,0,-12.012012,163.15979,88.75281)" fill="#333333"/>
<use data-text=" " xlink:href="#font_3_3" transform="matrix(12.012012,0,0,-12.012012,169.1658,88.75281)" fill="#333333"/>
<use data-text="M" xlink:href="#font_3_48" transform="matrix(12.012012,0,0,-12.012012,172.50513,88.75281)" fill="#333333"/>
<use data-text="e" xlink:href="#font_3_72" transform="matrix(12.012012,0,0,-12.012012,182.51114,88.75281)" fill="#333333"/>
<use data-text="s" xlink:href="#font_3_86" transform="matrix(12.012012,0,0,-12.012012,189.18982,88.75281)" fill="#333333"/>
<use data-text="s" xlink:href="#font_3_86" transform="matrix(12.012012,0,0,-12.012012,195.19583,88.75281)" fill="#333333"/>
<use data-text="a" xlink:href="#font_3_68" transform="matrix(12.012012,0,0,-12.012012,201.20185,88.75281)" fill="#333333"/>
<use data-text="g" xlink:href="#font_3_74" transform="matrix(12.012012,0,0,-12.012012,207.88053,88.75281)" fill="#333333"/>
<use data-text="e" xlink:href="#font_3_72" transform="matrix(12.012012,0,0,-12.012012,214.55918,88.75281)" fill="#333333"/>
<path transform="matrix(.7507507,0,0,.7507507,43.54354,13.513513)" d="M76 110.25H79V111.75H76M82 110.25H85V111.75H82M88 110.25H91V111.75H88M94 110.25H97V111.75H94M100 110.25H103V111.75H100M106 110.25H109V111.75H106M112 110.25H115V111.75H112M118 110.25H121V111.75H118M124 110.25H127V111.75H124M130 110.25H133V111.75H130M136 110.25H139V111.75H136M142 110.25H145V111.75H142M148 110.25H151V111.75H148M154 110.25H157V111.75H154M160 110.25H163V111.75H160M166 110.25H169V111.75H166M172 110.25H175V111.75H172M178 110.25H181V111.75H178M184 110.25H187V111.75H184M190 110.25H193V111.75H190M196 110.25H199V111.75H196M202 110.25H205V111.75H202M208 110.25H211V111.75H208M214 110.25H217V111.75H214M220 110.25H223V111.75H220M226 110.25H229V111.75H226M232 110.25H235V111.75H232M238 110.25H241V111.75H238M244 110.25H247V111.75H244M250 110.25H253V111.75H250M256 110.25H259V111.75H256M262 110.25H265V111.75H262M268 110.25H271V111.75H268" fill="#333333"/>
</g>
<g clip-path="url(#clip_4)">
<path transform="matrix(.7507507,0,0,.7507507,241.06606,93.09309)" d="M0 0 10 5 0 10V0Z" fill="#333333"/>
<path transform="matrix(.7507507,0,0,.7507507,241.06606,93.09309)" stroke-width="1" stroke-linecap="butt" stroke-miterlimit="4" stroke-linejoin="miter" fill="none" stroke="#333333" d="M0 0 10 5 0 10V0Z"/>
</g>
<g clip-path="url(#clip_5)">
<use data-text="Q" xlink:href="#font_3_52" transform="matrix(12.012012,0,0,-12.012012,155.05348,123.287349)" fill="#333333"/>
<use data-text="u" xlink:href="#font_3_88" transform="matrix(12.012012,0,0,-12.012012,164.39884,123.287349)" fill="#333333"/>
<use data-text="e" xlink:href="#font_3_72" transform="matrix(12.012012,0,0,-12.012012,171.0775,123.287349)" fill="#333333"/>
<use data-text="u" xlink:href="#font_3_88" transform="matrix(12.012012,0,0,-12.012012,177.75617,123.287349)" fill="#333333"/>
<use data-text="e" xlink:href="#font_3_72" transform="matrix(12.012012,0,0,-12.012012,184.43485,123.287349)" fill="#333333"/>
<use data-text="d" xlink:href="#font_3_71" transform="matrix(12.012012,0,0,-12.012012,191.11353,123.287349)" fill="#333333"/>
<path transform="matrix(.7507507,0,0,.7507507,43.54354,13.513513)" d="M274 155.75H271V154.25H274M268 155.75H265V154.25H268M262 155.75H259V154.25H262M256 155.75H253V154.25H256M250 155.75H247V154.25H250M244 155.75H241V154.25H244M238 155.75H235V154.25H238M232 155.75H229V154.25H232M226 155.75H223V154.25H226M220 155.75H217V154.25H220M214 155.75H211V154.25H214M208 155.75H205V154.25H208M202 155.75H199V154.25H202M196 155.75H193V154.25H196M190 155.75H187V154.25H190M184 155.75H181V154.25H184M178 155.75H175V154.25H178M172 155.75H169V154.25H172M166 155.75H163V154.25H166M160 155.75H157V154.25H160M154 155.75H151V154.25H154M148 155.75H145V154.25H148M142 155.75H139V154.25H142M136 155.75H133V154.25H136M130 155.75H127V154.25H130M124 155.75H121V154.25H124M118 155.75H115V154.25H118M112 155.75H109V154.25H112M106 155.75H103V154.25H106M100 155.75H97V154.25H100M94 155.75H91V154.25H94M88 155.75H85V154.25H88M82 155.75H79V154.25H82" fill="#333333"/>
</g>
<g clip-path="url(#clip_6)">
<g clip-path="url(#clip_7)">
<g clip-path="url(#clip_8)">
<path transform="matrix(-.7507507,.00000000000000009194045,-.00000000000000009194045,-.7507507,108.783779,133.63362)" d="M0 0 10 5 0 10V0Z" fill="#333333"/>
<path transform="matrix(-.7507507,.00000000000000009194045,-.00000000000000009194045,-.7507507,108.783779,133.63362)" stroke-width="1" stroke-linecap="butt" stroke-miterlimit="4" stroke-linejoin="miter" fill="none" stroke="#333333" d="M0 0 10 5 0 10V0Z"/>
</g>
</g>
</g>
<g clip-path="url(#clip_9)">
<use data-text="F" xlink:href="#font_3_41" transform="matrix(12.012012,0,0,-12.012012,289.93055,191.60567)" fill="#333333"/>
<use data-text="l" xlink:href="#font_3_79" transform="matrix(12.012012,0,0,-12.012012,297.2699,191.60567)" fill="#333333"/>
<use data-text="u" xlink:href="#font_3_88" transform="matrix(12.012012,0,0,-12.012012,299.93656,191.60567)" fill="#333333"/>
<use data-text="s" xlink:href="#font_3_86" transform="matrix(12.012012,0,0,-12.012012,306.61524,191.60567)" fill="#333333"/>
<use data-text="h" xlink:href="#font_3_75" transform="matrix(12.012012,0,0,-12.012012,312.62126,191.60567)" fill="#333333"/>
<use data-text=" " xlink:href="#font_3_3" transform="matrix(12.012012,0,0,-12.012012,319.29994,191.60567)" fill="#333333"/>
<use data-text="Q" xlink:href="#font_3_52" transform="matrix(12.012012,0,0,-12.012012,322.63926,191.60567)" fill="#333333"/>
<use data-text="u" xlink:href="#font_3_88" transform="matrix(12.012012,0,0,-12.012012,331.9846,191.60567)" fill="#333333"/>
<use data-text="e" xlink:href="#font_3_72" transform="matrix(12.012012,0,0,-12.012012,338.66328,191.60567)" fill="#333333"/>
<use data-text="u" xlink:href="#font_3_88" transform="matrix(12.012012,0,0,-12.012012,345.34196,191.60567)" fill="#333333"/>
<use data-text="e" xlink:href="#font_3_72" transform="matrix(12.012012,0,0,-12.012012,352.02064,191.60567)" fill="#333333"/>
<path transform="matrix(.7507507,0,0,.7507507,43.54354,13.513513)" d="M276 245.25H279V246.75H276M282 245.25H285V246.75H282M288 245.25H291V246.75H288M294 245.25H297V246.75H294M300 245.25H303V246.75H300M306 245.25H309V246.75H306M312 245.25H315V246.75H312M318 245.25H321V246.75H318M324 245.25H327V246.75H324M330 245.25H333V246.75H330M336 245.25H339V246.75H336M342 245.25H345V246.75H342M348 245.25H351V246.75H348M354 245.25H357V246.75H354M360 245.25H363V246.75H360M366 245.25H369V246.75H366M372 245.25H375V246.75H372M378 245.25H381V246.75H378M384 245.25H387V246.75H384M390 245.25H393V246.75H390M396 245.25H399V246.75H396M402 245.25H405V246.75H402M408 245.25H411V246.75H408M414 245.25H417V246.75H414M420 245.25H423V246.75H420M426 245.25H429V246.75H426M432 245.25H435V246.75H432M438 245.25H441V246.75H438M444 245.25H447V246.75H444M450 245.25H453V246.75H450M456 245.25H459V246.75H456M462 245.25H465V246.75H462M468 245.25H471V246.75H468" fill="#333333"/>
</g>
<g clip-path="url(#clip_10)">
<path transform="matrix(.7507507,0,0,.7507507,391.2162,194.44445)" d="M0 0 10 5 0 10V0Z" fill="#333333"/>
<path transform="matrix(.7507507,0,0,.7507507,391.2162,194.44445)" stroke-width="1" stroke-linecap="butt" stroke-miterlimit="4" stroke-linejoin="miter" fill="none" stroke="#333333" d="M0 0 10 5 0 10V0Z"/>
</g>
<g clip-path="url(#clip_11)">
<use data-text="R" xlink:href="#font_3_53" transform="matrix(12.012012,0,0,-12.012012,301.53199,224.6387)" fill="#333333"/>
<use data-text="e" xlink:href="#font_3_72" transform="matrix(12.012012,0,0,-12.012012,310.20469,224.6387)" fill="#333333"/>
<use data-text="c" xlink:href="#font_3_70" transform="matrix(12.012012,0,0,-12.012012,316.88334,224.6387)" fill="#333333"/>
<use data-text="e" xlink:href="#font_3_72" transform="matrix(12.012012,0,0,-12.012012,322.88935,224.6387)" fill="#333333"/>
<use data-text="i" xlink:href="#font_3_76" transform="matrix(12.012012,0,0,-12.012012,329.56803,224.6387)" fill="#333333"/>
<use data-text="v" xlink:href="#font_3_89" transform="matrix(12.012012,0,0,-12.012012,332.23469,224.6387)" fill="#333333"/>
<use data-text="e" xlink:href="#font_3_72" transform="matrix(12.012012,0,0,-12.012012,338.2407,224.6387)" fill="#333333"/>
<use data-text="d" xlink:href="#font_3_71" transform="matrix(12.012012,0,0,-12.012012,344.91938,224.6387)" fill="#333333"/>
<path transform="matrix(.7507507,0,0,.7507507,43.54354,13.513513)" d="M474 290.75H471V289.25H474M468 290.75H465V289.25H468M462 290.75H459V289.25H462M456 290.75H453V289.25H456M450 290.75H447V289.25H450M444 290.75H441V289.25H444M438 290.75H435V289.25H438M432 290.75H429V289.25H432M426 290.75H423V289.25H426M420 290.75H417V289.25H420M414 290.75H411V289.25H414M408 290.75H405V289.25H408M402 290.75H399V289.25H402M396 290.75H393V289.25H396M390 290.75H387V289.25H390M384 290.75H381V289.25H384M378 290.75H375V289.25H378M372 290.75H369V289.25H372M366 290.75H363V289.25H366M360 290.75H357V289.25H360M354 290.75H351V289.25H354M348 290.75H345V289.25H348M342 290.75H339V289.25H342M336 290.75H333V289.25H336M330 290.75H327V289.25H330M324 290.75H321V289.25H324M318 290.75H315V289.25H318M312 290.75H309V289.25H312M306 290.75H303V289.25H306M300 290.75H297V289.25H300M294 290.75H291V289.25H294M288 290.75H285V289.25H288M282 290.75H279V289.25H282" fill="#333333"/>
</g>
<g clip-path="url(#clip_12)">
<g clip-path="url(#clip_13)">
<g clip-path="url(#clip_14)">
<path transform="matrix(-.7507507,.00000000000000009194045,-.00000000000000009194045,-.7507507,258.93394,234.98499)" d="M0 0 10 5 0 10V0Z" fill="#333333"/>
<path transform="matrix(-.7507507,.00000000000000009194045,-.00000000000000009194045,-.7507507,258.93394,234.98499)" stroke-width="1" stroke-linecap="butt" stroke-miterlimit="4" stroke-linejoin="miter" fill="none" stroke="#333333" d="M0 0 10 5 0 10V0Z"/>
</g>
</g>
</g>
<g clip-path="url(#clip_15)">
<use data-text="A" xlink:href="#font_3_36" transform="matrix(12.012012,0,0,-12.012012,144.37876,257.67173)" fill="#333333"/>
<use data-text="c" xlink:href="#font_3_70" transform="matrix(12.012012,0,0,-12.012012,152.39075,257.67173)" fill="#333333"/>
<use data-text="k" xlink:href="#font_3_78" transform="matrix(12.012012,0,0,-12.012012,158.39676,257.67173)" fill="#333333"/>
<use data-text=" " xlink:href="#font_3_3" transform="matrix(12.012012,0,0,-12.012012,164.40277,257.67173)" fill="#333333"/>
<use data-text="R" xlink:href="#font_3_53" transform="matrix(12.012012,0,0,-12.012012,167.7421,257.67173)" fill="#333333"/>
<use data-text="e" xlink:href="#font_3_72" transform="matrix(12.012012,0,0,-12.012012,176.41477,257.67173)" fill="#333333"/>
<use data-text="c" xlink:href="#font_3_70" transform="matrix(12.012012,0,0,-12.012012,183.09345,257.67173)" fill="#333333"/>
<use data-text="e" xlink:href="#font_3_72" transform="matrix(12.012012,0,0,-12.012012,189.09946,257.67173)" fill="#333333"/>
<use data-text="i" xlink:href="#font_3_76" transform="matrix(12.012012,0,0,-12.012012,195.77814,257.67173)" fill="#333333"/>
<use data-text="p" xlink:href="#font_3_83" transform="matrix(12.012012,0,0,-12.012012,198.4448,257.67173)" fill="#333333"/>
<use data-text="t" xlink:href="#font_3_87" transform="matrix(12.012012,0,0,-12.012012,205.12348,257.67173)" fill="#333333"/>
<path transform="matrix(.7507507,0,0,.7507507,43.54354,13.513513)" d="M274 336.75H271V335.25H274M268 336.75H265V335.25H268M262 336.75H259V335.25H262M256 336.75H253V335.25H256M250 336.75H247V335.25H250M244 336.75H241V335.25H244M238 336.75H235V335.25H238M232 336.75H229V335.25H232M226 336.75H223V335.25H226M220 336.75H217V335.25H220M214 336.75H211V335.25H214M208 336.75H205V335.25H208M202 336.75H199V335.25H202M196 336.75H193V335.25H196M190 336.75H187V335.25H190M184 336.75H181V335.25H184M178 336.75H175V335.25H178M172 336.75H169V335.25H172M166 336.75H163V335.25H166M160 336.75H157V335.25H160M154 336.75H151V335.25H154M148 336.75H145V335.25H148M142 336.75H139V335.25H142M136 336.75H133V335.25H136M130 336.75H127V335.25H130M124 336.75H121V335.25H124M118 336.75H115V335.25H118M112 336.75H109V335.25H112M106 336.75H103V335.25H106M100 336.75H97V335.25H100M94 336.75H91V335.25H94M88 336.75H85V335.25H88M82 336.75H79V335.25H82" fill="#333333"/>
</g>
<g clip-path="url(#clip_16)">
<g clip-path="url(#clip_17)">
<g clip-path="url(#clip_18)">
<path transform="matrix(-.7507507,.00000000000000009194045,-.00000000000000009194045,-.7507507,108.783779,269.5195)" d="M0 0 10 5 0 10V0Z" fill="#333333"/>
<path transform="matrix(-.7507507,.00000000000000009194045,-.00000000000000009194045,-.7507507,108.783779,269.5195)" stroke-width="1" stroke-linecap="butt" stroke-miterlimit="4" stroke-linejoin="miter" fill="none" stroke="#333333" d="M0 0 10 5 0 10V0Z"/>
</g>
</g>
</g>
<g clip-path="url(#clip_19)">
<path transform="matrix(.7507507,0,0,.7507507,43.54354,13.513513)" stroke-width="2" stroke-linecap="butt" stroke-miterlimit="4" stroke-linejoin="miter" fill="none" stroke="#d4d4d4" d="M75 381V401"/>
<path transform="matrix(.7507507,0,0,.7507507,43.54354,13.513513)" stroke-width="2" stroke-linecap="butt" stroke-miterlimit="4" stroke-linejoin="miter" fill="none" stroke="#d4d4d4" d="M57 389H93"/>
<path transform="matrix(.7507507,0,0,.7507507,43.54354,13.513513)" d="M57 416 75 401" fill="#eeeeee"/>
<path transform="matrix(.7507507,0,0,.7507507,43.54354,13.513513)" stroke-width="2" stroke-linecap="butt" stroke-miterlimit="4" stroke-linejoin="miter" fill="none" stroke="#d4d4d4" d="M57 416 75 401"/>
<path transform="matrix(.7507507,0,0,.7507507,43.54354,13.513513)" d="M75 401 91 416" fill="#eeeeee"/>
<path transform="matrix(.7507507,0,0,.7507507,43.54354,13.513513)" stroke-width="2" stroke-linecap="butt" stroke-miterlimit="4" stroke-linejoin="miter" fill="none" stroke="#d4d4d4" d="M75 401 91 416"/>
<path transform="matrix(.7507507,0,0,.7507507,43.54354,13.513513)" d="M90 366C90 366.9849 89.90392 367.96037 89.71178 368.92634 89.51963 369.8923 89.23511 370.83027 88.85819 371.7402 88.48128 372.65016 88.019229 373.5146 87.47204 374.33354 86.92485 375.15248 86.30304 375.91017 85.6066 376.6066 84.910167 377.30305 84.15248 377.92485 83.33355 378.47203 82.51462 379.0192 81.650188 379.48124 80.74024 379.85816 79.83031 380.23509 78.89234 380.5196 77.926349 380.71177 76.96036 380.90394 75.98491 381 75 381 74.01508 381 73.039638 380.90394 72.07364 380.71177 71.10764 380.5196 70.16968 380.23509 69.25974 379.85816 68.3498 379.48124 67.48537 379.0192 66.66644 378.47203 65.84751 377.92485 65.08983 377.30305 64.393398 376.6066 63.696954 375.91017 63.075139 375.15248 62.527948 374.33354 61.98076 373.5146 61.51871 372.65019 61.1418 371.74024 60.76489 370.8303 60.48036 369.8923 60.288217 368.92634 60.096067 367.96037 59.999998 366.9849 60 366 59.999998 365.01509 60.096067 364.0396 60.28821 363.0736 60.48036 362.10765 60.76489 361.16966 61.1418 360.2597 61.51871 359.34977 61.98076 358.48533 62.52795 357.66639 63.075139 356.84748 63.696954 356.0898 64.393398 355.39338 65.08983 354.69694 65.84751 354.0751 66.666439 353.5279 67.48537 352.9807 68.3498 352.51869 69.25974 352.14176 70.16968 351.76487 71.10764 351.48036 72.07364 351.2882 73.039638 351.09608 74.01508 351 75 351 75.98491 351 76.96036 351.09608 77.926349 351.28819 78.89234 351.48036 79.83031 351.76487 80.74024 352.14176 81.650188 352.51869 82.51462 352.9807 83.33355 353.52793 84.15248 354.0751 84.910167 354.69694 85.6066 355.39338 86.30304 356.0898 86.92485 356.84748 87.47204 357.66639 88.019229 358.48533 88.48128 359.34977 88.858188 360.2597 89.2351 361.16966 89.51963 362.10765 89.71178 363.0736 89.90392 364.0396 90 365.01509 90 366Z" fill="#eeeeee"/>
<path transform="matrix(.7507507,0,0,.7507507,43.54354,13.513513)" stroke-width="2" stroke-linecap="butt" stroke-miterlimit="4" stroke-linejoin="miter" fill="none" stroke="#d4d4d4" d="M90 366C90 366.9849 89.90392 367.96037 89.71178 368.92634 89.51963 369.8923 89.23511 370.83027 88.85819 371.7402 88.48128 372.65016 88.019229 373.5146 87.47204 374.33354 86.92485 375.15248 86.30304 375.91017 85.6066 376.6066 84.910167 377.30305 84.15248 377.92485 83.33355 378.47203 82.51462 379.0192 81.650188 379.48124 80.74024 379.85816 79.83031 380.23509 78.89234 380.5196 77.926349 380.71177 76.96036 380.90394 75.98491 381 75 381 74.01508 381 73.039638 380.90394 72.07364 380.71177 71.10764 380.5196 70.16968 380.23509 69.25974 379.85816 68.3498 379.48124 67.48537 379.0192 66.66644 378.47203 65.84751 377.92485 65.08983 377.30305 64.393398 376.6066 63.696954 375.91017 63.075139 375.15248 62.527948 374.33354 61.98076 373.5146 61.51871 372.65019 61.1418 371.74024 60.76489 370.8303 60.48036 369.8923 60.288217 368.92634 60.096067 367.96037 59.999998 366.9849 60 366 59.999998 365.01509 60.096067 364.0396 60.28821 363.0736 60.48036 362.10765 60.76489 361.16966 61.1418 360.2597 61.51871 359.34977 61.98076 358.48533 62.52795 357.66639 63.075139 356.84748 63.696954 356.0898 64.393398 355.39338 65.08983 354.69694 65.84751 354.0751 66.666439 353.5279 67.48537 352.9807 68.3498 352.51869 69.25974 352.14176 70.16968 351.76487 71.10764 351.48036 72.07364 351.2882 73.039638 351.09608 74.01508 351 75 351 75.98491 351 76.96036 351.09608 77.926349 351.28819 78.89234 351.48036 79.83031 351.76487 80.74024 352.14176 81.650188 352.51869 82.51462 352.9807 83.33355 353.52793 84.15248 354.0751 84.910167 354.69694 85.6066 355.39338 86.30304 356.0898 86.92485 356.84748 87.47204 357.66639 88.019229 358.48533 88.48128 359.34977 88.858188 360.2597 89.2351 361.16966 89.51963 362.10765 89.71178 363.0736 89.90392 364.0396 90 365.01509 90 366Z"/>
<use data-text="A" xlink:href="#font_3_36" transform="matrix(12.012012,0,0,-12.012012,86.82901,335.96098)" fill="#333333"/>
<use data-text="l" xlink:href="#font_3_79" transform="matrix(12.012012,0,0,-12.012012,94.84102,335.96098)" fill="#333333"/>
<use data-text="i" xlink:href="#font_3_76" transform="matrix(12.012012,0,0,-12.012012,97.50769,335.96098)" fill="#333333"/>
<use data-text="c" xlink:href="#font_3_70" transform="matrix(12.012012,0,0,-12.012012,100.17436,335.96098)" fill="#333333"/>
<use data-text="e" xlink:href="#font_3_72" transform="matrix(12.012012,0,0,-12.012012,106.18036,335.96098)" fill="#333333"/>
<path transform="matrix(.7507507,0,0,.7507507,43.54354,13.513513)" stroke-width="2" stroke-linecap="butt" stroke-miterlimit="4" stroke-linejoin="miter" fill="none" stroke="#d4d4d4" d="M475 381V401"/>
<path transform="matrix(.7507507,0,0,.7507507,43.54354,13.513513)" stroke-width="2" stroke-linecap="butt" stroke-miterlimit="4" stroke-linejoin="miter" fill="none" stroke="#d4d4d4" d="M457 389H493"/>
<path transform="matrix(.7507507,0,0,.7507507,43.54354,13.513513)" d="M457 416 475 401" fill="#eeeeee"/>
<path transform="matrix(.7507507,0,0,.7507507,43.54354,13.513513)" stroke-width="2" stroke-linecap="butt" stroke-miterlimit="4" stroke-linejoin="miter" fill="none" stroke="#d4d4d4" d="M457 416 475 401"/>
<path transform="matrix(.7507507,0,0,.7507507,43.54354,13.513513)" d="M475 401 491 416" fill="#eeeeee"/>
<path transform="matrix(.7507507,0,0,.7507507,43.54354,13.513513)" stroke-width="2" stroke-linecap="butt" stroke-miterlimit="4" stroke-linejoin="miter" fill="none" stroke="#d4d4d4" d="M475 401 491 416"/>
<path transform="matrix(.7507507,0,0,.7507507,43.54354,13.513513)" d="M490 366C489.99998 366.9849 489.9039 367.96037 489.71174 368.92634 489.51957 369.8923 489.23506 370.83027 488.85813 371.7402 488.4812 372.65016 488.01918 373.5146 487.472 374.33354 486.92478 375.15248 486.30299 375.91017 485.60658 376.6066 484.91014 377.30305 484.15245 377.92485 483.3335 378.47203 482.51457 379.0192 481.65013 379.48124 480.7402 379.85816 479.83027 380.23509 478.8923 380.5196 477.92634 380.71177 476.96034 380.90394 475.9849 381 475 381 474.01509 381 473.0396 380.90394 472.07365 380.71177 471.1076 380.5196 470.16966 380.23509 469.2597 379.85816 468.34977 379.48124 467.48533 379.0192 466.6664 378.47203 465.84748 377.92485 465.08979 377.30305 464.39338 376.6066 463.69694 375.91017 463.0751 375.15248 462.5279 374.33354 461.9807 373.5146 461.51869 372.65019 461.14176 371.74024 460.76487 370.8303 460.48036 369.8923 460.28819 368.92634 460.09605 367.96037 459.99998 366.9849 460 366 459.99998 365.01509 460.09605 364.0396 460.28819 363.0736 460.48036 362.10765 460.76487 361.16966 461.14176 360.2597 461.51869 359.34977 461.9807 358.48533 462.5279 357.66639 463.0751 356.84748 463.69694 356.0898 464.39338 355.39338 465.08979 354.69694 465.84748 354.0751 466.6664 353.5279 467.48533 352.9807 468.34977 352.51869 469.2597 352.14176 470.16966 351.76487 471.1076 351.48036 472.0736 351.2882 473.0396 351.09608 474.01509 351 475 351 475.9849 351 476.96034 351.09608 477.92634 351.28819 478.8923 351.48036 479.83027 351.76487 480.7402 352.14176 481.65013 352.51869 482.51457 352.9807 483.3335 353.52793 484.15245 354.0751 484.91014 354.69694 485.60658 355.39338 486.30299 356.0898 486.9248 356.84748 487.47203 357.66639 488.01918 358.48533 488.48124 359.34977 488.85816 360.2597 489.23506 361.16966 489.51957 362.10765 489.71174 363.0736 489.9039 364.0396 489.99998 365.01509 490 366Z" fill="#eeeeee"/>
<path transform="matrix(.7507507,0,0,.7507507,43.54354,13.513513)" stroke-width="2" stroke-linecap="butt" stroke-miterlimit="4" stroke-linejoin="miter" fill="none" stroke="#d4d4d4" d="M490 366C489.99998 366.9849 489.9039 367.96037 489.71174 368.92634 489.51957 369.8923 489.23506 370.83027 488.85813 371.7402 488.4812 372.65016 488.01918 373.5146 487.472 374.33354 486.92478 375.15248 486.30299 375.91017 485.60658 376.6066 484.91014 377.30305 484.15245 377.92485 483.3335 378.47203 482.51457 379.0192 481.65013 379.48124 480.7402 379.85816 479.83027 380.23509 478.8923 380.5196 477.92634 380.71177 476.96034 380.90394 475.9849 381 475 381 474.01509 381 473.0396 380.90394 472.07365 380.71177 471.1076 380.5196 470.16966 380.23509 469.2597 379.85816 468.34977 379.48124 467.48533 379.0192 466.6664 378.47203 465.84748 377.92485 465.08979 377.30305 464.39338 376.6066 463.69694 375.91017 463.0751 375.15248 462.5279 374.33354 461.9807 373.5146 461.51869 372.65019 461.14176 371.74024 460.76487 370.8303 460.48036 369.8923 460.28819 368.92634 460.09605 367.96037 459.99998 366.9849 460 366 459.99998 365.01509 460.09605 364.0396 460.28819 363.0736 460.48036 362.10765 460.76487 361.16966 461.14176 360.2597 461.51869 359.34977 461.9807 358.48533 462.5279 357.66639 463.0751 356.84748 463.69694 356.0898 464.39338 355.39338 465.08979 354.69694 465.84748 354.0751 466.6664 353.5279 467.48533 352.9807 468.34977 352.51869 469.2597 352.14176 470.16966 351.76487 471.1076 351.48036 472.0736 351.2882 473.0396 351.09608 474.01509 351 475 351 475.9849 351 476.96034 351.09608 477.92634 351.28819 478.8923 351.48036 479.83027 351.76487 480.7402 352.14176 481.65013 352.51869 482.51457 352.9807 483.3335 353.52793 484.15245 354.0751 484.91014 354.69694 485.60658 355.39338 486.30299 356.0898 486.9248 356.84748 487.47203 357.66639 488.01918 358.48533 488.48124 359.34977 488.85816 360.2597 489.23506 361.16966 489.51957 362.10765 489.71174 363.0736 489.9039 364.0396 489.99998 365.01509 490 366Z"/>
<use data-text="B" xlink:href="#font_3_37" transform="matrix(12.012012,0,0,-12.012012,389.46369,335.96098)" fill="#333333"/>
<use data-text="o" xlink:href="#font_3_82" transform="matrix(12.012012,0,0,-12.012012,397.47569,335.96098)" fill="#333333"/>
<use data-text="b" xlink:href="#font_3_69" transform="matrix(12.012012,0,0,-12.012012,404.15437,335.96098)" fill="#333333"/>
</g>
</svg>
